<?xml version="1.0" encoding="utf-8"?>
<!-- Generator: Adobe Illustrator 25.0.0, SVG Export Plug-In . SVG Version: 6.00 Build 0)  -->
<svg version="1.1" id="Layer_1" xmlns="http://www.w3.org/2000/svg" xmlns:xlink="http://www.w3.org/1999/xlink" x="0px" y="0px"
	 viewBox="0 0 485.7 254.8" style="enable-background:new 0 0 485.7 254.8;" xml:space="preserve">
<style type="text/css">
	.st0{fill:#F15A29;}
	.st1{display:none;fill:none;stroke:#000000;stroke-width:2;stroke-miterlimit:10;}
	.st2{fill:#FFFFFF;stroke:#000000;stroke-width:1.5;stroke-miterlimit:10;}
	.st3{display:none;}
	.st4{display:inline;}
	.st5{fill:none;}
	.st6{fill:#FFFFFF;stroke:#000000;stroke-width:0.5;stroke-miterlimit:10;}
</style>
<g id="Track">
	<g id="Track_1_">
		<path d="M336.5,238.6l19.1-35.9h2.7c41.5,0,75.3-33.8,75.3-75.3s-33.8-75.3-75.3-75.3h-312L27.1,16.2h331.1
			c61.3,0,111.2,49.9,111.2,111.2c0,61.3-49.9,111.2-111.2,111.2H336.5z"/>
		<path class="st0" d="M358.3,32.5c52.3,0,94.9,42.6,94.9,94.9c0,50.5-39.7,92-89.5,94.8l1.9-3.5c47.1-3.7,84.3-43.2,84.3-91.3
			c0-50.5-41.1-91.5-91.5-91.5H56l-1.8-3.4L358.3,32.5 M358.3,0H0l30.7,57.3l4.7,8.8l1.2,2.3h321.7c32.6,0,59,26.4,59,59
			s-26.4,59.1-59,59.1h-12.4l-36.4,68.4h48.8c70.4,0,127.4-57.1,127.4-127.4S428.6,0,358.3,0L358.3,0z"/>
		<path d="M358.3,2c33.5,0,65,13,88.7,36.7c23.7,23.7,36.7,55.2,36.7,88.7s-13,65-36.7,88.7c-23.7,23.7-55.2,36.7-88.7,36.7h-45.5
			l34.2-64.4h11.2c33.7,0,61-27.4,61-61.1s-27.4-61-61-61H37.8l-0.6-1.2l-4.7-8.8L3.3,2H358.3 M358.3,0H0l30.7,57.3l4.7,8.8l1.2,2.3
			h321.7c32.6,0,59,26.4,59,59s-26.4,59.1-59,59.1h-12.4l-36.4,68.4h48.8c70.4,0,127.4-57.1,127.4-127.4S428.6,0,358.3,0L358.3,0z"
			/>
	</g>
	<path id="Arrow_Top" d="M57.3,25.9c-0.4,2.8-0.7,5.1-1.1,8.2H42.8c2.2-0.5,5.3-1.4,8.6-3.4C54,29.1,56,27.3,57.3,25.9z"/>
	<path id="Arrow_Bottom" d="M57.3,42.2c-1.3-1.4-2.3-3.2-5-4.8c-3.3-2-7.4-2.9-9.6-3.4h13.5C56.6,36.8,56.9,39.5,57.3,42.2z"/>
	<path class="st1" d="M47,98.8H3.3l346.2,0.4c50.7,4.3,88.9,47.9,86.8,96.8c-1.7,41.1-31.6,76.5-71.9,86.4
		c-6.8,1.7-13.7,2.4-20.7,2.5l-31.4,0.4"/>
</g>
<g id="VT">
	<path id="VT_Outer" class="st0" d="M355.1,98.9l-153.4,0c-12.2,0-24.3,0-36.5,0c-1.3,0-2.3,0.1-3,1.4c-8,14.4-16,28.7-24.1,43
		c-0.6,1-1.1,2-1.9,3.2c-0.5-0.8-0.9-1.2-1.2-1.7c-3.3-6.1-6.6-12.2-9.9-18.3c-4.6-8.6-9.3-17.3-13.9-25.9c-0.7-1.3-1.5-1.8-3-1.8
		c-17.7,0.1-35.5,0-53.2,0h-2.2c13.6,25.4,27.1,50.7,40.6,75.9c12,22.5,24,44.9,36.1,67.4c2,3.8,4,7.5,6,11.2c0.3,0.5,0.5,1,0.8,1.4
		c0.4-0.6,0.6-1,0.9-1.4c0.1-0.1,0.1-0.2,0.2-0.4c4-7.4,8-14.7,11.9-22.1c1.8-3.2,3.5-6.5,5.2-9.7c5.6-10.3,11.2-20.6,16.8-30.9
		c7.2-13.3,14.4-26.6,21.5-39.9c0.6-1.2,1.4-1.6,2.8-1.6c2.3,0,4.6,0,6.9,0c1.4,0,2.7,0,4,0c11.7,0,23.4,0,35.1,0l2.3,0
		c-7.4,13.7-14.9,27.5-22.2,41.1v0c-11.4,21.1-22.7,42.2-34.1,63.4c0.9,0.1,1.5,0.1,2,0.1c18,0,36,0,54.1,0c0.4,0,0.8,0,1.1-0.1
		c0.7-0.2,1.1-0.6,1.5-1.4c1.4-2.9,3-5.7,4.5-8.5c2.4-4.5,4.8-9.1,7.2-13.6c6.3-11.8,12.6-23.6,18.9-35.3c4.8-9,9.5-17.9,14.3-26.9
		c3.1-5.8,6.2-11.7,9.3-17.5c0.6-1.2,1.4-1.6,2.7-1.6c15.5,0,31.1,0,46.6,0.1c1.8,0,3.6,0,5.4,0c0.9,0,1.6-0.1,2.2-0.5
		c0.3-0.2,0.6-0.5,0.8-0.7c0.3-0.4,0.5-0.7,0.5-0.8c0.8-1.6,11.2-20.9,25.5-47.6C384.3,98.9,355.1,98.9,355.1,98.9z M358.3,139.9
		c-0.2,0.4-0.5,0.9-0.7,1.3c-1.4,2.6-2.9,3.8-6,3.8c-0.4,0-0.9,0-1.3,0c-16.3-0.2-32.6-0.1-48.9-0.1c-1.5,0-2.4,0.5-3.1,1.9
		c-3.2,6.1-6.4,12.1-9.6,18.2c-5.8,10.8-11.5,21.6-17.3,32.4c-5.4,10.1-10.8,20.3-16.2,30.4v0c-2.7,5.1-5.4,10.1-8.1,15.1
		c-1,2-2,4-3.2,5.8c-0.4,0.6-1.4,1.2-2.1,1.2c-15.5,0.1-31,0.1-46.6,0.1c-0.4,0-0.7-0.1-1.6-0.3c10.1-18.7,20.1-37.4,30.2-56.1
		c8.6-16.1,17.4-32.3,26.1-48.4h-2.1c-14,0-28,0-42,0c-0.9,0-1.9,0-2.8,0c-3.2,0-6.4,0-9.6,0c-1.4,0-2.2,0.5-2.9,1.7
		c-9.6,17.9-19.3,35.9-29,53.8c-6.2,11.5-12.4,22.9-18.6,34.4c-1.9,3.4-3.7,6.9-5.6,10.3c-0.3,0.5-0.6,0.9-1.1,1.8
		c-1.2-2.2-2.3-4.4-3.5-6.5c-12.1-22.6-24.1-45.1-36.2-67.6c-12.5-23.4-25.1-46.8-37.6-70.3c1-0.1,1.5-0.2,2.1-0.2
		c15.1,0,30.1,0,45.2,0c1.2,0,2,0.4,2.6,1.6c5.2,9.6,10.3,19.3,15.5,28.9c3.4,6.4,6.9,12.8,10.3,19.2c0.3,0.6,0.7,1.2,1.3,2.2
		c1.9-3.4,3.5-6.2,5.2-9.1c7.1-12.6,14.1-25.2,21.2-37.8c0.7-1.2,1.4-2.3,1.9-3.5c0.5-1.1,1.3-1.4,2.4-1.4c0.4,0,0.8,0,1.2,0H375
		c3.4,0,3.3,0,1.7,3C370.5,116.9,364.3,128.3,358.3,139.9z"/>
	<path id="VT_Middle" d="M293.3,106.5c-41.4,0-82.8,0-124.1,0c-1.4,0-2.3,0.4-3,1.7c-1.6,3.2-3.5,6.3-5.2,9.5
		c-8.1,14.4-16.1,28.8-24.2,43.2c-0.5,0.9-1.3,0.9-1.8,0c-2.4-4.3-4.7-8.7-7.1-13c-7.2-13.3-14.3-26.7-21.5-40
		c-0.5-1-1.1-1.3-2.2-1.3c-12.3,0-24.7,0-37,0c-0.5,0-1.1,0.1-1.9,0.2c23.7,44.3,47.3,88.3,70.9,132.6c0.4-0.7,0.8-1.1,1-1.6
		c10.4-19.1,20.7-38.3,31.1-57.4c6.7-12.4,13.4-24.8,20.1-37.2c0.6-1,1.3-1.3,2.4-1.3c21.1,0,42.2,0,63.2,0c0.3,0,0.6,0,0.9,0.1
		c0.3,0,0.6,0.1,1,0.1c0.1,0,0.1,0,0.2,0c-18.8,34.8-37.3,69.4-56.1,104.2c0.9,0.1,1.5,0.1,2.1,0.1c12.4,0,24.7,0,37.1,0
		c1.2,0,1.9-0.3,2.5-1.4c9.1-17.1,18.2-34.2,27.3-51.3c9-16.8,18-33.6,26.9-50.4c0.7-1.4,1.5-1.9,3.1-1.9c17.3,0.1,34.6,0,51.9,0.1
		h0.7c1.2,0,1.9-0.3,2.5-1.4c1.5-2.8,3-5.6,4.5-8.4c2-3.8,4.1-7.5,6.1-11.3c2.4-4.4,4.7-8.8,7.2-13.6L293.3,106.5L293.3,106.5z
		 M375,102.5H167.9c-0.4,0-0.8,0-1.2,0c-1.1-0.1-1.9,0.3-2.4,1.4c-0.6,1.2-1.3,2.3-1.9,3.5c-7.1,12.6-14.1,25.2-21.2,37.8
		c-1.6,2.9-3.3,5.8-5.2,9.1c-0.6-1-1-1.6-1.3-2.2c-3.4-6.4-6.9-12.8-10.3-19.2c-5.2-9.6-10.3-19.2-15.5-28.9
		c-0.6-1.2-1.4-1.6-2.6-1.6c-15.1,0-30.1,0-45.2,0c-0.6,0-1.1,0.1-2.1,0.2c12.6,23.5,25.1,46.9,37.6,70.3c12,22.5,24.1,45,36.2,67.6
		c1.2,2.2,2.3,4.4,3.5,6.5c0.6-0.9,0.9-1.3,1.1-1.8c1.9-3.4,3.7-6.9,5.6-10.3c6.2-11.5,12.4-22.9,18.6-34.4
		c9.7-17.9,19.4-35.9,29-53.8c0.7-1.2,1.4-1.7,2.9-1.7c3.2,0,6.4,0,9.6,0c0.9,0,1.9,0,2.8,0c14,0,28,0,42,0h2.1
		c-8.7,16.1-17.4,32.4-26.1,48.4c-10.1,18.7-20.1,37.4-30.2,56.1c0.8,0.1,1.2,0.3,1.6,0.3c15.5,0,31,0,46.6-0.1
		c0.7,0,1.7-0.6,2.1-1.2c1.2-1.9,2.2-3.9,3.2-5.8c2.7-5.1,5.4-10.1,8.1-15.1v0c5.4-10.1,10.8-20.3,16.2-30.4
		c5.8-10.8,11.5-21.6,17.3-32.4c3.2-6.1,6.4-12.1,9.6-18.2c0.7-1.4,1.6-1.9,3.1-1.9c16.3,0.1,32.6-0.1,48.9,0.1c0.4,0,0.9,0,1.3,0
		c3.2,0,4.7-1.1,6-3.8c0.2-0.4,0.5-0.9,0.7-1.3c6-11.5,12.2-23,18.4-34.4C378.3,102.5,378.3,102.5,375,102.5z"/>
	<path id="VT_Inner" class="st2" d="M371.6,106.5c-2.5,4.8-4.9,9.2-7.2,13.6c-3.5,6.6-7.1,13.1-10.6,19.6c-0.6,1.1-1.3,1.4-2.5,1.4
		c-17.5,0-35,0-52.6-0.1c-1.5,0-2.3,0.5-3.1,1.9c-8.9,16.8-17.9,33.6-26.9,50.4c-9.1,17.1-18.2,34.2-27.3,51.3
		c-0.6,1.1-1.3,1.4-2.5,1.4c-12.4,0-24.7,0-37.1,0c-0.6,0-1.2-0.1-2.1-0.1c18.7-34.8,37.2-69.5,56-104.3c0,0-44.1-0.1-65.2-0.1
		c-1.1,0-1.9,0.3-2.4,1.3c-6.7,12.4-13.4,24.8-20.1,37.2c-10.4,19.1-20.7,38.3-31.1,57.4c-0.3,0.5-0.6,0.9-1,1.6
		C112.4,195,88.8,151,65.1,106.7c0.8-0.1,1.4-0.2,1.9-0.2c12.3,0,24.7,0,37,0c1.1,0,1.7,0.3,2.2,1.3c7.1,13.3,14.3,26.7,21.5,40
		c2.3,4.4,4.7,8.7,7.1,13c0.5,0.9,1.3,0.9,1.8,0c8.1-14.4,16.1-28.8,24.2-43.2c1.8-3.1,3.6-6.2,5.2-9.5c0.7-1.3,1.6-1.7,3-1.7
		c41.4,0,82.8,0,124.1,0L371.6,106.5L371.6,106.5z"/>
</g>
<g id="Text" class="st3">
	<g class="st4">
		<rect x="186.2" y="1" class="st5" width="176" height="60.7"/>
		<path class="st6" d="M198.9,28c0,1.4-0.7,2.1-2.1,2.1h-7.1c-1.4,0-2-0.7-2-2.1V9.3c0-1.4,0.7-2.1,2-2.1h7.1c1.4,0,2.1,0.7,2.1,2.1
			v5.4h-3.4v-4.5H191v17h4.4v-4.8h3.4V28z"/>
		<path class="st6" d="M213.3,30.1h-3.6l-3.8-10.6v-2.1h3.4v-7.3H205v20h-3.4V7.2h9.1c1.4,0,2.1,0.7,2.1,2.1v8.3c0,1-0.3,1.6-1,1.9
			c-0.4,0.1-1.1,0.2-2.2,0.2L213.3,30.1z"/>
		<path class="st6" d="M226.9,28c0,1.4-0.7,2.1-2.1,2.1h-7.4c-1.4,0-2-0.7-2-2.1V9.3c0-1.4,0.7-2.1,2-2.1h7.4c1.4,0,2.1,0.7,2.1,2.1
			V28z M223.5,27.2v-17h-4.7v17L223.5,27.2L223.5,27.2z"/>
		<path class="st6" d="M240.7,28c0,1.4-0.7,2.1-2.1,2.1h-6.9c-1.4,0-2.1-0.7-2.1-2.1v-5.5h3.4v4.7h4.2v-4.5l-6.9-6.5
			c-0.5-0.5-0.8-1.1-0.8-1.8V9.3c0-1.4,0.7-2.1,2.1-2.1h6.9c1.4,0,2.1,0.7,2.1,2.1v5.1h-3.4v-4.3h-4.2v4.1l6.9,6.5
			c0.5,0.5,0.8,1.1,0.8,1.9V28z"/>
		<path class="st6" d="M254.4,28c0,1.4-0.7,2.1-2.1,2.1h-6.9c-1.4,0-2.1-0.7-2.1-2.1v-5.5h3.4v4.7h4.2v-4.5l-6.9-6.5
			c-0.5-0.5-0.8-1.1-0.8-1.8V9.3c0-1.4,0.7-2.1,2.1-2.1h6.9c1.4,0,2.1,0.7,2.1,2.1v5.1H251v-4.3h-4.2v4.1l6.9,6.5
			c0.5,0.5,0.8,1.1,0.8,1.9V28z"/>
		<path class="st6" d="M279.2,28c0,1.4-0.7,2.1-2.1,2.1H270c-1.4,0-2-0.7-2-2.1V9.3c0-1.4,0.7-2.1,2-2.1h7.1c1.4,0,2.1,0.7,2.1,2.1
			v5.4h-3.4v-4.5h-4.4v17h4.4v-4.8h3.4V28z"/>
		<path class="st6" d="M293.5,28c0,1.4-0.7,2.1-2.1,2.1h-7.4c-1.4,0-2-0.7-2-2.1V9.3c0-1.4,0.7-2.1,2-2.1h7.4c1.4,0,2.1,0.7,2.1,2.1
			V28z M290,27.2v-17h-4.7v17L290,27.2L290,27.2z"/>
		<path class="st6" d="M307.7,28c0,1.4-0.7,2.1-2.1,2.1h-7.3c-1.4,0-2.1-0.7-2.1-2.1V7.2h3.4v20h4.6v-20h3.4V28z"/>
		<path class="st6" d="M322,30.1h-3l-5.5-14.4c0.1,0.7,0.2,1.2,0.2,1.7v12.8h-3.3V7.2h3l5.5,14.1c-0.1-0.7-0.2-1.2-0.2-1.7V7.2h3.3
			V30.1z"/>
		<path class="st6" d="M334.8,10.2H331v19.9h-3.4V10.2h-3.8v-3h11V10.2z"/>
		<path class="st6" d="M348.2,30.1h-3.6l-3.8-10.6v-2.1h3.4v-7.3h-4.3v20h-3.4V7.2h9.1c1.4,0,2.1,0.7,2.1,2.1v8.3c0,1-0.3,1.6-1,1.9
			c-0.4,0.1-1.1,0.2-2.2,0.2L348.2,30.1z"/>
		<path class="st6" d="M361.9,7.3l-3,9.6c-0.4,1-0.9,2.5-1.5,4.8v8.4h-3.4v-8.4c-0.2-0.8-0.4-1.6-0.7-2.4c-0.5-1.5-0.8-2.2-0.8-2.4
			l-3-9.6c0,0,0-0.1,0-0.1h3.5l2.7,10l2.7-10h3.5C361.9,7.3,361.9,7.3,361.9,7.3z"/>
		<path class="st6" d="M197.5,41.7h-3.8v19.9h-3.4V41.7h-3.8v-3h11V41.7z"/>
		<path class="st6" d="M213.4,61.6h-3.6L206,51v-2.1h3.4v-7.3h-4.3v20h-3.4V38.7h9.1c1.4,0,2.1,0.7,2.1,2.1v8.3c0,1-0.3,1.6-1,1.9
			c-0.4,0.2-1.1,0.2-2.2,0.2L213.4,61.6z"/>
		<path class="st6" d="M229.5,61.6h-3.4l-0.7-4.3h-4.3l-0.7,4.3H217v-0.1l4.4-22.9h3.6L229.5,61.6z M224.9,54.3L223.2,44l-1.7,10.3
			H224.9z"/>
		<path class="st6" d="M245,59.5c0,1.4-0.7,2.1-2.1,2.1h-7.1c-1.4,0-2-0.7-2-2.1V40.8c0-1.4,0.7-2.1,2-2.1h7.1
			c1.4,0,2.1,0.7,2.1,2.1v5.4h-3.4v-4.5h-4.4v17h4.4v-4.8h3.4V59.5z"/>
		<path class="st6" d="M261.6,61.6h-3.8l-4.4-10.2v10.2h-3.4V38.7h3.4v9.7l3.8-9.7h3.8v0.2l-4.7,10.9L261.6,61.6z"/>
		<path class="st6" d="M286.5,51.2h-1.6v10.5h-9c-1.4,0-2.1-0.7-2.1-2.1v-7c0-0.7,0.2-1.3,0.7-1.8c0.6-0.4,1.1-0.8,1.7-1.2
			c-0.6-0.4-1.1-0.8-1.7-1.1c-0.5-0.4-0.7-1-0.7-1.7v-6c0-1.4,0.7-2.1,2.1-2.1h7c1.4,0,2.1,0.7,2.1,2.1v4.8h-3.4v-4h-4.4v5.5
			l1.5,1.1h7.6L286.5,51.2L286.5,51.2z M281.6,58.7v-7.6h-2.8l-1.6,1.1v6.5L281.6,58.7L281.6,58.7z"/>
		<path class="st6" d="M308.9,41.7h-5.9v6.8h5.1v3h-5.1v10.1h-3.4V38.7h9.4L308.9,41.7L308.9,41.7z"/>
		<path class="st6" d="M316.7,61.6h-3.4V38.7h3.4V61.6z"/>
		<path class="st6" d="M331.4,61.6h-9.5V38.7h9.4v3h-6v6.7h5.2v3h-5.2v7.2h6.1V61.6z"/>
		<path class="st6" d="M345.1,61.6h-9V38.7h3.4v19.9h5.6L345.1,61.6L345.1,61.6z"/>
		<path class="st6" d="M360.9,57.3c0,1.3-0.4,2.4-1.2,3.2c-0.8,0.8-1.9,1.2-3.2,1.2h-7V38.7h7c1.4,0,2.4,0.4,3.2,1.2
			s1.2,1.8,1.2,3.2V57.3z M357.5,56.7V43.6c0-1.3-0.7-1.9-2-1.9h-2.5v17h2.5C356.8,58.7,357.5,58,357.5,56.7z"/>
	</g>
	<g class="st4">
		<rect x="74.5" y="7.2" class="st5" width="108.1" height="55.4"/>
		<path class="st6" d="M100.9,58.4c0,1.2-0.4,2.1-1.1,2.8c-0.8,0.7-1.7,1.1-2.8,1.1H82.8c-1.2,0-2.1-0.4-2.8-1.1
			c-0.7-0.7-1.1-1.7-1.1-2.8V11.1c0-1.1,0.4-2.1,1.1-2.8c0.7-0.7,1.7-1.1,2.8-1.1h14.2c1.2,0,2.1,0.4,2.8,1.1s1.1,1.7,1.1,2.8v12.8
			H96V11.6H83.8v46.4H96V44.4h4.9L100.9,58.4L100.9,58.4z"/>
		<path class="st6" d="M123.4,62.3h-17.6v-55h4.9v50.7h12.7V62.3z"/>
		<path class="st6" d="M149.3,58.4c0,1.2-0.4,2.1-1.1,2.8s-1.7,1.1-2.8,1.1h-15c-1.1,0-2.1-0.4-2.8-1.1c-0.7-0.7-1.1-1.7-1.1-2.8
			V7.2h4.9v50.7h13V7.2h4.9V58.4z"/>
		<path class="st6" d="M176.6,58.4c0,1.2-0.4,2.1-1.1,2.8c-0.7,0.7-1.7,1.1-2.8,1.1h-18.1v-55h18c1.1,0,2.1,0.4,2.8,1.1
			c0.7,0.7,1.1,1.7,1.1,2.8v16.4c0,1.5-0.7,2.7-2,3.7c-1.3,0.8-2.6,1.6-3.9,2.3l4.1,2.7c1.2,0.8,1.8,1.9,1.8,3.5V58.4z M171.5,28.1
			V11.6h-12.1v19.9h7.2L171.5,28.1z M171.6,57.9v-19l-5-3.2h-7.3v22.2H171.6z"/>
	</g>
</g>
</svg>
