<?xml version="1.0" encoding="utf-8"?>
<!-- Generator: Adobe Illustrator 25.0.0, SVG Export Plug-In . SVG Version: 6.00 Build 0)  -->
<svg version="1.1" xmlns="http://www.w3.org/2000/svg" xmlns:xlink="http://www.w3.org/1999/xlink" x="0px" y="0px"
	 viewBox="0 0 485.69 254.83" style="enable-background:new 0 0 485.69 254.83;" xml:space="preserve">
<style type="text/css">
	.st0{display:none;}
	.st1{display:inline;}
	.st2{fill:#F15A29;}
	.st3{display:none;fill:none;stroke:#000000;stroke-width:2;stroke-miterlimit:10;}
	.st4{fill:#FFFFFF;stroke:#000000;stroke-width:1.5;stroke-miterlimit:10;}
	.st5{fill:none;}
	.st6{stroke:#F15A29;stroke-width:0.5;stroke-miterlimit:10;}
	.st7{stroke:#000000;stroke-miterlimit:10;}
</style>
<g id="Background" class="st0">
	<path id="BG" class="st1" d="M-88.37-203.8v662.43h662.43V-203.8H-88.37z M358.27,254.83h-48.79l4.25-8l32.11-60.37h12.43
		c32.61,0,59.04-26.44,59.04-59.05s-26.43-59.04-59.04-59.04H36.58l-1.21-2.26l-4.7-8.78L0,0h358.27
		c70.37,0,127.42,57.04,127.42,127.41S428.64,254.83,358.27,254.83z M50.07,29.44c-3.32,1.99-6.42,2.93-8.6,3.4
		c2.18,0.48,6.28,1.42,9.6,3.4c2.64,1.59,3.6,3.34,4.95,4.77c-0.36-2.72-0.72-5.45-1.08-8.17c0.4-3.01,0.72-5.39,1.08-8.16
		C54.67,26.1,52.71,27.86,50.07,29.44z"/>
</g>
<g id="Track">
	<g id="Track_1_">
		<path d="M336.53,238.58l19.08-35.87h2.67c41.51,0,75.29-33.78,75.29-75.3c0-41.52-33.78-75.29-75.29-75.29H46.31L27.12,16.25
			h331.15c61.3,0,111.17,49.87,111.17,111.16c0,61.3-49.87,111.17-111.17,111.17H336.53z"/>
		<path class="st2" d="M358.27,32.5c52.34,0,94.92,42.58,94.92,94.91c0,50.53-39.69,91.97-89.54,94.77l1.86-3.5
			c47.1-3.71,84.29-43.23,84.29-91.27c0-50.48-41.06-91.54-91.54-91.54H56.05l-1.8-3.37H358.27 M358.27,0H0l30.67,57.33l4.7,8.78
			l1.21,2.26h321.69c32.61,0,59.04,26.43,59.04,59.04s-26.43,59.05-59.04,59.05h-12.43l-36.36,68.37h48.79
			c70.37,0,127.42-57.05,127.42-127.42S428.64,0,358.27,0L358.27,0z"/>
		<path d="M358.27,2c33.5,0,65,13.04,88.68,36.73c23.69,23.69,36.74,55.18,36.74,88.68c0,33.5-13.05,65-36.74,88.68
			c-23.69,23.69-55.18,36.74-88.68,36.74h-45.46l34.23-64.37h11.23c33.66,0,61.04-27.39,61.04-61.05
			c0-33.66-27.38-61.04-61.04-61.04H37.78l-0.64-1.2l-4.7-8.78L3.34,2H358.27 M358.27,0H0l30.67,57.33l4.7,8.78l1.21,2.26h321.69
			c32.61,0,59.04,26.43,59.04,59.04s-26.43,59.05-59.04,59.05h-12.43l-36.36,68.37h48.79c70.37,0,127.42-57.05,127.42-127.42
			S428.64,0,358.27,0L358.27,0z"/>
	</g>
	<path id="Arrow_Top" d="M57.3,25.92c-0.36,2.77-0.68,5.15-1.08,8.16H42.75c2.18-0.47,5.28-1.41,8.6-3.4
		C53.99,29.1,55.95,27.34,57.3,25.92z"/>
	<path id="Arrow_Bottom" d="M57.3,42.25c-1.35-1.43-2.31-3.18-4.95-4.77c-3.32-1.98-7.42-2.92-9.6-3.4h13.47
		C56.58,36.8,56.94,39.53,57.3,42.25z"/>
	<path class="st3" d="M46.96,98.8H3.26l346.17,0.37c50.69,4.29,88.88,47.94,86.83,96.8c-1.73,41.12-31.57,76.52-71.89,86.45
		c-6.77,1.67-13.74,2.42-20.71,2.52l-31.44,0.43"/>
</g>
<g id="VT">
	<path id="VT_Outer" class="st2" d="M355.06,98.88l-153.43-0.03c-12.16,0-24.32,0-36.48-0.01c-1.28,0-2.26,0.09-3.02,1.45
		c-7.97,14.36-16.02,28.69-24.05,43.02c-0.56,1-1.15,1.97-1.89,3.25c-0.52-0.75-0.89-1.2-1.16-1.7c-3.29-6.11-6.57-12.21-9.86-18.32
		c-4.64-8.64-9.28-17.27-13.91-25.92c-0.68-1.27-1.46-1.81-2.98-1.8c-17.74,0.06-35.48,0.03-53.22,0.03h-2.24
		c13.57,25.37,27.09,50.65,40.61,75.91c12.01,22.46,24.02,44.91,36.05,67.39c2,3.75,4,7.49,6.01,11.24
		c0.26,0.48,0.51,0.96,0.77,1.44c0.36-0.6,0.64-1.03,0.88-1.44c0.08-0.12,0.14-0.23,0.21-0.35c3.99-7.36,7.97-14.72,11.95-22.08
		c1.75-3.23,3.5-6.47,5.25-9.7c5.59-10.3,11.2-20.58,16.77-30.89c7.19-13.28,14.36-26.57,21.5-39.88c0.63-1.17,1.42-1.64,2.76-1.64
		c2.3,0.01,4.59,0.01,6.89,0.01c1.35,0.01,2.69,0.01,4.04,0c11.71,0.02,23.42,0.01,35.13,0.02l2.3,0.03
		c-7.36,13.67-14.91,27.5-22.23,41.11v0.01c-11.36,21.1-22.7,42.18-34.1,63.36c0.95,0.05,1.49,0.09,2.03,0.09
		c18.02,0.01,36.04-0.01,54.06,0.04c0.41,0,0.76-0.04,1.06-0.13c0.67-0.19,1.14-0.61,1.54-1.41c1.44-2.88,3-5.7,4.52-8.54
		c2.42-4.53,4.83-9.06,7.25-13.59c6.28-11.78,12.57-23.56,18.85-35.35c4.78-8.97,9.55-17.94,14.31-26.91
		c3.1-5.84,6.19-11.68,9.27-17.52c0.65-1.23,1.38-1.62,2.71-1.62c15.54,0.04,31.08,0.02,46.63,0.05c1.81,0,3.62,0,5.43,0.01
		c0.9,0,1.6-0.12,2.19-0.48c0.34-0.2,0.61-0.46,0.81-0.7c0.3-0.35,0.45-0.68,0.52-0.82c0.8-1.6,11.18-20.95,25.48-47.63H355.06z
		 M358.27,139.85c-0.23,0.43-0.45,0.86-0.68,1.29c-1.38,2.65-2.87,3.8-6.05,3.76c-0.44-0.01-0.88-0.01-1.32-0.01
		c-16.3-0.17-32.61-0.06-48.91-0.11c-1.54,0-2.38,0.49-3.1,1.86c-3.21,6.06-6.42,12.12-9.64,18.17
		c-5.76,10.81-11.52,21.61-17.27,32.43c-5.39,10.14-10.78,20.29-16.17,30.44v0.01c-2.69,5.05-5.37,10.1-8.06,15.15
		c-1.04,1.96-2.02,3.97-3.21,5.84c-0.39,0.62-1.35,1.25-2.05,1.25c-15.52,0.07-31.04,0.05-46.56,0.05c-0.36,0-0.73-0.12-1.56-0.26
		c10.09-18.73,20.14-37.41,30.2-56.1c8.64-16.06,17.36-32.28,26.05-48.42h-2.05c-13.99,0-27.99,0.01-41.98-0.02
		c-0.94,0.01-1.89,0-2.83-0.01c-3.2,0.01-6.39,0-9.59-0.01c-1.43,0-2.21,0.49-2.87,1.71c-9.65,17.94-19.34,35.87-29.03,53.8
		c-6.21,11.46-12.41,22.93-18.62,34.39c-1.86,3.43-3.71,6.85-5.57,10.28c-0.26,0.48-0.59,0.92-1.15,1.79
		c-1.16-2.17-2.33-4.35-3.49-6.52c-12.07-22.57-24.11-45.08-36.15-67.6c-12.53-23.42-25.06-46.84-37.63-70.34
		c0.96-0.09,1.53-0.19,2.1-0.19c15.08-0.01,30.15,0,45.22-0.03c1.25,0,1.99,0.37,2.62,1.55c5.15,9.64,10.32,19.26,15.5,28.88
		c3.44,6.39,6.89,12.78,10.33,19.18c0.33,0.6,0.71,1.18,1.31,2.17c1.89-3.35,3.53-6.23,5.16-9.12
		c7.06-12.59,14.13-25.18,21.19-37.77c0.66-1.16,1.37-2.29,1.93-3.5c0.5-1.09,1.29-1.45,2.39-1.37c0.39,0.02,0.78,0,1.17,0h207.08
		c3.35,0,3.31,0.01,1.71,2.97C370.51,116.89,364.3,128.33,358.27,139.85z"/>
	<path id="VT_Middle" d="M293.3,106.54c-41.38,0-82.77,0.01-124.15-0.03c-1.45,0-2.33,0.36-3.03,1.71
		c-1.65,3.21-3.49,6.32-5.25,9.46c-8.07,14.39-16.12,28.78-24.19,43.16c-0.51,0.91-1.33,0.9-1.83-0.01
		c-2.36-4.33-4.72-8.67-7.05-13.02c-7.18-13.33-14.35-26.66-21.49-40.01c-0.52-0.97-1.14-1.29-2.23-1.28
		c-12.34,0.04-24.69,0.02-37.04,0.03c-0.53,0-1.06,0.09-1.91,0.16c23.7,44.3,47.26,88.33,70.93,132.57
		c0.44-0.69,0.76-1.14,1.02-1.61c10.37-19.14,20.73-38.28,31.09-57.43c6.7-12.4,13.4-24.81,20.07-37.24
		c0.55-1.02,1.29-1.34,2.42-1.34c21.08,0.02,42.16,0.01,63.24,0.02c0.3,0,0.59,0.04,0.94,0.09c0.27,0.03,0.58,0.08,0.96,0.13
		c0.05,0.01,0.11,0.01,0.17,0.02c-18.75,34.84-37.33,69.36-56.06,104.16c0.91,0.07,1.5,0.15,2.08,0.15
		c12.35,0.01,24.7-0.01,37.05,0.02c1.18,0.01,1.9-0.32,2.49-1.44c9.07-17.13,18.18-34.23,27.29-51.33
		c8.96-16.8,17.95-33.59,26.86-50.43c0.73-1.37,1.51-1.87,3.06-1.87c17.29,0.06,34.58,0.03,51.86,0.06h0.71
		c1.2,0,1.88-0.33,2.47-1.45c1.48-2.8,2.98-5.6,4.49-8.39c2.02-3.75,4.06-7.5,6.08-11.26c2.37-4.4,4.69-8.81,7.24-13.6H293.3z
		 M374.98,102.47H167.9c-0.39,0-0.78,0.02-1.17,0c-1.1-0.08-1.89,0.28-2.39,1.37c-0.56,1.21-1.27,2.34-1.93,3.5
		c-7.06,12.59-14.13,25.18-21.19,37.77c-1.63,2.89-3.27,5.77-5.16,9.12c-0.6-0.99-0.98-1.57-1.31-2.17
		c-3.44-6.4-6.89-12.79-10.33-19.18c-5.18-9.62-10.35-19.24-15.5-28.88c-0.63-1.18-1.37-1.55-2.62-1.55
		c-15.07,0.03-30.14,0.02-45.22,0.03c-0.57,0-1.14,0.1-2.1,0.19c12.57,23.5,25.1,46.92,37.63,70.34
		c12.04,22.52,24.08,45.03,36.15,67.6c1.16,2.17,2.33,4.35,3.49,6.52c0.56-0.87,0.89-1.31,1.15-1.79c1.86-3.43,3.71-6.85,5.57-10.28
		c6.21-11.46,12.41-22.93,18.62-34.39c9.69-17.93,19.38-35.86,29.03-53.8c0.66-1.22,1.44-1.71,2.87-1.71
		c3.2,0.01,6.39,0.02,9.59,0.01c0.94,0.01,1.89,0.02,2.83,0.01c13.99,0.03,27.99,0.02,41.98,0.02h2.05
		c-8.69,16.14-17.41,32.36-26.05,48.42c-10.06,18.69-20.11,37.37-30.2,56.1c0.83,0.14,1.2,0.26,1.56,0.26
		c15.52,0,31.04,0.02,46.56-0.05c0.7,0,1.66-0.63,2.05-1.25c1.19-1.87,2.17-3.88,3.21-5.84c2.69-5.05,5.37-10.1,8.06-15.15v-0.01
		c5.39-10.15,10.78-20.3,16.17-30.44c5.75-10.82,11.51-21.62,17.27-32.43c3.22-6.05,6.43-12.11,9.64-18.17
		c0.72-1.37,1.56-1.86,3.1-1.86c16.3,0.05,32.61-0.06,48.91,0.11c0.44,0,0.88,0,1.32,0.01c3.18,0.04,4.67-1.11,6.05-3.76
		c0.23-0.43,0.45-0.86,0.68-1.29c6.03-11.52,12.24-22.96,18.42-34.41C378.29,102.48,378.33,102.47,374.98,102.47z"/>
	<path id="VT_Inner" class="st4" d="M371.59,106.54c-2.55,4.79-4.87,9.2-7.24,13.6c-3.52,6.55-7.1,13.07-10.57,19.65
		c-0.59,1.12-1.27,1.45-2.47,1.45c-17.52-0.03-35.04,0-52.57-0.06c-1.55,0-2.33,0.5-3.06,1.87c-8.91,16.84-17.9,33.63-26.86,50.43
		c-9.11,17.1-18.22,34.2-27.29,51.33c-0.59,1.12-1.31,1.45-2.49,1.44c-12.35-0.03-24.7-0.01-37.05-0.02c-0.58,0-1.17-0.08-2.08-0.15
		c18.73-34.8,37.21-69.47,55.96-104.31c0,0-44.13-0.09-65.21-0.11c-1.13,0-1.87,0.32-2.42,1.34c-6.67,12.43-13.37,24.84-20.07,37.24
		c-10.36,19.15-20.72,38.29-31.09,57.43c-0.26,0.47-0.58,0.92-1.02,1.61c-23.67-44.24-47.23-88.27-70.93-132.57
		c0.85-0.07,1.38-0.16,1.91-0.16c12.35-0.01,24.7,0.01,37.04-0.03c1.09-0.01,1.71,0.31,2.23,1.28
		c7.14,13.35,14.31,26.68,21.49,40.01c2.33,4.35,4.69,8.69,7.05,13.02c0.5,0.91,1.32,0.92,1.83,0.01
		c8.07-14.38,16.12-28.77,24.19-43.16c1.76-3.14,3.6-6.25,5.25-9.46c0.7-1.35,1.58-1.71,3.03-1.71
		c41.38,0.04,82.77,0.03,124.15,0.03H371.59z"/>
</g>
<g id="Text">
	<g>
		<rect x="186.19" y="2.02" class="st5" width="176.05" height="60.66"/>
		<path class="st6" d="M198.85,29.03c0,1.4-0.7,2.09-2.09,2.09h-7.15c-1.36,0-2.04-0.7-2.04-2.09V10.31c0-1.41,0.68-2.11,2.04-2.11
			h7.15c1.4,0,2.09,0.7,2.09,2.11v5.36h-3.41v-4.53H191v17.04h4.44v-4.82h3.41V29.03z"/>
		<path class="st6" d="M213.28,31.13h-3.57l-3.78-10.65v-2.07h3.37v-7.27h-4.32v19.98h-3.43V8.2h9.1c1.38,0,2.07,0.7,2.07,2.11v8.33
			c0,0.97-0.33,1.59-0.98,1.88c-0.35,0.15-1.09,0.22-2.23,0.22L213.28,31.13z"/>
		<path class="st6" d="M226.93,29.03c0,1.4-0.69,2.09-2.08,2.09h-7.44c-1.36,0-2.04-0.7-2.04-2.09V10.31c0-1.41,0.68-2.11,2.04-2.11
			h7.44c1.39,0,2.08,0.7,2.08,2.11V29.03z M223.5,28.18V11.15h-4.7v17.04H223.5z"/>
		<path class="st6" d="M240.67,29.03c0,1.4-0.69,2.09-2.08,2.09h-6.9c-1.38,0-2.07-0.7-2.07-2.09v-5.46h3.43v4.67h4.19v-4.5
			l-6.87-6.5c-0.5-0.48-0.75-1.09-0.75-1.83v-5.1c0-1.41,0.69-2.11,2.07-2.11h6.9c1.39,0,2.08,0.69,2.08,2.08v5.13h-3.43v-4.32
			h-4.19v4.15l6.87,6.47c0.5,0.47,0.75,1.09,0.75,1.86V29.03z"/>
		<path class="st6" d="M254.38,29.03c0,1.4-0.69,2.09-2.08,2.09h-6.9c-1.38,0-2.07-0.7-2.07-2.09v-5.46h3.43v4.67h4.19v-4.5
			l-6.87-6.5c-0.5-0.48-0.75-1.09-0.75-1.83v-5.1c0-1.41,0.69-2.11,2.07-2.11h6.9c1.39,0,2.08,0.69,2.08,2.08v5.13h-3.43v-4.32
			h-4.19v4.15l6.87,6.47c0.5,0.47,0.75,1.09,0.75,1.86V29.03z"/>
		<path class="st6" d="M279.21,29.03c0,1.4-0.7,2.09-2.09,2.09h-7.15c-1.36,0-2.04-0.7-2.04-2.09V10.31c0-1.41,0.68-2.11,2.04-2.11
			h7.15c1.4,0,2.09,0.7,2.09,2.11v5.36h-3.41v-4.53h-4.44v17.04h4.44v-4.82h3.41V29.03z"/>
		<path class="st6" d="M293.46,29.03c0,1.4-0.69,2.09-2.08,2.09h-7.44c-1.36,0-2.04-0.7-2.04-2.09V10.31c0-1.41,0.68-2.11,2.04-2.11
			h7.44c1.39,0,2.08,0.7,2.08,2.11V29.03z M290.03,28.18V11.15h-4.7v17.04H290.03z"/>
		<path class="st6" d="M307.68,29.03c0,1.4-0.7,2.09-2.11,2.09h-7.28c-1.39,0-2.08-0.7-2.08-2.09V8.2h3.43v19.98h4.61V8.2h3.43
			V29.03z"/>
		<path class="st6" d="M322.05,31.13h-3l-5.49-14.43c0.15,0.7,0.22,1.25,0.22,1.66v12.77h-3.34V8.2h3l5.49,14.14
			c-0.15-0.7-0.22-1.25-0.22-1.66V8.2h3.34V31.13z"/>
		<path class="st6" d="M334.77,11.23h-3.78v19.89h-3.41V11.23h-3.78V8.2h10.97V11.23z"/>
		<path class="st6" d="M348.24,31.13h-3.57l-3.78-10.65v-2.07h3.37v-7.27h-4.32v19.98h-3.43V8.2h9.1c1.38,0,2.07,0.7,2.07,2.11v8.33
			c0,0.97-0.33,1.59-0.98,1.88c-0.35,0.15-1.09,0.22-2.23,0.22L348.24,31.13z"/>
		<path class="st6" d="M361.87,8.33l-3.03,9.58c-0.37,0.95-0.87,2.54-1.51,4.79v8.42h-3.44V22.7c-0.16-0.76-0.38-1.57-0.67-2.42
			c-0.52-1.46-0.8-2.25-0.83-2.37l-3.02-9.58c-0.01-0.01-0.01-0.05,0-0.13h3.53l2.74,9.96l2.72-9.96h3.52
			C361.87,8.27,361.87,8.31,361.87,8.33z"/>
		<path class="st6" d="M197.53,42.73h-3.78v19.89h-3.41V42.73h-3.78V39.7h10.97V42.73z"/>
		<path class="st6" d="M213.38,62.63h-3.57l-3.78-10.65v-2.07h3.37v-7.27h-4.32v19.98h-3.43V39.7h9.1c1.38,0,2.07,0.7,2.07,2.11
			v8.33c0,0.97-0.33,1.59-0.98,1.88c-0.35,0.15-1.09,0.22-2.23,0.22L213.38,62.63z"/>
		<path class="st6" d="M229.46,62.63h-3.4l-0.69-4.35h-4.29l-0.69,4.35h-3.38v-0.06l4.44-22.9h3.6L229.46,62.63z M224.89,55.33
			l-1.67-10.34l-1.68,10.34H224.89z"/>
		<path class="st6" d="M245.03,60.53c0,1.4-0.7,2.09-2.09,2.09h-7.15c-1.36,0-2.04-0.7-2.04-2.09V41.81c0-1.41,0.68-2.11,2.04-2.11
			h7.15c1.4,0,2.09,0.7,2.09,2.11v5.36h-3.41v-4.53h-4.44v17.04h4.44v-4.82h3.41V60.53z"/>
		<path class="st6" d="M261.65,62.63h-3.78l-4.35-10.22v10.22h-3.43V39.7h3.43v9.7l3.81-9.7h3.75v0.16l-4.66,10.88L261.65,62.63z"/>
		<path class="st6" d="M286.55,52.15h-1.61v10.47h-8.98c-1.38,0-2.07-0.69-2.07-2.07v-6.99c0-0.74,0.24-1.33,0.73-1.76
			c0.58-0.39,1.15-0.78,1.73-1.16c-0.56-0.37-1.11-0.75-1.67-1.13c-0.49-0.42-0.73-0.99-0.73-1.7v-6.05c0-1.39,0.69-2.08,2.08-2.08
			h6.96c1.38,0,2.07,0.69,2.07,2.08v4.76h-3.35v-3.96h-4.35v5.55l1.55,1.08h7.65V52.15z M281.6,59.74v-7.59h-2.78l-1.57,1.11v6.47
			H281.6z"/>
		<path class="st6" d="M308.87,42.73h-5.93v6.78H308v2.97h-5.07v10.14h-3.43V39.7h9.36V42.73z"/>
		<path class="st6" d="M316.67,62.63h-3.43V39.7h3.43V62.63z"/>
		<path class="st6" d="M331.36,62.63h-9.51V39.7h9.42v3.03h-5.99v6.69h5.16v2.97h-5.16v7.19h6.08V62.63z"/>
		<path class="st6" d="M345.08,62.63h-9.01V39.7h3.43v19.86h5.58V62.63z"/>
		<path class="st6" d="M360.91,58.3c0,1.35-0.4,2.41-1.2,3.17c-0.8,0.77-1.88,1.15-3.24,1.15h-6.99V39.7h6.99
			c1.36,0,2.44,0.39,3.24,1.17c0.8,0.78,1.2,1.84,1.2,3.19V58.3z M357.47,57.73V44.56c0-1.28-0.67-1.92-2.01-1.92h-2.55v17.04h2.46
			C356.77,59.68,357.47,59.03,357.47,57.73z"/>
	</g>
	<g>
		<rect x="74.47" y="6.97" class="st5" width="108.15" height="55.42"/>
		<path class="st6" d="M100.91,58.08c0,1.15-0.38,2.09-1.12,2.81c-0.75,0.73-1.7,1.09-2.85,1.09H82.77c-1.15,0-2.09-0.36-2.81-1.09
			c-0.73-0.73-1.09-1.66-1.09-2.81V10.86c0-1.15,0.36-2.09,1.09-2.81c0.73-0.73,1.66-1.09,2.81-1.09h14.17
			c1.15,0,2.1,0.36,2.85,1.09c0.75,0.73,1.12,1.66,1.12,2.81v12.8h-4.92V11.28H83.75v46.37h12.23V44.12h4.92V58.08z"/>
		<path class="st6" d="M123.43,61.98h-17.58V6.96h4.89v50.7h12.69V61.98z"/>
		<path class="st6" d="M149.33,58.08c0,1.15-0.37,2.09-1.11,2.81s-1.68,1.09-2.83,1.09h-14.98c-1.15,0-2.09-0.36-2.81-1.09
			c-0.73-0.73-1.09-1.66-1.09-2.81V6.96h4.89v50.7h13.04V6.96h4.89V58.08z"/>
		<path class="st6" d="M176.56,58.08c0,1.15-0.36,2.09-1.09,2.81c-0.73,0.73-1.67,1.09-2.81,1.09h-18.14V6.96h18
			c1.15,0,2.09,0.36,2.81,1.09c0.73,0.73,1.09,1.66,1.09,2.81v16.35c0,1.45-0.66,2.67-1.97,3.66c-1.29,0.77-2.58,1.55-3.87,2.32
			l4.15,2.67c1.22,0.75,1.83,1.92,1.83,3.52V58.08z M171.49,27.84V11.28H159.4v19.86h7.21L171.49,27.84z M171.64,57.65V38.63
			l-4.96-3.23h-7.28v22.25H171.64z"/>
	</g>
	<rect x="158.89" y="35.07" class="st7" width="11.49" height="0.29"/>
	<g>
	</g>
	<g>
	</g>
	<g>
	</g>
	<g>
	</g>
	<g>
	</g>
	<g>
	</g>
</g>
</svg>
