<svg xmlns="http://www.w3.org/2000/svg" viewBox="0 0 270.64911 192.49517"><defs><style>.cls-1{fill:#b2b1b2;}.cls-2{fill:#e9e2d8;}.cls-3{fill:#010101;}.cls-4{fill:#b3b2b2;}.cls-5{fill:#242021;}.cls-6{fill:#e8e2d8;}.cls-7{fill:#e8e1d8;}.cls-8{fill:#c1af94;}.cls-9{fill:#e9e3d9;}.cls-10{fill:#eeeae4;}.cls-11{fill:#fcfbfa;}.cls-12{fill:#fcfcfc;}.cls-13{fill:#fbfaf9;}.cls-14{fill:#f0ece6;}.cls-15{fill:#edeae5;}.cls-16{fill:#020201;}.cls-17{fill:#f6f5f5;}.cls-18{fill:#afafaf;}.cls-19{fill:#b0b0b0;}.cls-20{fill:#f9f9f8;}.cls-21{fill:#f9f9f9;}.cls-22{fill:#c1b197;}.cls-23{fill:#b4b5b4;}</style></defs><g id="Layer_2" data-name="Layer 2"><g id="Layer_1-2" data-name="Layer 1"><path class="cls-1" d="M0,133.93846q41.92345-.02337,83.84692-.04669c5.79459-.0032,5.79459-.00284,7.91439-5.602-1.01862-.66243-2.18025-.16872-3.24924-.39325-1.3889-3.08965,1.0342-3.03941,2.79237-3.15339,4.44841-.28836,8.91521.12171,13.36609-.7185,2.10575-.39751,2.52974-1.13829,2.42-3.17158-.26812-4.96843-1.81131-9.76526-1.81489-14.7497-.22738-2.134.919-3.8432,1.87669-5.55321,5.157-9.208,10.61109-18.24654,15.73338-27.48207,5.29924-1.96669,10.91147-1.83629,16.41309-2.38157a36.45675,36.45675,0,0,1,6.29714-.0974c1.83443.84179,2.09444,2.834,3.1155,4.27471-.30809,3.37757-1.65282,6.47381-2.63183,9.67255-.68494,2.238-2.18783,3.14276-4.45782,3.16612a80.913,80.913,0,0,0-8.556.43055,17.70332,17.70332,0,0,0-12.2055,7.14743c-4.28905,5.42689-6.32937,11.82643-7.28927,18.53121-.64453,4.50195,1.13525,6.97237,5.35,8.60845,1.03546.40195,2.20793.56506,2.56468,1.87394-2.144,3.79214-4.47,7.49621-6.36334,11.40958-1.12877,2.33308-2.63739,2.75692-5.00027,2.75227q-54.12471-.10639-108.24974-.04873c-.62412,0-1.24824.0185-1.87236.02837Z"/><path d="M6.83278,121.96307c5.2518-7.60175,10.53506-15.18205,15.744-22.81309,3.27807-4.80236,6.86832-9.39354,9.80377-14.42849Q44.57926,67.31657,56.77132,49.907C67.9304,33.88547,79.04289,17.83149,90.42308,1.43443c1.36413,3.02316,1.2227,6.00006,1.62,8.79685,2.20468,15.51978,4.2178,31.06686,6.27493,46.60744.527,3.981.49108,3.98573,4.42607,3.65147,1.626-1.49554,3.65665-.99386,5.54854-1.07293a13.19855,13.19855,0,0,0,4.30747-.45353c11.06737-.61135,22.08431-.41734,32.94486,2.138,4.20675,1.07826,8.37186,2.319,11.86283,5.03,1.36123,1.05708,3.1834,2.50747-.2071,3.45284-20.17837-2.98384-39.65823.59194-58.88164,6.3668a157.07642,157.07642,0,0,0-16.24568,5.62667C64.9079,87.89953,48.86249,96.47663,33.28358,105.9718c-7.88414,4.80529-15.55519,9.944-23.15591,15.18612C9.14492,121.83571,8.24019,122.96562,6.83278,121.96307Z"/><path class="cls-2" d="M102.69621,60.45828c-1.32662-.80669-2.37562-1.158-1.06284-3.35982,6.52115-10.93735,12.635-22.11638,19.01765-33.13776,3.75713-6.48776,7.81982-12.79742,11.22611-19.48948a15.01108,15.01108,0,0,1,1.20822-1.954c1.20823-1.67832,2.2743-3.83082,3.62208-1.4821,3.32548,5.79516,6.78825,11.51137,10.14268,17.29017,3.22708,5.5594,6.38523,11.15882,9.57182,16.74172,5.63829,9.87833,11.56729,19.58525,17.09133,29.53522,3.24508,5.84507,6.90881,11.47424,10.2185,17.30025a15.59857,15.59857,0,0,1,2.20087,4.68862,1.95476,1.95476,0,0,1-1.899.97372c-4.57477-.59279-5.97959,2.26268-6.9854,5.95529-1.01079,3.71095-2.36516,7.33056-3.632,10.9684-.43925,1.26137-.66265,2.69851-2.07738,3.37954l-4.62358-6.3658s1.7847-6.69973,2.73358-10.03514c.98961-3.47853.91005-3.65317-2.56961-3.77023-2.12735-.07156-4.23466.19579-6.35582.29462-2.57942-.767-3.41583-3.01883-4.39833-5.147-.41741-1.80951.33212-3.43722.87277-5.07828.65207-1.97922-.0425-2.77018-2.06169-2.807-2.2335-.04072-4.48658.26453-6.69979-.28029-1.94043-.53014-2.07185-2.05094-2.01363-3.6756,2.94148-1.9396,5.97926-.159,8.96185-.14878,1.53123.00522.77087-.52613.56516-1.09247.23842-.89334,1.1735-.49041,1.66454-.909.20254-.37875,2.1088.29788.7331-.99635-2.25524-2.12169-5.10072-3.26662-7.95605-4.37964-1.34688-.525-5.7502-1.9099-5.7502-1.9099-2.68659-1.065-2.68242-2.678-3.96425-5.165-.686-1.331-1.54655-2.56521-2.31741-3.84985-2.62977-4.38255-2.88161-4.38274-5.34331-.10872-.93585,1.62484-4.86935,6.24748-5.90163,7.80971"/><path d="M148.23636,74.679c3.1864-1.4009,6.53822-.46374,9.80839-.655,1.5002-.08776.9703,1.09385.75275,1.84631-.68568,2.37155-1.85886,4.59506-2.15317,7.08715a12.45557,12.45557,0,0,1-.91588,4.87281c-3.41441,9.94863-6.5984,19.97292-9.9935,29.92676a42.97184,42.97184,0,0,1-2.19017,5.89042c-3.35147,2.60242-7.11783,1.51343-10.76395,1.09185-1.74181-.20139-1.10784-2.225-1.88973-3.26343-1.68753.99445-2.45955,3.45465-4.96377,2.84277q-2.22079-.01229-4.44162-.02453c-.11786-.04-.23432-.0848-.35376-.11921-8.16419-2.352-9.88179-5.24149-7.99924-13.68169a41.86707,41.86707,0,0,1,5.79109-14.43846,20.04163,20.04163,0,0,1,17.25814-9.35307c2.59865-.03994,5.72078.99714,7.65782-.40314,2.06554-1.49319,2.01758-4.88563,2.993-7.4115C147.36481,77.50914,147.77255,76.08325,148.23636,74.679Z"/><path class="cls-3" d="M170.95975,107.77394c2.162-6.03231,4.46508-12.0196,6.41337-18.12014.73149-2.29046,1.70654-3.26176,4.11164-2.973a30.332,30.332,0,0,0,4.44787-.08968c1.2645.40534,3.75745-.75926,2.94344,2.30235-.56831,4.96321-2.43173,9.5543-4.11715,14.19169a39.70055,39.70055,0,0,0-1.72338,5.30124c-.42617,2.01551-.78806,4.04282,1.84639,4.89667,2.75457.8928,4.2177.46828,5.373-2.19987,1.463-3.3787,2.18126-7.90133,4.75421-10.82336l3.9101-11.16307c.56818-1.84439,1.48584-2.66137,3.42536-2.40211a22.59635,22.59635,0,0,0,2.97659.0225c5.46315-.00157,5.439-.00981,3.62536,5.321-2.26666,6.66251-4.73885,13.258-6.59465,20.05574a42.01074,42.01074,0,0,1-2.1597,8.96321c-.9418,2.90744-2.72026,4.30209-5.76764,4.14569-.98867-.05074-1.9845.02252-2.97635-.006-4.47064-.12868-4.9384-.73407-3.96335-4.73754-1.86558,1.27988-2.3637,4.96532-6.08323,3.86137l-4.44147-.03512c-6.515,1.21226-9.899-1.774-9.22076-8.13853.17205-1.61455,1.35067-3.50881,1.98582-4.99494Z"/><path class="cls-3" d="M205.52859,118.26059c.67664-.5019.65008-1.32234.86021-2.0144a2.311,2.311,0,0,1,2.673-1.83705c4.7444.11285,9.49339.01388,14.24009.05531a8.6756,8.6756,0,0,0,4.67734-1.01838,2.34469,2.34469,0,0,0,1.33454-2.12162c-.07575-1.10807-1.0442-1.20355-1.881-1.4646-2.08615-.65079-4.21767-.3-6.32313-.31535-8.47907-.06184-10.792-3.21682-8.18907-11.2938,2.37387-7.36616,7.11314-11.13649,15.23455-11.47526,6.57614-.27433,13.17287-.05565,20.49548-.05565-2.76538,3.28-5.15586,6.06388-7.48186,8.90061-.87216,1.06363-1.99864.83081-3.08951.836-3.74762.01787-7.49536-.00068-11.243.01295a8.92471,8.92471,0,0,0-2.59476.16254c-1.085.34231-2.20576,1.094-2.147,2.3176.06075,1.26447,1.38616,1.059,2.32558,1.31435,2.12218.57682,4.18873-.13628,6.28874-.1019,9.49311.15545,12.06279,4.05228,8.57909,12.91885-3.13412,7.97687-9.42969,10.81865-17.3681,11.09635-4.49027.15709-8.98776.10657-13.482.14956-1.59135,1.10759-3.53134,1.34191-4.50875-.276C202.64493,121.92524,203.87259,119.89428,205.52859,118.26059Z"/><path class="cls-4" d="M169.72525,111.15208a35.89612,35.89612,0,0,0-1.23037,6.33017c-.2289,3.65672.91264,5.24062,4.47917,6.02678,1.32155.29129,2.657.51951,3.98614.77652.62433,3.28331,3.11041,5.60936,4.40089,8.552.68411,1.55995,2.12625,1.02706,3.28549,1.03152,9.60992.037,19.22.02184,28.83008.02179,16.97362-.00007,33.94744.0372,50.92065-.04628,2.25522-.01109,3.845.58207,4.87432,2.6084.57629,1.13455.63,1.91741-.95338,1.93941-.8735.01214-1.74721.013-2.62083.013-34.69608.00022-69.39229-.03778-104.08806.06507-3.02875.009-5.36412-.33222-6.37432-3.5308-.22789-.72155-.81677-.86055-1.44757-.95224a.94954.94954,0,0,1-.07208-1.03618c4.91285-6.74588,6.66259-14.8113,9.40788-22.46239.491-1.36853.6744-2.9292,2.08705-3.8014C165.21031,106.6874,169.78912,111.34958,169.72525,111.15208Z"/><path class="cls-2" d="M125.92733,124.31864c2.305-.94712,3.44916-3.17694,5.20967-4.72633.39751-.34985.84709-.69543,1.30841-.45546.47986.24959.40565.84272.27608,1.32461a18.13932,18.13932,0,0,1-.55749,1.78374c-.52481,1.36963-.258,2.15519,1.38815,1.94039,3.1406-.40978,6.43007.93822,9.457-.80184,2.42228-.2758,3.0128,1.414,3.48142,3.23462-.63016,2.37941-2.61292,2.83983-4.60576,2.96133-3.38487.20637-2.25657,2.523-2.1604,4.32517.11048,2.07.76516,3.538,3.36914,3.31413,2.787-.23964,5.35127-1.98714,8.27307-1.1729,1.46135,2.74407,2.61645,5.64366,4.44795,8.202,1.02214,1.42778.953,2.49321-1.31721,2.45468-4.74613-.08057-9.49462-.02251-14.24214-.02274q-12.18114-.00057-24.36227-.00629a1.73748,1.73748,0,0,1-1.51617-.45392c1.52044-4.26933,4.33168-7.96165,6.3884-12.0407C122.43643,130.86457,124.95982,127.9968,125.92733,124.31864Z"/><path class="cls-3" d="M151.3666,136.0461a30.68745,30.68745,0,0,1-9.6218,2.41056c-1.59816.11974-2.60945-.2011-2.63767-2.03854a20.83418,20.83418,0,0,0-.33527-2.19386c-.21171-1.70346-1.04681-3.72821-.41024-5.02423.61529-1.25272,2.96927-.30279,4.5096-.79171,1.29567-.41127,2.6233-.68071,3.46867-1.886.0069-1.53471,1.08708-2.60909,1.66274-3.90248,3.39759-9.79663,6.55883-19.671,10.07828-29.4233.985-1.82638.67-4.25222,2.59024-5.648,3.40637-1.7369,7.02813-.64711,10.53823-.65212,1.218-.00174.39475,1.41277.175,2.11245-1.335,4.25145-2.73979,8.481-4.12127,12.71789l-1.55484,5.235s-3.59022,10.00469-5.38443,15.00732c-1.5598,4.34909-3.25316,8.61229-6.53641,12.01837Z"/><path class="cls-3" d="M269.18363,74.54508c-.67682,4.51468-2.72887,8.02693-3.421,11.88649,1.63225.78522,4.03712-.63548,4.76841.92656.50666,1.08225-.75158,2.99383-1.22983,4.53218a12.50423,12.50423,0,0,0-.673,2.13088c-.24159,2.039-1.35779,2.79242-3.30175,2.43662-2.37563-.43481-3.5802.54206-4.20642,2.88164-.83457,3.118-2.082,6.12307-3.02037,9.21655-1.42485,4.69716-1.05386,5.22,4.42956,6.17472-2.62575,3.09007-4.81229,6.25147-7.5946,8.74959-2.18521,1.962-5.002.454-7.39938-.38888-1.95223-.68634-2.78853-2.40387-2.71294-4.47857a27.56233,27.56233,0,0,1,1.52559-7.66691q2.33847-7.06689,4.65629-14.14028c-1.23914-.66611-2.54376-.109-4.23062-.59922Z"/><path class="cls-5" d="M112.44715,183.03554c0-4.90809.0677-8.96993-.02682-13.028-.052-2.23109-1.66146-3.17774-3.61173-3.6944-.48071-.12735-.93462-.38377-.83154-1.01056.11147-.67778.68977-.615,1.15389-.61673q4.87007-.01758,9.74018.01563c.33684.00226.74434.01045.87337.47193.18851.67421-.23827.90142-.7629.97093-3.69638.48978-4.00487,3.22624-4.02089,6.1043-.03127,5.61877.03292,11.23855-.05671,16.8561-.01732,1.086.86657,2.67113-.84112,3.21315-1.69522.538-2.98784-.18864-4.122-1.6386-3.688-4.715-7.50336-9.33043-11.27988-13.97593a40.95467,40.95467,0,0,0-4.33491-4.72638,122.774,122.774,0,0,0-.07716,14.77173c.2084,2.44177,1.54345,3.51554,3.72274,3.96734.50154.104.93444.36657.89556.98235-.04345.68809-.58609.68861-1.06957.69q-4.87048.01423-9.741.00117c-.49468-.001-1.0324-.0234-1.08639-.68512-.05291-.64839.44848-.79081.94826-.87219,3.1864-.519,3.75246-2.716,3.69813-5.48859-.08806-4.49343-.07833-8.99067-.00587-13.48463.04058-2.51761-.75383-4.34763-3.26626-5.26056-.58151-.21132-1.68365-.36923-1.30092-1.41567.33015-.90268,1.28921-.37624,1.96187-.51288a2.18227,2.18227,0,0,1,.374-.00389c7.97452-.19157,7.96407-.18319,12.976,6.014C105.53412,174.61047,108.7495,178.51123,112.44715,183.03554Z"/><path class="cls-5" d="M170.33469,184.92666c1.9544-4.94432,3.88542-9.89807,5.87465-14.82836.80808-2.00276.60524-3.33721-1.85095-3.723-.63007-.099-1.81482.03951-1.74185-.933.09891-1.31854,1.34987-.73179,2.09213-.751,2.61651-.06787,5.236-.02365,7.85441-.01265.48818.002,1.03621-.005,1.13256.64349.09163.61674-.382.86816-.857,1.00412-2.74654.78617-3.70115,3.08088-4.68539,5.40748-2.61437,6.18-5.29823,12.33061-7.90765,18.51264-.55977,1.32614-1.05884,2.27158-2.86057,2.2404a2.82339,2.82339,0,0,1-2.94683-2.15836c-2.54-6.21124-5.20035-12.37324-7.75027-18.5805-1.015-2.47072-1.99874-4.87481-4.98387-5.55741-.47741-.10916-.95133-.38328-.70816-1.04587.15509-.42259.55823-.44115.90383-.44237q6.54514-.0232,13.09037-.00927c.48312.00122,1.06555.06016,1.02887.73974-.03287.60914-.59.734-1.07152.78971-2.52692.29255-2.61534,1.51713-1.69083,3.59681,2.21915,4.992,4.243,10.07087,6.34565,15.11469Z"/><path class="cls-6" d="M205.52859,118.26059l-1.58051,5.7893,4.48963.27682c3.0705,5.90872,2.82779,5.08055-2.89572,5.11048-5.71787.02992-11.436.00681-17.154.00591-5.13019-.0008-5.13019-.00143-6.9863-5.12243,1.92617.09316,4.08734-2.53532,4.08734-2.53532l3.17934-3.55412-1.1002,5.95884c2.886,0,5.74742-.06658,8.60365.027,1.51461.04961,2.14469-.53692,2.60667-1.97394a71.06994,71.06994,0,0,1,3.57347-10.14918C202.66355,114.53429,203.29268,116.81115,205.52859,118.26059Z"/><path class="cls-7" d="M195.00917,100.25986c-1.00953,3.29145-2.8363,8.43581-4.01962,12.72867a1.87355,1.87355,0,0,1-1.80706,1.50347c-7.02518.94684-8.9315-1.16238-6.68369-7.80583,2.01893-5.967,4.0654-11.37058,6.19923-17.29875Z"/><path d="M85.52048,88.84922c.37787-1.20621-.58531-2.65608.67292-3.70235,3.83219-3.31066,8.65427-4.10673,13.35911-4.9868,2.32565-.435,3.10793,1.52428,3.38654,3.54769.69233,5.02789,1.08907,10.0953,2.03033,15.09009.60279,2.79517.27506,5.66822.71912,8.47956.23613,4.4719,1.31522,8.82752,1.80423,13.26836.25353,2.30237-.13035,3.31371-2.621,3.79475-4.83786.93432-9.6729.45688-14.50846.56-2.37261.05062-2.74-1.68111-3.01183-3.49878-.86535-5.78692-.9146-11.64529-1.54761-17.451A89.27928,89.27928,0,0,1,85.52048,88.84922Z"/><path class="cls-2" d="M85.52048,88.84922c1.15839,4.231.78974,8.61987,1.29312,12.92437.77892,6.66088,1.16826,13.37209,1.54643,20.07193.10753,1.905.63659,2.56529,2.58481,2.45138,4.71-.27536,9.44019.16717,14.14923-.66071,1.88572-.33152,2.09976-1.06689,1.85473-2.7-.699-4.65893-1.25846-9.33881-1.87281-14.01044.39895-.42993.06987-1.18447.67839-1.521,1.45141,2.18292.58609,4.77611,1.28689,7.16341.92738,3.1592,1.026,6.56129,1.4849,9.85842.30152,2.16626-1.10617,2.29383-2.73431,2.55123a84.91536,84.91536,0,0,1-14.85349.70621c-1.61457-.029-2.74836.23092-2.4263,2.21246-1.25472.74712-2.32639,1.63189-4.03266,1.59943-7.099-.135-14.20239-.02181-21.30356-.07645-2.63483-.02028-3.01481-.62-1.73268-2.8404,4.76994-8.26074,9.62416-16.47281,14.43991-24.70714,2.11811-3.62171,4.23766-7.24286,6.316-10.8874a4.87153,4.87153,0,0,1,1.99886-2.33932"/><path class="cls-8" d="M155.84566,69.52937c.73575,1.28117,2.81337.04432,3.41981,1.96851-4.44323.82919-8.72406-.672-13.04274-.49447a7.17776,7.17776,0,0,1-3.96106.72771c-6.32084-.25435-12.49364,1.18056-18.74863,1.68591-.1924.01555-.36249.30714-.543.47a6.95161,6.95161,0,0,1-4.3403,1.90692C108.3123,78.64389,97.579,79.937,87.61027,84.085c-.72217.30051-1.49315.02322-2.18988.33716-29.885,11.6672-57.03632,28.304-84.07522,46.55158a18.3924,18.3924,0,0,1,6.10009-7.59269c4.11862-4.41686,9.39676-7.30706,14.36311-10.52959,15.65478-10.15795,31.7463-19.56954,48.917-27.0067q5.81745-2.51972,11.71429-4.85658A185.46159,185.46159,0,0,1,128.88714,68.918c8.37115-.96739,16.8428-1.57695,25.27251-.11957A3.27524,3.27524,0,0,1,155.84566,69.52937Z"/><path class="cls-9" d="M85.42039,84.42219c6.49415-3.31462,13.59256-4.767,20.557-6.61133,4.13649-1.09541,8.32659-1.98843,12.49258-2.97246-3.24315,8.90754-7.48482,17.21884-14.324,23.97912-1.28434-4.95795-1.557-10.06749-2.242-15.11415-.43771-3.2251-.35153-3.13991-3.65617-2.37338-4.12494.95683-8.013,2.62074-12.0545,3.81688Z"/><path class="cls-10" d="M81.841,81.54459c-4.59125,2.73449-9.70542,4.31617-14.53562,6.5281a359.37873,359.37873,0,0,0-37.90371,20.693c-7.50753,4.59756-14.662,9.70752-21.95642,14.61542.20932-.67882-1.81569-.34041-.66036-1.44992,3.657-1.6477,6.6742-4.28592,9.95838-6.501,19.43084-13.10568,39.71026-24.63967,61.45658-33.48989.91668-.37306,1.85847-.68441,2.78857-1.02451C81.3183,81.06344,81.73731,81.09035,81.841,81.54459Z"/><path class="cls-11" d="M104.146,98.81752c5.55874-7.52485,9.76227-15.85891,14.324-23.97912l4.50008-.95132c-.493,2.479-1.94568,4.49084-3.16391,6.63-4.71452,8.27851-9.85057,16.31971-14.05179,24.88774-.06566.57853-.05237,1.19227-.67839,1.521C104.78466,104.22089,103.96454,101.57662,104.146,98.81752Z"/><path class="cls-12" d="M80.8387,47.76673c.6443,5.03986,1.18755,10.09592,1.99162,15.11016.2568,1.60147-.2224,2.29455-1.56838,2.77223-6.44564,2.28757-12.22854,5.90079-18.20866,9.11931-.70178.36591-.97648-.07648-1.19451-.62793.4862-3.41994,3.08981-5.62964,4.98247-8.14553,4.03456-5.36308,7.81464-10.90788,11.86166-16.2567C79.4004,49.06906,79.45192,47.68859,80.8387,47.76673Z"/><path class="cls-13" d="M126.91453,60.25343c1.6022-2.6566,5.20609-8.27012,6.60249-11.06844,1.234-2.47291,2.06264-2.44257,3.58764-.10606,1.55891,2.38847,2.95107,4.8853,4.4348,7.32341,1.13992,1.87318,2.24741,4.19152,2.24741,4.19152l.65426.9734"/><path class="cls-14" d="M81.841,81.54459l-.85258-.62886c17.39785-7.002,35.32184-11.81259,54.11058-13.07863a82.88137,82.88137,0,0,1,22.31527,1.016c-.3481.63068-.97637.61167-1.56862.67622-3.97947.13791-7.86164-.87956-11.86258-.82282a153.54592,153.54592,0,0,0-32.72348,3.97373,197.42552,197.42552,0,0,0-27.94943,8.65727A6.25368,6.25368,0,0,1,81.841,81.54459Z"/><path class="cls-15" d="M80.83869,47.76673c-.93249.47166-.29817,1.79211-1.2277,2.26537-1.11415-1.546-1.72266-.50681-2.38046.44868-4.656,6.76308-9.65767,13.27839-14.35509,20.01184-.49827.71424-.98155,1.43871-1.50979,2.13184q-.78589,1.03122-1.61267,2.02966c.79594-.30394,1.42227-1.18536,2.44481-.71775l.85549.83206q-4.33834,3.176-8.67644,6.35226c-.50669.37112-1.07453.8172-1.62649.23059-.43317-.46038.096-.876.36323-1.24384C62.0028,67.87284,70.89708,55.64192,79.87309,43.297A6.07894,6.07894,0,0,1,80.83869,47.76673Z"/><path class="cls-16" d="M171.00509,73.97632c5.44273.00183,5.48292.01557,3.67264,5.30666-1.62231,4.74169-.8125,3.94232-5.65222,4.00659-.87213.01159-1.74452.00388-2.6168.00194-4.64642-.01031-4.06771.22188-2.70433-4.0275C165.40912,73.95063,165.48348,73.97448,171.00509,73.97632Z"/><path class="cls-17" d="M160.67115,87.54848a20.32876,20.32876,0,0,1-1.82588,5.86565,5.40115,5.40115,0,0,1-3.74272-6.04689,10.98709,10.98709,0,0,1,1.54178-4.40978C158.36508,84.156,158.53264,86.71626,160.67115,87.54848Z"/><path class="cls-18" d="M155.10255,87.36724a18.72778,18.72778,0,0,0,3.74272,6.04689c-3.33325,10.06325-6.32753,20.2437-10.39432,30.05336-2.36391-1.2773-3.11979-3.53219-3.61578-5.94511C148.15843,107.4369,151.33921,97.30293,155.10255,87.36724Z"/><path class="cls-19" d="M127.49173,114.33025c-2.56242-.47042-3.04517-2.32722-2.70851-4.44892a21.84477,21.84477,0,0,1,3.224-8.66573c2.07531-3.15875,7.4135-4.94572,11.32789-4.01775,1.17116.27764.97345.99712.74271,1.62038-.72944,1.97041-1.1118,4.07311-2.20467,5.90664-3.11773-1.82423-3.00851-1.751-5.17433,1.4773C130.90414,108.87719,130.10808,112.1904,127.49173,114.33025Z"/><path class="cls-20" d="M127.49173,114.33025c1.5029-4.38261,4.46565-7.98738,6.45285-12.11067.818-1.69721,1.55568-1.20857,2.32913.00811.53031.83418,1.06607,1.66491,1.59939,2.49718a19.93186,19.93186,0,0,1-1.47066,4.986C134.42607,115.41341,133.61091,115.811,127.49173,114.33025Z"/><path class="cls-21" d="M144.83517,117.52238l3.61578,5.94511a5.13575,5.13575,0,0,1-2.11106,3.05479c-1.31744-.82637-1.64255-2.70548-3.33076-3.13853A18.90781,18.90781,0,0,1,144.83517,117.52238Z"/><path class="cls-5" d="M152.8376,190.9859a7.51242,7.51242,0,0,1-4.34472-2.75135c-2.4903-2.93139-4.91272-5.92041-7.35181-8.8725a40.09378,40.09378,0,0,0,3.75476-2.05743c2.394-1.662,3.11823-4.06659,2.798-6.88629-.31348-2.76025-2.16816-4.10761-4.53132-4.895a13.72043,13.72043,0,0,0-4.01-.81512c-5.36541-.09223-10.73339-.04908-16.10028-.02564-.554.00238-1.33215-.27045-1.56921.53558-.255.86677.51361,1.07728,1.07825,1.16,2.37616.348,2.85125,1.79852,2.80432,3.97687q-.18165,8.41927.0072,16.84491c.04547,2.09466-.53906,3.35821-2.719,3.65313-.54694.074-1.35907-.00586-1.19519.96814.11608.68994.73431.559,1.1762.56122q6.1778.03077,12.35578-.007c.42309-.00311,1.07269.144,1.15106-.60473.0705-.67261-.46063-.81873-.92773-.90241-2.58728-.46338-2.93543-2.24982-2.77308-4.45026.10077-1.365-.00964-2.74438.01752-4.11645.01148-.57666-.241-1.33527.44763-1.63892.73725-.32519,1.08289.39765,1.46668.84754q3.6426,4.27029,6.85077,8.87719c.53827.77112.83557,1.96692,2.03821,1.98456,3.11889.04572,6.23925.0102,9.3587-.02343.32617-.00355.77673-.03852.78894-.57422A.6786.6786,0,0,0,152.8376,190.9859Zm-18.15435-12.82135c-1.414.10809-2.35236-.08509-2.26728-1.91.12659-2.715.08014-5.44226-.00183-8.16107-.0423-1.40228.38849-1.95093,1.87177-1.95453,3.586-.00879,5.77685,2.08454,5.76135,5.71674C140.03115,175.62646,138.07857,177.905,134.68325,178.16455Z"/><path class="cls-22" d="M62.19779,73.93637l-4.5067,3.00429-.33641-.38222L78.87586,46.8361c.84608,1.32416.5309,2.32933.73513,3.196Q70.90439,61.98424,62.19779,73.93637Z"/><path class="cls-23" d="M135.56446,59.09621s-2.32014-.0981-2.53955-1.11115c-.26689-1.23229.87316-2.64654,2.251-3.21523.63005-.26,3.46276,3.1312,2.64859,3.75069A2.95736,2.95736,0,0,1,135.56446,59.09621Z"/></g></g></svg>