<svg xmlns="http://www.w3.org/2000/svg" viewBox="0 0 837.3117 174.61255"><defs><style>.cls-1{fill:#bdd683;}.cls-2{fill:#633163;}.cls-3{fill:#383433;}</style></defs><g id="Layer_2" data-name="Layer 2"><g id="Layer_1-2" data-name="Layer 1"><path class="cls-1" d="M759.29626,169.90562c-2.46443,1.258-5.12327.7428-7.69388.74479q-70.078.05445-140.15608.01434c-1.86363-.00073-3.87884.51377-5.43952-1.09389a9.47285,9.47285,0,0,1,1.2179-.86626c5.94576-2.98176,12.6196-4.64517,17.44291-9.65592a64.9469,64.9469,0,0,1,6.21529-1.90233c1.40578-.29238,2.29489-.57657,1.78781-2.21839a3.72294,3.72294,0,0,1,1.45513-2.62289c13.73912-10.97841,22.18639-25.45633,26.8222-42.12918,3.644-13.10569,4.53065-26.327,1.46868-39.95588a90.86092,90.86092,0,0,0-17.32829-37.08286,82.42486,82.42486,0,0,0-21.52108-19.25437c-6.079-3.73806-16.81806-7.94981-23.451-10.68285,0,0,7.6248.02645,9.33526.02572q41.1087-.01765,82.21732.014c1.72856.001,3.507-.26361,5.10524.71193-1.659,3.5306-5.612,5.53309-6.59374,9.51067,9.19932,6.34278,10.00929,11.43458,3.61916,20.69251-2.8104,4.07175-5.26755,8.3874-8.64346,11.95564a14.34443,14.34443,0,0,0,9.14159,5.12642c4.69527-6.31457,9.74188-12.54212,14.16967-19.18233,7.37564-11.061,6.88129-17.641-1.34268-27.72934.977-1.35816,2.44947-1.087,3.79375-1.08861q23.6193-.02889,47.23853-.00207c1.49586.00171,8.256-.03458,8.256-.03458-2.39532,1.2941-9.23642,3.98592-11.46,5.52782-9.80229,6.79742-16.90963,15.58261-18.81628,27.68066a60.22154,60.22154,0,0,0,.18379,21.64846c2.84205,13.75137,12.49935,21.36122,24.46043,26.8707,12.7504,5.87306,26.42322,9.161,39.48316,14.24752,23.11532,9.003,25.07025,33.07377,12.84323,48.23135-10.81792,13.41065-32.6013,13.54752-46.1469,8.442-9.91276-3.7362-16.9157-11.168-22.93767-20.02184l-11.71291,8.61161c.55081,3.8828,3.6618,6.363,5.76926,9.334C743.43575,161.324,751.23415,165.8245,759.29626,169.90562Z"/><path class="cls-1" d="M477.14,157.45291c-18.83968-.03061-37.85557-.76908-56.69531-.766-.074-.51678.00484-3.77242.00477-4.28921q-.01183-73.82731.00512-147.65461a12.31743,12.31743,0,0,1,.19255-1.55295q59.37322.019,118.74636.07747c2.89869.00522,12.59953-.07747,12.59953-.07747S537.86126,8.45155,532.95267,11.275A90.11554,90.11554,0,0,0,504.069,37.027c-8.182,11.40718-13.707,24.045-15.42979,37.93084a91.95136,91.95136,0,0,0-.05856,24.51491,88.89208,88.89208,0,0,0,15.68573,38.57915c5.89411,8.31688,13.4942,14.85148,21.75889,20.76947,6.38169,4.56976,17.98906,8.44922,24.93338,11.86522,0,0-7.39987-.019-8.93185-.01721q-31.04355.03677-62.08712.00027a27.22729,27.22729,0,0,1-3.10141-.348q1.97294-7.13349,3.9459-14.267"/><path class="cls-1" d="M325.6085,170.43143c-.01055-47.27731.54069-115.79514.55561-163.07246.00045-1.38934.14068-2.77863.21573-4.16795q37.0374.03858,74.07479.08225l7.9354-.08889c.02231,55.49017-2.86177,111.78426-2.83943,167.27443"/><path class="cls-2" d="M546.506,169.74577c-3.13754-1.51291-14.09909-6.35463-20.48078-10.92439-8.26469-5.918-15.86478-12.45259-21.75889-20.76947A88.89208,88.89208,0,0,1,488.5806,99.47276a91.95136,91.95136,0,0,1,.05856-24.51491C490.362,61.072,495.887,48.43419,504.069,37.027a90.11554,90.11554,0,0,1,28.88372-25.752c4.90859-2.82345,9.2618-4.49231,14.91074-6.82209a73.27893,73.27893,0,0,1,14.90508-3.37508C575.56511-.048,588.38966-.48946,600.909,3.44274c1.14061.35827,3.46508,1.1591,3.46508,1.1591a132.42579,132.42579,0,0,1,19.19329,9.28094,82.42486,82.42486,0,0,1,21.52108,19.25437A90.86092,90.86092,0,0,1,662.4167,70.22c3.062,13.62886,2.17529,26.85019-1.46868,39.95588-4.63581,16.67285-13.08308,31.15077-26.8222,42.12918a3.72294,3.72294,0,0,0-1.45513,2.62289c-3.74037-.06228-7.36138-1.52665-11.13532-1.04238-3.36581.43192-6.53089-.77754-9.81264-1.01994-1.81313-.13393-3.09035-.9138-1.88352-3.06011C633.96,137.57926,651.5768,106.76443,646.56,75.62793c-5.95548-36.96287-42.6648-64.84927-79.589-59.8036-37.40472,5.11134-69.20225,42.32132-60.93328,84.74876,6.50124,33.35762,36.58191,58.411,70.60618,58.41437,10.11215.001,19.53043-2.90956,28.87423-6.29345,1.19021,1.50155.78574,3.82107,3.21731,5.41535a78.25663,78.25663,0,0,1,15.93216.93932c-4.82331,5.01075-11.49715,6.67416-17.44291,9.65592a9.47285,9.47285,0,0,0-1.2179.86626c-7.61786,1.64452-15.07719,3.9462-22.9546,4.44652-10.87322.69058-20.87477-.064-27.5292-1.6283C554.007,172.0327,549.33149,170.6866,546.506,169.74577Z"/><path class="cls-1" d="M166.51849,3.22144c1.54737.0002,11.29172-.056,11.29172-.056-13.6366,5.0818-32.64846,13.282-42.66592,23.98748-15.11043,16.14817-22.67606,34.64642-22.983,57.15107-.17839,13.07814,2.54643,24.95966,6.766,37.2766a66.648,66.648,0,0,0,8.89631,17.37125c7.233,10.23426,16.85562,18.05939,27.76213,24.1853,4.41379,2.4791,14.97026,5.43553,19.55432,7.61148,0,0-9.10287-.05913-10.80819-.05828q-50.20861.025-100.4172-.01788c-2.39237-.0032-4.901.46744-7.14741-.89316,3.36132-1.8017,7.21083-1.91041,10.774-3.14119,9.88824-3.41544,17.90849-9.6681,22.22595-18.65787,4.15271-8.64669,5.22092-18.58075,4.152-28.49826-1.61882-15.0193-8.81684-26.03909-22.39147-32.84354-1.153-.578-2.03644-1.69368-3.40824-2.87131a33.52357,33.52357,0,0,0,17.4148-17.47084,45.42077,45.42077,0,0,0,3.5263-24.91137C86.0252,18.6587,56.95343,8.51236,36.33149,3.16542"/><path class="cls-1" d="M311.188,60.55637q.04019,54.95844.12376,109.91687-40.109.092-80.2179.16915h-7.07557c16.00488-5.96365,33.2012-16.49345,43.81023-29.99309a86.61892,86.61892,0,0,0,17.44468-37.25964c3.68466-18.36331,1.28492-35.76347-6.48912-52.459a86.41386,86.41386,0,0,0-25.0658-31.66388c-8.14272-6.46758-23.37022-11.30363-32.276-16.08422,0,0,8.7961.04466,10.33409.0444,24.98559-.00408,57.4528-.05686,82.4384-.04165"/><path class="cls-2" d="M759.29626,169.90562c-8.06211-4.08112-15.86051-8.5816-21.21717-16.1334-2.10746-2.971-5.21845-5.45123-5.76926-9.334l11.71291-8.61161c6.022,8.8538,13.02491,16.28564,22.93767,20.02184,13.5456,5.10554,35.329,4.96867,46.1469-8.442,12.227-15.15758,10.27209-39.22835-12.84323-48.23135-13.05994-5.08657-26.73276-8.37446-39.48316-14.24752-11.96108-5.50948-21.61838-13.11933-24.46043-26.8707a60.22154,60.22154,0,0,1-.18379-21.64846c1.90665-12.09805,9.014-20.88324,18.81628-27.68066a74.133,74.133,0,0,1,7.16065-3.91882s4.2557-1.6704,6.48679-2.33912C774.8719.59009,781.26,1.45841,787.49872.71571c7.82033-.931,14.78332.94769,21.68,3.64311a55.75838,55.75838,0,0,1,22.18472,15.5321,95.513,95.513,0,0,1-9.359,11.37154c-7.85792-6.657-15.70618-13.11063-26.06152-14.98337-10.94494-1.97936-21.45785-.83146-31.22019,4.99995-14.61045,8.72738-19.46189,35.78185.71031,46.36387,9.9412,5.215,20.67314,8.09475,31.1468,11.76323a120.40962,120.40962,0,0,1,18.2369,7.62982c19.6166,10.738,24.50186,26.44518,21.816,45.57767-3.36013,23.93461-21.7144,39.76761-46.04487,41.4373A81.86561,81.86561,0,0,1,759.29626,169.90562Z"/><path class="cls-2" d="M707.12471,4.32519c8.224,10.08829,8.71832,16.66833,1.34268,27.72934-4.42779,6.64021-9.4744,12.86776-14.16967,19.18233a14.34443,14.34443,0,0,1-9.14159-5.12642c3.37591-3.56824,5.83306-7.88389,8.64346-11.95564,6.39013-9.25793,5.58016-14.34973-3.61916-20.69251.98175-3.97758,4.93474-5.98007,6.59374-9.51069,1.155-1.24395,2.31011-2.48788,3.52225-3.79334C702.9674.90467,704.61853,3.33341,707.12471,4.32519Z"/><path class="cls-3" d="M624.66759,159.04868a78.25663,78.25663,0,0,0-15.93216-.93932c-2.43157-1.59428-2.0271-3.9138-3.21731-5.41535-.046-3.05945,2.85273-5.17289,2.6472-8.49087-.75909-2.08073-1.62857-4.32026-1.37094-6.85189.38075-3.74236.69055-7.44053-.1301-11.2553-.52376-2.43434-.698-5.449,2.23557-7.17528,2.1508,2.25631-.59217,4.16273.198,6.10415.64324,1.78121,1.28649,3.56241,1.9858,5.49892-1.188,2.23521-2.14332,4.96122-.97178,7.00245,2.49186,4.34174,1.438,8.23031-.27265,12.27934-1.20683,2.14631.07039,2.92618,1.88352,3.06011,3.28175.2424,6.44683,1.45186,9.81264,1.01994,3.77394-.48427,7.395.9801,11.13532,1.04238.50708,1.64182-.382,1.926-1.78781,2.21839A64.9469,64.9469,0,0,0,624.66759,159.04868Z"/><path class="cls-3" d="M569.52038,79.91582c-2.37582,1.87594-2.95865-1.97007-4.83226-1.52206-2.01188-.36547-3.39906,2.085-6.20723.72167-.92242-4.11238-6.80975-5.98192-6.52879-11.60421-5.30264-1.1594-5.77552-6.44943-9.03278-9.74651,2.10643-3.00435-.57849-5.84028-.15407-9.11607l9.17458-5.95479c1.2466-3.364-2.43483-4.19317-2.88629-7.37808,3.20254-4.00651,5.35085-9.48755,9.17209-13.49652,3.82418.39931,6.75694,1.92235,10.15108,1.19681,1.51471-1.15551,2.88693-2.64036,2.8198-4.751,7.97951-2.71633,12.003,3.57984,16.20847,7.49829,4.18045,3.895,11.038,6.00239,11.385,13.46006,3.59992,1.7212,4.85265,5.15449,5.68327,8.07654,1.02656,2.06858,3.02693,1.14748,3.82725,2.48928,1.32344,2.29455.22285,8.75524-1.96553,10.84312-4.25551-2.86581-.01682-5.79484-.05434-8.96886-5.88356-1.55224-6.86051,4.69489-10.13529,6.28448-1.6271,1.65235-3.38762.07472-4.78343.99031a13.93052,13.93052,0,0,1-4.25448,7.49456c.85172.86592,2.48272.36221,3.13747,2.08864a5.93211,5.93211,0,0,1-1.9009,4.72169,13.50444,13.50444,0,0,0,1.373,19.56836c-.23084,3.18033,2.61108,6.98419-1.9,9.8383-3.14348-.24-6.40931-.1782-9.08432,2.45622a15.17485,15.17485,0,0,1,1.25657,5.92583c-5.19748,1.86975-8.15576,7.15059-13.12757,10.4125.26965,1.92374,2.9155,1.793,3.46458,3.56983v3.90009c1.514,1.85261,4.54887.10366,5.61474,3.27616-2.18857,4.92149,2.77979,8.08972,5.03243,11.3524,1.91036,2.767,2.836,5.86776,5.70309,9.19688a115.20627,115.20627,0,0,1-20.6282.31045c.29989-1.08814,4.026-1.72221,6.48774-1.75671,2.90976-.04081,5.81625-.309,8.66073-.475,1.809-4.13172-2.20373-3.38483-4.05266-4.85368.46872-4.25362-2.8852-6.64667-5.15222-9.24063-.5666-1.46055.48617-2.20539.58481-3.227a13.81721,13.81721,0,0,1-4.93084-3.04975c-1.39184-1.95385.22094-2.91512-.07965-4.11045-1.66232-1.46309-3.90294-2.30546-4.993-4.75867,2.203-3.70764,4.36514-7.50452,9.23978-8.69416.37641-1.1104-1.246-2.05542-.48866-3.23339,1.677-2.37489,3.40737.23034,5.10044-.016,1.64851-2.48649-1.28451-3.70481-1.09145-5.24428-4.34583-2.17563-6.71871,4.41983-10.95037,1.69386-.71389,2.087-1.72146,3.82443-4.34405,3.58466-1.81057-.00132-1.76134-1.992-3.18892-2.91087a5.23324,5.23324,0,0,1-4.64515,3.78506c-.79168,2.1227.46693,4.3341-1.11714,6.68271l-3.34862,2.80481c-.91878,1.96527,1.36391,3.76178-.16775,5.80327-2.62444-.94609-2.22393-3.69182-3.57869-4.911.82371-3.01368,3.37252-3.822,5.27183-5.30026-.06054-3.15347-.12025-6.14371-1.41153-8.82717,2.04148-2.201,3.6547-.96968,5.09366.22708,1.75591-.79243,1.34933-3.64271,3.71627-3.28819,2.26184-.26941,2.41354,2.17013,3.928,3.09362,1.48805-1.01822.205-3.66695,2.32769-4.05159,1.93651-.94219,2.76367,1.26353,4.61215,1.38026,1.07764-4.24333,6.82107-1.52059,7.94838-5.43555,1.64992-.47994,3.08012.95082,4.47-.68745.05338-1.29393-1.06868-3.02585,1.26322-4.56807l-4.63734-.36716a3.18779,3.18779,0,0,0-2.925-3.60421c-1.12878-1.531.06508-2.59245.08643-3.95283-1.7749-.98-3.40283-2.25221-3.40577-4.66093.47492-.24392.80568-.553.5152-1.14107C570.3448,79.34921,569.93413,79.64412,569.52038,79.91582ZM546.72745,49.78545c12.18,3.65477,17.51925,13.20952,22.80041,23.60538a95.79113,95.79113,0,0,1,15.03743-14.7975c-4.0244-3.87444-4.02172-4.35277-.25239-7.55105-.7688-3.49381-.7688-3.49381,7.93924-9.09409,1.7134.22057,3.38211,1.82315,5.46061.3954-4.43872-11.23425-14.91143-16.0454-23.833-23.872C569.91648,34.19339,558.78321,42.08347,546.72745,49.78545Zm9.307-9.8656c4.22526-3.78295,8.4956-7.65548,11.699-13.97007-3.72746.84985-5.8422-1.37359-8.65382-.90972-1.42093,4.18291-4.77147,7.27126-6.90769,11.56924C554.108,36.96536,554.0212,39.09155,556.03443,39.91985Z"/><path class="cls-3" d="M611.13273,105.78765c-4.40612-1.72087-4.74359-4.57257-4.05349-7.63977a35.91412,35.91412,0,0,0-1.05449-20.67007c-.26729-.732.08266-1.34433,1.2815-1.83561a5.70965,5.70965,0,0,1,3.36837,5.50981C610.19261,89.22489,612.25716,97.33271,611.13273,105.78765Z"/><path class="cls-3" d="M527.26134,136.01948c-.82058-4.02089.7119-4.86675,3.40008-3.45913,3.00072,1.57122,6.36053,2.4498,8.84778,5.04925,3.14935-2.45361.80779-7.55386,5.003-8.77746.78415-.22871,1.97641-1.00868,2.9485.73312-4.67027,2.43285-3.9296,7.20707-4.47273,11.55882C537.13663,140.92226,533.65338,134.71217,527.26134,136.01948Z"/><path class="cls-2" d="M171.0233,4.08345c42.112-13.31374,89.5521,6.86949,107.76077,46.84811,32.94339,69.83208-37.582,143.55365-109.47518,118.78149C90.85662,141.10467,92.46565,31.28061,171.0233,4.08345Zm27.8234,11.41532c-93.43818.83383-94.81966,143.29259,1.52547,143.46944C292.127,155.38521,292.30072,17.532,198.8467,15.49877Z"/><path class="cls-2" d="M480.78412,156.05471q-1.973,7.13348-3.9459,14.267l-71.28762.13713q-.03351-83.23526-.067-166.47052L419.603.08289c1.16023.99987.6288,2.18628,1.04414,3.10729-.3579,50.199-.63555,103.30442-.20244,153.49677"/><path class="cls-2" d="M386.61224,156.05471q-1.973,7.13348-3.9459,14.267l-71.28762.13713q-.03351-83.23526-.067-166.47052L325.43111.08289c1.16023.99987.6288,2.18628,1.04414,3.10729-.35789,50.199-.63555,103.30442-.20244,153.49677"/><path class="cls-2" d="M56.7672,169.77928c-18.802,1.53436-37.62418.41226-56.7672.85589V4.58007c33.26723-.685,84.88113-9.76448,89.06,36.80451,2.28577,16.66345-4.54358,35.3493-20.94049,42.38253,13.84462,8.85767,24.65523,18.21042,25.79849,35.71594C97.27349,146.65223,83.28069,164.62214,56.7672,169.77928ZM15.359,155.05841c22.67216-.23164,59.56554,5.20738,61.83481-25.91516C80.14456,89.33793,43.01342,92.67814,15.359,93.92265ZM15.3547,18.84076V78.39241c24.39219.04125,60.33277,3.13388,58.30449-32.97632C72.00327,14.62824,37.59458,18.9287,15.3547,18.84076Z"/></g></g></svg>