<svg xmlns="http://www.w3.org/2000/svg" viewBox="0 0 210.87397 239.57879"><defs><style>.cls-1{fill:#7a2345;}.cls-2{fill:#7a2546;}.cls-3{fill:#da6332;}.cls-4{fill:#fefdfd;}.cls-5{fill:#dd5d32;}</style></defs><g id="Layer_2" data-name="Layer 2"><g id="Layer_1-2" data-name="Layer 1"><path class="cls-1" d="M188.26682,81.6236a27.553,27.553,0,0,1-3.70573-.23187q-4.09494-.23913-8.19242-.41351c-3.5433-.1456-7.08833-.17771-10.63322-.18168-5.06466-.00565-10.12795.07111-15.18931.29286-3.28878.14408-6.57658.30314-9.86057.52284-2.95489.19769-5.90683.44518-8.8571.70441q-4.19771.36885-8.38869.81268c-2.36462.25318-4.7246.5522-7.08362.8544-2.33334.29889-4.66591.6067-6.9934.94762-3.07776.45082-6.15491.90931-9.22385,1.41588q-6.24874,1.03142-12.46125,2.26853Q76.559,90.83018,65.566,93.60584c-9.06456,2.298-18.05515,4.85229-26.95328,7.73024-9.86234,3.18981-19.587,6.75038-29.12968,10.80214-.25194.107-.508.20431-.79431.319a6.35028,6.35028,0,0,1-.405-1.39949C6.91245,105.6082,5.789,100.10747,4.94795,94.55112,4.43283,91.148,4.0134,87.73175,3.59663,84.31521c-.05231-.42882.13268-.57328.44622-.7435q3.93357-2.13536,7.93892-4.13213A236.34554,236.34554,0,0,1,37.273,68.62531a215.41081,215.41081,0,0,1,29.44717-8.32539c4.63458-.95377,9.29448-1.75424,13.98371-2.37336,4.49238-.59313,9.00262-1.0104,13.52745-1.28937,5.56648-.34319,11.13606-.38527,16.70583-.22807,4.15007.11714,8.291.42408,12.42467.83851a210.83134,210.83134,0,0,1,56.28323,13.93512,239.8208,239.8208,0,0,1,25.7155,11.92241c.65818.35333.67161.21706.57242,1.02942-.362,2.96433-.72545,5.92825-1.14466,8.88557a172.31271,172.31271,0,0,1-3.41351,17.49666,208.40917,208.40917,0,0,1-16.22675,43.56866,205.902,205.902,0,0,1-33.57924,48.19136,210.65723,210.65723,0,0,1-46.302,37.13239.8448.8448,0,0,1-1.01506.00026,212.47945,212.47945,0,0,1-39.92669-30.61606A205.83945,205.83945,0,0,1,23.3559,152.04674a209.1663,209.1663,0,0,1-12.44172-31.51388c-.2274-.748-.22729-.74653.48409-1.10544A322.98785,322.98785,0,0,1,64.38213,98.38054c8.4776-2.5378,17.05981-4.66951,25.69443-6.59834q8.365-1.8686,16.79062-3.43682,6.00424-1.11549,12.03955-2.05711,6.11026-.9642,12.24388-1.75854c3.76463-.4832,7.5372-.90265,11.31433-1.2839q6.95283-.70176,13.9253-1.14672c4.2957-.27266,8.59692-.44177,12.90068-.55924,5.54655-.15138,11.09025-.07564,16.63427.08182.75752.02153,1.51407.07745,2.27108.11744.08268.05123.16457.14539.24817.14688.6746.01211,1.34951.00679,2.02435.00679A15.69273,15.69273,0,0,0,188.26682,81.6236ZM39.71507,126.75651a3.39821,3.39821,0,0,0-1.519.96066l1.518-.82459c.31.02815.33564.24432.33384.49-.00445.60729.00933,1.2149-.00489,1.82188-.014.599-.20718.82378-.81712.86316-.63011.04067-1.26445.01634-1.89694.01947a.42746.42746,0,0,1-.476-.46606c-.0143-.35348-.02149-.70723-.0317-1.06082l.0803-.05528c-.015.00211-.03638-.00115-.04372.00749a.22446.22446,0,0,0-.02673.05826,1.24714,1.24714,0,0,0-.19971.10173,9.85612,9.85612,0,0,0-3.45555,5.2216,5.59206,5.59206,0,0,0,1.10411,5.46868,20.05414,20.05414,0,0,0,4.18787,3.70988,10.11275,10.11275,0,0,0,4.20246,1.8428,27.52793,27.52793,0,0,0,3.25984.07943,2.68646,2.68646,0,0,0,1.57935-.44582c.57666-.366,1.16158-.72,1.72575-1.10442a6.55482,6.55482,0,0,1,3.77836-1.17879,3.96322,3.96322,0,0,0,3.2917-1.70782,27.575,27.575,0,0,1,2.219-2.4942,1.06473,1.06473,0,0,1,.78441-.38165c1.77174-.01529,3.53583.09775,5.29909.25266a15.49583,15.49583,0,0,0,3.03328.03475c1.09661-.11986,1.60693-.58925,1.59546-1.71414-.0253-2.481-.02059-4.96246-.00054-7.44352a1.76239,1.76239,0,0,0-.94375-1.61221,4.39883,4.39883,0,0,0-1.78053-.61161c-1.05158-.12935-2.10813-.21943-3.15855-.357-1.72594-.226-3.4523-.45391-5.17091-.72841a2.35377,2.35377,0,0,0-1.79789.37765,1.08414,1.08414,0,0,1-1.26266.062,11.45157,11.45157,0,0,0-6.03237-1.15536.93517.93517,0,0,0-.75956.27413.95344.95344,0,0,1-.87628.3303,33.76389,33.76389,0,0,0-3.56066.10946A11.196,11.196,0,0,0,39.71507,126.75651Zm111.69614,57.32665a8.68835,8.68835,0,0,0,2.03692-.025,3.95054,3.95054,0,0,0,2.9535-1.778,20.20211,20.20211,0,0,0,1.41218-2.59848c.959-2.09247,1.89482-4.19519,3.01688-6.20966a37.7214,37.7214,0,0,0,2.02823-4.243,14.65244,14.65244,0,0,0,1.20128-6.20886c-.0416-.91-.00006-1.82354-.00824-2.73536a6.875,6.875,0,0,1,1.49366-4.594,5.553,5.553,0,0,0,.94774-1.88684,21.39867,21.39867,0,0,0,.82447-4.085,16.6621,16.6621,0,0,0-.41209-6.62512,4.72826,4.72826,0,0,0-3.301-3.45908c-.2657-.08077-.52415-.18738-.79242-.25728a8.73248,8.73248,0,0,1-3.72313-2.11331,18.3598,18.3598,0,0,1-2.42287-2.818,10.31131,10.31131,0,0,0-1.53242-1.68026,16.38543,16.38543,0,0,0-5.47245-3.344,3.35119,3.35119,0,0,1-2.18349-2.07992c-.09456-.23432-.21241-.45912-.31254-.69132a24.4799,24.4799,0,0,1-1.85813-10.52921c.0609-2.20191.12326-4.40568.03069-6.60894a7.54079,7.54079,0,0,0-3.85042-6.72144,15.69324,15.69324,0,0,0-13.01311-1.46072,17.53075,17.53075,0,0,0-7.66455,5.27136,14.71981,14.71981,0,0,0-2.78724,4.22757,8.08089,8.08089,0,0,0,.37943,7.71539,9.94833,9.94833,0,0,1,.89748,1.92323,3.33856,3.33856,0,0,0,1.45084,1.78787,8.46439,8.46439,0,0,1,1.23146.88518,1.59019,1.59019,0,0,1,.576,1.41688c-.0488.427-.11243.85236-.16719,1.27874-.06838.53262-.06834.51866-.58582.55372a8.45476,8.45476,0,0,1-3.134-.4539,12.42531,12.42531,0,0,0-6.07633-.29767,16.33918,16.33918,0,0,0-5.06409,1.96481,2.80237,2.80237,0,0,1-1.36642.36988,37.18817,37.18817,0,0,1-4.31877-.249c-2.23979-.2152-4.44292-.23184-6.49014.96078a5.32251,5.32251,0,0,1-2.93225.63058,11.437,11.437,0,0,1-3.76714-.79779,14.07265,14.07265,0,0,0-3.74831-.89289,46.68035,46.68035,0,0,0-5.61135-.17828,59.30535,59.30535,0,0,0-9.14239.79262c-.5469.09507-.5549.102-.55659.66715-.00495,1.64646.01538,3.2932-.00856,4.93934a24.96585,24.96585,0,0,1-.16043,2.80365c-.11.85931-.11326.78651.59355,1.03277a49.76446,49.76446,0,0,0,8.455,2.37687,20.79556,20.79556,0,0,0,6.57749.10681,46.22509,46.22509,0,0,1,11.66348-.24986,25.797,25.797,0,0,0,9.33624-.65426,25.56869,25.56869,0,0,1,3.56059-.74612,3.85736,3.85736,0,0,1,4.42659,2.16307c.0641.10905.12609.2195.185.33147a25.80745,25.80745,0,0,1,1.941,4.76973,13.89427,13.89427,0,0,1,.46013,6.377,21.92268,21.92268,0,0,0-.32249,2.78917,31.88912,31.88912,0,0,0,.68206,7.16627c.70369,3.858,1.58894,7.67782,2.44366,11.5039a11.69632,11.69632,0,0,1,.29236,3.99085,16.80862,16.80862,0,0,1-1.96952,5.9436c-.89579,1.673-1.8327,3.324-2.76026,4.9798a35.91227,35.91227,0,0,1-4.1497,6.16187c-.34856.39966-.65259.83944-.963,1.27089-1.79085,2.48922-3.3733,5.1114-4.93,7.74966a7.41225,7.41225,0,0,0-1.04748,2.98584,9.05373,9.05373,0,0,1-1.23637,3.47623,67.86974,67.86974,0,0,1-4.03522,6.06661,23.43423,23.43423,0,0,0-2.55448,4.03389c-.7848,1.78216-1.52206,3.58532-2.27526,5.38135-.23816.56793-.23662.5791.25819.89583,3.36727,2.15538,6.744,4.29617,10.09838,6.47136a1.25661,1.25661,0,0,0,1.43962.07786,133.643,133.643,0,0,0,11.80134-6.86639c3.2495-2.12177,6.25059-4.57295,9.29785-6.963a131.4664,131.4664,0,0,0,15.56138-13.79176c2.99585-3.23054,6.18942-6.27369,9.18887-9.50295a28.94659,28.94659,0,0,0,2.44938-2.89987c.36244-.51045.35693-.51392-.01951-1.04127-.66188-.92726-1.32706-1.85225-1.982-2.78437a1.49183,1.49183,0,0,1-.34568-.66539C151.36764,187.10227,151.4556,185.61458,151.41121,184.08316ZM37.96235,127.84l.02752-.04915-.0391-.00689Z"/><path class="cls-2" d="M144.74224,14.7669c.32039.33963.6169.6179.87115.93053a4.06812,4.06812,0,0,1,.95583,2.65528c-.01059,2.93644-.04216,5.87356.00635,8.80923a4.458,4.458,0,0,1-5.34927,4.52484c-3.34843-.51323-6.69959-1.00208-10.06005-1.42754-.92818-.11752-1.858-.23226-2.7905-.301-.41424-.03054-.5175-.21234-.47994-.57321a3.68486,3.68486,0,0,0,.002-.3795q0-13.47991.00087-26.95982c.00016-1.02174-.09122-.92914.8958-.82148,3.61939.39482,7.23195.84722,10.82456,1.44532.623.10372,1.24868.19584,1.86689.32354a6.74021,6.74021,0,0,1,5.08314,6.39967c-.02606.80922-.01778,1.62029-.00049,2.43a2.88,2.88,0,0,1-1.5353,2.7593C144.94662,14.63143,144.86451,14.68891,144.74224,14.7669Zm-9.31361,3.48346c0,2.311.00566,4.53276-.00663,6.75441-.00168.303.13868.40075.39179.43724,1.06953.15422,2.139.30889,3.19382.46128.0433-.09722.08088-.14232.081-.18752.0063-2.17439.00154-4.34885.02-6.52311.00333-.391-.21291-.45688-.51041-.49776C137.57351,18.55405,136.54948,18.408,135.42863,18.25036Zm3.67223-4.90547c0-1.72008-.00478-3.359.00485-4.99781a.34826.34826,0,0,0-.35165-.39278c-1.08548-.1588-2.17139-.31463-3.32482-.48129,0,1.72439.00323,3.36285-.00293,5.00128-.00113.30291.17059.37829.42354.41276C136.89851,13.03,137.946,13.18143,139.10086,13.34489Z"/><path class="cls-2" d="M98.08133,10.8421c.33859.05853.66382.0867.97288.17287a3.54881,3.54881,0,0,1,2.64823,3.47087q.00957,6.79826.00153,13.59655c-.0002.70194-.00432.70537-.69422.728q-3.11113.102-6.22244.19848c-.70978.02185-.64561.03609-.64558-.65832q.00026-5.469.00007-10.938v-.92175c-.87359.04384-1.69656.06644-2.51572.13471-.36926.03077-.84476-.10306-1.083.16153-.238.26427-.08053.72633-.08117,1.10052q-.0089,5.2411-.00355,10.48225c0,.17723-.00984.35505.00121.53157.01862.29769-.131.38359-.40762.4052-1.86646.14578-3.73187.30521-5.59765.45964-.15135.01253-.30344.01676-.45454.03149-1.08808.106-1.088.10657-1.088-.95464q0-13.40665.00006-26.81331c0-.922.00132-.91.94176-.98543C85.84586.88457,87.8371.711,89.8288.5432c.62-.05225.62764-.05219.62823.55607q.00441,4.63346.00175,9.26692c0,.15118,0,.30235,0,.44747.20656.05615.22742-.10523.2757-.20023,1.08825-2.142,2.1676-4.28858,3.26139-6.42775a1.51542,1.51542,0,0,0,.14693-.72955C94.14033,2.57,94.15628,1.68346,94.135.79781c-.00888-.3702.077-.54095.49017-.55362,2.17523-.0667,4.34949-.1644,6.52449-.2399.53759-.01866.54749.00084.55271.539.00809.83546-.01121,1.67137.0081,2.50647a2.162,2.162,0,0,1-.26458,1.08394c-1.05051,2.01906-2.08656,4.04566-3.12619,6.07037A1.2029,1.2029,0,0,0,98.08133,10.8421Z"/><path class="cls-2" d="M49.58746,35.96578V27.01663c-1.154.318-2.21705.63282-3.29277.89614-.41288.10107-.33758.37387-.338.63717q-.00529,3.11523-.002,6.23046,0,.72181-.00013,1.44364c-.00115.77274-.0025.76945-.70352.9783q-2.905.86548-5.80794,1.73761a2.37927,2.37927,0,0,1-.73061.17027,1.977,1.977,0,0,1-.05366-.75554c-.00266-7.37017.06107-14.74113-.03084-22.11014A8.10683,8.10683,0,0,1,44.39309,8.6456c2.32544-.593,4.63269-1.257,6.95094-1.87859a4.994,4.994,0,0,1,2.40022-.12194,3.951,3.951,0,0,1,3.16164,3.5277c.03073.35258.04047.708.04058,1.06209q.00333,11.05526.0016,22.11053c0,.152-.01315.30519.002.45561a.40523.40523,0,0,1-.36477.48143C54.2778,34.83623,51.97083,35.39214,49.58746,35.96578Zm-.0022-23.31714c-1.05807.29115-2.02973.55686-3.00039.8262-.62451.17329-.62883.17568-.62933.79407q-.00307,3.87395.00334,7.74789c.00037.15991-.08186.352.14246.51246,1.04335-.28083,2.1144-.57053,3.18638-.8567.28512-.07611.30056-.28533.30019-.52882C49.58374,18.36045,49.58526,15.57715,49.58526,12.64864Z"/><path class="cls-2" d="M179.39453,31.314V41.51842c-.252.087-.45043-.051-.64638-.117-1.96274-.66166-3.9219-1.3339-5.88262-2.00156-.67877-.23113-.6827-.22909-.68283-.93466q-.00147-8.09313-.00071-16.18627,0-5.47141.00319-10.94282a1.84419,1.84419,0,0,1,.06212-.81823c.24869-.11051.44933.04942.65354.11527,3.92078,1.26422,7.806,2.63218,11.64039,4.13681a8.71385,8.71385,0,0,1,5.40012,6.3145,7.213,7.213,0,0,1,.138,1.81316q.01188,3.98953.00183,7.97913c-.00031.30359-.00836.60846-.03658.91052a2.19117,2.19117,0,0,1-2.60806,2.00661c-.24254-.03834-.4826-.0922-.73146-.14038a1.34591,1.34591,0,0,0,.2093.7643q1.46008,3.58386,2.93859,7.16017a2.89675,2.89675,0,0,1,.23446,1.17767c-.0146.95962-.00463,1.91962-.00463,2.83754-.198.18627-.32647.05221-.45359.00188-2.06746-.81849-4.13115-1.6466-6.202-2.45642a.65076.65076,0,0,1-.50436-.715c.0305-.86016.00813-1.72216.01-2.58339a2.18361,2.18361,0,0,0-.15-.88733c-1.04606-2.46851-2.07741-4.94324-3.11592-7.41495a1.72165,1.72165,0,0,0-.154-.24474Zm3.43384-4.63667c.0482-.09649.08927-.1404.0894-.18443.00675-2.17784.00533-4.35571.01868-6.53349.00195-.31614-.15085-.4391-.41937-.53375-.83381-.29391-1.6595-.61075-2.49118-.91082-.18313-.06607-.35873-.21017-.62252-.07845,0,.85853,0,1.74228,0,2.626,0,1.29161-.002,2.58323.00217,3.87482.0007.21738-.06271.4654.23528.57341C180.70651,25.89692,181.77,26.28936,182.82837,26.67731Z"/><path class="cls-2" d="M.01443,55.81865V54.9452Q.01443,41.38189,0,27.81861A1.12466,1.12466,0,0,1,.69393,26.6519c3.56673-1.90976,7.16391-3.75782,10.81506-5.50079a8.21922,8.21922,0,0,1,2.05946-.74994,3.02978,3.02978,0,0,1,3.65893,2.64867,18.03189,18.03189,0,0,1,.00353,4.24358,5.562,5.562,0,0,1-1.16946,2.60145c-.1431.199-.29833.38929-.43753.57.10714.18682.27576.18333.4108.24428a1.9913,1.9913,0,0,1,1.20889,1.54446,5.89413,5.89413,0,0,1,.07947,1.05821c-.00276,2.65946.00455,5.319-.00285,7.97841a8.93251,8.93251,0,0,1-5.09826,8.2713c-2.84841,1.52922-5.80873,2.85041-8.66727,4.36806C2.41914,54.53247,1.286,55.14.01443,55.81865ZM6.989,46.7089c.8875-.43335,1.77934-.89345,2.69323-1.30452a.89631.89631,0,0,0,.61539-.97166c-.03782-1.92094-.01367-3.84309-.01713-5.76477a1.15109,1.15109,0,0,0-.093-.6524c-.92206.449-1.83845.91748-2.77523,1.34084a.80141.80141,0,0,0-.54177.86349c.02631,1.9972.01047,3.99494.01341,5.99248A.66142.66142,0,0,0,6.989,46.7089ZM6.88228,34.196c1.06619-.52729,2.00332-1.01307,2.96142-1.45317a.70221.70221,0,0,0,.44533-.7664c-.01747-1.18765-.00166-2.37575-.00933-3.56361a4.49,4.49,0,0,0-.06161-1.19308c-1.05082.51412-2.06442,1.0123-3.08052,1.50535a.46823.46823,0,0,0-.25848.49383C6.885,30.83553,6.88228,32.45218,6.88228,34.196Z"/><path class="cls-2" d="M161.26754,30.55237V7.347a.77055.77055,0,0,1,.63434.04207q3.02781.85371,6.05541,1.70837c.62714.17785.63066.18422.63074.79615q.00153,11.36056-.00312,22.72114a3.75407,3.75407,0,0,1-2.72132,3.92607,4.75575,4.75575,0,0,1-2.55018-.00749c-2.57233-.64957-5.14744-1.28885-7.7129-1.96463a7.31914,7.31914,0,0,1-4.65178-3.748,5.80318,5.80318,0,0,1-.72355-2.8397q-.00564-11.43657-.0015-22.87313c0-.12437.01434-.24874.02122-.36036a.69778.69778,0,0,1,.60315-.01632q3.07025.69,6.13651,1.39769c.64749.14959.64818.16079.64829.84418q.00136,8.51094.00054,17.02187c0,1.59576-.00308,3.19154.00109,4.7873.00271,1.03772-.09352.81784.85643,1.06933C159.38944,30.08938,160.29321,30.30733,161.26754,30.55237Z"/><path class="cls-2" d="M124.2103,9.78164c-1.42562-.09885-2.7601-.19236-4.09473-.28361-.98457-.06731-1.96863-.14976-2.95437-.18862-.407-.016-.50992-.17853-.49971-.55824.02311-.8602-.01306-1.72213.01548-2.582.01418-.42707-.18869-.51135-.54684-.519-.9109-.01949-1.82186-.04844-2.73176-.0944-.3309-.01672-.4422.09856-.43891.42773.01287,1.29112.005,2.58245.00483,3.87369q-.00008.56967-.00008,1.13934c.00021.888-.04781.803.7563.82074,2.2024.04858,4.39733.23645,6.597.32956a4.176,4.176,0,0,1,3.91029,4.06837c-.06932,2.606-.055,5.21586-.00725,7.82281a5.00677,5.00677,0,0,1-5.08807,5.10359c-1.9471-.01733-3.8934-.1586-5.83934-.25849a28.46686,28.46686,0,0,1-3.10606-.15015,5.55276,5.55276,0,0,1-4.78022-5.51325c-.012-1.01261.00727-2.0256-.00714-3.03814-.00455-.32.0914-.4474.4284-.4462,2.25274.00807,4.505.02482,6.7563.11974.30117.01269.38613.13928.38294.41891-.01011.886.0169,1.77292-.01219,2.65811-.013.39515.12133.54741.50543.55571.93624.02022,1.87252.05,2.80787.09481.2973.01424.40316-.08927.4021-.38214-.00651-1.79759-.01362-3.59533.005-5.39276.00466-.44975-.245-.4743-.57573-.48422q-2.69411-.08083-5.38779-.17566A14.12175,14.12175,0,0,1,108.517,17.031a3.73138,3.73138,0,0,1-3.1075-3.67867q-.02742-3.91154-.00145-7.8234A5.36307,5.36307,0,0,1,110.96152.04817c1.39131.00375,2.78567.03662,4.17267.13806,1.28745.09417,2.57961.0774,3.86451.2294a5.94045,5.94045,0,0,1,5.2098,5.77994C124.21955,7.35733,124.2103,8.51929,124.2103,9.78164Z"/><path class="cls-2" d="M210.80541,55.80133c-1.37391-.764-2.72032-1.4002-3.97848-2.197a5.4985,5.4985,0,0,1-1.22-1.1345,10.61875,10.61875,0,0,1-.91991-1.34662c-.18124-.06217-.18443.06138-.238.13621a1.035,1.035,0,0,1-1.37057.457,4.26,4.26,0,0,1-.48779-.20751c-1.27545-.61411-2.56313-1.20459-3.8215-1.852a9.62611,9.62611,0,0,1-4.98442-6.11063,6.368,6.368,0,0,1-.23188-1.80127q.00159-8.81388-.00147-17.62777a6.66391,6.66391,0,0,1,.09866-1.13285,3.04166,3.04166,0,0,1,3.71823-2.566,6.47781,6.47781,0,0,1,1.50444.50616c2.30845,1.09145,4.62269,2.17645,6.86075,3.40353a9.856,9.856,0,0,1,5.06241,7.19206,12.43206,12.43206,0,0,1,.06579,2.12257c.00861.75862.00193,1.51741.00193,2.258-.23151.13961-.36656-.02994-.50729-.10367-1.94836-1.02084-3.88574-2.0629-5.84232-3.06759a.81549.81549,0,0,1-.52614-.86941c.03326-.85984.00773-1.72189.01061-2.583.00068-.20611.01336-.41511-.209-.52441-1.03644-.50938-2.07454-1.01536-3.12511-1.529a1.24781,1.24781,0,0,0-.09178.71152c-.00371,5.47069.0069,10.94143-.01761,16.412a.99347.99347,0,0,0,.689,1.08313c.698.29285,1.36046.66964,2.04641.9929.19608.09241.37463.27184.63807.20528.12643-.17922.06432-.3856.06528-.57668.00676-1.34231-.00807-2.68483.0108-4.02691a1.744,1.744,0,0,0-.30759-1.06111c-.38541-.56393-.733-1.15387-1.12314-1.71433a1.598,1.598,0,0,1-.30545-.98842c.01722-.98465.00581-1.9698.00581-2.91746.2466-.17582.38834-.00667.52974.06386,2.55636,1.27494,5.08644,2.60059,7.60158,3.95508a.69333.69333,0,0,1,.46722.68091q-.023,7.75-.01488,15.50019A1.95089,1.95089,0,0,1,210.80541,55.80133Z"/><path class="cls-2" d="M71.7491,13.33035c0-1.53515.00007-3.0017-.00009-4.46826,0-.1773-.00487-.35469-.00108-.5319.005-.23421-.11163-.3146-.33165-.27794-.99772.16629-1.99516.3344-2.99362.49615-.26836.04347-.40561.17474-.38087.458.011.12567.001.25314.001.3798q-.00009,8.16927,0,16.33854c0,.12666.00615.25363-.00078.3799-.0154.28026.05775.42333.38986.36436.996-.17683,1.99469-.34051,2.99589-.48463.33146-.04772.32168-.25406.32155-.48844q-.00113-2.01381-.00014-4.02764c0-.17732.00756-.355-.00116-.53187-.01289-.26172.05346-.40814.36157-.44893,2.18172-.28879,4.35975-.60555,6.54141-.89489.55835-.074.57019-.04359.572.54568.00451,1.51985-.03934,3.041.00984,4.55932a6.47811,6.47811,0,0,1-5.2332,6.297c-1.82088.30271-3.64345.59524-5.46437.89768-.77321.12842-1.54206.284-2.31655.40351a4.96183,4.96183,0,0,1-3.84785-.716,3.92928,3.92928,0,0,1-1.69849-2.84166,10.86082,10.86082,0,0,1-.08066-1.21122q-.00765-8.54923-.003-17.09847a6.82549,6.82549,0,0,1,3.98779-6.39363,7.5228,7.5228,0,0,1,2.32832-.64692c2.22018-.37065,4.43885-.75254,6.66469-1.0862a4.90647,4.90647,0,0,1,3.17617.46587,4.41264,4.41264,0,0,1,2.46019,3.91972c.05012,1.72109.00792,3.44472.02488,5.16705.00362.36711-.085.53964-.48871.58571q-3.24214.37-6.4651.88725A3.8254,3.8254,0,0,1,71.7491,13.33035Z"/><path class="cls-2" d="M20.7691,45.69258v-.78274q0-13.55869.00171-27.1174c.00029-.91224-.11677-.73259.72913-1.07732q2.77175-1.12959,5.55873-2.22164a1.56826,1.56826,0,0,1,.86775-.21826v.88706q0,10.67224-.00055,21.34451c-.00016,1.04821-.05884,1.02748.90961.66553,2.03222-.75952,4.07329-1.49306,6.10682-2.17583.21379.10641.15832.2767.15871.4174.004,1.46853-.00936,2.93724.01022,4.40552a.63205.63205,0,0,1-.48027.7209c-4.59688,1.54969-9.1228,3.28775-13.60154,5.15011A1.08311,1.08311,0,0,1,20.7691,45.69258Z"/><path class="cls-3" d="M72.25184,47.44517c0,1.819.0002,3.53658-.00008,5.25414-.00014.8373-.00027.839-.80958.96842-.922.14745-1.84451.29149-2.738.43248-.19253-.16946-.13678-.35785-.1369-.52684q-.00458-6.71831-.0015-13.43661c.00024-.61915.005-.62611.652-.7346.67274-.11281,1.35322-.18536,2.02037-.32356a.66292.66292,0,0,1,.8352.42011c.78906,1.49869,1.60927,2.981,2.41981,4.46834a1.78322,1.78322,0,0,0,.504.62247v-.55673c0-1.61948-.00244-3.239.00126-4.85843.00133-.58083.00551-.59916.544-.6749.926-.13025,1.85608-.23144,2.78342-.35269.29331-.03835.42862.0637.40592.36729-.01128.151-.001.30349-.001.45531q.0001,6.45261.00005,12.90521c0,.15183-.01188.30467.00164.45526.026.28989-.10612.39666-.38691.42615-.77914.08182-1.5592.16669-2.33192.293a.69174.69174,0,0,1-.8354-.43879c-.788-1.49922-1.60615-2.98272-2.42068-4.46789A1.58832,1.58832,0,0,0,72.25184,47.44517Z"/><path class="cls-3" d="M142.58537,48.156v6.0985c-1.15639-.17411-2.2532-.33961-3.35016-.5041a.3181.3181,0,0,1-.30141-.36312c.00279-.12656-.00177-.25326-.00177-.37989q-.00021-6.61083.00186-13.22166a1.1472,1.1472,0,0,1,.08571-.63644c.9649.02539,1.91759.28151,2.8874.3952.33948.0398.39382.365.50743.60832.83477,1.78812,1.66053,3.58044,2.49418,5.36909a1.66136,1.66136,0,0,0,.41768.66382V40.13709c1.167.20925,2.25336.40731,3.34122.59651a.35478.35478,0,0,1,.34727.40542c-.00532.1264.00016.25324.00016.37988q.00012,6.57283-.00168,13.14567a1.40029,1.40029,0,0,1-.096.72662c-.95668-.17776-1.9216-.36248-2.889-.53343-.28434-.05025-.32878-.279-.42264-.481q-1.24753-2.68455-2.49833-5.36758A2.31628,2.31628,0,0,0,142.58537,48.156Z"/><path class="cls-3" d="M98.62379,43.05309A1.97068,1.97068,0,0,1,97.204,40.892c.02007-.48006-.018-.9633.01577-1.4419a2.8359,2.8359,0,0,1,2.82716-2.805c1.28824-.05675,2.58108-.05781,3.87047-.02607a2.675,2.675,0,0,1,2.5588,2.27511,13.41193,13.41193,0,0,1,.065,1.96968c.00529.22928-.11576.307-.33026.307q-1.55619-.00008-3.11238.01c-.22079.00125-.3172-.09858-.31428-.31952.005-.37952-.00765-.75932,0-1.13875.005-.25068-.09143-.34442-.35183-.369-1.4311-.13482-1.46691-.10933-1.46689,1.32588,0,.30369.024.60972-.00554.91051-.04025.41025.13625.51464.52.50858,1.49268-.02355,2.98577-.02226,4.47871-.028.3542-.00135.70989.0274,1.06227.00347.38229-.026.47254.14534.46.49273-.0219.6066-.0203,1.215-.00053,1.82176.01078.331-.11163.47529-.43662.42843-.40686-.05865-.51755.12615-.50739.51168.02266.85987.01472,1.72084.00342,2.58116-.00452.34431.02695.61564.48.54514.38071-.05925.47254.13765.46086.485-.02127.632-.01333,1.26529-.00344,1.89783.004.25455-.08623.36838-.34959.36562-.73378-.00769-1.4679-.012-2.20149.00218-.395.00763-.55669-.31024-.79341-.51937-.40309-.35611-.43892-.39966-.76757-.00538a1.55332,1.55332,0,0,1-1.40379.54154c-.65617-.02846-1.31541.02372-1.97285.01261a2.577,2.577,0,0,1-2.7518-2.54154c-.0734-1.261-.04982-2.53043-.009-3.79417C97.25515,44.05269,97.59437,43.66872,98.62379,43.05309Zm4.1601,3.637q0-.30325,0-.60651c-.00005-1.39486-.01422-1.39865-1.43348-1.24695-.29335.03136-.39226.13931-.3874.42068.01089.63158.00268,1.2635.00262,1.89528-.00014,1.44326-.00077,1.43413,1.43582,1.31866.29849-.024.39229-.13751.385-.41659C102.77449,47.60009,102.78321,47.145,102.78389,46.69009Z"/><path class="cls-3" d="M38.58979,52.14068a1.45983,1.45983,0,0,1,.85123,1.47759c-.01379,1.44208.02108,2.885-.01227,4.32643a3.62221,3.62221,0,0,1-2.43757,3.514c-2.0257.77372-4.11666,1.37666-6.18029,2.05078a.33562.33562,0,0,1-.34346-.07056v-.62561q0-6.52791.00023-13.05584c.00011-.74351.0005-.74812.723-.9832q2.6288-.85538,5.26063-1.70133a5.25566,5.25566,0,0,1,.80445-.21137,1.83179,1.83179,0,0,1,2.14782,1.641,15.315,15.315,0,0,1,.00476,2.047A2.99592,2.99592,0,0,1,38.58979,52.14068Zm-4.50522,7.42748a5.67056,5.67056,0,0,0,1.45407-.36924.36274.36274,0,0,0,.28881-.38971c-.00572-.98543-.0035-1.97091-.00665-2.95635-.00056-.1751-.07668-.30869-.27124-.25359-.43574.12342-.86712.26324-1.29625.40833-.1331.045-.1694.17179-.16928.30776C34.085,57.39425,34.08457,58.47315,34.08457,59.56816Zm-.00234-6.38794a5.12191,5.12191,0,0,0,1.49718-.38284.31589.31589,0,0,0,.2481-.33289c-.00193-.7031.00654-1.40624.0034-2.10933-.00077-.17478-.08618-.2915-.28364-.233q-.61266.18136-1.22078.37791c-.19626.06332-.2484.21548-.24677.41215C34.08592,51.66272,34.08223,52.41335,34.08223,53.18022Z"/><path class="cls-3" d="M41.22243,52.88882c0-1.41686.04484-2.83552-.01143-4.25014a3.947,3.947,0,0,1,2.95128-3.83983c1.05739-.24056,2.096-.56313,3.145-.8416a5.11592,5.11592,0,0,1,.744-.14517,1.96613,1.96613,0,0,1,2.17009,1.58362,4.29909,4.29909,0,0,1,.085.828c.006,2.83371.00129,5.66745.00488,8.50117a3.80327,3.80327,0,0,1-1.05566,2.75833,3.58639,3.58639,0,0,1-1.663,1.00964c-1.242.33946-2.48252.68629-3.73238.99462a1.96816,1.96816,0,0,1-2.62994-2.04453c-.02034-1.51778-.00441-3.03606-.00441-4.55411Zm3.70479,3.4654a.66873.66873,0,0,0,.20516.01757c.295-.06536.589-.13667.88059-.21622.64182-.17515.64488-.17771.64537-.86516q.00261-3.59885.00062-7.19768c0-1.20765,0-1.20765-1.18427-.87734-.60949.17-.61417.17-.61464.80318q-.0029,3.90189.00079,7.80379A.98747.98747,0,0,0,44.92722,56.35422Z"/><path class="cls-3" d="M86.41992,51.21129a1.35592,1.35592,0,0,1-1.34709.8792c-.53.03584-1.05824.09745-1.58776.14163a2.72529,2.72529,0,0,1-2.006-.51633,2.20526,2.20526,0,0,1-.90722-1.67941c-.0088-.177-.01969-.35413-.01975-.5312-.00109-2.86159.01107-5.72325-.00663-8.58473a3.15575,3.15575,0,0,1,1.0889-2.561,2.75788,2.75788,0,0,1,1.49095-.69221c1.3071-.15653,2.61926-.25078,3.93209-.34622a2.52726,2.52726,0,0,1,2.77917,2.55c.01691.48056-.0027.96236.01132,1.4431a.33185.33185,0,0,1-.34978.39114q-1.552.11515-3.10431.22643c-.22719.01658-.3161-.09541-.314-.31435.00465-.47523.00144-.95055.00144-1.46446-.56157.04209-1.03529.08128-1.50957.11153a.29172.29172,0,0,0-.31113.33831c.002.12656-.00206.25321-.00206.37982q-.00021,3.87455.001,7.74908c.00071.67031.00688.67031.67092.60974,1.14878-.10477,1.14878-.10477,1.14882-1.25213a4.879,4.879,0,0,1,.00392-.60727,1.43544,1.43544,0,0,0-.646-1.56492.60272.60272,0,0,1-.27328-.58253c.04521-1.81729-.28562-1.4745,1.41257-1.59714.90861-.06563,1.81612-.14681,2.724-.2228.5218-.04367.54012-.04537.54146.439.00676,2.43107-.00508,4.86222.01134,7.29319.00258.38046-.163.48872-.488.50131-.55635.02154-1.1124.05105-1.6688.071A1.92316,1.92316,0,0,1,86.41992,51.21129Z"/><path class="cls-3" d="M159.983,53.24633c1.16708.29621,2.23963.57453,3.31611.8365a.3287.3287,0,0,1,.291.36778c-.00078.35445.01491.70954-.0019,1.06315-.0153.322.0639.51829.42684.58083a9.5265,9.5265,0,0,0,1.38351.30012c0-.95173-.00608-1.86027.00345-2.76865.00314-.29891-.17478-.37937-.41471-.44073q-1.46832-.37556-2.9328-.76606a2.55924,2.55924,0,0,1-2.11175-2.74477c-.0049-1.1393-.00186-2.27864-.00013-3.418a3.55872,3.55872,0,0,1,.08558-.90361,1.941,1.941,0,0,1,2.28638-1.51208,30.6395,30.6395,0,0,1,4.31574,1.15434,3.60611,3.60611,0,0,1,2.27592,2.56912,11.20408,11.20408,0,0,1,.1382,2.63949c-.94593-.25728-1.795-.48454-2.64192-.71952-1.00054-.2776-1.00021-.2805-1.00262-1.35371-.002-.87579.047-.748-.73263-.946a2.57407,2.57407,0,0,0-1.074-.19616c0,.91662.00688,1.82576-.00392,2.73468-.0035.29565.15475.377.40481.44109.92973.23842,1.854.49791,2.78062.74863a2.69669,2.69669,0,0,1,2.26442,2.95987c.00246,1.16464-.00171,2.32927-.00069,3.49391a2.49218,2.49218,0,0,1-.31535,1.31222,1.96657,1.96657,0,0,1-2.18828.84181c-1.37383-.33424-2.75149-.67388-4.092-1.1182a3.51371,3.51371,0,0,1-2.46-3.00285A9.38007,9.38007,0,0,1,159.983,53.24633Z"/><path class="cls-3" d="M174.39619,50.06948c0,.97114.01338,1.855-.00685,2.73818-.00762.33372.18007.42957.43622.511.96255.306,1.92137.62382,2.88542.925a2.87806,2.87806,0,0,1,1.52876,1.06036,2.50779,2.50779,0,0,1,.53036,1.47509c.01113,1.39186.039,2.78494-.00438,4.17552a1.80089,1.80089,0,0,1-2.4822,1.80722c-1.33656-.37506-2.67569-.76668-3.96694-1.27073a3.73647,3.73647,0,0,1-2.4869-3.25557,10.88555,10.88555,0,0,1-.004-2.04428c.98.2962,1.9158.5715,2.84662.86265.8009.25051.70727.11005.72564.97.02738,1.28249-.2427.97469,1.05772,1.4063.16721.0555.33835.10029.50987.1409a.8332.8332,0,0,0,.22146-.0331c0-.91527.00061-1.84362-.00035-2.772-.00032-.31108-.25193-.33382-.46528-.40141q-1.40837-.44616-2.816-.89473a2.70925,2.70925,0,0,1-2.117-2.85876c-.01243-1.13876-.00241-2.27776-.00233-3.41665,0-.05062.00135-.10123.00118-.15184a1.99778,1.99778,0,0,1,2.86043-2.034c1.07446.36848,2.16791.68124,3.24548,1.04109a4.07239,4.07239,0,0,1,2.88353,4.01539c.00345.37957-.00316.75922-.00182,1.13883.001.28268-.14141.35281-.38992.27038q-1.438-.477-2.87552-.95529c-.2095-.06969-.35777-.18433-.31955-.43732a.6203.6203,0,0,0,0-.15162c-.04348-.44388.20532-1.01572-.12326-1.30475A3.63287,3.63287,0,0,0,174.39619,50.06948Z"/><path class="cls-3" d="M56.63732,51.89713a5.4737,5.4737,0,0,0-.88347,2.88128c.04879.42481-.00731.86062.01244,1.29014.015.32651-.07643.51816-.42628.59073-.91528.18986-1.82291.41649-2.73774.6087-.48469.10185-.52152.06517-.53063-.42959-.0112-.60745.00614-1.21546-.00652-1.82286a1.97948,1.97948,0,0,1,.23738-.86751c.61359-1.36016,1.20861-2.72886,1.83814-4.08153a.93943.93943,0,0,0-.03784-.98519c-.59477-.9999-1.14557-2.02587-1.73274-3.03043a2.01134,2.01134,0,0,1-.30743-1.147c.02557-.55585.01912-1.11415.0018-1.67063-.01051-.33735.109-.48913.45429-.55958,1.037-.21161,2.0658-.46345,3.07744-.69493.22936.12958.15885.3264.1623.49086.00956.45555.00331.91143.00341,1.36717a3.03388,3.03388,0,0,0,.90082,2.28946,5.41371,5.41371,0,0,0,.89-3.59171c-.06327-.98761-.01242-.99117.96665-1.18823q1.07744-.21687,2.15538-.43126a.68129.68129,0,0,1,.57387.04056c0,.79467.0157,1.627-.01076,2.45809a1.8265,1.8265,0,0,1-.22646.63632c-.57174,1.268-1.11332,2.55166-1.74187,3.79108a1.33811,1.33811,0,0,0,.07834,1.46133c.56087.93135,1.06214,1.8984,1.60627,2.84015a2.04117,2.04117,0,0,1,.30515,1.14859c-.0254.58125-.00506,1.16441-.0084,1.74674-.001.1748.01793.371-.22367.416-1.13536.21151-2.2527.52811-3.4239.6444a5.30726,5.30726,0,0,1-.0493-1.63624A3.57614,3.57614,0,0,0,56.63732,51.89713Z"/><path class="cls-3" d="M158.96275,45.7231c-1.189-.26992-2.39029-.54-3.59022-.81594-.86481-.19892-.86434-.20246-.866.68636-.00083.43021.02488.86229-.0072,1.29008-.03082.41084.13395.58445.52821.66341.86628.17349,1.72006.41125,2.5883.57221.39658.07352.56689.21359.54562.63253-.0307.60582-.01981,1.21458-.00495,1.82155.00792.32365-.13845.39553-.41757.33228q-1.18234-.26794-2.36527-.53332c-.17243-.03862-.347-.06784-.51947-.10615-.22375-.04969-.34176.03469-.34224.26582-.002.98689.0003,1.9738-.00457,2.96067-.00182.36693.29178.36953.52356.42414,1.13073.26641,2.26433.5206,3.39681.77959.631.14431.634.1447.6375.78248.00371.67822.00083,1.35646.00083,2.12043-.91474-.21293-1.73983-.41447-2.56928-.59611q-2.55348-.55917-5.11155-1.09717c-.36-.07537-.5622-.183-.56042-.62748.0183-4.58036.01142-9.16082.01386-13.74126a2.77342,2.77342,0,0,1,.04972-.34769c1.27727.26537,2.53593.51555,3.78918.79043,1.25794.27591,2.51076.57527,3.76528.86669.61694.14332.62069.1457.62189.798.00117.63243-.00649,1.26491-.01512,1.8973C159.049,45.58669,159.00843,45.63085,158.96275,45.7231Z"/><path class="cls-3" d="M114.857,44.12382q0-3.343.0015-6.68593c.00114-.65656.00911-.65371.68338-.61307q3.44909.20793,6.89833.41266c.1516.00908.30277.02526.45439.03376.25451.01428.34718.15939.34593.39951-.00344.65843-.00834,1.317.00235,1.9753.00564.34631-.15506.42222-.47322.39594-1.10983-.09172-2.22141-.16224-3.33248-.23873-.17672-.01217-.35438-.01041-.53126-.02086-.23053-.01363-.31034.10548-.30976.31992.0026.96235.01062,1.92488-.0044,2.887-.00578.3704.22776.40124.49153.41926.88392.0604,1.76765.125,2.65224.17372.54483.03.56178-.0359.56025.6176-.00125.53184.00517,1.06374-.00164,1.59549-.00707.553-.01286.56516-.60966.535-.83419-.0422-1.66686-.11439-2.50109-.15552-.57454-.02832-.584-.01455-.58621.563-.00534,1.41821.00138,2.83646-.00335,4.25468-.00195.58243-.00965.58186-.57724.5577-.86007-.03661-1.721-.06-2.58-.11286-.56779-.03491-.57671-.05355-.57783-.6276Q114.85214,47.4668,114.857,44.12382Z"/><path class="cls-3" d="M1.90248,66.60513c-.06715-.85778-.10792-1.66172-.201-2.45954a.86659.86659,0,0,1,.49879-.96642c2.28143-1.36108,4.57141-2.707,6.8879-4.00731q7.71042-4.3281,15.72579-8.06193a1.49088,1.49088,0,0,1,.77779-.25459c0,.92767-.00482,1.85343.00356,2.77909a.40114.40114,0,0,1-.2855.39435c-.38933.18227-.77917.36349-1.167.54888A237.17693,237.17693,0,0,0,2.87812,66.11749,2.785,2.785,0,0,1,1.90248,66.60513Z"/><path class="cls-3" d="M207.64085,66.31255a1.18775,1.18775,0,0,1-.71441-.3071A230.29652,230.29652,0,0,0,184.7591,54.08092a.83852.83852,0,0,1-.56629-.92093c.03351-.781.00919-1.56449.00919-2.31181.2422-.17175.38618-.00728.53057.05936a237.97576,237.97576,0,0,1,22.6343,12.01436.81268.81268,0,0,1,.47283.90663C207.739,64.65133,207.70365,65.48213,207.64085,66.31255Z"/><path class="cls-3" d="M25.59176,56.50882c0,1.00349-.00655,1.92983.00368,2.856.00341.30865-.23378.3617-.42888.45593-1.365.65928-2.73634,1.30534-4.09923,1.96886-6.049,2.945-11.9416,6.17751-17.70872,9.64055-.25927.15568-.52422.30217-.79049.44557-.0358.01928-.095-.00493-.2083-.01447-.0806-.91061-.1578-1.8335-.24619-2.75534-.03316-.3458.2501-.41116.45448-.53113,1.548-.90864,3.09363-1.82167,4.65414-2.70848q8.573-4.87184,17.52714-9.003C24.99708,56.749,25.25234,56.65113,25.59176,56.50882Z"/><path class="cls-3" d="M207.16161,71.655a1.87915,1.87915,0,0,1-.72343-.34452,236.558,236.558,0,0,0-21.3968-11.39c-.183-.08548-.36624-.17077-.55162-.251a.4527.4527,0,0,1-.29018-.475c.00889-.8825.0036-1.76514.0036-2.61631.24818-.13114.39348-.00112.54878.0697A236.91293,236.91293,0,0,1,206.957,68.28634a.7285.7285,0,0,1,.44224.90184,9.09111,9.09111,0,0,0-.09431,1.20842C207.26862,70.79877,207.21432,71.19931,207.16161,71.655Z"/><path class="cls-3" d="M2.85718,77.21979c-.08722-.96815-.16246-1.87055-.25278-2.77143-.03385-.33757.22217-.4267.43255-.54821,1.51148-.873,3.018-1.755,4.54215-2.6055,5.63278-3.14309,11.37386-6.07343,17.2507-8.73481a1.13762,1.13762,0,0,1,.76227-.21656c0,.89991-.00822,1.80623.0042,2.71228.00471.34385-.25412.39963-.47585.50531-1.50593.71777-3.01773,1.4234-4.51848,2.15184-5.75939,2.79549-11.38183,5.8456-16.89159,9.10475A2.31762,2.31762,0,0,1,2.85718,77.21979Z"/><path class="cls-3" d="M184.27415,62.16061c.53247.24009,1.01418.454,1.4932.67377q10.51878,4.82544,20.5134,10.6597a1.00262,1.00262,0,0,1,.63174,1.18174c-.12614.7396-.156,1.4956-.22754,2.24525-.29743.04016-.46515-.14175-.65223-.25217A233.29554,233.29554,0,0,0,184.82,65.54843c-.44861-.206-.671-.42267-.63126-.94961.055-.73012.01751-1.46717.02247-2.20124A1.3969,1.3969,0,0,1,184.27415,62.16061Z"/><path class="cls-3" d="M129.22915,37.836c2.2965.2848,4.47906.55435,6.66123.82707.42657.05331.85069.12707,1.2777.17578.25974.02963.41078.10932.40379.41579-.01724.75614-.00565,1.513-.00565,2.34063a10.96685,10.96685,0,0,1-1.74208-.18571c-.56636-.05853-.57536-.07549-.576.5214q-.00556,5.052-.00188,10.104c0,.15194.00121.30389-.00026.45582-.0067.69188-.0061.68523-.71685.59068-.85247-.1134-1.705-.2312-2.56086-.312-.35851-.03384-.46143-.17007-.45475-.52185.02116-1.11382.00777-2.2283.00776-3.34252q0-3.72254-.00006-7.44505c0-.61426.02194-.59317-.55577-.64449-.42834-.038-.855-.09438-1.2829-.13821-.28113-.02881-.468-.1147-.45927-.46058C129.24227,39.46172,129.22915,38.70591,129.22915,37.836Z"/><path class="cls-3" d="M66.65941,39.82493a1.74345,1.74345,0,0,1,.0827.768q.00447,6.53392.00224,13.06785c0,.12663-.00976.2541.00149.3797a.34874.34874,0,0,1-.30915.43369q-1.53158.26811-3.06351.53429c-.22.03808-.33622-.05656-.33723-.284-.00067-.15192-.00368-.30384-.00369-.45576q-.00026-6.53392-.00006-13.06786c0-.1013.00574-.203-.00114-.30383-.02-.29325.06668-.45326.40229-.50541C64.50467,40.22512,65.5699,40.01941,66.65941,39.82493Z"/><path class="cls-3" d="M127.85335,45.046q0,3.30555-.00128,6.61109c-.00093.63308-.00927.65163-.61231.60571-.90831-.06918-1.81383-.17443-2.7218-.249-.28321-.02325-.41359-.137-.39149-.42535.01158-.15106.00123-.30379.00123-.45577q-.00012-6.45912,0-12.91824,0-.26593.00267-.53188c.00228-.2283.12689-.30741.34222-.28686q1.5496.148,3.09958.29171a.269.269,0,0,1,.27716.29161c.00294.17727.00387.35459.00389.53188Q127.85356,41.7784,127.85335,45.046Z"/><path class="cls-2" d="M188.26682,81.6236a15.69273,15.69273,0,0,1,2.202.2692c-.67484,0-1.34975.00532-2.02435-.00679-.0836-.00149-.16549-.09565-.24817-.14688A.37085.37085,0,0,0,188.26682,81.6236Z"/><path class="cls-4" d="M151.41121,184.08316c.04439,1.53142-.04357,3.01911.138,4.50393a1.49183,1.49183,0,0,0,.34568.66539c.655.93212,1.32015,1.85711,1.982,2.78437.37644.52735.38195.53082.01951,1.04127a28.94659,28.94659,0,0,1-2.44938,2.89987c-2.99945,3.22926-6.193,6.27241-9.18887,9.50295a131.4664,131.4664,0,0,1-15.56138,13.79176c-3.04726,2.39-6.04835,4.84118-9.29785,6.963a133.643,133.643,0,0,1-11.80134,6.86639,1.25661,1.25661,0,0,1-1.43962-.07786c-3.35441-2.17519-6.73111-4.316-10.09838-6.47136-.49481-.31673-.49635-.3279-.25819-.89583.7532-1.796,1.49046-3.59919,2.27526-5.38135a23.43423,23.43423,0,0,1,2.55448-4.03389,67.86974,67.86974,0,0,0,4.03522-6.06661,9.05373,9.05373,0,0,0,1.23637-3.47623,7.41225,7.41225,0,0,1,1.04748-2.98584c1.55674-2.63826,3.13919-5.26044,4.93-7.74966.31039-.43145.61442-.87123.963-1.27089a35.91227,35.91227,0,0,0,4.1497-6.16187c.92756-1.65579,1.86447-3.30685,2.76026-4.9798a16.80862,16.80862,0,0,0,1.96952-5.9436,11.69632,11.69632,0,0,0-.29236-3.99085c-.85472-3.82608-1.74-7.64588-2.44366-11.5039a31.88912,31.88912,0,0,1-.68206-7.16627,21.92268,21.92268,0,0,1,.32249-2.78917,13.89427,13.89427,0,0,0-.46013-6.377,25.80745,25.80745,0,0,0-1.941-4.76973c-.05888-.112-.12087-.22242-.185-.33147a3.85736,3.85736,0,0,0-4.42659-2.16307,25.56869,25.56869,0,0,0-3.56059.74612,25.797,25.797,0,0,1-9.33624.65426,46.22509,46.22509,0,0,0-11.66348.24986,20.79556,20.79556,0,0,1-6.57749-.10681,49.76446,49.76446,0,0,1-8.455-2.37687c-.70681-.24626-.70357-.17346-.59355-1.03277a24.96585,24.96585,0,0,0,.16043-2.80365c.02394-1.64614.00361-3.29288.00856-4.93934.00169-.56519.00969-.57208.55659-.66715a59.30535,59.30535,0,0,1,9.14239-.79262,46.68035,46.68035,0,0,1,5.61135.17828,14.07265,14.07265,0,0,1,3.74831.89289,11.437,11.437,0,0,0,3.76714.79779,5.32251,5.32251,0,0,0,2.93225-.63058c2.04722-1.19262,4.25035-1.176,6.49014-.96078a37.18817,37.18817,0,0,0,4.31877.249,2.80237,2.80237,0,0,0,1.36642-.36988,16.33918,16.33918,0,0,1,5.06409-1.96481,12.42531,12.42531,0,0,1,6.07633.29767,8.45476,8.45476,0,0,0,3.134.4539c.51748-.03506.51744-.0211.58582-.55372.05476-.42638.11839-.85171.16719-1.27874a1.59019,1.59019,0,0,0-.576-1.41688,8.46439,8.46439,0,0,0-1.23146-.88518,3.33856,3.33856,0,0,1-1.45084-1.78787,9.94833,9.94833,0,0,0-.89748-1.92323,8.08089,8.08089,0,0,1-.37943-7.71539,14.71981,14.71981,0,0,1,2.78724-4.22757,17.53075,17.53075,0,0,1,7.66455-5.27136,15.69324,15.69324,0,0,1,13.01311,1.46072,7.54079,7.54079,0,0,1,3.85042,6.72144c.09257,2.20326.03021,4.407-.03069,6.60894a24.4799,24.4799,0,0,0,1.85813,10.52921c.10013.2322.218.457.31254.69132a3.35119,3.35119,0,0,0,2.18349,2.07992,16.38543,16.38543,0,0,1,5.47245,3.344,10.31131,10.31131,0,0,1,1.53242,1.68026,18.3598,18.3598,0,0,0,2.42287,2.818,8.73248,8.73248,0,0,0,3.72313,2.11331c.26827.0699.52672.17651.79242.25728a4.72826,4.72826,0,0,1,3.301,3.45908,16.6621,16.6621,0,0,1,.41209,6.62512,21.39867,21.39867,0,0,1-.82447,4.085,5.553,5.553,0,0,1-.94774,1.88684,6.875,6.875,0,0,0-1.49366,4.594c.00818.91182-.03336,1.82537.00824,2.73536a14.65244,14.65244,0,0,1-1.20128,6.20886,37.7214,37.7214,0,0,1-2.02823,4.243c-1.12206,2.01447-2.05786,4.11719-3.01688,6.20966a20.20211,20.20211,0,0,1-1.41218,2.59848,3.95054,3.95054,0,0,1-2.9535,1.778A8.68835,8.68835,0,0,1,151.41121,184.08316Zm-16.50142-26.6256c-.00635.56171-.1975,1.04424.14013,1.53036a32.90558,32.90558,0,0,1,3.73587,7.01666.66942.66942,0,0,0,.78559.50919c1.18659-.07509,2.37542-.10748,3.55632-.26528a11.17689,11.17689,0,0,0,5.79618-2.43048,8.47112,8.47112,0,0,0,1.1231-1.12836,1.32363,1.32363,0,0,0,.26328-1.40806c-.168-.44969-.29646-.914-.45507-1.36745-.718-2.05254-1.4319-4.1066-2.16833-6.15252a1.11593,1.11593,0,0,1,.16085-1.17462,10.64907,10.64907,0,0,0,1.74967-4.405,19.84655,19.84655,0,0,0-.05526-6.94979,13.90673,13.90673,0,0,0-1.43371-4.45671,6.89673,6.89673,0,0,0-4.345-3.53865,2.26317,2.26317,0,0,1-1.32606-.89794,5.03339,5.03339,0,0,0-5.74515-1.77532c-.2122.08154-.43006.14833-.64246.2294a77.15592,77.15592,0,0,0-7.79022,3.55173,13.69226,13.69226,0,0,0-2.4826,1.60244,4.94046,4.94046,0,0,0-1.83782,3.05345,7.37207,7.37207,0,0,0,.04816,2.64211,15.17724,15.17724,0,0,0,1.28234,3.72015c1.08595,2.22808,2.19974,4.44263,3.30846,6.65956a21.08994,21.08994,0,0,0,1.67889,2.883,5.50771,5.50771,0,0,0,4.14891,2.49489C134.5544,157.41264,134.70223,157.43372,134.90979,157.45756Z"/><path class="cls-5" d="M36.82114,128.56012c.01028.35364.01747.70739.03177,1.06087a.42746.42746,0,0,0,.476.46606c.63249-.00313,1.26683.0212,1.89694-.01947.60994-.03938.80309-.2642.81712-.86316.01422-.607.00044-1.21459.00489-1.82188.0018-.24564-.02385-.46181-.33383-.49q.00087-.068.001-.13607a11.196,11.196,0,0,1,4.17767-1.2557,33.76389,33.76389,0,0,1,3.56066-.10946.95344.95344,0,0,0,.87628-.3303.93517.93517,0,0,1,.75956-.27413,11.45157,11.45157,0,0,1,6.03237,1.15536,1.08414,1.08414,0,0,0,1.26266-.062,2.35377,2.35377,0,0,1,1.79789-.37765c1.71861.2745,3.445.50241,5.17091.72841,1.05042.13752,2.107.2276,3.15855.357a4.39883,4.39883,0,0,1,1.78053.61161,1.76239,1.76239,0,0,1,.94375,1.61221c-.02,2.48106-.02476,4.96255.00054,7.44352.01147,1.12489-.49885,1.59428-1.59546,1.71414a15.49583,15.49583,0,0,1-3.03328-.03475c-1.76326-.15491-3.52735-.26795-5.29909-.25266a1.06473,1.06473,0,0,0-.78441.38165,27.575,27.575,0,0,0-2.219,2.4942,3.96322,3.96322,0,0,1-3.2917,1.70782,6.55482,6.55482,0,0,0-3.77836,1.17879c-.56417.38441-1.14909.73842-1.72575,1.10442a2.68646,2.68646,0,0,1-1.57935.44582,27.52793,27.52793,0,0,1-3.25984-.07943,10.11275,10.11275,0,0,1-4.20246-1.8428,20.05414,20.05414,0,0,1-4.18787-3.70988A5.59206,5.59206,0,0,1,33.1758,133.894a9.85612,9.85612,0,0,1,3.45555-5.2216,1.24714,1.24714,0,0,1,.19971-.10173Zm18.65346,6.36471a24.53692,24.53692,0,0,0-2.95032.16286,23.88528,23.88528,0,0,0-4.51522.93351,5.88491,5.88491,0,0,0-2.73737,1.69923c-1.79035,2.11076-.778,4.93493.81318,6.30262a.645.645,0,0,0,.8325.08842c.51687-.31742,1.031-.63938,1.547-.95816,1.62983-1.00685,3.29036-1.90313,5.31513-1.66895a1.82864,1.82864,0,0,0,1.55391-.6546c.82232-.85845,1.6365-1.72471,2.45149-2.59015a2.73861,2.73861,0,0,1,2.4-1.024c.878.09165.808.05437.8229-.81211.02135-1.24479.08808-1.46983-1.4747-1.59055a6.32809,6.32809,0,0,0-1.94043.07806A9.7563,9.7563,0,0,1,55.4746,134.92483Zm-7.54684-5.1526c0-.41744.01952-.823-.00423-1.226a1.77948,1.77948,0,0,0-3.05523-1.14785c-.19662.24464-.318.29331-.59646.06543a1.59172,1.59172,0,0,0-2.74728,1.04213,18.13554,18.13554,0,0,0-.15749,2.49158c-.01681.33008.13527.44468.44849.452q.71832.01666,1.43609.07321c1.35789.10734,2.72026.15691,4.08019.24016.318.01946.43856-.12213.5-.41688A13.83575,13.83575,0,0,0,47.92776,129.77223Z"/><path class="cls-3" d="M39.71507,126.75651q-.00018.068-.001.13607l-1.518.82459A3.39821,3.39821,0,0,1,39.71507,126.75651Z"/><polygon class="cls-3" points="37.962 127.84 37.951 127.784 37.99 127.791 37.962 127.84"/><path class="cls-5" d="M36.83106,128.57064a.22446.22446,0,0,1,.02673-.05826c.00734-.00864.02869-.00538.04372-.00749l-.08034.05526Z"/><path class="cls-5" d="M134.90979,157.45756c-.20756-.02384-.35539-.04492-.50392-.05728a5.50771,5.50771,0,0,1-4.14891-2.49489,21.08994,21.08994,0,0,1-1.67889-2.883c-1.10872-2.21693-2.22251-4.43148-3.30846-6.65956a15.17724,15.17724,0,0,1-1.28234-3.72015,7.37207,7.37207,0,0,1-.04816-2.64211,4.94046,4.94046,0,0,1,1.83782-3.05345,13.69226,13.69226,0,0,1,2.4826-1.60244,77.15592,77.15592,0,0,1,7.79022-3.55173c.2124-.08107.43026-.14786.64246-.2294a5.03339,5.03339,0,0,1,5.74515,1.77532,2.26317,2.26317,0,0,0,1.32606.89794,6.89673,6.89673,0,0,1,4.345,3.53865,13.90673,13.90673,0,0,1,1.43371,4.45671,19.84655,19.84655,0,0,1,.05526,6.94979,10.64907,10.64907,0,0,1-1.74967,4.405,1.11593,1.11593,0,0,0-.16085,1.17462c.73643,2.04592,1.4503,4.1,2.16833,6.15252.15861.45342.287.91776.45507,1.36745a1.32363,1.32363,0,0,1-.26328,1.40806,8.47112,8.47112,0,0,1-1.1231,1.12836,11.17689,11.17689,0,0,1-5.79618,2.43048c-1.1809.1578-2.36973.19019-3.55632.26528a.66942.66942,0,0,1-.78559-.50919,32.90558,32.90558,0,0,0-3.73587-7.01666C134.71229,158.5018,134.90344,158.01927,134.90979,157.45756Zm-8.34747-12.36124c.28533-.21985.20036-.49125.20866-.73526a16.38041,16.38041,0,0,1,.077-1.74321,1.42229,1.42229,0,0,1,.785-1.11773c1.27945-.72385,2.59405-1.37516,3.92926-1.9838,2.25542-1.02812,4.52424-2.02679,6.78448-3.04438a1.05255,1.05255,0,0,0,.69684-1.32388,3.65213,3.65213,0,0,0-.11061-.519c-.129-.40477-.2731-.47737-.67112-.30144-.74035.32726-1.47438.6692-2.20669,1.01428-1.625.76576-3.253,1.52551-4.869,2.30978-1.52541.74029-3.03456,1.514-4.55649,2.26158a1.20532,1.20532,0,0,0-.74561.97181,8.21082,8.21082,0,0,0,.22959,3.2993A1.5894,1.5894,0,0,0,126.56232,145.09632Zm17.51824-10.88026c.00351.066-.00386.09567.00754.113a2.22764,2.22764,0,0,0,.17344.24353,16.15611,16.15611,0,0,1,3.27638,6.27443,8.9288,8.9288,0,0,1,.40071,4.334c-.11795.56936-.13739.598-.6615.4083-.52382-.18964-.59979-.15072-.738.37559a3.41753,3.41753,0,0,0-.11637.89994c.00679.9118-.055,1.82826.01745,2.73432a25.37061,25.37061,0,0,0,.30911,3.1711,1.95253,1.95253,0,0,0,.502-.70134,12.54375,12.54375,0,0,0,.972-2.54716,24.12041,24.12041,0,0,0,.62393-6.77433,12.9173,12.9173,0,0,0-.77424-4.22948,8.37466,8.37466,0,0,0-2.1469-3.35662A3.07268,3.07268,0,0,0,144.08056,134.21606Zm-6.16872,7.98015c.13548-.476.3482-.83128.22078-1.26263a1.64566,1.64566,0,0,0-2.13616-1.1527,15.44137,15.44137,0,0,0-2.22784.95878c-.5409.25847-.55066.29174-.29251.86813.517,1.15438,1.046,2.30338,1.57031,3.45449.22018.48341.44668.96405.65906,1.45086.10857.24886.27655.386.53222.25611a19.37557,19.37557,0,0,0,2.71757-1.34185,1.72544,1.72544,0,0,0,.658-2.00977A1.676,1.676,0,0,0,137.91184,142.19621Zm-5.32262,2.41469c.04637-.19262.098-.356.124-.52344a1.5699,1.5699,0,0,0-2.02485-1.85374,15.0714,15.0714,0,0,0-2.5731,1.09623c-.29573.13423-.22354.33116-.118.56123q1.15359,2.51366,2.29109,5.03468c.145.32193.28537.4874.67479.27914.60031-.321,1.23124-.58527,1.85215-.86708a4.95595,4.95595,0,0,0,.997-.67879,1.93113,1.93113,0,0,0-.03131-2.547A2.4671,2.4671,0,0,0,132.58922,144.6109Zm6.07669-6.08934c.84957,1.873,1.67492,3.68724,2.49413,5.50428.124.275.26362.39407.581.24155.30739-.14771.426-.29523.25335-.63562-.27412-.54036-.51668-1.09725-.75939-1.6529-.25252-.57809-.24424-.578.31183-.8396.59464-.27973,1.18572-.56706,1.77934-.849.2419-.11489.23645-.30494.15287-.51a.3277.3277,0,0,0-.47928-.21912c-.37028.162-.73312.34271-1.10967.48816-.41443.1601-.82483.618-1.232.43014-.38441-.17734-.42557-.76915-.65653-1.15665-.21945-.36818-.07248-.51978.28049-.66581.72328-.29926,1.43055-.63814,2.13808-.974.22728-.10791.56014-.14073.36477-.57541-.19685-.43794-.45953-.28337-.7362-.16119q-.90114.398-1.79522.812C139.73139,138.00126,139.21517,138.25687,138.66591,138.52156Z"/><path class="cls-1" d="M55.4746,134.92483a9.7563,9.7563,0,0,0,2.11812-.03383,6.32809,6.32809,0,0,1,1.94043-.07806c1.56278.12072,1.49605.34576,1.4747,1.59055-.01486.86648.05512.90376-.8229.81211a2.73861,2.73861,0,0,0-2.4,1.024c-.815.86544-1.62917,1.7317-2.45149,2.59015a1.82864,1.82864,0,0,1-1.55391.6546c-2.02477-.23418-3.6853.6621-5.31513,1.66895-.516.31878-1.03014.64074-1.547.95816a.645.645,0,0,1-.8325-.08842c-1.59114-1.36769-2.60353-4.19186-.81318-6.30262a5.88491,5.88491,0,0,1,2.73737-1.69923,23.88528,23.88528,0,0,1,4.51522-.93351A24.53692,24.53692,0,0,1,55.4746,134.92483Z"/><path class="cls-2" d="M47.92776,129.77223a13.83575,13.83575,0,0,1-.09592,1.57371c-.06144.29475-.182.43634-.5.41688-1.35993-.08325-2.7223-.13282-4.08019-.24016q-.7186-.05682-1.43609-.07321c-.31322-.00728-.4653-.12188-.44849-.452a18.13554,18.13554,0,0,1,.15749-2.49158,1.59172,1.59172,0,0,1,2.74728-1.04213c.27849.22788.39984.17921.59646-.06543a1.77948,1.77948,0,0,1,3.05523,1.14785C47.94728,128.94921,47.92776,129.35479,47.92776,129.77223Zm-.774-.29391c0-.22643.01442-.454-.00275-.67908a1.06188,1.06188,0,0,0-2.10749-.13041,5.31232,5.31232,0,0,0-.12325.89447c-.02,1.07613-.32134,1.2055,1.11105,1.26707.17593.00757.35308.00007.52788.01745a.41244.41244,0,0,0,.514-.3942A6.68356,6.68356,0,0,0,47.15379,129.47832Zm-3.02692.03174h.00705c0-.25267.01337-.50619-.00277-.75783a.90594.90594,0,0,0-1.80138-.1538c-.087.521-.11432,1.05212-.161,1.57943-.01107.12507-.00729.28606.12755.32822a2.61531,2.61531,0,0,0,1.63369.11839c.37587-.13467.12124-.63478.19531-.96315A.70337.70337,0,0,0,44.12687,129.51006Z"/><path class="cls-2" d="M126.56232,145.09632a1.5894,1.5894,0,0,1-.44871-.912,8.21082,8.21082,0,0,1-.22959-3.2993,1.20532,1.20532,0,0,1,.74561-.97181c1.52193-.74757,3.03108-1.52129,4.55649-2.26158,1.61605-.78427,3.244-1.544,4.869-2.30978.73231-.34508,1.46634-.687,2.20669-1.01428.398-.17593.54213-.10333.67112.30144a3.65213,3.65213,0,0,1,.11061.519,1.05255,1.05255,0,0,1-.69684,1.32388c-2.26024,1.01759-4.52906,2.01626-6.78448,3.04438-1.33521.60864-2.64981,1.26-3.92926,1.9838a1.42229,1.42229,0,0,0-.785,1.11773,16.38041,16.38041,0,0,0-.077,1.74321C126.76268,144.60507,126.84765,144.87647,126.56232,145.09632Z"/><path class="cls-2" d="M144.08056,134.21606a3.07268,3.07268,0,0,1,1.84555.9453,8.37466,8.37466,0,0,1,2.1469,3.35662,12.9173,12.9173,0,0,1,.77424,4.22948,24.12041,24.12041,0,0,1-.62393,6.77433,12.54375,12.54375,0,0,1-.972,2.54716,1.95253,1.95253,0,0,1-.502.70134,25.37061,25.37061,0,0,1-.30911-3.1711c-.07249-.90606-.01066-1.82252-.01745-2.73432a3.41753,3.41753,0,0,1,.11637-.89994c.13819-.52631.21416-.56523.738-.37559.52411.18974.54355.16106.6615-.4083a8.9288,8.9288,0,0,0-.40071-4.334,16.15611,16.15611,0,0,0-3.27638-6.27443,2.22764,2.22764,0,0,1-.17344-.24353C144.0767,134.31173,144.08407,134.28206,144.08056,134.21606Z"/><path class="cls-2" d="M137.91184,142.19621a1.676,1.676,0,0,1,1.70145,1.22142,1.72544,1.72544,0,0,1-.658,2.00977,19.37557,19.37557,0,0,1-2.71757,1.34185c-.25567.12988-.42365-.00725-.53222-.25611-.21238-.48681-.43888-.96745-.65906-1.45086-.52429-1.15111-1.0533-2.30011-1.57031-3.45449-.25815-.57639-.24839-.60966.29251-.86813a15.44137,15.44137,0,0,1,2.22784-.95878,1.64566,1.64566,0,0,1,2.13616,1.1527C138.26,141.36493,138.04732,141.72024,137.91184,142.19621Zm.886,1.94841a1.04074,1.04074,0,0,0-1.02569-1.165,3.12457,3.12457,0,0,0-1.42909.4485c-1.09043.502-.9206.299-.49636,1.25442.12287.27671.25759.54825.376.82679.08549.20115.21272.27054.41637.17686.52691-.2424,1.063-.46711,1.57758-.73336A1.01938,1.01938,0,0,0,138.7978,144.14462Zm-2.42214-3.58329a.6373.6373,0,0,0-.21925.02631c-.35034.13508-.6953.28415-1.04191.4289-.75637.31587-.75772.31669-.44862,1.04834.10725.25384.22158.50475.33659.75521.0573.12482.16656.22238.29579.16506a5.07157,5.07157,0,0,0,1.84623-.971.73076.73076,0,0,0,.12823-.89929A.88931.88931,0,0,0,136.37566,140.56133Z"/><path class="cls-2" d="M132.58922,144.6109a2.4671,2.4671,0,0,1,1.19182.50127,1.93113,1.93113,0,0,1,.03131,2.547,4.95595,4.95595,0,0,1-.997.67879c-.62091.28181-1.25184.54607-1.85215.86708-.38942.20826-.52975.04279-.67479-.27914q-1.13605-2.52162-2.29109-5.03468c-.10558-.23007-.17777-.427.118-.56123a15.0714,15.0714,0,0,1,2.5731-1.09623,1.5699,1.5699,0,0,1,2.02485,1.85374C132.68724,144.25486,132.63559,144.41828,132.58922,144.6109Zm-.38978.81634a7.58775,7.58775,0,0,0-1.89641.776c-.16969.08337-.177.22991-.1074.38451.20683.45964.41466.91887.62747,1.37575.069.14805.19487.26927.35795.194a7.366,7.366,0,0,0,1.88494-.93947,1.11,1.11,0,0,0,.22989-1.1915A1.05578,1.05578,0,0,0,132.19944,145.42724Zm-2.44836.12888c.61514-.29184,1.2017-.52509,1.74111-.83928a.81474.81474,0,0,0,.37394-1.158.85754.85754,0,0,0-1.18274-.48927c-.44944.15755-.87859.37288-1.31727.56136a.41082.41082,0,0,0-.25062.60723C129.31156,144.66908,129.52592,145.09169,129.75108,145.55612Z"/><path class="cls-2" d="M138.66591,138.52156c.54926-.26469,1.06548-.5203,1.58758-.76326q.89315-.41563,1.79522-.812c.27667-.12218.53935-.27675.7362.16119.19537.43468-.13749.4675-.36477.57541-.70753.3359-1.4148.67478-2.13808.974-.353.146-.49994.29763-.28049.66581.231.3875.27212.97931.65653,1.15665.40718.18787.81758-.27,1.232-.43014.37655-.14545.73939-.32618,1.10967-.48816a.3277.3277,0,0,1,.47928.21912c.08358.2051.089.39515-.15287.51-.59362.282-1.1847.56928-1.77934.849-.55607.26159-.56435.26151-.31183.8396.24271.55565.48527,1.11254.75939,1.6529.17269.34039.054.48791-.25335.63562-.3174.15252-.457.03342-.581-.24155C140.34083,142.2088,139.51548,140.39453,138.66591,138.52156Z"/><path class="cls-5" d="M47.15349,129.47836a6.64158,6.64158,0,0,1-.08023.97526.41244.41244,0,0,1-.514.3942c-.1748-.01738-.352-.00988-.52788-.01745-1.43239-.06157-1.131-.19094-1.11105-1.26707a5.31232,5.31232,0,0,1,.12325-.89447,1.06188,1.06188,0,0,1,2.10749.13041C47.16821,129.02435,47.15379,129.25189,47.15349,129.47836Z"/><path class="cls-5" d="M44.12687,129.51006a.70337.70337,0,0,1-.00151.15126c-.07407.32837.18056.82848-.19531.96315a2.61531,2.61531,0,0,1-1.63369-.11839c-.13484-.04216-.13862-.20315-.12755-.32822.04664-.52731.074-1.05845.161-1.57943a.90594.90594,0,0,1,1.80138.1538c.01614.25164.00277.50516.00277.75783Z"/><path class="cls-5" d="M138.7978,144.14462a1.01938,1.01938,0,0,1-.58123.80826c-.51458.26625-1.05067.491-1.57758.73336-.20365.09368-.33088.02429-.41637-.17686-.11837-.27854-.25309-.55008-.376-.82679-.42424-.95538-.59407-.75245.49636-1.25442a3.12457,3.12457,0,0,1,1.42909-.4485A1.04074,1.04074,0,0,1,138.7978,144.14462Z"/><path class="cls-5" d="M136.37566,140.56133a.88931.88931,0,0,1,.89706.55355.73076.73076,0,0,1-.12823.89929,5.07157,5.07157,0,0,1-1.84623.971c-.12923.05732-.23849-.04024-.29579-.16506-.115-.25046-.22934-.50137-.33659-.75521-.3091-.73165-.30775-.73247.44862-1.04834.34661-.14475.69157-.29382,1.04191-.4289A.6373.6373,0,0,1,136.37566,140.56133Z"/><path class="cls-5" d="M132.19944,145.42724a1.05578,1.05578,0,0,1,1.09644.59926,1.11,1.11,0,0,1-.22989,1.1915,7.366,7.366,0,0,1-1.88494.93947c-.16308.07526-.289-.046-.35795-.194-.21281-.45688-.42064-.91611-.62747-1.37575-.06957-.1546-.06229-.30114.1074-.38451A7.58775,7.58775,0,0,1,132.19944,145.42724Z"/><path class="cls-5" d="M129.75108,145.55612c-.22516-.46443-.43952-.887-.63558-1.318a.41082.41082,0,0,1,.25062-.60723c.43868-.18848.86783-.40381,1.31727-.56136a.85754.85754,0,0,1,1.18274.48927.81474.81474,0,0,1-.37394,1.158C130.95278,145.031,130.36622,145.26428,129.75108,145.55612Z"/></g></g></svg>