<svg xmlns="http://www.w3.org/2000/svg" viewBox="0 0 504.44636 252.70526"><defs><style>.cls-1{fill:#010101;}.cls-2{fill:#0d0d0d;}.cls-3{fill:#0e0e0e;}.cls-4{fill:#101010;}.cls-5{fill:#060606;}.cls-6{fill:#242424;}.cls-7{fill:#202020;}.cls-8{fill:#141414;}.cls-9{fill:#2c2c2c;}.cls-10{fill:#121212;}.cls-11{fill:#2d2d2d;}.cls-12{fill:#363636;}.cls-13{fill:#262626;}.cls-14{fill:#fefefe;}.cls-15{fill:#fbfbfb;}.cls-16{fill:#fcfcfc;}.cls-17{fill:#f5f5f5;}.cls-18{fill:#f1f1f1;}.cls-19{fill:#e9e9e9;}.cls-20{fill:#eee;}.cls-21{fill:#4c4c4c;}.cls-22{fill:#020202;}.cls-23{fill:#404040;}.cls-24{fill:#f7f7f7;}.cls-25{fill:#f3f3f3;}.cls-26{fill:#e6e6e6;}</style></defs><g id="Layer_2" data-name="Layer 2"><g id="Layer_1-2" data-name="Layer 1"><path d="M109.65148,233.572c-11.02153-4.95269-23.07839-7.63393-32.88685-15.24911-24.90513-19.336-40.01548-44.61269-44.024-75.77871-4.46788-34.73785,7.12517-65.13477,27.86191-92.536.17855-.236.56384-.31553.8526-.46812,2.00781-2.145,4.24191-4.071,6.131-6.33094a2.44513,2.44513,0,0,1,1.85675-1.687c1.68819-.39619,2.627-1.82649,3.89054-2.81.68074-.52987,1.45136-.81033,2.17422-.14527.77386.712.31716,1.50942-.09142,2.18731-1.00668,1.67021-2.613,2.87765-3.58947,4.57628a10.70165,10.70165,0,0,1-.8117,1.12481c-.86552,1.17885-2.21238,2.08985-2.05161,4.883,5.26478-2.048,8.08175-6.19126,11.20571-9.94763C87.0491,34.482,95.8836,31.1381,104.73958,27.76623c6.34387-2.4154,13.25295-3.07849,19.29723-6.37065.93022-.867,1.53822-2.43075,3.17269-1.89852,1.494.4865,1.81531,1.95836,1.77088,3.25845-.2495,7.30211,1.61471,14.48338,1.14527,21.80133-.16012,2.49608-.84416,4.53377-3.063,5.86156a86.363,86.363,0,0,0-34.551,23.01677C71.00853,97.12284,65.38629,124.317,76.28384,154.49511c4.59946,12.73708,10.6022,24.81735,20.96467,34.12479,2.37126,2.12985,4.76335,4.1957,7.93545,5.01321,2.3585.60782,3.9478-.05537,4.12764-2.76632.06619-.99776.066-1.99619.06758-2.99491.01053-6.43883-.35905-6.82191-6.68291-6.94195-2.49163-.04727-5.0292.17117-7.388-.86228-2.03172-.89018-4.06446-2.042-3.97261-4.58909.0857-2.37623,2.14781-3.16838,4.07085-3.83389,8.97362-3.10536,9.10093-3.09985,8.94494-12.83646-.19707-12.3001.75906-24.62153-.88164-36.90117-.7506-5.6178.45471-11.27686.14779-16.94434A45.18557,45.18557,0,0,0,100.49615,90.4c-.43649-2.24128-2.20468-2.96257-4.05352-3.71127-1.42425-.57677-3.69069-.809-3.5213-2.71986.152-1.7147,2.29733-1.96,3.82278-2.44622,8.41126-.85984,16.881.4152,25.26557-.75123,3.279-1.987,3.81909-5.8045,5.772-8.673,1.238-5.57982.36211-11.22463.56416-16.83069.20764-5.76151,1.32472-6.99381,6.82628-8.67526,7.50505-2.29375,14.75571-.2151,22.09307.7304,6.27582.8087,6.95546-.01955,5.17594-6.30262-2.06518-5.647-.91712-11.51443-1.14-17.28416-.219-5.67073-.47687-5.968-6.08037-5.17312-5.41988.76879-10.81116,1.876-16.33565,1.51429-3.329-.218-6.63758-.52364-9.44625-2.62509-2.209-2.25935-1.268-5.10021-1.01915-7.59679.24082-2.41579,2.19515-2.18406,3.66058-.84269,1.17971,1.07983,1.63749,2.96459,3.62341,3.10831,6.51064.83221,13.02443,1.79581,19.27359-1.24016,3.16169-3.512,3.64235-3.48067,6.25195.42312.53273.79694.81283,1.80017,1.83418,2.18525,5.70191-.4959,10.76891,1.52146,15.72677,3.97088.8684,1.10226,2.26938,1.15215,3.42978,1.595,1.25837.48028,2.9038.77839,2.36066,2.37056-.47854,1.40281-2.18,1.08319-3.47157.78414-2.20954-.51161-4.34337-1.44353-6.68254-1.14128-.866.46906-3.71374.21033-1.12046,2.0837,1.97243,1.42487,4.54515,2.07154,6.91891,2.74037,17.15932,4.83476,31.46961,14.76136,45.49487,25.14376.44944-1.63178-1.21885-1.77183-1.81161-2.64214-1.49235-1.4284-3.22386-2.63443-4.203-4.53676-.24326-.4352-.47719-.87584-.67814-1.33013-.73247-1.65586-3.72528-3.08672-1.81952-4.91247,1.55544-1.49013,2.87733,1.47992,4.50659,2.03949q2.49324,1.9713,4.98645,3.94262c3.45141,2.60583,6.19571,5.94458,9.2712,8.94007l5.67492,7.22c4.46661,4.07726,5.70438,9.54542,6.29606,15.18452.3497,3.33251-1.68583,5.35853-4.79369,5.9823a103.0148,103.0148,0,0,1-27.68373,1.9531c-2.55542-.18216-4.38156-1.46758-4.60336-4.30438-9.25782-14.798-22.2479-24.41249-39.36155-28.26476-2.4403-.5493-4.8412-.86272-4.48011,2.98292,1.2515,13.32827-.13563,27.05217,5.9976,39.6441,1.00146,2.05606,1.95451,4.13566,3.0081,6.37013-3.18794,1.02911-6.68293-.44311-10.014,1.60183,7.6154,2.03267,7.61514,2.104,6.6268,9.8212-1.311,10.23654-2.6168,20.47515-3.74992,30.73217-.34077,3.08474-.803,5.65239-4.63295,5.80272-.84823.03331-1.70318.38349-1.69311,1.43574.01372,1.43439,1.246,1.42014,2.15175,1.41322,5.162-.03942,10.33861.03384,15.47962-.34581,3.48822-.25759,4.69675.77517,4.59819,4.35666a267.25213,267.25213,0,0,0,1.37087,30.91339c.54281,6.13226.779,6.18243,5.877,3.23246,9.8131-5.67831,18.41288-12.59459,23.75014-22.87665,1.64244-3.16412,4.29533-4.29262,7.455-3.42855,8.02886,2.1956,16.1999,1.54894,24.3295,1.55812,3.23724.00366,4.61974.47685,3.43633,4.17981-9.34384,29.23753-27.91142,49.84228-56.68067,61.00014-1.0801.41889-2.26752.56846-3.33429,1.013-3.30736,1.37816-4.32938.31691-4.2989-3.20366.072-8.31866-.22964-16.64031-.35628-24.96115-.05262-3.45785-.75072-4.104-4.36981-2.37367-18.53908,8.86363-37.59989,11.87756-57.26715,3.48915-2.69712-1.70575-5.824-2.26729-8.78444-3.26043-2.70864-.90865-3.97864-.2037-3.80245,3.01885.46993,8.59574,1.3407,17.1725,1.48243,25.77751C113.63916,230.59474,115.39683,235.08431,109.65148,233.572Z"/><path d="M262.4772,117.65887c-3.39-4.38707-8.2547-7.10873-12.25149-10.81689a47.35513,47.35513,0,0,1-7.607-8.52292c-.7-1.06368-1.65039-2.42281-.32208-3.58164,1.16428-1.01574,2.76969-1.527,4.14322-.43862,10.92774,8.65913,22.19207,6.80168,33.69144,1.32544,9.45437-4.50238,19.04257-8.7248,28.48135-13.25872a144.46971,144.46971,0,0,1,20.80124-8.34541,38.19757,38.19757,0,0,0,10.35965-4.77617c4.37553-2.92538,7.05139-1.671,7.9323,3.61,1.04509,6.26538.87932,12.60418.59881,18.911-1.23421,27.74859-1.41877,55.51156-1.41539,83.28045.00037,2.84213,1.20679,5.10919,2.34612,7.50239,2.71429,5.7017,1.79391,7.07321-4.49186,6.7788-11.461-8.50189-20.93913-19.32959-32.51075-27.703a30.3322,30.3322,0,0,1-3.9229-3.06405c-1.74858-1.77244-3.91424-3.85454-2.944-6.4388.82807-2.20547,3.61488-2.15724,5.74162-2.01417,3.67928.24752,4.71269-2.75557,6.27271-4.914,4.42172-6.11765,4.25985-11.36909-.41346-17.052-6.7613-8.222-13.36132-16.61154-22.08151-22.95558-7.83971-5.7035-13.30943-5.28939-20.61878.91375-2.90844,2.46829-2.69743,5.34757-2.66179,8.46218.02861,2.50572,1.733,5.76172-.96359,7.26995-3.16814,1.772-4.94073-1.51867-6.91313-3.42974A6.1632,6.1632,0,0,0,262.4772,117.65887Z"/><path class="cls-1" d="M9.61924,195.24554c4.531-10.87367,8.88883-21.68625,10.30434-33.6388,2.67528-22.59,1.9336-45.14686,1.32-67.783q-.80565-29.72118-3.3162-59.30167c-.77233-9.06007.78483-17.93284,2.4857-26.75465C21.587,1.67888,25.91717-.9726,31.1695.32,33.738.95207,34.596,2.78608,35.43381,4.75442c3.43446,8.0691,3.78515,16.56335,2.57934,25.03788C35.273,49.05,30.51163,67.99924,28.5501,87.36336c-1.22187,12.06217-.74781,24.297-1.99042,36.35586-2.44678,23.74479,1.90256,46.67649,6.64416,69.70559,3.19523,15.51867,1.63277,31.14108-1.24325,46.61594-.23778,1.27938-.264,3.29286-1.72348,3.22519-2.12207-.09842-1.44787-2.25571-1.36046-3.58837.73063-11.13864.937-22.28679.80406-33.44462-.01389-1.1657.04122-2.33588-.044-3.496-.08187-1.1139-.0488-2.5851-1.61557-2.5359-1.20263.03777-1.29,1.30588-1.39878,2.31508-.4627,4.29265-1.02649,8.57676-1.38061,12.87823-.6,7.28827-1.011,14.59224-1.63072,21.87862-.17793,2.09192-.40512,4.28766-2.3066,6.30447-1.89631-1.70487-1.73545-3.89808-1.63732-5.8724.46227-9.30022.96744-18.60072,1.66865-27.88512a51.918,51.918,0,0,0-.37994-7.95028c-.07767-1.02432-.16463-2.09795-1.32323-2.42154-1.20034-.3353-1.702.63044-2.26624,1.47894-1.9448,2.9247-2.33068,6.24693-2.5557,9.61917-.62844,5.02852-1.657,9.99508-1.64249,15.1199.00656,2.324.12134,4.95006-2.02713,7.30974-1.46626-3.45948-.85092-6.65439-.51041-9.8287-.11852-6.95363.17451-13.86378,2.17731-20.59324.79955-2.51189,1.34148-4.75184-2.59821-4.93829C8.9213,197.55461,9.39191,196.163,9.61924,195.24554Z"/><path class="cls-2" d="M219.79369,100.79444q-.47257,7.90715-.9451,15.81429c-.83066,9.26585-1.596,18.53824-2.52584,27.79413-.34624,3.44662.95263,5.24658,4.331,6.01952,11.47587,2.62556,17.85665,2.43435,22.35691-7.60949a5.03588,5.03588,0,0,1,3.419-3.11078c-.18084,4.35755-2.24962,7.94134-3.78651,11.66382-.7903,1.91421-2.56995,2.36071-4.52256,2.516a318.22648,318.22648,0,0,1-32.39838,1.18142c-1.31462-.02959-3.57383.31633-3.55611-1.68883.01649-1.8651,2.07616-1.73948,3.5627-1.77951a5.47455,5.47455,0,0,0,3.84609-2.056c2.63866-5.01856,1.46243-10.65251,2.53793-15.95205,1.82771-9.00628,1.94116-18.28528,3.89844-27.31318.773-3.5656.848-7.32358-3.72161-10.48832,5.65605-1.02182,9.94538-.60562,14.74651-.46477C225.363,98.74427,220.4645,97.025,219.79369,100.79444Z"/><path class="cls-3" d="M109.65148,233.572c2.79588.1596,3.026-1.537,3.13458-3.8085.435-9.09811-.722-18.1209-1.42405-27.1389-.30816-3.95825,1.20672-4.5675,4.00967-3.90007,3.2747.77972,6.93963.95515,9.33251,3.9406-2.862-.79076-5.756-1.48349-8.57648-2.40186-2.46353-.80213-3.75022-.56717-3.51645,2.50486.78005,10.25067,1.51087,20.50678,2.07912,30.77078.16292,2.94268,2.234,2.72916,4.08173,3.27286,20.62319,6.0685,41.01839,4.22456,61.30961-1.67919a19.665,19.665,0,0,1,4.81417-1.17456c2.37686-.05639,1.68366,1.3398.8321,2.57828-.5258,2.8973-3.70511,2.12023-5.16111,3.74306-7.12415,4.13023-15.11713,5.02878-23.02068,5.4427-11.24042.58868-22.55146.80529-33.60494-2.18205a4.3247,4.3247,0,0,0-3.64255.10254c.92521,2.7104,3.29342,2.91328,5.40516,3.55473,2.46006.74724,5.38009.27473,7.23652,2.66874-1.21626,2.01754-2.9775.96634-4.57776.81995-9.99506.10437-11.64379-.97784-14.147-10.40121A12.91907,12.91907,0,0,0,109.65148,233.572Z"/><path class="cls-4" d="M163.64918,40.6626c2.04444,2.12642.99091,4.74416.972,7.1243-.01674,2.11144-1.8824,2.04144-3.38528,1.80356-4.89893-.77543-9.77457-1.69923-14.67659-2.45276a18.97456,18.97456,0,0,0-5.43546-.2857c-11.35376,1.608-11.17045,1.65868-11.39869,13.20765-.0888,4.49374,1.48171,9.21423-1.16542,13.51021-1.99561-2.64492-1.08264-5.73038-1.28728-8.63956-.35625-5.065.91186-10.28673-1.48919-15.15131,2.53106-1.25628,3.15766-3.32271,2.96767-6.035-.54755-7.81755-.91377-15.64779-1.35871-23.60747-2.269.56927-.99316,3.184-2.94967,3.388-1.3234-2.11706-3.1369-2.527-5.56662-2.09673a83.52151,83.52151,0,0,0-43.4341,21.79008c-1.29239,1.21114-2.40879,2.85406-4.576,2.53837-.32631-3.20755,3.547-3.88639,4.16932-6.73643-2.34.09521-3.11423,3.22478-5.59232,2.50228,15.93431-13.531,32.7475-25.21324,54.78465-25.71592,2.38666-.05444,3.3443-1.02861,3.11932-3.33639-.26738-2.74227.3351-4.98952,3.39307-5.79135,2.837-1.29565,6.04908-1.02658,8.9298-2.13975l-.06091.01851c4.17637-1.32884,7.97059.94672,12.4674.9022-1.4888,2.89657-3.76422,2.41571-5.74409,2.57-3.43173.2674-6.97326-.58348-10.24894,1.03521-2.50346,1.3876.076,3.05047-.231,4.55243-2.29141.29967-3.86717-.4097-4.18433-2.93486-.13151-1.04713-.45568-1.99318-1.80131-1.66567-.98742.24033-1.02182,1.147-1.08123,1.96553a9.70067,9.70067,0,0,0,.94854,5.71895c.35717,7.43412,1.46154,14.81341,1.46612,22.27912.00378,6.158.71572,6.66439,6.60134,5.73341a44.49242,44.49242,0,0,1,16.299.62533C160.9649,46.78868,160.97908,46.72156,163.64918,40.6626Z"/><path class="cls-5" d="M178.33433,103.273c2.49853,6.1364,2.77828,12.13834,3.45444,18.04543.85012,7.42683,1.355,14.89722,2.36918,22.29948.5002,3.65092-1.10893,3.90233-3.89451,3.498-5.73922-.833-6.85916-2.07567-6.4678-7.669.67322-9.62149,1.33491-19.24461,2.14192-28.85528C176.13608,108.22757,175.714,105.55663,178.33433,103.273Z"/><path class="cls-6" d="M128.36263,250.686c1.42954-.54068,3.28407.38264,4.38975-1.27365,2.13156-1.81655,4.73075-1.34971,7.159-1.29307a205.92313,205.92313,0,0,0,34.23916-2.213c5.28376-.76182,6.4701-2.21727,6.59484-7.30089.93672-2.43262,4.10926.51607,4.98262-2.06905-1.08579,10.12371-2.13858,11.637-11.67492,13.58972a132.199,132.199,0,0,1-42.94892,1.50382A13.71444,13.71444,0,0,1,128.36263,250.686Z"/><path class="cls-7" d="M9.61924,195.24554c1.509,2.2416,6.98462,2.75342,3.18865,7.30835l-.28292-4.26278c-3.12253,1.75574-3.348,4.77332-3.86314,7.33-2.02894,10.06917-3.743,20.20135-5.66378,30.293C2.59,238.05792,2.51,240.4286,0,241.87621.52685,225.78388,2.17705,209.94813,9.61924,195.24554Z"/><path class="cls-8" d="M221.71415,39.65433c-1.60892.179-2.53562-1.22049-4.48227-2.15905.71051,2.82876,3.84835,3.72324,3.396,6.32867-1.73424.3005-2.85188-.81387-3.855-1.87985-5.04462-5.36056-11.50722-8.38428-18.13737-11.13158-7.35972-3.04961-14.43959-6.80895-22.24683-8.7347-1.23831-.30544-2.68534-.571-2.92856-2.26652,3.66478-1.00157,6.89491,1.2112,10.89158,1.94982-1.38956-2.86642-4.77625-1.82984-5.56146-4.301a155.14007,155.14007,0,0,1,41.94436,20.66669C221.19321,38.44643,221.39345,39.13676,221.71415,39.65433Z"/><path class="cls-9" d="M219.79369,100.79444c1.32577-3.11,1.32577-3.11,5.72157-4.88226-3.60712.00664-7.21376.00664-11.37135.00664,4.93153,5.48676,1.88675,11.25144,1.32337,16.78326-1.03693,10.18191-2.51815,20.318-3.74773,30.48131-.27757,2.29427-.28913,4.61931-2.14467,6.35566,1.92337-14.65477,3.965-29.29578,5.67065-43.97583.34259-2.94848,2.46821-7.45619-3.53845-7.87455-1.36019-.79191-3.36755.70014-4.6162-1.5276,1.65787-1.82475,3.89257-1.149,5.83522-1.19022,4.44478-.09419,8.8942-.02037,13.34062.05293.97625.01609,2.11226.27759,2.15378,1.5199.04309,1.28972-1.11545,1.559-2.08171,1.557C223.75736,98.09537,221.42628,98.5581,219.79369,100.79444Z"/><path class="cls-10" d="M10.63058,223.14713l.39436,8.925c2.78-7.29692.82177-14.84369,3.78567-21.52593-.391,9.22518-.91314,18.44327-2.63076,27.53423-.30207,1.5988-.2227,4.33814-2.63673,3.95618-1.91334-.3027-1.30259-2.79525-1.11966-4.2841C9.02365,232.86743,9.87547,228.0132,10.63058,223.14713Z"/><path class="cls-11" d="M133.85558,8.92828c2.99755-3.22437,6.97253-2.09074,10.619-2.332a24.85441,24.85441,0,0,0,6.20731-.69417q-5.53638-.67227-11.0729-1.34473c9.60759-2.304,19.7692,1.56581,23.45442,8.93181-1.66871.07141-2.04474-1.34083-2.65223-2.40083-1.74121-3.03819-2.82116-1.54934-3.8577.50536-5.88911-2.8917-12.0934-3.028-18.41973-2.11034C136.65816,9.69741,135.16953,9.97566,133.85558,8.92828Z"/><path class="cls-12" d="M184.59282,147.6241c8.06066.80455,8.99921-7.09861,13.77146-10.8667C197.17256,148.14591,192.1016,152.24067,184.59282,147.6241Z"/><path class="cls-8" d="M235.9718,52.537c-3.86459-2.17758-6.63475-5.48953-9.2712-8.94007C230.75843,45.57424,233.39273,49.027,235.9718,52.537Z"/><path class="cls-13" d="M183.76745,101.10106c-1.61577,1.84177-3.42731,1.75741-5.3015.89685a1.485,1.485,0,0,1-.09877-1.26A4.52887,4.52887,0,0,1,183.76745,101.10106Z"/><path class="cls-4" d="M67.58615,43.20913a11.45528,11.45528,0,0,1-6.131,6.33094A19.44725,19.44725,0,0,1,67.58615,43.20913Z"/><path class="cls-11" d="M139.66974,4.53868c-2.73626,1.71576-5.80082,2.06213-8.9298,2.13975A12.272,12.272,0,0,1,139.66974,4.53868Z"/><path class="cls-14" d="M125.7833,49.779c2.04922.25506,2.52758,1.5093,2.6329,3.43811.37058,6.786.84211,13.56223.14357,20.35276q-2.40535,4.04628-4.81068,8.09256c-7.43775.998-14.91225.18413-22.3644.45749-1.986.07286-3.99017-.26041-5.94461.24967-.94907.68657-2.9643.17975-2.85853,1.97.08356,1.41417,1.70515,1.24577,2.7451,1.48434,2.57428.59058,5.0536,1.27188,6.37841,3.88557,3.09782,7.35927,3.46557,15.06066,3.41613,22.94465-.11051,17.62278.05458,35.25044.395,52.87058.08251,4.27081-.91369,6.3337-5.527,6.59155-2.86713.16022-7.70306-.15219-7.46782,3.81591.22832,3.85159,4.95284,3.693,8.18484,3.91089,9.77381.65907,9.77895.58292,10.02767,10.68982.14724,5.983-.22755,6.21659-6.0485,4.44521a25.51067,25.51067,0,0,1-13.00526-9.709C72.0712,158.60064,62.06991,129.78354,75.47719,97.23,85.00125,74.10511,102.34028,58.52575,125.7833,49.779Z"/><path class="cls-15" d="M154.82447,90.01053c-7.85919-12.04157-14.75392-11.79917-23.38583.33092-5.89651,8.28615-11.49,16.73715-12.2644,27.40669-.46866,6.45645.17,7.11948,6.32529,5.153,5.59222-1.78659,7.64215-6.4578,9.54147-11.35053.53172-1.36972.28826-3.98434,2.58538-3.47058,1.67437.37448.94538,2.603.95351,4.01083.05638,9.7434.0297,19.48725.0297,29.324-2.45086.04443-2.79431-1.85367-3.3819-3.23233a8.79428,8.79428,0,0,0-5.23512-4.94712c-8.52282-3.42631-9.71776-2.84159-9.54018,6.12786.16077,8.12073.86578,16.22936,1.20233,24.34864.11464,2.76561,1.17374,4.32306,4.01759,4.69755,4.28083.56377,8.52413,1.44716,12.81472,1.89425,7.69442.80181,14.58721-.69122,19.51148-7.41475.69265-.94575,1.45018-2.32312,3.63846-1.9289,0,4.67416-.02872,9.41936.01332,14.16393.01827,2.06293-1.37768,2.34344-2.92653,2.63086-13.558,2.516-27.10171,2.89518-40.62689-.21591-2.57351-.592-4.2944-1.56927-4.6367-4.8077-2.07106-19.59368-2.40651-39.15092.00942-58.74344,1.17333-9.51544,5.933-17.54062,9.99356-25.90449,2.3097-4.75743,4.91068-8.67265,9.775-11.68281,5.07592-3.14113,10.6561-4.80544,14.90771-2.15175C152.8723,77.19884,154.954,83.3201,154.82447,90.01053Z"/><path class="cls-16" d="M163.64918,40.6626c-.3082,7.92779-.30922,7.93285-8.26528,6.33648-7.38643-1.48208-14.77329-1.95235-22.12975.1182-1.60416.45149-2.85342.86471-2.97788-1.56409-.46592-9.09156-1.03886-18.17767-1.49667-27.26959-.02569-.51025.62067-1.05432.95424-1.58264,6.70588,2.965,13.65,1.78561,20.55162,1.13787a27.46943,27.46943,0,0,0,6.36936-1.01184c5.08609-1.757,5.97414.40893,5.94978,5.04252C162.5717,28.129,162.34567,34.45458,163.64918,40.6626Z"/><path class="cls-17" d="M173.46,19.8113c11.12613,2.8408,21.41551,7.82783,31.78475,12.56306A43.04956,43.04956,0,0,1,220.62786,43.824l3.80957,3.9358a8.51475,8.51475,0,0,1,2.44308,3.054c.40468.86777.61205,2.04-1.12644,1.67712-16.08172-12.56473-33.61314-22.37908-53.29434-28.13651-1.05219-.30781-2.65071-.42691-2.63988-1.84872C169.83686,20.27486,172.02545,20.43556,173.46,19.8113Z"/><path class="cls-18" d="M70.8659,45.75624c13.50053-13.69853,29.57116-22.55947,48.63229-25.743,2.69062-.44938,6.17406-1.69818,4.9444,3.51125C110.40465,26.97914,96.48838,30.753,84.42135,39.21684c-1.33721.93793-2.52381,2.0905-3.78025,3.14352q-3.66768,3.57081-7.31485,7.16256c-1.169,1.15371-2.60455,2.57625-4.2209,1.35415-2.0631-1.55984.11822-2.76065.859-4.02489a5.92531,5.92531,0,0,1,.93124-1.12745Z"/><path class="cls-19" d="M194.96167,221.422a1.04828,1.04828,0,0,1-1.32974-.84234c-.4518-1.53685.65367-1.96557,1.75087-2.49579a94.63779,94.63779,0,0,0,15.40819-9.15422c13.54367-10.0677,25.334-21.545,31.02768-38.00186.40769-1.17838.84823-2.3488,2.33674-1.91512,1.37134.39951,1.5347,1.69369,1.2591,2.88632a11.38029,11.38029,0,0,1-1.19985,3.25974c-9.094,15.209-19.21591,29.57-34.01663,39.89846A36.402,36.402,0,0,1,194.96167,221.422Z"/><path class="cls-20" d="M133.85558,8.92828c5.87764-1.35317,11.78865-1.97038,17.77344-.757,2.12424.43066,4.35915.7351,4.92444,3.42247-6.56965,4.05706-13.68135,2.57109-20.70129,2.02329C134.50014,12.34628,130.90949,12.0283,133.85558,8.92828Z"/><path class="cls-4" d="M70.89561,45.72473c-.19769,1.73342-2.40351,2.74718-1.676,5.15217,5.22448-1.04475,6.9145-6.75839,11.42147-8.51653-1.736,3.65937-5.06224,5.89892-7.87436,8.55259-1.31327,1.23928-3.37477,2.81236-5.15408.79411-1.57185-1.78294.28826-3.2912,1.30361-4.65541A7.19152,7.19152,0,0,1,70.89561,45.72473Z"/><path class="cls-21" d="M93.56138,82.50533c4.47157-1.8505,9.16686-.909,13.76066-1.01009,5.4718-.1204,10.951.09645,16.427.16719-1.57,1.83952-3.71258,1.0337-5.589,1.06929-7.44894.14129-14.90113.112-22.35211.1459A1.93023,1.93023,0,0,1,93.56138,82.50533Z"/><path class="cls-7" d="M93.56138,82.50533q1.12332.18532,2.24663.37146c-.69173.38949-1.38347.77815-2.14335,1.20509,2.46059,2.22249,7.45805.82066,8.0404,5.62761-2.10078-2.4267-4.96146-3.02184-7.95575-3.41974-1.36046-.18078-2.65794-.87084-2.49593-2.517C91.37539,82.53306,92.52922,82.46544,93.56138,82.50533Z"/><path class="cls-8" d="M225.75407,52.49088c1.74879-2.18554-1.23546-3.05459-1.31665-4.73112,2.01828.40443,2.83951,2.00931,3.62591,3.63619.36969.7648.62287,1.59722-.40348,2.03265C226.75389,53.81294,226.11488,53.36387,225.75407,52.49088Z"/><path class="cls-22" d="M469.3971,136.8461c-5.14037-7.13947-9.60089-13.2809-13.99022-19.47279a4.20641,4.20641,0,0,0-3.79514-1.89089c-7.9819.03427-15.964.01554-24.74022.01554,3.61756,5.976,6.77335,11.52489,10.26886,16.85094,2.52338,3.84481,1.37557,4.67287-2.7226,4.54887-7.32384-.22162-14.65787-.097-21.98742-.14868-1.93434-.01364-3.62547-.06353-3.709,2.69167-.32239,10.639-1.388,21.26828.09994,31.90977.92054,6.58344,3.64249,11.59938,10.35526,13.95786,3.80939,1.33841,8.49838,3.54751,7.35627,8.03517-.97694,3.83868-6.03338,3.21644-9.6598,3.12645-11.33872-.28133-22.5618,1.96067-33.9149,1.45327a28.61768,28.61768,0,0,1-10.25016-1.88155c-2.91952-1.26413-4.39036-2.72048-.98369-5.674,12.69133-11.003,12.42245-11.10369,12.98746-27.71646.49165-14.45591,2.45691-28.9017.79891-43.36286-1.09867-9.58232-1.89559-19.13416-2.20545-28.79019-.34015-10.60054-7.79508-17.7272-18.25686-18.90149-2.62888-.29507-5.05962-.56455-5.28006-3.97327-.21608-3.341,2.37558-3.61522,4.59482-4.14366A32.32633,32.32633,0,0,1,378.223,63.1599c4.2482.84,7.84292.17429,10.87119-4.01478-4.2975-.82584-5.275-3.007-3.71583-6.91386,1.0113-2.53428-4.07047-3.45007-2.64837-6.648-5.06574-1.77364-5.78356-7.36365-8.31442-10.95377-2.98056-4.22795-6.94032-9.175-6.63971-15.31371.05372-1.09671-.58975-2.53957.66849-3.16377,1.48479-.73657,1.98421.79794,2.55966,1.70826,4.84918,7.67105,11.56765,13.7381,17.62922,20.34531a132.59276,132.59276,0,0,1,13.15763,16.2865,31.26212,31.26212,0,0,0,9.33789,9.35877H389.7575c4.77548,6.7522,7.517,13.63188,13.48655,18.18406-1.67966,3.57064,3.595,3.17118,3.52123,6.28576-.04482,1.89309,2.63549,1.40907,4.21659,1.38849,1.45166-.01891,2.8567-.65229,2.40883-2.39072-1.03493-4.01724,1.81307-3.94463,4.24634-4.16971,2.911-.2693,5.84318-.31,9.3062-.47547-3.50332-6.82281-9.2288-11.39749-12.816-18.04795,11.86594-1.31175,23.04457-.03878,34.20609,1.57218,3.4571.499,6.88653,1.20281,10.35055,1.63843C477.212,70.166,491.46976,90.64407,487.87959,109.132c-1.87637,9.6627-5.00583,17.9611-13.67965,23.84988-5.70227,3.87137-5.76249,6.594-1.66045,11.60952,6.1537,7.524,10.816,15.97593,15.90551,24.16764,3.68871,5.937,7.24907,11.93595,12.07455,17.09231,1.437,1.53551,2.276,3.64973,3.30094,5.54633,1.33161,2.464.49353,3.89414-2.08715,4.93519a48.2241,48.2241,0,0,1-21.92751,3.847c-6.04958-.45718-9.63323-4.16946-9.88954-10.2975a9.65154,9.65154,0,0,1,.05033-2.98736c3.27214-11.3165-2.29446-19.58035-9.33395-27.36377q-8.20416-9.07124-16.3596-18.18624c-.95925-1.07834-2.6905-2.21355-2.12372-3.67937.64827-1.67661,2.66125-.76353,4.04564-.77962C453.51355,136.80093,460.83361,136.8461,469.3971,136.8461Z"/><path class="cls-14" d="M411.68667,74.87529c-.21529,1.24565-.05946,2.77944-1.51945,2.22308a6.86873,6.86873,0,0,1-4.06317-4.10731c-.45513-1.37115,1.31581-2.06218,2.27393-1.98975C410.77491,71.18255,411.50909,73.04276,411.68667,74.87529Z"/><path class="cls-16" d="M324.631,97.87636a112.614,112.614,0,0,1-1.75407,18.30094c-.60519,3.68491-3.383,4.147-5.38573,2.3036-6.45264-5.93944-13.75665-10.96591-19.29629-17.9188-1.71844-2.15684-1.46938-3.30072.73326-4.61761,6.13091-3.66547,13.10494-5.53692,19.21618-9.34813,3.04758-1.90058,6.251.58712,6.46218,4.30947C324.73793,93.22234,324.631,95.55238,324.631,97.87636Z"/><path class="cls-17" d="M180.74537,238.60533c1.91637-.27662,2.40578.73084,1.82674,2.2934-.861,2.32332-.66747,5.18079-4.3335,5.81479a199.50245,199.50245,0,0,1-27.14472,2.74023c-6.106.21117-12.22714-.01238-18.34151-.04145-4.10477.48526-7.76659-1.40583-11.64453-2.13947-1.83314-.3468-2.00147-1.969-2.72717-3.13467-.50152-.80562-.984-1.92262-.2985-2.7861.78342-.98681,1.84093-.16051,2.72773.06951a110.53369,110.53369,0,0,0,32.567,3.08724C162.80544,244.11392,172.27945,243.60548,180.74537,238.60533Z"/><path class="cls-23" d="M153.40618,30.77634c-2.40657-.13874-5.12015-.0744-5.25185-2.31624-.14619-2.48816,2.66739-2.39987,4.5263-2.42066,1.89167-.02115,4.70284-.13382,4.83792,2.17879C157.66539,30.73178,154.738,30.25352,153.40618,30.77634Z"/><path class="cls-16" d="M430.46068,83.64456c6.88309-1.53073,13.36043-1.066,19.76057-.14472,7.528,1.08362,11.3099,5.12044,12.6679,12.68389,1.12878,6.28683-2.094,13.45681-7.35173,16.56927-1.32667.78535-2.52713,1.07939-3.482-.306-6.515-9.453-15.23723-17.17924-21.163-27.086A7.234,7.234,0,0,1,430.46068,83.64456Z"/><path class="cls-24" d="M408.813,104.05312c0-2.98011-.01641-5.96033.00864-8.94022a1.891,1.891,0,0,1,1.63713-2.12154c1.20233-.15583,1.82967.57168,1.9369,1.71708.09378,1.00184.22377,2.56363,1.28936,2.28921,4.40982-1.13558,4.146,4.7831,7.80054,4.90553,1.09986.03688.42932,1.69731-.001,2.512-.83656,1.5835-.25955,2.64177,1.22356,3.09371,1.82429.5559,1.44668,1.76306,1.85388,3.21,1.54837,5.5018-1.504,5.19619-5.24225,5.16226-10.54388-.09575-10.5448.002-10.54767-10.33784q-.00022-.74508,0-1.49016Z"/><path class="cls-25" d="M483.59756,192.24673a6.36687,6.36687,0,1,1,.50571-12.68472c3.79862.33885,6.09479,2.47337,6.33378,6.33973C490.64825,189.31832,487.26082,192.33687,483.59756,192.24673Z"/><path class="cls-26" d="M466.91743,147.40759c2.94639.18018,4.70363,1.957,4.68234,5.05539-.02182,3.17726-2.08324,4.8833-5.11923,4.8687-2.9794-.0143-5.19738-1.59963-5.21608-4.80258C461.24472,149.1493,463.27625,147.446,466.91743,147.40759Z"/><path d="M428.57293,93.80422c-.09972.83182.36733,2.99708-1.95468,2.49965-1.88107-.403-4.81565-.30273-4.774-3.32927.03109-2.26062,1.48219-3.43854,3.99344-3.38123C428.52443,89.65467,428.72794,91.24517,428.57293,93.80422Z"/><path d="M438.977,108.59848a1.686,1.686,0,0,1-1.98357,1.92185c-2.18739-.12137-4.51016-.46335-4.975-3.10686-.16669-.948.59186-2.81966,1.88433-2.349A11.08967,11.08967,0,0,1,438.977,108.59848Z"/></g></g></svg>