<svg version="1.1" id="Layer_1" xmlns="http://www.w3.org/2000/svg" xmlns:xlink="http://www.w3.org/1999/xlink" x="0px" y="0px"
	 width="100%" viewBox="0 0 1920 840" enable-background="new 0 0 1920 840" xml:space="preserve">
<path fill="#FFFFFF" opacity="1.000000" stroke="none" 
	d="
M1210.000000,841.000000 
	C806.666687,841.000000 403.833344,841.000000 1.000000,841.000000 
	C1.000000,561.000000 1.000000,281.000000 1.000000,1.000000 
	C641.000000,1.000000 1281.000000,1.000000 1921.000000,1.000000 
	C1921.000000,281.000000 1921.000000,561.000000 1921.000000,841.000000 
	C1684.166626,841.000000 1447.333374,841.000000 1210.000000,841.000000 
M912.049744,551.436646 
	C938.665894,562.508728 966.485046,566.397095 995.114868,565.098816 
	C1039.089844,563.104736 1077.934326,547.844604 1109.354370,516.970947 
	C1162.213135,465.031219 1180.288452,401.666107 1163.679199,329.903503 
	C1140.860352,231.312363 1060.807495,188.068634 974.158569,198.639786 
	C917.081726,205.603119 872.407837,235.716354 840.113770,283.019501 
	C806.483093,332.280487 801.868652,386.401520 817.896362,442.649475 
	C832.230225,492.953064 862.723511,530.020264 912.049744,551.436646 
M1387.864624,469.656128 
	C1403.098633,490.288025 1418.282715,510.957214 1433.592407,531.532776 
	C1439.356323,539.279236 1445.345581,546.861389 1451.360107,554.416504 
	C1454.669189,558.573303 1458.884033,560.745117 1464.474731,559.924988 
	C1469.411377,559.200806 1474.421753,558.994934 1479.381958,558.411377 
	C1492.649414,556.850525 1505.869995,555.691772 1519.141846,558.699219 
	C1523.591064,559.707520 1528.264771,559.724548 1533.351440,560.247742 
	C1533.351440,556.826904 1533.679565,554.140137 1533.214722,551.598511 
	C1532.978149,550.305115 1531.535522,548.811340 1530.259033,548.201599 
	C1524.471313,545.436340 1517.743530,543.977234 1512.858521,540.135254 
	C1505.068237,534.008362 1497.688599,526.990356 1491.500122,519.257019 
	C1456.634399,475.687531 1422.174072,431.793549 1387.598999,387.991669 
	C1387.066040,387.316559 1386.831421,386.406097 1386.673462,386.067993 
	C1395.687622,383.986725 1404.580566,382.479736 1413.135376,379.865509 
	C1454.506836,367.222961 1489.566895,334.866180 1484.993530,281.462708 
	C1482.375977,250.898804 1467.919922,228.386108 1439.360352,215.838654 
	C1421.489868,207.987381 1402.564209,205.807877 1383.254883,205.816925 
	C1330.260376,205.841766 1277.265869,205.821976 1224.271362,205.832794 
	C1222.661011,205.833130 1221.050537,205.976868 1219.268066,206.061966 
	C1219.268066,209.855179 1219.268066,213.296356 1219.268066,216.585175 
	C1225.262451,218.085403 1231.125122,219.300247 1236.825073,221.046646 
	C1243.139160,222.981262 1246.884766,227.331650 1247.303101,234.149521 
	C1247.456055,236.640427 1247.661865,239.134644 1247.662231,241.627380 
	C1247.680664,335.784271 1247.678711,429.941193 1247.670898,524.098083 
	C1247.670776,526.095581 1247.582520,528.093689 1247.509766,530.090515 
	C1247.216675,538.133789 1243.040527,543.114258 1235.365723,545.143188 
	C1230.090942,546.537659 1224.754883,547.700134 1219.429321,548.970398 
	C1219.429321,552.622498 1219.429321,556.175781 1219.429321,560.732544 
	C1257.948730,555.580627 1296.123901,555.789612 1334.136597,560.620239 
	C1335.807861,549.037842 1335.807739,549.038208 1326.271362,547.148132 
	C1325.129883,546.921875 1323.978516,546.733643 1322.850952,546.451050 
	C1309.385010,543.075134 1306.140747,538.975891 1306.139526,525.199341 
	C1306.131348,432.042328 1306.134766,338.885315 1306.134399,245.728287 
	C1306.134399,243.982361 1306.134399,242.236435 1306.134399,239.734756 
	C1324.913574,240.279465 1342.951294,239.992615 1360.816650,241.609879 
	C1372.439453,242.662018 1384.150879,245.499725 1395.212280,249.309631 
	C1410.168213,254.460999 1420.569580,265.122894 1424.677002,280.827911 
	C1428.355835,294.894440 1427.732056,308.949249 1422.441040,322.539062 
	C1414.414795,343.153931 1397.925537,354.220795 1377.871338,360.930786 
	C1362.066284,366.219025 1345.668945,367.586609 1329.121338,367.898682 
	C1324.714233,367.981781 1319.544556,368.709930 1318.286133,373.283264 
	C1317.546387,375.971161 1319.750000,380.148804 1321.755005,382.807861 
	C1343.514282,411.667206 1365.496582,440.358276 1387.864624,469.656128 
M1615.500000,205.822266 
	C1597.213257,205.822266 1578.926392,205.822266 1560.391968,205.822266 
	C1560.391968,209.749313 1560.391968,213.180832 1560.391968,216.590454 
	C1566.267334,218.060043 1572.112183,219.291428 1577.810669,221.009003 
	C1584.140503,222.916809 1587.900024,227.255310 1588.410278,234.039780 
	C1588.597290,236.527115 1588.765747,239.023697 1588.766235,241.516083 
	C1588.784424,334.509918 1588.782227,427.503784 1588.779907,520.497620 
	C1588.779907,522.330566 1588.843140,524.169983 1588.717896,525.995422 
	C1588.092651,535.110535 1585.003052,539.290222 1576.283447,541.929504 
	C1571.092529,543.500732 1565.714478,544.454407 1560.387451,545.693481 
	C1560.387451,549.314819 1560.387451,552.747192 1560.387451,556.451904 
	C1656.192017,556.451904 1751.748779,556.451904 1847.043091,556.451904 
	C1849.015381,525.194092 1850.968140,494.247009 1852.928223,463.182373 
	C1848.199707,463.182373 1843.744385,463.182373 1840.041748,463.182373 
	C1836.688354,473.167084 1833.996216,482.969635 1830.129761,492.284760 
	C1824.022461,506.998688 1812.694336,516.172852 1797.006714,518.998047 
	C1787.551392,520.700867 1777.860352,521.814026 1768.264526,521.893799 
	C1729.436401,522.216553 1690.604126,522.038940 1651.773315,522.027100 
	C1650.345703,522.026672 1648.917969,521.829346 1647.471680,521.722351 
	C1647.471680,477.062378 1647.471680,432.803497 1647.471680,388.754761 
	C1647.848999,388.443634 1647.972412,388.252869 1648.095825,388.252869 
	C1676.752441,388.254333 1705.418335,387.843842 1734.061279,388.475891 
	C1746.977173,388.760986 1752.344604,394.213409 1755.687988,406.749390 
	C1756.826660,411.018494 1757.500244,415.411652 1758.414673,419.886597 
	C1762.736084,419.886597 1766.723267,419.898010 1770.710083,419.874908 
	C1771.345337,419.871246 1771.979736,419.712708 1773.291382,419.533051 
	C1768.565552,387.004913 1768.458618,354.570953 1773.272583,322.155731 
	C1767.637695,322.155731 1762.887085,322.155731 1758.207764,322.155731 
	C1757.812134,324.268524 1757.444946,326.063782 1757.142456,327.869934 
	C1753.806274,347.791260 1747.761597,353.045868 1727.694580,353.448669 
	C1727.028198,353.462036 1726.361450,353.469543 1725.694946,353.469635 
	C1701.196533,353.472778 1676.698120,353.478058 1652.199707,353.468445 
	C1650.729126,353.467865 1649.258545,353.346649 1647.510010,353.269257 
	C1647.510010,315.576752 1647.510010,278.179047 1647.510010,240.219635 
	C1650.215576,240.219635 1652.665527,240.219681 1655.115479,240.219635 
	C1694.779541,240.218765 1734.443726,240.142548 1774.107422,240.244278 
	C1799.247314,240.308746 1811.314941,249.557144 1818.185059,273.773224 
	C1819.452393,278.240326 1820.056152,282.893982 1821.275757,287.377380 
	C1821.621338,288.648285 1822.982788,290.485870 1824.012817,290.579163 
	C1828.098145,290.949280 1832.236816,290.731384 1836.113647,290.731384 
	C1834.907227,262.123322 1833.725098,234.091568 1832.532959,205.822220 
	C1760.457031,205.822220 1688.478516,205.822220 1615.500000,205.822266 
M543.782654,235.277740 
	C512.013245,257.362030 489.166687,286.274139 477.245209,323.281860 
	C467.357178,353.977142 465.884399,385.398773 470.928650,417.112579 
	C480.249084,475.711243 510.807770,519.258484 563.927917,546.266968 
	C606.080383,567.699097 650.362427,569.844971 695.743042,559.344910 
	C721.407898,553.406616 744.964294,542.981262 764.721252,525.118652 
	C766.454529,523.551636 767.809570,520.822144 768.062744,518.493652 
	C769.052063,509.391357 769.542114,500.234192 770.174377,491.094421 
	C770.244812,490.076660 770.038147,489.039734 769.919800,487.483398 
	C767.824402,488.763306 766.280029,489.682434 764.759277,490.639191 
	C746.507019,502.122772 727.265991,511.471252 706.503845,517.499146 
	C654.553040,532.582214 608.207642,523.334473 570.473572,483.469299 
	C532.809265,443.677795 518.349609,395.451660 525.405334,341.376007 
	C529.981384,306.304565 546.510071,277.326752 576.205505,257.140991 
	C607.633667,235.777390 642.617676,230.498596 679.372314,237.695084 
	C713.386902,244.355057 738.451538,262.059937 747.325012,297.694672 
	C747.553894,298.613678 748.980042,299.776215 749.941162,299.870148 
	C752.867920,300.156158 755.840454,299.973846 759.155457,299.973846 
	C758.996765,297.338318 758.885559,295.215363 758.738770,293.094849 
	C757.094727,269.338135 755.148743,245.595978 754.009033,221.815170 
	C753.729675,215.985703 752.039490,212.866623 746.613159,211.557327 
	C746.134644,211.441895 745.699097,211.159500 745.230042,210.992706 
	C674.334595,185.781342 607.483521,194.553116 543.782654,235.277740 
M73.415573,695.035461 
	C73.916763,691.072388 74.382446,687.104492 74.924614,683.147034 
	C80.858192,639.835754 93.709595,598.808838 115.810410,560.933899 
	C135.098053,527.880066 159.763901,499.884735 193.437225,480.762451 
	C221.499283,464.826660 251.433105,457.844482 283.702026,462.858459 
	C316.346863,467.930847 343.486725,483.626801 366.716705,506.466156 
	C396.897034,536.138977 415.691406,572.517700 427.926056,612.583435 
	C430.670258,621.570129 432.866486,630.724182 435.315002,639.801147 
	C434.881073,596.251587 427.641022,554.044128 411.029633,513.709900 
	C396.076996,477.403259 375.133240,445.296509 343.580841,421.159088 
	C309.967712,395.445160 272.380005,384.967316 230.421539,394.093445 
	C198.916138,400.945984 172.614258,417.436890 149.836441,439.766937 
	C118.265221,470.717621 97.366447,508.283051 83.048210,549.710754 
	C64.412231,603.631226 58.917229,659.056641 65.262665,715.659302 
	C66.609055,727.669312 69.024925,739.559448 71.016693,751.931152 
	C71.788033,732.868469 72.535088,714.405945 73.415573,695.035461 
M221.058655,293.310425 
	C235.118454,292.074371 249.509811,292.353210 263.185120,289.360321 
	C363.878815,267.323090 434.739990,162.544708 418.848755,64.213379 
	C417.099182,53.387344 413.768982,42.816746 411.171906,32.127670 
	C410.751373,32.244545 410.330872,32.361423 409.910370,32.478298 
	C409.167877,41.179058 408.937775,49.959557 407.598267,58.567413 
	C399.855347,108.325706 377.055145,150.233368 339.634644,183.676041 
	C300.665283,218.502945 255.291611,237.797409 202.225357,232.961166 
	C148.492126,228.064102 109.711021,200.384079 86.030449,151.780487 
	C85.263832,150.207031 84.528511,148.618317 83.417023,146.274124 
	C83.842278,222.552338 137.334869,289.278656 221.058655,293.310425 
M318.914185,359.433411 
	C323.281647,354.025421 328.504364,349.094482 331.841400,343.111725 
	C339.152405,330.004242 336.053497,316.143951 323.967560,307.220276 
	C318.712463,303.340149 312.637115,299.789124 306.393585,298.156494 
	C265.928040,287.574982 228.853424,295.138000 196.097229,321.211243 
	C190.462555,325.696289 186.028778,332.383789 182.684509,338.898010 
	C176.976257,350.016937 179.309479,362.168213 188.921478,370.167267 
	C194.904510,375.146301 202.106384,379.788910 209.510712,381.743591 
	C249.175003,392.214722 285.561981,384.490753 318.914185,359.433411 
M293.436554,161.196609 
	C286.005219,136.703339 263.376953,122.678757 238.267609,127.003937 
	C212.673035,131.412704 195.551651,156.523712 200.065018,183.033661 
	C204.338959,208.137314 230.074387,225.861938 255.093491,221.545013 
	C280.434875,217.172485 300.946777,192.223785 293.436554,161.196609 
M479.444458,698.431458 
	C472.027679,696.959351 470.887268,695.908936 470.800781,690.470215 
	C470.697815,683.990356 472.324341,682.041687 479.379700,680.537354 
	C481.318909,680.123840 483.336121,679.905212 485.318939,679.895691 
	C496.477661,679.842773 507.641388,679.683777 518.794556,679.942810 
	C530.306946,680.210083 532.281921,682.279419 533.273010,693.582092 
	C533.297485,693.861267 533.599487,694.116028 534.039734,694.794983 
	C537.084167,694.794983 540.386292,694.795044 543.688416,694.795044 
	C546.950317,694.795044 550.212219,694.794983 553.379150,694.794983 
	C555.065918,678.203003 548.209961,668.119324 532.620056,665.214966 
	C513.331360,661.621521 493.766571,661.860474 474.422211,664.493774 
	C458.798096,666.620605 450.894714,674.651306 450.106812,686.636597 
	C449.080139,702.253784 455.644409,711.498047 471.511536,713.736633 
	C484.471649,715.565125 497.717499,715.327881 510.827148,716.157043 
	C515.958252,716.481506 521.154053,716.794373 526.157471,717.870361 
	C532.568481,719.249023 534.354614,722.162354 533.972839,728.607239 
	C533.633972,734.327942 530.930359,737.343384 523.018860,737.680420 
	C509.229004,738.268066 495.383453,738.268311 481.589386,737.756165 
	C473.827301,737.468018 471.991547,734.669800 471.839386,726.914612 
	C471.817657,725.808228 471.632721,724.704956 471.519440,723.561401 
	C464.598145,723.561401 458.030029,723.561401 451.507812,723.561401 
	C449.676300,739.512329 456.134308,749.377869 471.464050,752.828796 
	C488.872711,756.747803 506.594757,755.262329 524.195068,754.282043 
	C529.257385,754.000122 534.418701,752.689148 539.212280,750.957703 
	C550.138794,747.010986 554.822632,739.583252 554.837830,727.496277 
	C554.852966,715.372375 550.296082,707.909058 539.158691,704.163269 
	C532.618774,701.963684 525.610901,700.625000 518.722595,700.106384 
	C505.948181,699.144592 493.107147,699.067688 479.444458,698.431458 
M1486.546753,714.512268 
	C1484.744385,711.641724 1482.942139,708.771179 1481.123047,705.873962 
	C1493.353638,690.935913 1487.782837,671.495300 1469.195801,665.817383 
	C1463.401978,664.047424 1457.115723,663.307739 1451.032104,663.180237 
	C1434.384644,662.831055 1417.725220,663.058533 1401.070435,663.057800 
	C1397.781250,663.057678 1394.492065,663.057800 1391.068848,663.057800 
	C1391.068848,693.936768 1391.068848,724.297424 1391.068848,754.626709 
	C1397.925781,754.626709 1404.468384,754.626709 1411.353394,754.626709 
	C1411.353394,741.300903 1411.353394,728.366760 1411.353394,715.151550 
	C1427.492798,715.151550 1443.281494,714.940918 1459.059570,715.258057 
	C1465.141357,715.380310 1466.817993,717.783630 1466.833252,723.872925 
	C1466.859009,734.134155 1466.840332,744.395508 1466.840332,754.637085 
	C1473.970825,754.637085 1480.515747,754.637085 1486.823486,754.637085 
	C1486.823486,741.272339 1486.823486,728.293152 1486.546753,714.512268 
M1280.352905,700.499939 
	C1280.352905,718.591492 1280.352905,736.683105 1280.352905,754.800781 
	C1309.694824,754.800781 1338.308472,754.800781 1367.091553,754.800781 
	C1367.091553,749.456116 1367.091553,744.339783 1367.091553,738.634033 
	C1344.985962,738.634033 1323.092285,738.634033 1301.278320,738.634033 
	C1301.278320,730.768433 1301.278320,723.496277 1301.278320,715.758545 
	C1322.294922,715.758545 1343.044312,715.758545 1364.017090,715.758545 
	C1364.017090,710.182678 1364.017090,705.078674 1364.017090,699.500610 
	C1343.073364,699.500610 1322.310303,699.500610 1301.279053,699.500610 
	C1301.279053,692.612854 1301.279053,686.197205 1301.279053,679.167847 
	C1323.395508,679.167847 1345.277344,679.167847 1366.963379,679.167847 
	C1366.963379,673.460938 1366.963379,668.373047 1366.963379,663.332642 
	C1338.020386,663.332642 1309.426025,663.332642 1280.353149,663.332642 
	C1280.353149,675.572571 1280.353149,687.536255 1280.352905,700.499939 
M732.295349,736.617188 
	C732.972168,732.435120 733.648987,728.253052 734.392883,723.656921 
	C726.845032,723.656921 720.261658,723.656921 713.716187,723.656921 
	C711.827148,734.648682 710.619202,736.982666 700.389832,737.481873 
	C685.316223,738.217407 670.125549,737.895325 655.058105,736.906250 
	C646.224609,736.326294 642.558228,731.610413 642.079346,722.607361 
	C641.611450,713.811890 641.580688,704.954285 642.033691,696.158813 
	C642.557007,685.995117 646.984741,680.691772 657.017212,680.161987 
	C671.426147,679.401062 685.943115,679.447815 700.348145,680.284058 
	C710.114075,680.851013 712.024414,683.732178 713.543335,693.712952 
	C720.102661,693.712952 726.681519,693.712952 733.297241,693.712952 
	C733.472656,693.000854 733.670166,692.539490 733.689636,692.070862 
	C734.217346,679.359009 727.950867,669.966003 714.480896,666.381836 
	C691.260071,660.203369 667.675354,660.175842 644.315674,665.812073 
	C631.762512,668.840881 623.921631,677.639893 622.366821,690.260803 
	C620.993408,701.409302 620.580627,712.935547 621.763611,724.080627 
	C623.685608,742.187744 631.967529,750.125854 650.014709,753.095825 
	C668.536987,756.143921 687.226746,755.994690 705.784973,753.642395 
	C716.711792,752.257446 727.067749,748.856018 732.295349,736.617188 
M1176.166382,728.514038 
	C1176.166382,724.421631 1176.166382,720.329285 1176.166382,716.395142 
	C1195.919800,716.395142 1214.966309,716.395142 1234.353271,716.395142 
	C1234.353271,729.381287 1234.353271,741.982971 1234.353271,754.775391 
	C1241.273926,754.775391 1247.845825,754.775391 1254.588379,754.775391 
	C1254.588379,724.163086 1254.588379,693.802551 1254.588379,663.353821 
	C1247.715210,663.353821 1241.151245,663.353821 1234.123047,663.353821 
	C1234.123047,675.391968 1234.123047,687.138489 1234.123047,699.040710 
	C1214.632324,699.040710 1195.611694,699.040710 1176.109985,699.040710 
	C1176.109985,686.955811 1176.109985,675.217712 1176.109985,663.320679 
	C1169.063477,663.320679 1162.502686,663.320679 1155.787354,663.320679 
	C1155.787354,693.972900 1155.787354,724.355835 1155.787354,754.718445 
	C1162.694458,754.718445 1169.282837,754.718445 1176.166626,754.718445 
	C1176.166626,746.112549 1176.166626,737.811462 1176.166382,728.514038 
M321.606476,689.500061 
	C321.606476,680.755066 321.606476,672.010132 321.606476,663.268555 
	C314.363190,663.268555 307.922211,663.268555 300.922913,663.268555 
	C300.922913,675.367737 300.922913,687.260864 300.922913,699.195557 
	C281.418182,699.195557 262.476776,699.195557 242.960968,699.195557 
	C242.960968,687.129333 242.960968,675.242065 242.960968,663.309326 
	C235.802551,663.309326 229.221680,663.309326 222.445892,663.309326 
	C222.445892,693.933228 222.445892,724.296082 222.445892,754.636108 
	C229.466354,754.636108 236.176163,754.636108 243.172577,754.636108 
	C243.172577,741.640381 243.172577,729.036621 243.172577,716.275269 
	C262.521515,716.275269 281.568573,716.275269 301.090942,716.275269 
	C301.090942,729.257874 301.090942,741.984802 301.090942,754.695984 
	C308.126099,754.695984 314.680756,754.695984 321.606293,754.695984 
	C321.606293,733.076782 321.606293,711.788452 321.606476,689.500061 
M1507.571777,755.025146 
	C1517.733887,757.139954 1524.310669,753.311462 1527.357544,743.305054 
	C1527.927246,741.433960 1528.891968,739.467163 1530.242310,738.109009 
	C1531.662231,736.680786 1533.751831,735.045471 1535.569458,735.021057 
	C1552.726196,734.789978 1569.888184,734.803467 1587.045410,735.011658 
	C1588.718384,735.031921 1590.998169,736.432434 1591.915161,737.878052 
	C1594.848633,742.501953 1597.197876,747.492371 1599.949219,752.238892 
	C1600.602295,753.365356 1601.916992,754.841492 1602.974365,754.880493 
	C1609.554199,755.123230 1616.147217,755.002808 1623.387817,755.002808 
	C1622.252319,752.769104 1621.488159,751.163391 1620.636475,749.605530 
	C1608.109131,726.694580 1595.581299,703.783936 1583.026611,680.888000 
	C1579.832275,675.062561 1577.876343,666.987366 1572.931885,664.124756 
	C1567.774170,661.138733 1559.684692,663.374878 1552.897583,662.976990 
	C1549.595825,662.783386 1547.921265,663.939575 1546.364014,666.827942 
	C1531.288818,694.789734 1516.046143,722.661194 1500.862915,750.564758 
	C1500.176758,751.825745 1499.602295,753.147461 1498.693237,755.024353 
	C1501.730957,755.024353 1504.171753,755.024353 1507.571777,755.025146 
M762.759094,725.211426 
	C757.456543,734.929749 752.153931,744.648071 746.747803,754.556274 
	C767.879517,757.038330 767.879700,757.038452 777.542908,739.344177 
	C777.781921,738.906494 777.894531,738.282043 778.259827,738.050964 
	C780.019409,736.937622 781.833496,735.046204 783.649963,735.021484 
	C800.627441,734.789734 817.609741,734.943665 834.589539,734.825989 
	C837.400574,734.806519 839.108521,735.495422 840.390198,738.180298 
	C842.678284,742.973083 845.299438,747.619202 848.016418,752.186707 
	C848.733093,753.391663 850.278809,754.836121 851.497498,754.887146 
	C857.910889,755.155701 864.341431,755.012939 871.241150,755.012939 
	C870.801697,753.860901 870.645935,753.251343 870.353943,752.716125 
	C854.514160,723.683228 838.696777,694.637939 822.704590,665.689209 
	C821.972229,664.363464 819.692261,663.254395 818.074707,663.170654 
	C812.263550,662.869629 806.418457,663.245239 800.604309,662.975281 
	C797.457947,662.829285 795.959900,664.051086 794.521240,666.729431 
	C784.141052,686.055969 773.578003,705.284180 762.759094,725.211426 
M1636.031372,704.500000 
	C1636.031372,721.249084 1636.031372,737.998108 1636.031372,754.836487 
	C1643.460205,754.836487 1650.240601,754.836487 1657.581909,754.836487 
	C1657.581909,748.874207 1657.581909,743.085327 1657.581909,737.296448 
	C1657.581909,731.347351 1657.581909,725.398193 1657.581909,718.969666 
	C1660.179443,718.969666 1662.306519,719.008667 1664.431641,718.963440 
	C1679.068481,718.651794 1693.760010,718.997437 1708.326416,717.811462 
	C1723.269775,716.594788 1731.528564,707.506348 1732.202759,693.798828 
	C1733.003174,677.525940 1726.437622,668.318726 1711.002075,664.833740 
	C1706.014038,663.707458 1700.796021,663.189758 1695.675171,663.134888 
	C1677.191895,662.936646 1658.705200,663.049316 1640.219849,663.063599 
	C1638.941650,663.064636 1637.663452,663.221130 1636.031494,663.328674 
	C1636.031494,676.920349 1636.031494,690.210144 1636.031372,704.500000 
M159.487961,718.966370 
	C165.295776,718.639282 171.144669,718.640808 176.903397,717.921021 
	C191.850174,716.053101 200.224655,707.276428 200.892654,693.261353 
	C201.628113,677.830994 194.540039,668.205505 179.478058,664.835327 
	C174.647278,663.754395 169.607437,663.193909 164.655426,663.142090 
	C146.013153,662.946899 127.367661,663.053162 108.723404,663.070435 
	C107.448257,663.071594 106.173294,663.269714 104.852936,663.380005 
	C104.852936,693.988525 104.852936,724.237915 104.852936,754.723755 
	C111.935791,754.723755 118.814560,754.723755 126.149948,754.723755 
	C126.149948,742.703125 126.149948,730.973938 126.149948,718.966431 
	C137.234421,718.966431 147.863266,718.966431 159.487961,718.966370 
M1092.135864,733.499939 
	C1092.135864,715.592773 1092.135864,697.685608 1092.135864,679.160767 
	C1107.189087,679.160767 1121.559814,679.160767 1135.815552,679.160767 
	C1135.815552,673.466675 1135.815552,668.405029 1135.815552,663.339172 
	C1099.573486,663.339172 1063.688721,663.339172 1027.619873,663.339172 
	C1027.619873,668.700317 1027.619873,673.777466 1027.619873,679.551392 
	C1042.433838,679.551392 1056.968994,679.551392 1071.829590,679.551392 
	C1071.829590,705.007385 1071.829590,729.765320 1071.829590,754.713501 
	C1078.734131,754.713501 1085.286011,754.713501 1092.135742,754.713501 
	C1092.135742,747.772034 1092.135742,741.135986 1092.135864,733.499939 
M385.023865,694.467896 
	C376.483002,684.900452 367.970245,675.307617 359.364410,665.798950 
	C358.326599,664.652222 356.811127,663.229065 355.472626,663.181396 
	C348.241394,662.923767 340.996155,663.059326 332.671173,663.059326 
	C342.989288,674.468933 352.564545,685.038086 362.117035,695.627747 
	C367.359711,701.439575 374.596252,706.505066 377.220703,713.333984 
	C379.907043,720.324158 378.095703,729.056946 378.181244,737.027771 
	C378.244873,742.955200 378.193817,748.883911 378.193817,754.674866 
	C385.508789,754.674866 392.089417,754.674866 398.926544,754.674866 
	C398.926544,742.518372 399.036713,730.710571 398.861572,718.906982 
	C398.806732,715.210510 399.692719,712.390198 402.304504,709.580811 
	C415.232941,695.674194 427.930664,681.552979 440.696167,667.495056 
	C441.828857,666.247742 442.863831,664.911682 444.416046,663.051270 
	C436.860321,663.051270 430.355774,662.845581 423.878113,663.172852 
	C421.855072,663.275085 419.389404,664.327148 418.008759,665.781860 
	C411.476044,672.665344 405.253204,679.842590 398.911133,686.907288 
	C395.520020,690.684753 392.110962,694.446106 388.589203,698.348572 
	C387.293152,696.942871 386.393982,695.967590 385.023865,694.467896 
M1765.278198,692.227722 
	C1769.184692,696.551147 1772.711792,701.313843 1777.088013,705.093262 
	C1783.356934,710.507202 1785.148315,716.885803 1784.646606,724.922058 
	C1784.028198,734.826599 1784.499023,744.799194 1784.499023,754.684692 
	C1791.679932,754.684692 1798.254517,754.684692 1805.048950,754.684692 
	C1805.048950,742.208679 1804.891846,730.067200 1805.177734,717.936279 
	C1805.236938,715.425415 1806.332031,712.411865 1807.985229,710.549072 
	C1821.024170,695.857117 1834.319580,681.392761 1847.516602,666.840637 
	C1848.425171,665.838806 1849.176514,664.694336 1850.430786,663.054199 
	C1843.200684,663.054199 1836.876831,662.788513 1830.596069,663.193176 
	C1828.285278,663.342163 1825.488892,664.518677 1823.920288,666.177856 
	C1816.260132,674.280273 1808.943481,682.707153 1801.498047,691.012817 
	C1799.324707,693.437378 1797.127563,695.840393 1794.795898,698.413818 
	C1784.846558,687.264893 1775.331055,676.575134 1765.768188,665.927795 
	C1764.806030,664.856506 1763.583252,663.269897 1762.439087,663.232971 
	C1754.925049,662.990356 1747.399292,663.107910 1738.930664,663.107910 
	C1748.083008,673.211487 1756.451538,682.449707 1765.278198,692.227722 
M886.047546,749.376221 
	C886.047546,751.145508 886.047546,752.914856 886.047546,754.699829 
	C915.349854,754.699829 944.057251,754.699829 972.643555,754.699829 
	C972.643555,749.143372 972.643555,743.927063 972.643555,738.202515 
	C950.561340,738.202515 928.843140,738.202515 906.658813,738.202515 
	C906.658813,712.950867 906.658813,688.215698 906.658813,663.320251 
	C899.613281,663.320251 893.047119,663.320251 886.047546,663.320251 
	C886.047546,691.862183 886.047546,720.133606 886.047546,749.376221 
M575.964111,717.500000 
	C575.964111,729.910889 575.964111,742.321777 575.964111,754.641846 
	C583.141418,754.641846 589.689392,754.641846 596.188232,754.641846 
	C596.188232,724.030518 596.188232,693.797363 596.188232,663.362610 
	C589.382935,663.362610 582.834839,663.362610 575.964111,663.362610 
	C575.964111,681.275452 575.964111,698.887756 575.964111,717.500000 
z"/>
<path fill="#0D4F98" opacity="1.000000" stroke="none" 
	d="
M911.698364,551.280396 
	C862.723511,530.020264 832.230225,492.953064 817.896362,442.649475 
	C801.868652,386.401520 806.483093,332.280487 840.113770,283.019501 
	C872.407837,235.716354 917.081726,205.603119 974.158569,198.639786 
	C1060.807495,188.068634 1140.860352,231.312363 1163.679199,329.903503 
	C1180.288452,401.666107 1162.213135,465.031219 1109.354370,516.970947 
	C1077.934326,547.844604 1039.089844,563.104736 995.114868,565.098816 
	C966.485046,566.397095 938.665894,562.508728 911.698364,551.280396 
M958.877563,240.169708 
	C912.976929,251.338531 882.312012,279.329315 870.397095,325.001038 
	C857.007812,376.324341 865.548218,425.000549 895.869324,468.755463 
	C921.258606,505.393677 956.612366,524.673767 1001.833008,524.152039 
	C1048.111938,523.618103 1087.269653,496.498291 1104.141113,453.338898 
	C1115.115967,425.263611 1116.402222,396.200836 1111.866455,366.819611 
	C1106.098755,329.457458 1090.472900,296.839569 1061.882935,271.542053 
	C1032.753052,245.766663 999.059875,233.391769 958.877563,240.169708 
z"/>
<path fill="#0D4F97" opacity="1.000000" stroke="none" 
	d="
M1387.641357,469.375671 
	C1365.496582,440.358276 1343.514282,411.667206 1321.755005,382.807861 
	C1319.750000,380.148804 1317.546387,375.971161 1318.286133,373.283264 
	C1319.544556,368.709930 1324.714233,367.981781 1329.121338,367.898682 
	C1345.668945,367.586609 1362.066284,366.219025 1377.871338,360.930786 
	C1397.925537,354.220795 1414.414795,343.153931 1422.441040,322.539062 
	C1427.732056,308.949249 1428.355835,294.894440 1424.677002,280.827911 
	C1420.569580,265.122894 1410.168213,254.460999 1395.212280,249.309631 
	C1384.150879,245.499725 1372.439453,242.662018 1360.816650,241.609879 
	C1342.951294,239.992615 1324.913574,240.279465 1306.134399,239.734756 
	C1306.134399,242.236435 1306.134399,243.982361 1306.134399,245.728287 
	C1306.134766,338.885315 1306.131348,432.042328 1306.139526,525.199341 
	C1306.140747,538.975891 1309.385010,543.075134 1322.850952,546.451050 
	C1323.978516,546.733643 1325.129883,546.921875 1326.271362,547.148132 
	C1335.807739,549.038208 1335.807861,549.037842 1334.136597,560.620239 
	C1296.123901,555.789612 1257.948730,555.580627 1219.429321,560.732544 
	C1219.429321,556.175781 1219.429321,552.622498 1219.429321,548.970398 
	C1224.754883,547.700134 1230.090942,546.537659 1235.365723,545.143188 
	C1243.040527,543.114258 1247.216675,538.133789 1247.509766,530.090515 
	C1247.582520,528.093689 1247.670776,526.095581 1247.670898,524.098083 
	C1247.678711,429.941193 1247.680664,335.784271 1247.662231,241.627380 
	C1247.661865,239.134644 1247.456055,236.640427 1247.303101,234.149521 
	C1246.884766,227.331650 1243.139160,222.981262 1236.825073,221.046646 
	C1231.125122,219.300247 1225.262451,218.085403 1219.268066,216.585175 
	C1219.268066,213.296356 1219.268066,209.855179 1219.268066,206.061966 
	C1221.050537,205.976868 1222.661011,205.833130 1224.271362,205.832794 
	C1277.265869,205.821976 1330.260376,205.841766 1383.254883,205.816925 
	C1402.564209,205.807877 1421.489868,207.987381 1439.360352,215.838654 
	C1467.919922,228.386108 1482.375977,250.898804 1484.993530,281.462708 
	C1489.566895,334.866180 1454.506836,367.222961 1413.135376,379.865509 
	C1404.580566,382.479736 1395.687622,383.986725 1386.673462,386.067993 
	C1386.831421,386.406097 1387.066040,387.316559 1387.598999,387.991669 
	C1422.174072,431.793549 1456.634399,475.687531 1491.500122,519.257019 
	C1497.688599,526.990356 1505.068237,534.008362 1512.858521,540.135254 
	C1517.743530,543.977234 1524.471313,545.436340 1530.259033,548.201599 
	C1531.535522,548.811340 1532.978149,550.305115 1533.214722,551.598511 
	C1533.679565,554.140137 1533.351440,556.826904 1533.351440,560.247742 
	C1528.264771,559.724548 1523.591064,559.707520 1519.141846,558.699219 
	C1505.869995,555.691772 1492.649414,556.850525 1479.381958,558.411377 
	C1474.421753,558.994934 1469.411377,559.200806 1464.474731,559.924988 
	C1458.884033,560.745117 1454.669189,558.573303 1451.360107,554.416504 
	C1445.345581,546.861389 1439.356323,539.279236 1433.592407,531.532776 
	C1418.282715,510.957214 1403.098633,490.288025 1387.641357,469.375671 
z"/>
<path fill="#0D4F97" opacity="1.000000" stroke="none" 
	d="
M1616.000000,205.822235 
	C1688.478516,205.822220 1760.457031,205.822220 1832.532959,205.822220 
	C1833.725098,234.091568 1834.907227,262.123322 1836.113647,290.731384 
	C1832.236816,290.731384 1828.098145,290.949280 1824.012817,290.579163 
	C1822.982788,290.485870 1821.621338,288.648285 1821.275757,287.377380 
	C1820.056152,282.893982 1819.452393,278.240326 1818.185059,273.773224 
	C1811.314941,249.557144 1799.247314,240.308746 1774.107422,240.244278 
	C1734.443726,240.142548 1694.779541,240.218765 1655.115479,240.219635 
	C1652.665527,240.219681 1650.215576,240.219635 1647.510010,240.219635 
	C1647.510010,278.179047 1647.510010,315.576752 1647.510010,353.269257 
	C1649.258545,353.346649 1650.729126,353.467865 1652.199707,353.468445 
	C1676.698120,353.478058 1701.196533,353.472778 1725.694946,353.469635 
	C1726.361450,353.469543 1727.028198,353.462036 1727.694580,353.448669 
	C1747.761597,353.045868 1753.806274,347.791260 1757.142456,327.869934 
	C1757.444946,326.063782 1757.812134,324.268524 1758.207764,322.155731 
	C1762.887085,322.155731 1767.637695,322.155731 1773.272583,322.155731 
	C1768.458618,354.570953 1768.565552,387.004913 1773.291382,419.533051 
	C1771.979736,419.712708 1771.345337,419.871246 1770.710083,419.874908 
	C1766.723267,419.898010 1762.736084,419.886597 1758.414673,419.886597 
	C1757.500244,415.411652 1756.826660,411.018494 1755.687988,406.749390 
	C1752.344604,394.213409 1746.977173,388.760986 1734.061279,388.475891 
	C1705.418335,387.843842 1676.752441,388.254333 1648.095825,388.252869 
	C1647.972412,388.252869 1647.848999,388.443634 1647.471680,388.754761 
	C1647.471680,432.803497 1647.471680,477.062378 1647.471680,521.722351 
	C1648.917969,521.829346 1650.345703,522.026672 1651.773315,522.027100 
	C1690.604126,522.038940 1729.436401,522.216553 1768.264526,521.893799 
	C1777.860352,521.814026 1787.551392,520.700867 1797.006714,518.998047 
	C1812.694336,516.172852 1824.022461,506.998688 1830.129761,492.284760 
	C1833.996216,482.969635 1836.688354,473.167084 1840.041748,463.182373 
	C1843.744385,463.182373 1848.199707,463.182373 1852.928223,463.182373 
	C1850.968140,494.247009 1849.015381,525.194092 1847.043091,556.451904 
	C1751.748779,556.451904 1656.192017,556.451904 1560.387451,556.451904 
	C1560.387451,552.747192 1560.387451,549.314819 1560.387451,545.693481 
	C1565.714478,544.454407 1571.092529,543.500732 1576.283447,541.929504 
	C1585.003052,539.290222 1588.092651,535.110535 1588.717896,525.995422 
	C1588.843140,524.169983 1588.779907,522.330566 1588.779907,520.497620 
	C1588.782227,427.503784 1588.784424,334.509918 1588.766235,241.516083 
	C1588.765747,239.023697 1588.597290,236.527115 1588.410278,234.039780 
	C1587.900024,227.255310 1584.140503,222.916809 1577.810669,221.009003 
	C1572.112183,219.291428 1566.267334,218.060043 1560.391968,216.590454 
	C1560.391968,213.180832 1560.391968,209.749313 1560.391968,205.822266 
	C1578.926392,205.822266 1597.213257,205.822266 1616.000000,205.822235 
z"/>
<path fill="#0D4F98" opacity="1.000000" stroke="none" 
	d="
M544.087463,235.089874 
	C607.483521,194.553116 674.334595,185.781342 745.230042,210.992706 
	C745.699097,211.159500 746.134644,211.441895 746.613159,211.557327 
	C752.039490,212.866623 753.729675,215.985703 754.009033,221.815170 
	C755.148743,245.595978 757.094727,269.338135 758.738770,293.094849 
	C758.885559,295.215363 758.996765,297.338318 759.155457,299.973846 
	C755.840454,299.973846 752.867920,300.156158 749.941162,299.870148 
	C748.980042,299.776215 747.553894,298.613678 747.325012,297.694672 
	C738.451538,262.059937 713.386902,244.355057 679.372314,237.695084 
	C642.617676,230.498596 607.633667,235.777390 576.205505,257.140991 
	C546.510071,277.326752 529.981384,306.304565 525.405334,341.376007 
	C518.349609,395.451660 532.809265,443.677795 570.473572,483.469299 
	C608.207642,523.334473 654.553040,532.582214 706.503845,517.499146 
	C727.265991,511.471252 746.507019,502.122772 764.759277,490.639191 
	C766.280029,489.682434 767.824402,488.763306 769.919800,487.483398 
	C770.038147,489.039734 770.244812,490.076660 770.174377,491.094421 
	C769.542114,500.234192 769.052063,509.391357 768.062744,518.493652 
	C767.809570,520.822144 766.454529,523.551636 764.721252,525.118652 
	C744.964294,542.981262 721.407898,553.406616 695.743042,559.344910 
	C650.362427,569.844971 606.080383,567.699097 563.927917,546.266968 
	C510.807770,519.258484 480.249084,475.711243 470.928650,417.112579 
	C465.884399,385.398773 467.357178,353.977142 477.245209,323.281860 
	C489.166687,286.274139 512.013245,257.362030 544.087463,235.089874 
z"/>
<path fill="#0E4F98" opacity="1.000000" stroke="none" 
	d="
M73.348862,695.489502 
	C72.535088,714.405945 71.788033,732.868469 71.016693,751.931152 
	C69.024925,739.559448 66.609055,727.669312 65.262665,715.659302 
	C58.917229,659.056641 64.412231,603.631226 83.048210,549.710754 
	C97.366447,508.283051 118.265221,470.717621 149.836441,439.766937 
	C172.614258,417.436890 198.916138,400.945984 230.421539,394.093445 
	C272.380005,384.967316 309.967712,395.445160 343.580841,421.159088 
	C375.133240,445.296509 396.076996,477.403259 411.029633,513.709900 
	C427.641022,554.044128 434.881073,596.251587 435.315002,639.801147 
	C432.866486,630.724182 430.670258,621.570129 427.926056,612.583435 
	C415.691406,572.517700 396.897034,536.138977 366.716705,506.466156 
	C343.486725,483.626801 316.346863,467.930847 283.702026,462.858459 
	C251.433105,457.844482 221.499283,464.826660 193.437225,480.762451 
	C159.763901,499.884735 135.098053,527.880066 115.810410,560.933899 
	C93.709595,598.808838 80.858192,639.835754 74.924614,683.147034 
	C74.382446,687.104492 73.916763,691.072388 73.348862,695.489502 
z"/>
<path fill="#0D4F98" opacity="1.000000" stroke="none" 
	d="
M220.597183,293.283142 
	C137.334869,289.278656 83.842278,222.552338 83.417023,146.274124 
	C84.528511,148.618317 85.263832,150.207031 86.030449,151.780487 
	C109.711021,200.384079 148.492126,228.064102 202.225357,232.961166 
	C255.291611,237.797409 300.665283,218.502945 339.634644,183.676041 
	C377.055145,150.233368 399.855347,108.325706 407.598267,58.567413 
	C408.937775,49.959557 409.167877,41.179058 409.910370,32.478298 
	C410.330872,32.361423 410.751373,32.244545 411.171906,32.127670 
	C413.768982,42.816746 417.099182,53.387344 418.848755,64.213379 
	C434.739990,162.544708 363.878815,267.323090 263.185120,289.360321 
	C249.509811,292.353210 235.118454,292.074371 220.597183,293.283142 
z"/>
<path fill="#019745" opacity="1.000000" stroke="none" 
	d="
M318.647278,359.666809 
	C285.561981,384.490753 249.175003,392.214722 209.510712,381.743591 
	C202.106384,379.788910 194.904510,375.146301 188.921478,370.167267 
	C179.309479,362.168213 176.976257,350.016937 182.684509,338.898010 
	C186.028778,332.383789 190.462555,325.696289 196.097229,321.211243 
	C228.853424,295.138000 265.928040,287.574982 306.393585,298.156494 
	C312.637115,299.789124 318.712463,303.340149 323.967560,307.220276 
	C336.053497,316.143951 339.152405,330.004242 331.841400,343.111725 
	C328.504364,349.094482 323.281647,354.025421 318.647278,359.666809 
z"/>
<path fill="#0D4F98" opacity="1.000000" stroke="none" 
	d="
M293.584045,161.583557 
	C300.946777,192.223785 280.434875,217.172485 255.093491,221.545013 
	C230.074387,225.861938 204.338959,208.137314 200.065018,183.033661 
	C195.551651,156.523712 212.673035,131.412704 238.267609,127.003937 
	C263.376953,122.678757 286.005219,136.703339 293.584045,161.583557 
z"/>
<path fill="#515253" opacity="1.000000" stroke="none" 
	d="
M479.869171,698.526855 
	C493.107147,699.067688 505.948181,699.144592 518.722595,700.106384 
	C525.610901,700.625000 532.618774,701.963684 539.158691,704.163269 
	C550.296082,707.909058 554.852966,715.372375 554.837830,727.496277 
	C554.822632,739.583252 550.138794,747.010986 539.212280,750.957703 
	C534.418701,752.689148 529.257385,754.000122 524.195068,754.282043 
	C506.594757,755.262329 488.872711,756.747803 471.464050,752.828796 
	C456.134308,749.377869 449.676300,739.512329 451.507812,723.561401 
	C458.030029,723.561401 464.598145,723.561401 471.519440,723.561401 
	C471.632721,724.704956 471.817657,725.808228 471.839386,726.914612 
	C471.991547,734.669800 473.827301,737.468018 481.589386,737.756165 
	C495.383453,738.268311 509.229004,738.268066 523.018860,737.680420 
	C530.930359,737.343384 533.633972,734.327942 533.972839,728.607239 
	C534.354614,722.162354 532.568481,719.249023 526.157471,717.870361 
	C521.154053,716.794373 515.958252,716.481506 510.827148,716.157043 
	C497.717499,715.327881 484.471649,715.565125 471.511536,713.736633 
	C455.644409,711.498047 449.080139,702.253784 450.106812,686.636597 
	C450.894714,674.651306 458.798096,666.620605 474.422211,664.493774 
	C493.766571,661.860474 513.331360,661.621521 532.620056,665.214966 
	C548.209961,668.119324 555.065918,678.203003 553.379150,694.794983 
	C550.212219,694.794983 546.950317,694.795044 543.688416,694.795044 
	C540.386292,694.795044 537.084167,694.794983 534.039734,694.794983 
	C533.599487,694.116028 533.297485,693.861267 533.273010,693.582092 
	C532.281921,682.279419 530.306946,680.210083 518.794556,679.942810 
	C507.641388,679.683777 496.477661,679.842773 485.318939,679.895691 
	C483.336121,679.905212 481.318909,680.123840 479.379700,680.537354 
	C472.324341,682.041687 470.697815,683.990356 470.800781,690.470215 
	C470.887268,695.908936 472.027679,696.959351 479.869171,698.526855 
z"/>
<path fill="#4F4F51" opacity="1.000000" stroke="none" 
	d="
M1486.685059,714.913086 
	C1486.823486,728.293152 1486.823486,741.272339 1486.823486,754.637085 
	C1480.515747,754.637085 1473.970825,754.637085 1466.840332,754.637085 
	C1466.840332,744.395508 1466.859009,734.134155 1466.833252,723.872925 
	C1466.817993,717.783630 1465.141357,715.380310 1459.059570,715.258057 
	C1443.281494,714.940918 1427.492798,715.151550 1411.353394,715.151550 
	C1411.353394,728.366760 1411.353394,741.300903 1411.353394,754.626709 
	C1404.468384,754.626709 1397.925781,754.626709 1391.068848,754.626709 
	C1391.068848,724.297424 1391.068848,693.936768 1391.068848,663.057800 
	C1394.492065,663.057800 1397.781250,663.057678 1401.070435,663.057800 
	C1417.725220,663.058533 1434.384644,662.831055 1451.032104,663.180237 
	C1457.115723,663.307739 1463.401978,664.047424 1469.195801,665.817383 
	C1487.782837,671.495300 1493.353638,690.935913 1481.123047,705.873962 
	C1482.942139,708.771179 1484.744385,711.641724 1486.685059,714.913086 
M1452.318481,698.839661 
	C1453.978149,698.733643 1455.652588,698.733459 1457.294922,698.503479 
	C1464.661133,697.471985 1466.868530,695.218201 1466.845459,688.889221 
	C1466.824463,683.109802 1464.393799,680.236938 1457.267700,679.891113 
	C1445.142334,679.302551 1432.980835,679.451599 1420.834229,679.308838 
	C1417.724976,679.272278 1414.614746,679.303345 1411.528564,679.303345 
	C1411.528564,686.178162 1411.528564,692.386108 1411.528564,698.841431 
	C1425.078003,698.841431 1438.219971,698.841431 1452.318481,698.839661 
z"/>
<path fill="#515153" opacity="1.000000" stroke="none" 
	d="
M1280.353027,699.999878 
	C1280.353149,687.536255 1280.353149,675.572571 1280.353149,663.332642 
	C1309.426025,663.332642 1338.020386,663.332642 1366.963379,663.332642 
	C1366.963379,668.373047 1366.963379,673.460938 1366.963379,679.167847 
	C1345.277344,679.167847 1323.395508,679.167847 1301.279053,679.167847 
	C1301.279053,686.197205 1301.279053,692.612854 1301.279053,699.500610 
	C1322.310303,699.500610 1343.073364,699.500610 1364.017090,699.500610 
	C1364.017090,705.078674 1364.017090,710.182678 1364.017090,715.758545 
	C1343.044312,715.758545 1322.294922,715.758545 1301.278320,715.758545 
	C1301.278320,723.496277 1301.278320,730.768433 1301.278320,738.634033 
	C1323.092285,738.634033 1344.985962,738.634033 1367.091553,738.634033 
	C1367.091553,744.339783 1367.091553,749.456116 1367.091553,754.800781 
	C1338.308472,754.800781 1309.694824,754.800781 1280.352905,754.800781 
	C1280.352905,736.683105 1280.352905,718.591492 1280.353027,699.999878 
z"/>
<path fill="#515153" opacity="1.000000" stroke="none" 
	d="
M732.170105,736.987183 
	C727.067749,748.856018 716.711792,752.257446 705.784973,753.642395 
	C687.226746,755.994690 668.536987,756.143921 650.014709,753.095825 
	C631.967529,750.125854 623.685608,742.187744 621.763611,724.080627 
	C620.580627,712.935547 620.993408,701.409302 622.366821,690.260803 
	C623.921631,677.639893 631.762512,668.840881 644.315674,665.812073 
	C667.675354,660.175842 691.260071,660.203369 714.480896,666.381836 
	C727.950867,669.966003 734.217346,679.359009 733.689636,692.070862 
	C733.670166,692.539490 733.472656,693.000854 733.297241,693.712952 
	C726.681519,693.712952 720.102661,693.712952 713.543335,693.712952 
	C712.024414,683.732178 710.114075,680.851013 700.348145,680.284058 
	C685.943115,679.447815 671.426147,679.401062 657.017212,680.161987 
	C646.984741,680.691772 642.557007,685.995117 642.033691,696.158813 
	C641.580688,704.954285 641.611450,713.811890 642.079346,722.607361 
	C642.558228,731.610413 646.224609,736.326294 655.058105,736.906250 
	C670.125549,737.895325 685.316223,738.217407 700.389832,737.481873 
	C710.619202,736.982666 711.827148,734.648682 713.716187,723.656921 
	C720.261658,723.656921 726.845032,723.656921 734.392883,723.656921 
	C733.648987,728.253052 732.972168,732.435120 732.170105,736.987183 
z"/>
<path fill="#515153" opacity="1.000000" stroke="none" 
	d="
M1176.166504,729.012207 
	C1176.166626,737.811462 1176.166626,746.112549 1176.166626,754.718445 
	C1169.282837,754.718445 1162.694458,754.718445 1155.787354,754.718445 
	C1155.787354,724.355835 1155.787354,693.972900 1155.787354,663.320679 
	C1162.502686,663.320679 1169.063477,663.320679 1176.109985,663.320679 
	C1176.109985,675.217712 1176.109985,686.955811 1176.109985,699.040710 
	C1195.611694,699.040710 1214.632324,699.040710 1234.123047,699.040710 
	C1234.123047,687.138489 1234.123047,675.391968 1234.123047,663.353821 
	C1241.151245,663.353821 1247.715210,663.353821 1254.588379,663.353821 
	C1254.588379,693.802551 1254.588379,724.163086 1254.588379,754.775391 
	C1247.845825,754.775391 1241.273926,754.775391 1234.353271,754.775391 
	C1234.353271,741.982971 1234.353271,729.381287 1234.353271,716.395142 
	C1214.966309,716.395142 1195.919800,716.395142 1176.166382,716.395142 
	C1176.166382,720.329285 1176.166382,724.421631 1176.166504,729.012207 
z"/>
<path fill="#525254" opacity="1.000000" stroke="none" 
	d="
M321.606384,690.000122 
	C321.606293,711.788452 321.606293,733.076782 321.606293,754.695984 
	C314.680756,754.695984 308.126099,754.695984 301.090942,754.695984 
	C301.090942,741.984802 301.090942,729.257874 301.090942,716.275269 
	C281.568573,716.275269 262.521515,716.275269 243.172577,716.275269 
	C243.172577,729.036621 243.172577,741.640381 243.172577,754.636108 
	C236.176163,754.636108 229.466354,754.636108 222.445892,754.636108 
	C222.445892,724.296082 222.445892,693.933228 222.445892,663.309326 
	C229.221680,663.309326 235.802551,663.309326 242.960968,663.309326 
	C242.960968,675.242065 242.960968,687.129333 242.960968,699.195557 
	C262.476776,699.195557 281.418182,699.195557 300.922913,699.195557 
	C300.922913,687.260864 300.922913,675.367737 300.922913,663.268555 
	C307.922211,663.268555 314.363190,663.268555 321.606476,663.268555 
	C321.606476,672.010132 321.606476,680.755066 321.606384,690.000122 
z"/>
<path fill="#515153" opacity="1.000000" stroke="none" 
	d="
M1507.092163,755.024780 
	C1504.171753,755.024353 1501.730957,755.024353 1498.693237,755.024353 
	C1499.602295,753.147461 1500.176758,751.825745 1500.862915,750.564758 
	C1516.046143,722.661194 1531.288818,694.789734 1546.364014,666.827942 
	C1547.921265,663.939575 1549.595825,662.783386 1552.897583,662.976990 
	C1559.684692,663.374878 1567.774170,661.138733 1572.931885,664.124756 
	C1577.876343,666.987366 1579.832275,675.062561 1583.026611,680.888000 
	C1595.581299,703.783936 1608.109131,726.694580 1620.636475,749.605530 
	C1621.488159,751.163391 1622.252319,752.769104 1623.387817,755.002808 
	C1616.147217,755.002808 1609.554199,755.123230 1602.974365,754.880493 
	C1601.916992,754.841492 1600.602295,753.365356 1599.949219,752.238892 
	C1597.197876,747.492371 1594.848633,742.501953 1591.915161,737.878052 
	C1590.998169,736.432434 1588.718384,735.031921 1587.045410,735.011658 
	C1569.888184,734.803467 1552.726196,734.789978 1535.569458,735.021057 
	C1533.751831,735.045471 1531.662231,736.680786 1530.242310,738.109009 
	C1528.891968,739.467163 1527.927246,741.433960 1527.357544,743.305054 
	C1524.310669,753.311462 1517.733887,757.139954 1507.092163,755.024780 
M1579.192017,714.747681 
	C1573.297607,703.727783 1567.403198,692.707947 1561.059937,680.849060 
	C1554.200562,693.704712 1547.860352,705.587158 1541.156860,718.150696 
	C1554.149048,718.150696 1566.096436,718.185852 1578.041504,718.036438 
	C1578.582153,718.029663 1579.101807,716.355103 1579.192017,714.747681 
z"/>
<path fill="#515153" opacity="1.000000" stroke="none" 
	d="
M762.916016,724.877441 
	C773.578003,705.284180 784.141052,686.055969 794.521240,666.729431 
	C795.959900,664.051086 797.457947,662.829285 800.604309,662.975281 
	C806.418457,663.245239 812.263550,662.869629 818.074707,663.170654 
	C819.692261,663.254395 821.972229,664.363464 822.704590,665.689209 
	C838.696777,694.637939 854.514160,723.683228 870.353943,752.716125 
	C870.645935,753.251343 870.801697,753.860901 871.241150,755.012939 
	C864.341431,755.012939 857.910889,755.155701 851.497498,754.887146 
	C850.278809,754.836121 848.733093,753.391663 848.016418,752.186707 
	C845.299438,747.619202 842.678284,742.973083 840.390198,738.180298 
	C839.108521,735.495422 837.400574,734.806519 834.589539,734.825989 
	C817.609741,734.943665 800.627441,734.789734 783.649963,735.021484 
	C781.833496,735.046204 780.019409,736.937622 778.259827,738.050964 
	C777.894531,738.282043 777.781921,738.906494 777.542908,739.344177 
	C767.879700,757.038452 767.879517,757.038330 746.747803,754.556274 
	C752.153931,744.648071 757.456543,734.929749 762.916016,724.877441 
M797.354553,702.847778 
	C794.771057,707.750488 792.187622,712.653198 789.448303,717.851746 
	C802.989380,717.851746 815.677307,717.851746 828.954163,717.851746 
	C822.332336,705.482849 815.970337,693.599304 809.162231,680.882446 
	C805.061157,688.558105 801.409546,695.392578 797.354553,702.847778 
z"/>
<path fill="#515153" opacity="1.000000" stroke="none" 
	d="
M1636.031494,704.000000 
	C1636.031494,690.210144 1636.031494,676.920349 1636.031494,663.328674 
	C1637.663452,663.221130 1638.941650,663.064636 1640.219849,663.063599 
	C1658.705200,663.049316 1677.191895,662.936646 1695.675171,663.134888 
	C1700.796021,663.189758 1706.014038,663.707458 1711.002075,664.833740 
	C1726.437622,668.318726 1733.003174,677.525940 1732.202759,693.798828 
	C1731.528564,707.506348 1723.269775,716.594788 1708.326416,717.811462 
	C1693.760010,718.997437 1679.068481,718.651794 1664.431641,718.963440 
	C1662.306519,719.008667 1660.179443,718.969666 1657.581909,718.969666 
	C1657.581909,725.398193 1657.581909,731.347351 1657.581909,737.296448 
	C1657.581909,743.085327 1657.581909,748.874207 1657.581909,754.836487 
	C1650.240601,754.836487 1643.460205,754.836487 1636.031372,754.836487 
	C1636.031372,737.998108 1636.031372,721.249084 1636.031494,704.000000 
M1688.458252,679.314087 
	C1678.235962,679.314087 1668.013672,679.314087 1657.847412,679.314087 
	C1657.847412,687.577026 1657.847412,694.974976 1657.847412,702.704102 
	C1670.516357,702.704102 1682.806274,702.735962 1695.095825,702.675781 
	C1697.413818,702.664429 1699.743042,702.379639 1702.044678,702.060364 
	C1709.116089,701.079285 1711.812744,698.084290 1711.880859,691.283569 
	C1711.947388,684.633423 1709.075439,681.021973 1702.367188,680.095032 
	C1698.103760,679.505859 1693.752319,679.552612 1688.458252,679.314087 
z"/>
<path fill="#4F4F51" opacity="1.000000" stroke="none" 
	d="
M158.990051,718.966431 
	C147.863266,718.966431 137.234421,718.966431 126.149948,718.966431 
	C126.149948,730.973938 126.149948,742.703125 126.149948,754.723755 
	C118.814560,754.723755 111.935791,754.723755 104.852936,754.723755 
	C104.852936,724.237915 104.852936,693.988525 104.852936,663.380005 
	C106.173294,663.269714 107.448257,663.071594 108.723404,663.070435 
	C127.367661,663.053162 146.013153,662.946899 164.655426,663.142090 
	C169.607437,663.193909 174.647278,663.754395 179.478058,664.835327 
	C194.540039,668.205505 201.628113,677.830994 200.892654,693.261353 
	C200.224655,707.276428 191.850174,716.053101 176.903397,717.921021 
	C171.144669,718.640808 165.295776,718.639282 158.990051,718.966431 
M126.955711,702.582397 
	C134.617676,702.626526 142.281052,702.781189 149.941177,702.682617 
	C157.094025,702.590576 164.259033,702.438538 171.388199,701.905273 
	C175.385300,701.606262 178.757492,699.747864 179.879532,695.365540 
	C182.154648,686.479614 178.541809,680.459106 169.435471,680.016541 
	C155.312408,679.330078 141.143509,679.583740 126.993797,679.469849 
	C126.740646,679.467773 126.484383,679.854065 126.232048,680.062134 
	C126.232048,687.376038 126.232048,694.689941 126.955711,702.582397 
z"/>
<path fill="#4F4F51" opacity="1.000000" stroke="none" 
	d="
M1092.135742,733.999878 
	C1092.135742,741.135986 1092.135742,747.772034 1092.135742,754.713501 
	C1085.286011,754.713501 1078.734131,754.713501 1071.829590,754.713501 
	C1071.829590,729.765320 1071.829590,705.007385 1071.829590,679.551392 
	C1056.968994,679.551392 1042.433838,679.551392 1027.619873,679.551392 
	C1027.619873,673.777466 1027.619873,668.700317 1027.619873,663.339172 
	C1063.688721,663.339172 1099.573486,663.339172 1135.815552,663.339172 
	C1135.815552,668.405029 1135.815552,673.466675 1135.815552,679.160767 
	C1121.559814,679.160767 1107.189087,679.160767 1092.135864,679.160767 
	C1092.135864,697.685608 1092.135864,715.592773 1092.135742,733.999878 
z"/>
<path fill="#515153" opacity="1.000000" stroke="none" 
	d="
M385.259338,694.730103 
	C386.393982,695.967590 387.293152,696.942871 388.589203,698.348572 
	C392.110962,694.446106 395.520020,690.684753 398.911133,686.907288 
	C405.253204,679.842590 411.476044,672.665344 418.008759,665.781860 
	C419.389404,664.327148 421.855072,663.275085 423.878113,663.172852 
	C430.355774,662.845581 436.860321,663.051270 444.416046,663.051270 
	C442.863831,664.911682 441.828857,666.247742 440.696167,667.495056 
	C427.930664,681.552979 415.232941,695.674194 402.304504,709.580811 
	C399.692719,712.390198 398.806732,715.210510 398.861572,718.906982 
	C399.036713,730.710571 398.926544,742.518372 398.926544,754.674866 
	C392.089417,754.674866 385.508789,754.674866 378.193817,754.674866 
	C378.193817,748.883911 378.244873,742.955200 378.181244,737.027771 
	C378.095703,729.056946 379.907043,720.324158 377.220703,713.333984 
	C374.596252,706.505066 367.359711,701.439575 362.117035,695.627747 
	C352.564545,685.038086 342.989288,674.468933 332.671173,663.059326 
	C340.996155,663.059326 348.241394,662.923767 355.472626,663.181396 
	C356.811127,663.229065 358.326599,664.652222 359.364410,665.798950 
	C367.970245,675.307617 376.483002,684.900452 385.259338,694.730103 
z"/>
<path fill="#505052" opacity="1.000000" stroke="none" 
	d="
M1765.049072,691.957886 
	C1756.451538,682.449707 1748.083008,673.211487 1738.930664,663.107910 
	C1747.399292,663.107910 1754.925049,662.990356 1762.439087,663.232971 
	C1763.583252,663.269897 1764.806030,664.856506 1765.768188,665.927795 
	C1775.331055,676.575134 1784.846558,687.264893 1794.795898,698.413818 
	C1797.127563,695.840393 1799.324707,693.437378 1801.498047,691.012817 
	C1808.943481,682.707153 1816.260132,674.280273 1823.920288,666.177856 
	C1825.488892,664.518677 1828.285278,663.342163 1830.596069,663.193176 
	C1836.876831,662.788513 1843.200684,663.054199 1850.430786,663.054199 
	C1849.176514,664.694336 1848.425171,665.838806 1847.516602,666.840637 
	C1834.319580,681.392761 1821.024170,695.857117 1807.985229,710.549072 
	C1806.332031,712.411865 1805.236938,715.425415 1805.177734,717.936279 
	C1804.891846,730.067200 1805.048950,742.208679 1805.048950,754.684692 
	C1798.254517,754.684692 1791.679932,754.684692 1784.499023,754.684692 
	C1784.499023,744.799194 1784.028198,734.826599 1784.646606,724.922058 
	C1785.148315,716.885803 1783.356934,710.507202 1777.088013,705.093262 
	C1772.711792,701.313843 1769.184692,696.551147 1765.049072,691.957886 
z"/>
<path fill="#525254" opacity="1.000000" stroke="none" 
	d="
M886.047546,748.890625 
	C886.047546,720.133606 886.047546,691.862183 886.047546,663.320251 
	C893.047119,663.320251 899.613281,663.320251 906.658813,663.320251 
	C906.658813,688.215698 906.658813,712.950867 906.658813,738.202515 
	C928.843140,738.202515 950.561340,738.202515 972.643555,738.202515 
	C972.643555,743.927063 972.643555,749.143372 972.643555,754.699829 
	C944.057251,754.699829 915.349854,754.699829 886.047546,754.699829 
	C886.047546,752.914856 886.047546,751.145508 886.047546,748.890625 
z"/>
<path fill="#4E4E50" opacity="1.000000" stroke="none" 
	d="
M575.964111,717.000000 
	C575.964111,698.887756 575.964111,681.275452 575.964111,663.362610 
	C582.834839,663.362610 589.382935,663.362610 596.188232,663.362610 
	C596.188232,693.797363 596.188232,724.030518 596.188232,754.641846 
	C589.689392,754.641846 583.141418,754.641846 575.964111,754.641846 
	C575.964111,742.321777 575.964111,729.910889 575.964111,717.000000 
z"/>
<path fill="#FFFFFF" opacity="1.000000" stroke="none" 
	d="
M959.298523,240.105286 
	C999.059875,233.391769 1032.753052,245.766663 1061.882935,271.542053 
	C1090.472900,296.839569 1106.098755,329.457458 1111.866455,366.819611 
	C1116.402222,396.200836 1115.115967,425.263611 1104.141113,453.338898 
	C1087.269653,496.498291 1048.111938,523.618103 1001.833008,524.152039 
	C956.612366,524.673767 921.258606,505.393677 895.869324,468.755463 
	C865.548218,425.000549 857.007812,376.324341 870.397095,325.001038 
	C882.312012,279.329315 912.976929,251.338531 959.298523,240.105286 
z"/>
<path fill="#F9F9F9" opacity="1.000000" stroke="none" 
	d="
M1451.840332,698.840576 
	C1438.219971,698.841431 1425.078003,698.841431 1411.528564,698.841431 
	C1411.528564,692.386108 1411.528564,686.178162 1411.528564,679.303345 
	C1414.614746,679.303345 1417.724976,679.272278 1420.834229,679.308838 
	C1432.980835,679.451599 1445.142334,679.302551 1457.267700,679.891113 
	C1464.393799,680.236938 1466.824463,683.109802 1466.845459,688.889221 
	C1466.868530,695.218201 1464.661133,697.471985 1457.294922,698.503479 
	C1455.652588,698.733459 1453.978149,698.733643 1451.840332,698.840576 
z"/>
<path fill="#FDFDFD" opacity="1.000000" stroke="none" 
	d="
M1579.411621,715.102478 
	C1579.101807,716.355103 1578.582153,718.029663 1578.041504,718.036438 
	C1566.096436,718.185852 1554.149048,718.150696 1541.156860,718.150696 
	C1547.860352,705.587158 1554.200562,693.704712 1561.059937,680.849060 
	C1567.403198,692.707947 1573.297607,703.727783 1579.411621,715.102478 
z"/>
<path fill="#FDFDFD" opacity="1.000000" stroke="none" 
	d="
M797.556213,702.537415 
	C801.409546,695.392578 805.061157,688.558105 809.162231,680.882446 
	C815.970337,693.599304 822.332336,705.482849 828.954163,717.851746 
	C815.677307,717.851746 802.989380,717.851746 789.448303,717.851746 
	C792.187622,712.653198 794.771057,707.750488 797.556213,702.537415 
z"/>
<path fill="#FAFAFA" opacity="1.000000" stroke="none" 
	d="
M1688.949341,679.314087 
	C1693.752319,679.552612 1698.103760,679.505859 1702.367188,680.095032 
	C1709.075439,681.021973 1711.947388,684.633423 1711.880859,691.283569 
	C1711.812744,698.084290 1709.116089,701.079285 1702.044678,702.060364 
	C1699.743042,702.379639 1697.413818,702.664429 1695.095825,702.675781 
	C1682.806274,702.735962 1670.516357,702.704102 1657.847412,702.704102 
	C1657.847412,694.974976 1657.847412,687.577026 1657.847412,679.314087 
	C1668.013672,679.314087 1678.235962,679.314087 1688.949341,679.314087 
z"/>
<path fill="#FAFAFA" opacity="1.000000" stroke="none" 
	d="
M126.593880,702.293091 
	C126.232048,694.689941 126.232048,687.376038 126.230804,680.060669 
	C126.484383,679.854065 126.740646,679.467773 126.993797,679.469849 
	C141.143509,679.583740 155.312408,679.330078 169.435471,680.016541 
	C178.541809,680.459106 182.154648,686.479614 179.879532,695.365540 
	C178.757492,699.747864 175.385300,701.606262 171.388199,701.905273 
	C164.259033,702.438538 157.094025,702.590576 149.941177,702.682617 
	C142.281052,702.781189 134.617676,702.626526 126.593880,702.293091 
z"/>
</svg>