<svg xmlns="http://www.w3.org/2000/svg" viewBox="0 0 329.80011 195.03418"><defs><style>.cls-1{fill:#010101;}</style></defs><g id="Layer_2" data-name="Layer 2"><g id="Layer_1-2" data-name="Layer 1"><path class="cls-1" d="M316.29645,113.28705a40.59174,40.59174,0,0,1-5.96765-.15186c-2.67853-.05639-3.45392-.86889-2.57526-3.79565,3.37744-11.25,6.74457-22.52222,9.50061-33.93433,3.30664-13.6922-2.35858-23.77148-14.38513-26.85571A22.89973,22.89973,0,0,0,287.2937,49.613c-1.52765.69183-2.63013,1.67688-3.83215-.7732C275.32141,32.24805,246.027,34.8833,238.2616,47.66119c-6.20917-11.68133-16.925-9.97027-27.206-8.99823C200.44214,39.6665,193,44.68744,191.64929,56.851c-4.04541-3.92724-7.83294-6.3891-12.83362-6.33343-10.05786.11194-20.81158,9.00256-22.79913,18.94134-1.10388,5.5199-2.3988,11.00409-3.3963,16.54236-2.945,16.35156-4.9054,32.79273-3.48187,49.44525.50378,5.89307,2.55975,11.24988,8.50738,13.54828,5.73041,2.21442,10.74152-.148,15.04859-4.02905,1.70489-1.53626,3.1781-3.329,4.8905-5.147,3.12561,9.48565,10.34418,13.9403,19.21039,16.35076,9.92175,2.69745,17.38641-1.2572,23.24371-9.1629,4.25855,6.737,6.96735,8.159,14.82764,8.2124a44.1251,44.1251,0,0,0,11.79687-1.6336c4.91388-1.32208,9.554-2.017,14.19019,1.24481,2.2276,1.5672,5.12115,2.15765,7.95392,2.63416,15.00433,2.52386,30.07922,2.20043,45.19659,1.62768,6.71-.25427,10.76074-3.69757,13.38422-9.37872.96264-2.08454,1.61688-4.311,2.41174-6.47278V122.308C327.99524,115.2749,323.50812,112.354,316.29645,113.28705ZM284.59833,62.33087c2.049-6.41339,6.27337-9.24023,13.16156-8.62543,7.70941.688,13.525,5.4397,14.15411,11.65741a31.68342,31.68342,0,0,1-1.1759,11.818c-2.95581,10.51184-6.02637,20.99164-8.95069,31.51208-.7445,2.67841-1.818,4.05377-5.02459,3.89838-9.09766-.44092-18.19226.31726-28.03107.96088,2.80286-12.19849,6.67908-23.44568,10.36609-34.74653C280.89355,73.3017,282.83655,67.84528,284.59833,62.33087ZM162.43768,143.72424c-3.70318.35077-7.19873-3.1109-7.11956-7.90973a20.75915,20.75915,0,0,1,4.69036-13.31073c3.30835-3.91784,6.60578-3.4602,8.86316,1.0979a17.28219,17.28219,0,0,1,1.28577,3.74518c.52179,2.24781.897,4.52954,1.33356,6.79706C171.54022,138.2749,166.88165,143.30334,162.43768,143.72424Zm12.473-16.299c-5.68438-13.49328-10.93219-14.918-19.86053-5.86273-.52228-7.277.50037-14.03644,1.30127-20.757a274.35522,274.35522,0,0,1,5.63354-30.26263c1.59784-6.79737,8.47205-12.875,15.36316-13.899,6.42542-.95477,11.40631,4.32269,9.64325,10.45483A359.56645,359.56645,0,0,0,174.91064,127.42529Zm26.98487,23.60907a10.68442,10.68442,0,0,1-1.46808-.23169c-5.97113-1.24786-12.85443-3.0802-14.72333-8.75708-2.16229-6.56793.58161-13.7265,5.00464-19.41443,3.97119-5.10693,12.17694-5.32556,16.75757-.713,5.11566,5.15143,6.134,11.84381,6.6756,17.62445A11.28245,11.28245,0,0,1,201.89551,151.03436Zm18.2409-27.85882c-.843,3.36145-1.468,6.77746-2.39959,11.12976-2.75489-10.06531-5.97931-18.758-17.34656-19.61206-8.33417-.62616-13.31268,3.58728-18.25409,15.57342-.76526-14.77478,2.73218-27.59912,6.13354-40.4,3.10285-11.67755,6.74622-23.21253,9.80793-34.9,1.44757-5.52594,4.757-8.47027,10.10876-9.6441a47.1212,47.1212,0,0,1,16.303-.91772,10.36222,10.36222,0,0,1,9.11053,12.03051C229.63275,78.78528,225.6637,101.13721,220.13641,123.17554Zm7.79224-4.55268C234.06122,98.97205,236.578,78.4826,241.91,58.64954c3.5589-13.238,12.814-18.33155,26.31256-14.58088,8.84223,2.45691,12.82087,9.37854,10.08442,18.20112-4.855,15.65332-11.092,30.89044-14.61139,46.93585-.94123,4.291-2.66455,6.30688-7.05182,6.15759a8.41221,8.41221,0,0,0-3.833.94867c-5.21967,2.58539-10.16913,5.13574-16.53168,3.20862-3.48285-1.05493-6.34063,2.09637-9.004,5.38189A10.55881,10.55881,0,0,1,227.92865,118.62286Zm4.59607,30.56385c-3.21741-.218-5.08582-1.28229-4.68811-5.2038.51733-5.10052.70972-10.22968,2.43378-15.10437.969-2.73981,2.59784-5.01184,5.78839-5.51526,3.80053-.59967,5.33893.97308,4.92334,4.72638-.79847,7.21167,1.89843,13.22308,7.13336,18.88739C242.7193,148.51257,237.717,149.53845,232.52472,149.18671Zm26.30176-4.91681c-5.80231.22583-10.84333-4.56519-11.85529-11.86518-.71973-5.19195,2.39319-9.11987,8.70807-10.73614a24.11479,24.11479,0,0,1,19.51025,2.97931c5.29676,3.35229,5.76575,8.849,1.46875,13.44507C271.98376,143.09271,265.88959,144.19458,258.82648,144.2699Zm63.18567,2.41119c-1.42353,4.19122-4.206,6.27149-8.89655,6.45471-14.45251.56452-28.86682.85932-43.198-1.62372a23.00714,23.00714,0,0,1-8.10492-3.072c9.97992-1.4439,18.48065-4.0227,21.41974-14.31182,1.51312-5.29755-.75543-9.25092-8.05835-14.681,9.1568-1.3064,17.83844-1.00287,26.4895-.908,5.63935.06183,11.27259.73706,16.91126.77978,2.89911.022,4.22272,1.18067,4.74188,3.83649A45.04261,45.04261,0,0,1,322.01215,146.68109Z" transform="translate(0 -7.77002)"/><path d="M30.46729,168.07666l-3.36182-.60645a5.2362,5.2362,0,0,1,1.95117-3.00585,7.14,7.14,0,0,1,4.11328-.97559,8.856,8.856,0,0,1,3.69141.58691,3.6779,3.6779,0,0,1,1.707,1.48926,7.6341,7.6341,0,0,1,.49463,3.31543l-.03955,4.32422a15.05573,15.05573,0,0,0,.17773,2.72266,7.96341,7.96341,0,0,0,.666,1.8789h-3.665q-.145-.36914-.356-1.09375c-.06152-.21972-.10547-.36523-.13183-.43554a6.68075,6.68075,0,0,1-2.03028,1.38476,5.83167,5.83167,0,0,1-2.30713.46094,4.76824,4.76824,0,0,1-3.4082-1.17383,3.89912,3.89912,0,0,1-1.24561-2.96582,3.98382,3.98382,0,0,1,.5669-2.11621,3.70808,3.70808,0,0,1,1.58887-1.42383,12.4305,12.4305,0,0,1,2.94629-.86328,20.08708,20.08708,0,0,0,3.59912-.91016v-.36914a1.91961,1.91961,0,0,0-.52735-1.52246,3.164,3.164,0,0,0-1.99072-.4541,2.64746,2.64746,0,0,0-1.54248.38867A2.69967,2.69967,0,0,0,30.46729,168.07666Zm4.957,3.00586a23.12369,23.12369,0,0,1-2.2544.56738,6.79433,6.79433,0,0,0-2.01709.64551,1.54587,1.54587,0,0,0-.7251,1.30566,1.81348,1.81348,0,0,0,.58008,1.34375,2.02159,2.02159,0,0,0,1.47657.56739A3.20832,3.20832,0,0,0,34.396,174.853a2.318,2.318,0,0,0,.8833-1.22657,7.31052,7.31052,0,0,0,.145-1.80566Z" transform="translate(0 -7.77002)"/><path d="M52.19531,178.729l4.23194.51465a1.44583,1.44583,0,0,0,.48779,1.01465,2.78512,2.78512,0,0,0,1.66113.39551,4.30264,4.30264,0,0,0,2.17529-.43555,1.79151,1.79151,0,0,0,.73829-.93555,5.62865,5.62865,0,0,0,.17138-1.70117v-2.043a5.01282,5.01282,0,0,1-4.19238,2.26758,5.1593,5.1593,0,0,1-4.46924-2.38672,8.10693,8.10693,0,0,1-1.292-4.69336,7.7205,7.7205,0,0,1,1.69434-5.3789,5.46835,5.46835,0,0,1,4.21191-1.8584,5.13023,5.13023,0,0,1,4.28467,2.28027v-1.96386h3.46728v12.56347a12.52181,12.52181,0,0,1-.40869,3.70508,4.59009,4.59009,0,0,1-1.147,1.92481,5.07749,5.07749,0,0,1-1.9707,1.09472,10.38247,10.38247,0,0,1-3.11817.39453q-3.55958,0-5.04931-1.21875a3.827,3.827,0,0,1-1.48975-3.09179Q52.18213,178.99268,52.19531,178.729Zm3.30908-8.21386a5.05052,5.05052,0,0,0,.86329,3.26367,2.67192,2.67192,0,0,0,2.12939,1.03515,2.94513,2.94513,0,0,0,2.294-1.06152,4.62754,4.62754,0,0,0,.936-3.14453,4.90129,4.90129,0,0,0-.89648-3.22949,2.84859,2.84859,0,0,0-2.26758-1.05469,2.736,2.736,0,0,0-2.19531,1.03418A4.85523,4.85523,0,0,0,55.50439,170.51514Z" transform="translate(0 -7.77002)"/><path d="M68.43848,163.80518h3.94189l3.34863,9.94043,3.26954-9.94043H82.835l-4.94385,13.47363-.8833,2.43945a9.95777,9.95777,0,0,1-.92969,1.8711,4.0736,4.0736,0,0,1-1.01464,1.04882,4.45608,4.45608,0,0,1-1.41114.626,7.32475,7.32475,0,0,1-1.8916.22363,9.81491,9.81491,0,0,1-2.09619-.22363l-.32959-2.90039a8.19176,8.19176,0,0,0,1.56885.1709,2.32331,2.32331,0,0,0,1.91162-.75781,5.258,5.258,0,0,0,.94922-1.93165Z" transform="translate(0 -7.77002)"/><path d="M86.09229,163.80518h3.41455v1.91113a5.49671,5.49671,0,0,1,4.36377-2.22754,4.69989,4.69989,0,0,1,2.33349.55371,4.26014,4.26014,0,0,1,1.62158,1.67383,6.4798,6.4798,0,0,1,1.99073-1.67383,4.88411,4.88411,0,0,1,2.28076-.55371,5.08459,5.08459,0,0,1,2.61035.626,3.84022,3.84022,0,0,1,1.59521,1.83984,7.97751,7.97751,0,0,1,.38233,2.90039v8.95117h-3.70459V169.8042a5.95365,5.95365,0,0,0-.38233-2.68945,1.75485,1.75485,0,0,0-1.582-.791,2.52485,2.52485,0,0,0-1.46338.47461A2.63023,2.63023,0,0,0,98.564,168.189a10.00308,10.00308,0,0,0-.30322,2.89356v6.72363H94.55615V170.1333a10.64336,10.64336,0,0,0-.19775-2.63672,1.69039,1.69039,0,0,0-.61279-.88379,1.94727,1.94727,0,0,0-1.12745-.28906,2.6994,2.6994,0,0,0-1.54248.46094,2.53533,2.53533,0,0,0-.98242,1.332,9.91293,9.91293,0,0,0-.29638,2.88672v6.80273H86.09229Z" transform="translate(0 -7.77002)"/><path d="M118.57812,163.80518h2.05665v-1.05469a6.99571,6.99571,0,0,1,.376-2.63672,2.96614,2.96614,0,0,1,1.38379-1.417,5.3076,5.3076,0,0,1,2.55127-.54688,10.312,10.312,0,0,1,3.09815.47461l-.501,2.584a7.31728,7.31728,0,0,0-1.70068-.21094,1.51912,1.51912,0,0,0-1.15381.375,2.17879,2.17879,0,0,0-.34912,1.44336v.98926h2.76855v2.91308h-2.76855v11.08789h-3.70459V166.71826h-2.05665Z" transform="translate(0 -7.77002)"/><path d="M129.49512,170.60791a7.5784,7.5784,0,0,1,.90967-3.57324,6.25258,6.25258,0,0,1,2.57763-2.63672,7.65708,7.65708,0,0,1,3.72412-.90918,6.98854,6.98854,0,0,1,5.20752,2.06348,7.12691,7.12691,0,0,1,2.03028,5.21386,7.214,7.214,0,0,1-2.04981,5.2666,6.92862,6.92862,0,0,1-5.16162,2.08985,8.12789,8.12789,0,0,1-3.67139-.87012,5.96893,5.96893,0,0,1-2.65673-2.55078A8.5018,8.5018,0,0,1,129.49512,170.60791Zm3.79687.19824a4.636,4.636,0,0,0,.98877,3.18946,3.23249,3.23249,0,0,0,4.87158,0,4.70323,4.70323,0,0,0,.98194-3.2168,4.619,4.619,0,0,0-.98194-3.16406,3.23247,3.23247,0,0,0-4.87158,0A4.6414,4.6414,0,0,0,133.292,170.80615Z" transform="translate(0 -7.77002)"/><path d="M151.55225,177.80615h-3.70459v-14.001h3.44091v1.99121a5.9805,5.9805,0,0,1,1.58887-1.85938,2.92046,2.92046,0,0,1,1.60156-.44824,4.71057,4.71057,0,0,1,2.439.69824l-1.147,3.23047a3.25066,3.25066,0,0,0-1.74024-.60644,2.05356,2.05356,0,0,0-1.31836.42871,2.92609,2.92609,0,0,0-.85058,1.54882,22.01155,22.01155,0,0,0-.30957,4.69336Z" transform="translate(0 -7.77002)"/><path d="M180.54443,167.94482l-3.65136.65918a2.651,2.651,0,0,0-.83692-1.64746,2.53015,2.53015,0,0,0-1.69433-.55468,2.76856,2.76856,0,0,0-2.208.95605,4.89642,4.89642,0,0,0-.82422,3.19727,5.664,5.664,0,0,0,.83691,3.5205,2.74784,2.74784,0,0,0,2.248,1.02735,2.49305,2.49305,0,0,0,1.72656-.59961,3.60671,3.60671,0,0,0,.94922-2.0625l3.63867.61914a6.452,6.452,0,0,1-2.1748,3.7832,6.729,6.729,0,0,1-4.31152,1.2793,6.4112,6.4112,0,0,1-4.89747-1.9375,8.83169,8.83169,0,0,1,.00684-10.76465,6.50691,6.50691,0,0,1,4.957-1.93164,6.76771,6.76771,0,0,1,4.06738,1.10059A6.103,6.103,0,0,1,180.54443,167.94482Z" transform="translate(0 -7.77002)"/><path d="M184.51416,177.80615V158.479h3.7041v19.32715Z" transform="translate(0 -7.77002)"/><path d="M193.17529,161.90674V158.479h3.70508v3.42774Zm0,15.89941v-14.001h3.70508v14.001Z" transform="translate(0 -7.77002)"/><path d="M201.562,163.80518h3.415v1.91113a5.49443,5.49443,0,0,1,4.36328-2.22754,4.70443,4.70443,0,0,1,2.334.55371,4.26567,4.26567,0,0,1,1.62109,1.67383,6.48958,6.48958,0,0,1,1.99023-1.67383,4.889,4.889,0,0,1,2.28125-.55371,5.08466,5.08466,0,0,1,2.61036.626,3.83929,3.83929,0,0,1,1.59472,1.83984,7.9753,7.9753,0,0,1,.38282,2.90039v8.95117h-3.70508V169.8042a5.9559,5.9559,0,0,0-.38184-2.68945,1.75486,1.75486,0,0,0-1.582-.791,2.5263,2.5263,0,0,0-1.46387.47461,2.62951,2.62951,0,0,0-.98828,1.39062,10.00644,10.00644,0,0,0-.30273,2.89356v6.72363h-3.70508V170.1333a10.70225,10.70225,0,0,0-.19727-2.63672,1.69641,1.69641,0,0,0-.61328-.88379,1.94554,1.94554,0,0,0-1.12695-.28906,2.6987,2.6987,0,0,0-1.543.46094,2.53533,2.53533,0,0,0-.98242,1.332,9.90845,9.90845,0,0,0-.29688,2.88672v6.80273H201.562Z" transform="translate(0 -7.77002)"/><path d="M226.84814,177.80615V158.479h3.70508v6.96094a5.242,5.242,0,0,1,4.06055-1.95117,5.45946,5.45946,0,0,1,4.23242,1.85254,7.67235,7.67235,0,0,1,1.67383,5.31933,8.09947,8.09947,0,0,1-1.707,5.52442,5.33137,5.33137,0,0,1-4.14649,1.9375,5.1288,5.1288,0,0,1-2.36621-.59961,5.66051,5.66051,0,0,1-2.01074-1.77344v2.05664Zm3.67872-7.30371a5.95438,5.95438,0,0,0,.68554,3.2168A2.93075,2.93075,0,0,0,233.77,175.1958a2.623,2.623,0,0,0,2.08984-1.04785,5.16207,5.16207,0,0,0,.86328-3.30274,5.46985,5.46985,0,0,0-.87011-3.46093,2.7545,2.7545,0,0,0-2.22754-1.06055,2.7896,2.7896,0,0,0-2.21485,1.03418A4.748,4.748,0,0,0,230.52686,170.50244Z" transform="translate(0 -7.77002)"/><path d="M252.769,173.3501l3.69141.62011a6.04861,6.04861,0,0,1-2.248,3.09083,6.598,6.598,0,0,1-3.84277,1.06152,6.262,6.262,0,0,1-5.40527-2.38672,8.01134,8.01134,0,0,1-1.38379-4.82422,7.73318,7.73318,0,0,1,1.81836-5.45215,5.99418,5.99418,0,0,1,4.60156-1.9707,6.21346,6.21346,0,0,1,4.93066,2.06348q1.80615,2.0625,1.72754,6.32129h-9.28125a3.74022,3.74022,0,0,0,.89649,2.56445,2.80194,2.80194,0,0,0,2.13476.916,2.26967,2.26967,0,0,0,1.46387-.47461A2.931,2.931,0,0,0,252.769,173.3501ZM252.98,169.606a3.5654,3.5654,0,0,0-.83105-2.44532,2.673,2.673,0,0,0-3.92774.0459,3.4182,3.4182,0,0,0-.77832,2.39942Z" transform="translate(0 -7.77002)"/><path d="M264.38428,177.80615H260.6792v-14.001h3.44141v1.99121a5.98036,5.98036,0,0,1,1.58886-1.85938,2.92047,2.92047,0,0,1,1.60157-.44824,4.70882,4.70882,0,0,1,2.43847.69824l-1.14648,3.23047a3.25063,3.25063,0,0,0-1.74024-.60644,2.05358,2.05358,0,0,0-1.31836.42871,2.92937,2.92937,0,0,0-.85058,1.54882,22.04564,22.04564,0,0,0-.30957,4.69336Z" transform="translate(0 -7.77002)"/><path d="M271.20166,173.812l3.71777-.56738a2.72571,2.72571,0,0,0,.96192,1.6416,3.25631,3.25631,0,0,0,2.03125.56055,3.66933,3.66933,0,0,0,2.16211-.52735,1.18,1.18,0,0,0,.4873-.98925.97.97,0,0,0-.26367-.69825,2.95071,2.95071,0,0,0-1.23926-.48828,19.93058,19.93058,0,0,1-5.68164-1.80664,3.60592,3.60592,0,0,1-1.66211-3.15039,3.88367,3.88367,0,0,1,1.4375-3.05859,6.71044,6.71044,0,0,1,4.45606-1.23926,7.7734,7.7734,0,0,1,4.27148.93652,4.785,4.785,0,0,1,1.92481,2.76758l-3.49414.64649a2.1568,2.1568,0,0,0-.84961-1.252,3.10538,3.10538,0,0,0-1.78711-.43554,4.03577,4.03577,0,0,0-2.09571.4082.8796.8796,0,0,0-.42187.75195.81667.81667,0,0,0,.36914.67188,13.84,13.84,0,0,0,3.46094,1.042,10.31918,10.31918,0,0,1,4.13281,1.64746,3.42737,3.42737,0,0,1,1.16016,2.75586,4.22687,4.22687,0,0,1-1.6084,3.30859,7.11456,7.11456,0,0,1-4.75879,1.38477,7.81088,7.81088,0,0,1-4.5293-1.16016A5.34585,5.34585,0,0,1,271.20166,173.812Z" transform="translate(0 -7.77002)"/><path d="M87.15576,193.80615l2.6626.84375a5.9739,5.9739,0,0,1-2.03613,3.30762,6.40649,6.40649,0,0,1-8.0669-.77051,7.07978,7.07978,0,0,1-1.74414-5.06055,7.4362,7.4362,0,0,1,1.75342-5.27441,6.013,6.013,0,0,1,4.61084-1.87793,5.65686,5.65686,0,0,1,4.0542,1.47461,5.367,5.367,0,0,1,1.3916,2.50488L87.063,189.603a2.80916,2.80916,0,0,0-2.8667-2.28223,3.09774,3.09774,0,0,0-2.4541,1.085,5.32667,5.32667,0,0,0-.94141,3.5166,5.70252,5.70252,0,0,0,.92774,3.67383,3.01289,3.01289,0,0,0,2.4121,1.09473,2.75584,2.75584,0,0,0,1.88331-.69531A4.051,4.051,0,0,0,87.15576,193.80615Z" transform="translate(0 -7.77002)"/><path d="M94.64014,185.20557v5.001a3.90578,3.90578,0,0,1,4.63867-1.1416,2.65349,2.65349,0,0,1,1.09033.85352,3.09935,3.09935,0,0,1,.501,1.15039,10.32259,10.32259,0,0,1,.13427,1.958v5.77929H98.39746v-5.20508a7.73061,7.73061,0,0,0-.14844-1.96679,1.29339,1.29339,0,0,0-.52441-.66309,1.69117,1.69117,0,0,0-.94141-.24512,2.1611,2.1611,0,0,0-1.15966.31446,1.8227,1.8227,0,0,0-.74659.95117,5.66621,5.66621,0,0,0-.23681,1.87891v4.93554H92.0332V185.20557Z" transform="translate(0 -7.77002)"/><path d="M106.02979,198.80615h-2.60694v-9.85254h2.42139V190.355a4.19956,4.19956,0,0,1,1.11816-1.30859,2.05692,2.05692,0,0,1,1.127-.31543,3.31509,3.31509,0,0,1,1.7163.49121l-.80712,2.27344a2.292,2.292,0,0,0-1.22461-.42676,1.44522,1.44522,0,0,0-.92774.30176,2.06123,2.06123,0,0,0-.59863,1.08984,15.51424,15.51424,0,0,0-.21777,3.30273Z" transform="translate(0 -7.77002)"/><path d="M110.81445,187.61768v-2.41211h2.60694v2.41211Zm0,11.18847v-9.85254h2.60694v9.85254Z" transform="translate(0 -7.77002)"/><path d="M115.06055,195.99561l2.61621-.39942a1.9173,1.9173,0,0,0,.67724,1.15527,2.2889,2.2889,0,0,0,1.42871.39454,2.58271,2.58271,0,0,0,1.52149-.3711.83046.83046,0,0,0,.34326-.69629.68185.68185,0,0,0-.18555-.49121,2.078,2.078,0,0,0-.87207-.34375,14.04175,14.04175,0,0,1-3.99853-1.27148,2.5367,2.5367,0,0,1-1.16895-2.2168,2.73168,2.73168,0,0,1,1.01123-2.15234,4.72305,4.72305,0,0,1,3.13575-.87207,5.46789,5.46789,0,0,1,3.00586.65918,3.36539,3.36539,0,0,1,1.35449,1.94726l-2.4585.45508a1.51726,1.51726,0,0,0-.59814-.88086,2.18229,2.18229,0,0,0-1.25733-.30664,2.83629,2.83629,0,0,0-1.4751.28711.61807.61807,0,0,0-.29687.5293.57364.57364,0,0,0,.25977.47265,9.73952,9.73952,0,0,0,2.43554.7334,7.263,7.263,0,0,1,2.90821,1.15918,2.41312,2.41312,0,0,1,.8164,1.93945,2.97382,2.97382,0,0,1-1.13183,2.32813,5.00567,5.00567,0,0,1-3.34913.97461,5.49917,5.49917,0,0,1-3.187-.81641A3.76069,3.76069,0,0,1,115.06055,195.99561Z" transform="translate(0 -7.77002)"/><path d="M130.9502,188.95361v2.07813H129.169v3.9707a9.94816,9.94816,0,0,0,.05078,1.40527.57213.57213,0,0,0,.23242.33008.73745.73745,0,0,0,.44043.12891,3.37059,3.37059,0,0,0,1.04834-.25l.22265,2.02246a5.18425,5.18425,0,0,1-2.05957.38965,3.27383,3.27383,0,0,1-1.271-.23633,1.85749,1.85749,0,0,1-.83008-.6123,2.40884,2.40884,0,0,1-.3667-1.01661,12.6235,12.6235,0,0,1-.0835-1.83593v-4.2959H125.356v-2.07813h1.19677v-1.958l2.61622-1.52149v3.47949Z" transform="translate(0 -7.77002)"/><path d="M132.645,187.61768v-2.41211H135.252v2.41211Zm0,11.18847v-9.85254H135.252v9.85254Z" transform="translate(0 -7.77002)"/><path d="M139.7583,191.95947l-2.36572-.42676a3.68531,3.68531,0,0,1,1.373-2.11523,5.022,5.022,0,0,1,2.89454-.68652,6.2363,6.2363,0,0,1,2.59765.41308,2.59307,2.59307,0,0,1,1.20117,1.04785,5.36949,5.36949,0,0,1,.34815,2.333l-.02783,3.043a10.61441,10.61441,0,0,0,.125,1.916,5.59116,5.59116,0,0,0,.46875,1.32226H143.794q-.10254-.25928-.25049-.76953c-.04346-.15527-.07422-.25683-.09278-.30664a4.7173,4.7173,0,0,1-1.42871.97461,4.10361,4.10361,0,0,1-1.62353.32422A3.357,3.357,0,0,1,138,198.20264a2.74454,2.74454,0,0,1-.87646-2.08692,2.80263,2.80263,0,0,1,.39892-1.48926,2.61062,2.61062,0,0,1,1.11816-1.002,8.73457,8.73457,0,0,1,2.07325-.60742,14.14252,14.14252,0,0,0,2.53271-.64063v-.25976a1.35242,1.35242,0,0,0-.37109-1.07129,2.228,2.228,0,0,0-1.40088-.31934,1.86436,1.86436,0,0,0-1.08545.27344A1.89933,1.89933,0,0,0,139.7583,191.95947Zm3.48828,2.11524q-.501.167-1.58642.39941a4.77279,4.77279,0,0,0-1.41944.4541,1.0877,1.0877,0,0,0-.51025.91895,1.27592,1.27592,0,0,0,.4082.94531,1.42208,1.42208,0,0,0,1.03906.39941,2.25624,2.25624,0,0,0,1.34522-.46386,1.63367,1.63367,0,0,0,.62158-.86328,5.14969,5.14969,0,0,0,.102-1.27051Z" transform="translate(0 -7.77002)"/><path d="M157.22461,198.80615h-2.60693v-5.02832a7.77622,7.77622,0,0,0-.167-2.06445,1.44559,1.44559,0,0,0-.543-.72754,1.54452,1.54452,0,0,0-.90429-.25977,2.08455,2.08455,0,0,0-1.21533.3711,1.86746,1.86746,0,0,0-.7378.98242,8.512,8.512,0,0,0-.19922,2.26367v4.46289h-2.60693v-9.85254h2.42139v1.44727a4.03853,4.03853,0,0,1,4.82422-1.35938,2.6494,2.6494,0,0,1,1.08105.79395,2.8662,2.8662,0,0,1,.50977,1.09375,8.12388,8.12388,0,0,1,.144,1.75391Z" transform="translate(0 -7.77002)"/><path d="M158.83643,195.99561l2.61621-.39942a1.91725,1.91725,0,0,0,.67724,1.15527,2.2889,2.2889,0,0,0,1.42871.39454,2.58441,2.58441,0,0,0,1.522-.3711.83.83,0,0,0,.34277-.69629.67981.67981,0,0,0-.18555-.49121,2.07805,2.07805,0,0,0-.87207-.34375,14.04175,14.04175,0,0,1-3.99853-1.27148,2.5367,2.5367,0,0,1-1.16895-2.2168,2.73168,2.73168,0,0,1,1.01123-2.15234,4.723,4.723,0,0,1,3.13574-.87207,5.46559,5.46559,0,0,1,3.00586.65918,3.36318,3.36318,0,0,1,1.3545,1.94726l-2.458.45508a1.51571,1.51571,0,0,0-.59863-.88086,2.18122,2.18122,0,0,0-1.25733-.30664,2.83629,2.83629,0,0,0-1.4751.28711.61807.61807,0,0,0-.29687.5293.57363.57363,0,0,0,.25976.47265,9.73983,9.73983,0,0,0,2.43555.7334,7.25971,7.25971,0,0,1,2.9082,1.15918,2.41309,2.41309,0,0,1,.81641,1.93945,2.97229,2.97229,0,0,1-1.13184,2.32813,5.00562,5.00562,0,0,1-3.34912.97461,5.49917,5.49917,0,0,1-3.187-.81641A3.76069,3.76069,0,0,1,158.83643,195.99561Z" transform="translate(0 -7.77002)"/><path d="M170.09619,198.80615V185.20557h2.60742V190.104a3.68836,3.68836,0,0,1,2.85743-1.373,3.84023,3.84023,0,0,1,2.97753,1.30371,5.39762,5.39762,0,0,1,1.17872,3.74316,5.699,5.699,0,0,1-1.20118,3.8877,3.75424,3.75424,0,0,1-2.918,1.36328,3.604,3.604,0,0,1-1.665-.42188,3.97167,3.97167,0,0,1-1.415-1.248v1.44726Zm2.58887-5.13965a4.18339,4.18339,0,0,0,.48242,2.26368,2.06192,2.06192,0,0,0,1.79981,1.03906,1.846,1.846,0,0,0,1.4707-.73731,3.636,3.636,0,0,0,.60742-2.32422,3.84842,3.84842,0,0,0-.6123-2.43554,1.94062,1.94062,0,0,0-1.56836-.7461,1.9633,1.9633,0,0,0-1.5586.72754A3.3486,3.3486,0,0,0,172.68506,193.6665Z" transform="translate(0 -7.77002)"/><path d="M188.18506,198.80615v-1.47461a3.797,3.797,0,0,1-1.415,1.24219,3.9564,3.9564,0,0,1-1.85059.45508,3.62372,3.62372,0,0,1-1.78125-.43555,2.57651,2.57651,0,0,1-1.1416-1.22461,5.46362,5.46362,0,0,1-.35254-2.18066v-6.23438h2.60742V193.481a12.57775,12.57775,0,0,0,.14356,2.54687,1.38652,1.38652,0,0,0,.52441.74219,1.60837,1.60837,0,0,0,.96485.27344,2.05072,2.05072,0,0,0,1.19629-.36621,1.86557,1.86557,0,0,0,.72363-.90918,10.54935,10.54935,0,0,0,.19531-2.65821v-4.15625H190.606v9.85254Z" transform="translate(0 -7.77002)"/><path d="M195.687,198.80615h-2.60742v-9.85254h2.42187V190.355a4.19956,4.19956,0,0,1,1.11817-1.30859,2.05571,2.05571,0,0,1,1.12695-.31543,3.31086,3.31086,0,0,1,1.71582.49121l-.80664,2.27344a2.292,2.292,0,0,0-1.22461-.42676,1.44614,1.44614,0,0,0-.92773.30176,2.0611,2.0611,0,0,0-.59863,1.08984,15.47994,15.47994,0,0,0-.21778,3.30273Z" transform="translate(0 -7.77002)"/><path d="M200.23,199.45557l2.97754.3623a1.02059,1.02059,0,0,0,.34277.71387,1.964,1.964,0,0,0,1.16992.27832,3.0234,3.0234,0,0,0,1.53028-.30664,1.26033,1.26033,0,0,0,.51953-.65821,3.97553,3.97553,0,0,0,.12012-1.19726v-1.4375a3.52668,3.52668,0,0,1-2.94922,1.5957,3.63127,3.63127,0,0,1-3.14551-1.67969,5.70183,5.70183,0,0,1-.90918-3.30273,5.43488,5.43488,0,0,1,1.19238-3.78516,3.84763,3.84763,0,0,1,2.96387-1.30761,3.61076,3.61076,0,0,1,3.01563,1.60449v-1.38184h2.43945v8.84082a8.82539,8.82539,0,0,1-.28711,2.60743,3.23606,3.23606,0,0,1-.80762,1.35449,3.56984,3.56984,0,0,1-1.38672.77051,7.30841,7.30841,0,0,1-2.19433.27734,5.68185,5.68185,0,0,1-3.55274-.85742,2.69293,2.69293,0,0,1-1.04883-2.17578C200.22021,199.68408,200.22314,199.57959,200.23,199.45557Zm2.32813-5.78028a3.55291,3.55291,0,0,0,.60742,2.29688,1.87921,1.87921,0,0,0,1.498.72851,2.0724,2.0724,0,0,0,1.61524-.74707,3.259,3.259,0,0,0,.6582-2.21289,3.44557,3.44557,0,0,0-.63086-2.27246,2.00358,2.00358,0,0,0-1.5957-.74219,1.92455,1.92455,0,0,0-1.54492.72754A3.4163,3.4163,0,0,0,202.55811,193.67529Z" transform="translate(0 -7.77002)"/><path d="M220.61572,198.80615l-4.86133-13.60058h2.97852l3.44141,10.06543,3.33105-10.06543h2.91309l-4.8711,13.60058Z" transform="translate(0 -7.77002)"/><path d="M240.55908,198.80615h-2.98633l-1.1875-3.08984h-5.4375l-1.12207,3.08984H226.9126l5.29687-13.60058h2.9043Zm-5.05566-5.38086-1.874-5.04687-1.83691,5.04687Z" transform="translate(0 -7.77002)"/><path d="M13.272,28.896a7.47324,7.47324,0,0,0,4.59912-1.49121,8.14764,8.14764,0,0,0,2.835-3.75879l4.998,1.76416A12.90912,12.90912,0,0,1,23.814,28.959,13.2247,13.2247,0,0,1,13.23,34.23a12.98509,12.98509,0,0,1-5.145-1.02881A13.18869,13.18869,0,0,1,1.02881,26.145a13.196,13.196,0,0,1,2.835-14.49023A13.73422,13.73422,0,0,1,8.085,8.81982,12.77482,12.77482,0,0,1,13.23,7.77a12.86737,12.86737,0,0,1,4.05322.62988A13.44452,13.44452,0,0,1,20.811,10.16406a13.271,13.271,0,0,1,2.835,2.688,13.00532,13.00532,0,0,1,1.93212,3.44385l-4.956,1.80615a7.573,7.573,0,0,0-2.835-3.6123A7.72721,7.72721,0,0,0,13.272,13.104a7.51072,7.51072,0,0,0-3.06592.62989,8.14919,8.14919,0,0,0-2.499,1.70117,7.85558,7.85558,0,0,0-1.68017,2.499,8.0233,8.0233,0,0,0,0,6.13184,7.85015,7.85015,0,0,0,1.68017,2.499,8.14919,8.14919,0,0,0,2.499,1.70117A7.51072,7.51072,0,0,0,13.272,28.896Z" transform="translate(0 -7.77002)"/><path d="M43.6377,23.73a5.124,5.124,0,1,0-10.248,0v10.5h-5.376V23.73a10.29027,10.29027,0,0,1,.81885-4.09521,10.49027,10.49027,0,0,1,5.58594-5.58594,10.64988,10.64988,0,0,1,8.19043,0,10.49029,10.49029,0,0,1,5.58593,5.58594A10.29027,10.29027,0,0,1,49.01367,23.73Z" transform="translate(0 -7.77002)"/><path d="M51.32275,13.23V7.77h5.376v5.46Zm5.376,1.34424V34.23h-5.376V14.57422Z" transform="translate(0 -7.77002)"/><path d="M81.689,21.084a3.11165,3.11165,0,0,0-1.02929-1.80615,2.99507,2.99507,0,0,0-4.93506,2.05811V34.23h-5.376V21.50391a2.98872,2.98872,0,0,0-.90283-2.07911,2.83614,2.83614,0,0,0-2.0791-.86084,2.955,2.955,0,0,0-1.97412.71387A2.87079,2.87079,0,0,0,64.38477,21.084V34.23h-5.376V21.50391A7.86746,7.86746,0,0,1,59.68066,18.27a8.44388,8.44388,0,0,1,1.80616-2.625,8.60141,8.60141,0,0,1,2.646-1.76416A8.09421,8.09421,0,0,1,67.3667,13.23a7.89626,7.89626,0,0,1,3.08691.60889,8.77845,8.77845,0,0,1,2.583,1.65918,8.1678,8.1678,0,0,1,2.562-1.65918,8.29977,8.29977,0,0,1,6.34229.042,8.60713,8.60713,0,0,1,2.646,1.76416,8.45064,8.45064,0,0,1,1.80567,2.625,7.87572,7.87572,0,0,1,.67236,3.23389V34.23H81.689Z" transform="translate(0 -7.77002)"/><path d="M110.374,23.73a10.28708,10.28708,0,0,1-.81884,4.09522,10.49029,10.49029,0,0,1-5.58594,5.58593A10.29035,10.29035,0,0,1,99.874,34.23a10.40312,10.40312,0,0,1-5.124-1.30176v6.76172H89.374V23.73a10.29027,10.29027,0,0,1,.81885-4.09521,10.49027,10.49027,0,0,1,5.58594-5.58594,10.64988,10.64988,0,0,1,8.19043,0,10.49027,10.49027,0,0,1,5.58594,5.58594A10.29043,10.29043,0,0,1,110.374,23.73Zm-5.376,0a5.15374,5.15374,0,1,0-.39893,1.99512A5.08429,5.08429,0,0,0,104.99805,23.73Z" transform="translate(0 -7.77002)"/><path d="M129.60938,32.0459a10.24869,10.24869,0,0,1-2.98194,1.61719,10.45512,10.45512,0,0,1-3.44385.56689,10.28687,10.28687,0,0,1-4.09521-.81885,10.49029,10.49029,0,0,1-5.58594-5.58593,10.64988,10.64988,0,0,1,0-8.19043,10.49027,10.49027,0,0,1,5.58594-5.58594,10.64988,10.64988,0,0,1,8.19043,0,10.49027,10.49027,0,0,1,5.58594,5.58594,10.29043,10.29043,0,0,1,.81884,4.09521,9.896,9.896,0,0,1-.084,1.30176q-.085.63061-.21,1.21826h-14.6582a5.19436,5.19436,0,0,0,1.84814,1.89014,4.91886,4.91886,0,0,0,2.604.71386,4.99505,4.99505,0,0,0,2.98194-.96582ZM123.18359,18.606a4.7858,4.7858,0,0,0-2.436.62988,5.63037,5.63037,0,0,0-1.80615,1.63818h8.48437a5.64567,5.64567,0,0,0-1.80615-1.63818A4.78838,4.78838,0,0,0,123.18359,18.606Z" transform="translate(0 -7.77002)"/><path d="M151.61719,23.73a5.124,5.124,0,1,0-10.24805,0v10.5h-5.376V23.73a10.29027,10.29027,0,0,1,.81885-4.09521,10.49027,10.49027,0,0,1,5.58594-5.58594,10.64988,10.64988,0,0,1,8.19043,0,10.49027,10.49027,0,0,1,5.58594,5.58594,10.29043,10.29043,0,0,1,.81884,4.09521Z" transform="translate(0 -7.77002)"/><path d="M164.80518,7.77V19.40381h-5.50245V7.77Z" transform="translate(0 -7.77002)"/><path d="M177.61475,13.23a10.073,10.073,0,0,1,3.46484.58789,11.42106,11.42106,0,0,1,2.96094,1.59619l-3.27637,4.28369a5.10685,5.10685,0,0,0-3.14941-1.09179,4.92625,4.92625,0,0,0-2.6045.71386A5.20444,5.20444,0,0,0,173.1626,21.21h14.6582v.042a9.89021,9.89021,0,0,1,.29395,2.478,10.27033,10.27033,0,0,1-.81934,4.09522,10.48158,10.48158,0,0,1-5.58594,5.58593,10.28278,10.28278,0,0,1-4.09472.81885,10.07872,10.07872,0,0,1-3.40137-.56689,11.71384,11.71384,0,0,1-2.94043-1.53321l3.27637-4.28369a6.08831,6.08831,0,0,0,1.44824.73486,4.84032,4.84032,0,0,0,1.61719.27295,4.92425,4.92425,0,0,0,2.60449-.71386A5.20463,5.20463,0,0,0,182.06689,26.25h-14.6582q-.126-.5874-.21-1.21826a9.73054,9.73054,0,0,1-.084-1.30176,10.27383,10.27383,0,0,1,.81933-4.09521A10.48164,10.48164,0,0,1,173.52,14.04883,10.28283,10.28283,0,0,1,177.61475,13.23Z" transform="translate(0 -7.77002)"/><path d="M13.272,60.896a7.47324,7.47324,0,0,0,4.59912-1.49121,8.14764,8.14764,0,0,0,2.835-3.75879l4.998,1.76416A12.90912,12.90912,0,0,1,23.814,60.959,13.2247,13.2247,0,0,1,13.23,66.23a12.98509,12.98509,0,0,1-5.145-1.02881A13.18869,13.18869,0,0,1,1.02881,58.145a13.196,13.196,0,0,1,2.835-14.49023,13.73422,13.73422,0,0,1,4.22119-2.835A12.77482,12.77482,0,0,1,13.23,39.77a12.86737,12.86737,0,0,1,4.05322.62988A13.44452,13.44452,0,0,1,20.811,42.16406a13.271,13.271,0,0,1,2.835,2.688,13.00532,13.00532,0,0,1,1.93212,3.44385l-4.956,1.80615a7.573,7.573,0,0,0-2.835-3.6123A7.72721,7.72721,0,0,0,13.272,45.104a7.51072,7.51072,0,0,0-3.06592.62989,8.14919,8.14919,0,0,0-2.499,1.70117,7.85558,7.85558,0,0,0-1.68017,2.499,8.0233,8.0233,0,0,0,0,6.13184,7.85015,7.85015,0,0,0,1.68017,2.499,8.14919,8.14919,0,0,0,2.499,1.70117A7.51072,7.51072,0,0,0,13.272,60.896Z" transform="translate(0 -7.77002)"/><path d="M33.38965,66.23h-5.376V39.77h5.376Z" transform="translate(0 -7.77002)"/><path d="M35.69922,45.23V39.77h5.376v5.46Zm5.376,1.34424V66.23h-5.376V46.57422Z" transform="translate(0 -7.77002)"/><path d="M66.06494,53.084a3.11167,3.11167,0,0,0-1.0293-1.80615,2.99506,2.99506,0,0,0-4.93505,2.05811V66.23h-5.376V53.50391a2.98872,2.98872,0,0,0-.90283-2.07911,2.83614,2.83614,0,0,0-2.0791-.86084,2.955,2.955,0,0,0-1.97413.71387A2.87088,2.87088,0,0,0,48.76074,53.084V66.23h-5.376V53.50391A7.86746,7.86746,0,0,1,44.05664,50.27a8.44368,8.44368,0,0,1,1.80615-2.625,8.60146,8.60146,0,0,1,2.646-1.76416A8.09421,8.09421,0,0,1,51.74268,45.23a7.89626,7.89626,0,0,1,3.08691.60889,8.77845,8.77845,0,0,1,2.583,1.65918,8.16768,8.16768,0,0,1,2.562-1.65918,8.29975,8.29975,0,0,1,6.34228.042,8.60717,8.60717,0,0,1,2.646,1.76416,8.45061,8.45061,0,0,1,1.80566,2.625,7.87557,7.87557,0,0,1,.67237,3.23389V66.23h-5.376Z" transform="translate(0 -7.77002)"/><path d="M79.12646,46.57422a10.955,10.955,0,0,1,2.436-.98731,10.14656,10.14656,0,0,1,2.688-.35693,10.2903,10.2903,0,0,1,4.09521.81885,10.49027,10.49027,0,0,1,5.58594,5.58594,10.64988,10.64988,0,0,1,0,8.19043,10.49029,10.49029,0,0,1-5.58594,5.58593,10.64988,10.64988,0,0,1-8.19043,0,10.49032,10.49032,0,0,1-5.58593-5.58593A10.28692,10.28692,0,0,1,73.75049,55.73V39.77h5.376Zm5.124,14.27978a5.124,5.124,0,1,0,0-10.248,4.931,4.931,0,0,0-1.97412.39892,5.55928,5.55928,0,0,0-1.6167,1.0503,4.72811,4.72811,0,0,0-1.09229,1.55371A5.21194,5.21194,0,0,0,79.12646,55.52v.21a5.10793,5.10793,0,0,0,5.124,5.124Z" transform="translate(0 -7.77002)"/><path d="M97.06006,45.23V39.77h5.376v5.46Zm5.376,1.34424V66.23h-5.376V46.57422Z" transform="translate(0 -7.77002)"/><path d="M125.74561,66.23h-5.376V55.73a5.124,5.124,0,1,0-10.24805,0v10.5h-5.376V55.73a10.29026,10.29026,0,0,1,.81884-4.09521,10.49027,10.49027,0,0,1,5.58594-5.58594,10.64988,10.64988,0,0,1,8.19043,0,10.49027,10.49027,0,0,1,5.58594,5.58594,10.29027,10.29027,0,0,1,.81885,4.09521Z" transform="translate(0 -7.77002)"/><path d="M138.55518,76.73a10.28692,10.28692,0,0,1-4.09522-.81885A10.49029,10.49029,0,0,1,128.874,70.3252a10.29034,10.29034,0,0,1-.81884-4.09522h5.376a5.124,5.124,0,1,0,10.24805,0V64.92822a10.40447,10.40447,0,0,1-5.124,1.30176,10.28692,10.28692,0,0,1-4.09522-.81885A10.49029,10.49029,0,0,1,128.874,59.8252a10.65,10.65,0,0,1,0-8.19043A10.49027,10.49027,0,0,1,134.46,46.04883a10.64988,10.64988,0,0,1,8.19043,0,10.49027,10.49027,0,0,1,5.58594,5.58594,10.29027,10.29027,0,0,1,.81885,4.09521v10.5a10.29035,10.29035,0,0,1-.81885,4.09522,10.49029,10.49029,0,0,1-5.58594,5.58593A10.2903,10.2903,0,0,1,138.55518,76.73Zm0-15.876a5.1187,5.1187,0,0,0,3.54882-1.42822,5.24537,5.24537,0,0,0,1.11329-1.57471,4.9982,4.9982,0,0,0,.46191-1.91113v-.21a5.13479,5.13479,0,1,0-5.124,5.124Z" transform="translate(0 -7.77002)"/><path d="M20.32812,86.97412h5.376v15.96h-5.376v-6.7622a14.09218,14.09218,0,0,1-3.33935,1.5122A12.773,12.773,0,0,1,13.23,98.23a12.98509,12.98509,0,0,1-5.145-1.02881A13.18869,13.18869,0,0,1,1.02881,90.145a13.196,13.196,0,0,1,2.835-14.49023,13.73422,13.73422,0,0,1,4.22119-2.835A12.77482,12.77482,0,0,1,13.23,71.77a12.92963,12.92963,0,0,1,4.03223.62988A13.27727,13.27727,0,0,1,23.646,76.85205a13.00532,13.00532,0,0,1,1.93212,3.44385l-4.956,1.80615a7.573,7.573,0,0,0-2.835-3.6123A7.72721,7.72721,0,0,0,13.272,77.104a7.51072,7.51072,0,0,0-3.06592.62989,8.14919,8.14919,0,0,0-2.499,1.70117,7.85558,7.85558,0,0,0-1.68017,2.499,8.0233,8.0233,0,0,0,0,6.13184,7.85015,7.85015,0,0,0,1.68017,2.499,8.14919,8.14919,0,0,0,2.499,1.70117A7.51072,7.51072,0,0,0,13.272,92.896a7.56311,7.56311,0,0,0,4.22119-1.21778,7.96353,7.96353,0,0,0,2.835-3.15039Z" transform="translate(0 -7.77002)"/><path d="M28.01367,77.23h5.376v10.5a5.124,5.124,0,1,0,10.248,0V77.23h5.376v21a10.29035,10.29035,0,0,1-.81885,4.09522,10.49339,10.49339,0,0,1-5.58593,5.58642,10.65576,10.65576,0,0,1-8.19043,0,10.49336,10.49336,0,0,1-5.58594-5.58642A10.29035,10.29035,0,0,1,28.01367,98.23h5.376a5.124,5.124,0,1,0,10.248,0V96.92822a10.40448,10.40448,0,0,1-5.124,1.30176,10.28687,10.28687,0,0,1-4.09521-.81885,10.49029,10.49029,0,0,1-5.58594-5.58593A10.28692,10.28692,0,0,1,28.01367,87.73Z" transform="translate(0 -7.77002)"/><path d="M74.00293,85.084a3.11172,3.11172,0,0,0-1.0293-1.80615,2.99508,2.99508,0,0,0-4.93506,2.05811V98.23h-5.376V85.50391a2.98872,2.98872,0,0,0-.90283-2.07911,2.83614,2.83614,0,0,0-2.07911-.86084,2.955,2.955,0,0,0-1.97412.71387A2.87084,2.87084,0,0,0,56.69873,85.084V98.23h-5.376V85.50391A7.86747,7.86747,0,0,1,51.99463,82.27a8.44368,8.44368,0,0,1,1.80615-2.625,8.60134,8.60134,0,0,1,2.646-1.76416A8.0942,8.0942,0,0,1,59.68066,77.23a7.89627,7.89627,0,0,1,3.08692.60889,8.77845,8.77845,0,0,1,2.583,1.65918,8.16768,8.16768,0,0,1,2.562-1.65918,8.29975,8.29975,0,0,1,6.34228.042,8.60717,8.60717,0,0,1,2.646,1.76416,8.45061,8.45061,0,0,1,1.80566,2.625,7.87557,7.87557,0,0,1,.67237,3.23389V98.23h-5.376Z" transform="translate(0 -7.77002)"/></g></g></svg>