<svg xmlns="http://www.w3.org/2000/svg" viewBox="0 0 272.73733 82.64536"><defs><style>.cls-1{fill:#010101;}.cls-2{fill:#020202;}.cls-3{fill:#030303;}.cls-4{fill:#060606;}.cls-5{fill:#050505;}</style></defs><g id="Layer_2" data-name="Layer 2"><g id="Layer_1-2" data-name="Layer 1"><path d="M216.453,45.3477c2.53759-.84093,3.85717.29321,5.13846,2.516,5.28444,9.16762,15.4122,14.10924,25.2255,12.58627,10.42031-1.61716,19.29626-10.41964,21.61983-21.44049.02058-.09761.05047-.1935.06679-.29172.86182-5.18634,1.07891-4.35343-3.53621-4.35882-16.08957-.0188-32.17976-.07588-48.26816.06261-2.58677.02227-3.05337-.72725-3.0317-3.13593C213.807,15.776,225.05956,2.51422,240.081.37862c12.42755-1.76683,25.826,6.71979,30.00264,19.16638-1.88865.15837-3.43631.59044-4.71394-1.69989C259.74845,7.7684,249.85243,2.73374,239.52408,4.39833c-10.5039,1.69288-19.11555,10.17018-21.48318,21.148-1.06978,4.96009-1.06978,4.9599,3.95081,4.95986,15.98964-.00011,31.97963.049,47.96858-.05633,2.23555-.01472,2.8.51816,2.77633,2.77139-.1604,15.28964-11.05277,28.7615-25.25894,31.01793C234.27022,66.337,219.87185,57.56055,216.453,45.3477Z"/><path d="M54.31272,15.20082c-2.12958.06-3.83568.46595-5.37141-1.41846C42.6207,6.02666,34.39722,2.5653,24.52822,4.70382,14.38061,6.9027,8.07244,13.691,4.98027,23.40806-.17536,39.6094,9.05183,56.81863,24.77411,60.14629c13.51341,2.86015,25.4767-6.088,29.40257-18.71456.53707-1.72739-.43814-1.73439-1.6876-1.72672-5.494.03371-10.98924-.03851-16.48211.04808-1.60456.0253-2.24982-.3052-2.2583-2.08928-.00865-1.82284.88058-1.82154,2.20561-1.81457q10.48872.05517,20.97789.00622c1.22512-.00386,2.09443-.0012,1.824,1.73662C56.154,54.31306,42.419,65.66562,27.4182,64.5206,15.54957,63.61466,5.07154,54.7355,1.33973,41.887-3.2059,26.23645,4.16805,9.007,18.12475,2.66842,31.31128-3.32043,47.08778,2.03133,54.31272,15.20082Z"/><path class="cls-1" d="M65.726,32.30244c-.00019-9.87735.06289-19.75543-.05123-29.63147-.024-2.07727.48078-2.688,2.60955-2.65C74.0415.12386,74.0434.01585,74.04341,5.75114c0,18.65723-.04179,37.31467.05564,55.97138.01154,2.21068-.46664,2.8689-2.75351,2.8091-5.616-.14685-5.61935-.01916-5.61935-5.59026Q65.72619,45.6219,65.726,32.30244Z"/><path class="cls-1" d="M85.30026,32.1652c-.00006-9.77671.06508-19.55419-.051-29.32951C85.2238.69444,85.61153-.064,87.96734.00865c5.67836.17517,5.68273.03276,5.68274,5.852,0,18.55579-.04143,37.11178.0529,55.66708.01174,2.30859-.50873,3.07618-2.93242,3.00418-5.46625-.16237-5.47025-.02706-5.47024-5.43084Q85.30034,45.63312,85.30026,32.1652Z"/><path class="cls-1" d="M187.93466,32.47866c0,9.771-.05105,19.54255.043,29.31267.01889,1.95923-.29494,2.7754-2.53276,2.73916-5.78057-.09362-5.78251.027-5.78253-5.69943-.00007-18.64472.05238-37.28978-.064-55.93378-.01526-2.44287.73254-2.93191,2.98212-2.872,5.35127.14254,5.35411.03359,5.35409,5.23407Q187.93456,18.869,187.93466,32.47866Z"/><path d="M131.31137,32.16712c.00031,9.87822-.0546,19.757.04623,29.6342.02037,1.996-.34042,2.76537-2.55674,2.72631-5.63962-.0994-5.6417.01986-5.6417-5.53722,0-18.65886.03247-37.31785-.04378-55.9764-.00887-2.16979.30583-3.106,2.82655-3.00692,5.36283.21087,5.36916.04956,5.36914,5.51878Q131.311,18.8465,131.31137,32.16712Z"/><path d="M169.024,32.28172c.00036,9.87737-.06809,19.75558.05421,29.63143.02663,2.14971-.61321,2.6413-2.66839,2.60638-5.53743-.09409-5.53911.00479-5.53911-5.64964,0-18.65725.051-37.3148-.06256-55.97136-.01476-2.42046.69842-2.94123,2.96628-2.874,5.24587.15542,5.24924.04049,5.24922,5.319Q169.02355,18.81259,169.024,32.28172Z"/><path class="cls-2" d="M189.88419,32.1657c-.0002-9.87732.04955-19.7551-.04334-29.63155-.018-1.91227.42386-2.63227,2.44593-2.50269a80.7255,80.7255,0,0,0,8.38263.01305c1.49761-.06,1.88791.477,1.817,1.889-.06439,1.28246.05445,2.48426-1.80384,2.22291a3.78474,3.78474,0,0,0-.59849-.0026c-6.6002.13388-6.6002.134-6.6002,6.64887a57.695,57.695,0,0,1-.05175,6.57891c-.29312,2.53919.798,3.0842,3.01924,2.87041,1.5828-.15233,3.195.03022,4.78876-.04676,1.49057-.072,2.34833.10287,2.35038,2.02727.00214,2.0018-1.00845,1.89263-2.40993,1.96982-2.53368.13955-5.92445-1.22084-7.35773.65885-1.21373,1.59179-.33121,4.79792-.3346,7.28969-.01151,8.4805.07116,16.96215-.05529,25.44077-.03363,2.25524.40746,3.12837,2.89717,3.02233,5.08277-.2165,10.18263.00238,15.2724-.104,1.70925-.03573,2.16342.47845,2.193,2.17444.03282,1.88021-.96329,1.80262-2.24418,1.79795-6.4897-.02364-12.98105-.08933-19.46841.0365-1.96733.03816-2.25044-.68975-2.23684-2.42219C189.92455,52.12016,189.88438,42.14277,189.88419,32.1657Z"/><path class="cls-3" d="M95.45726,32.295q.00047-14.959.006-29.91808c.0011-1.12044-.41855-2.35185,1.62279-2.37061,2.02971-.01865,1.92814,1.04972,1.92663,2.43527-.02008,18.34974.03478,36.69979-.072,55.04894-.01436,2.46808.60366,3.22131,3.11172,3.11745,4.98141-.20629,9.978-.01675,14.967-.08793,1.51637-.02163,2.30889.15158,2.3208,2.02253.01273,2.00052-1.00856,1.957-2.422,1.94847-6.28711-.03812-12.57644-.10323-18.86086.0323-2.06691.04458-2.68042-.47437-2.6541-2.61009C95.52486,52.04177,95.45694,42.168,95.45726,32.295Z"/><path class="cls-3" d="M136.75032,30.19856c-.001,9.28435.05008,18.56921-.04291,27.85263-.01924,1.92116.42726,2.60372,2.47244,2.54491,5.19072-.14927,10.38918-.0064,15.58323-.07715,1.51534-.02064,2.308.1382,2.328,2.01792.02134,2.007-.99384,1.96176-2.40619,1.95371-6.39365-.03646-12.7894-.1-19.18041.03477-1.9538.04119-2.26372-.63252-2.2585-2.38632.05911-19.86634.03558-39.73291.04345-59.59943.00048-1.20947-.46677-2.56592,1.755-2.53152,2.25859.035,1.68941,1.47349,1.69266,2.637C136.7627,11.82949,136.75131,21.014,136.75032,30.19856Z"/><path class="cls-4" d="M75.8297,32.19819q-.00012-14.81448.00736-29.62894c.00159-1.19839-.48946-2.56986,1.73629-2.56487,2.19311.00492,1.76851,1.33014,1.76883,2.56032q.00756,29.77859.02176,59.55716c.002,1.43516.0171,2.43994-1.95977,2.41534-2.06175-.02566-1.564-1.32072-1.5656-2.4108Q75.81613,47.16233,75.8297,32.19819Z"/><path class="cls-5" d="M174.31911,32.48006q.00057,14.81478-.00972,29.62953c-.00189,1.09018.49151,2.40259-1.57231,2.42466-1.96763.02105-1.97232-.98481-1.97036-2.42615q.04067-29.92877.00361-59.8576c-.0014-1.31767-.01141-2.22126,1.81674-2.2459,1.91474-.0258,1.74262,1.00942,1.74064,2.24737Q174.30371,17.366,174.31911,32.48006Z"/><path class="cls-3" d="M14.57744,50.44643c-9.91911-10.13718-9.81269-27.84165,0-35.80078V50.44643Z"/><path class="cls-1" d="M259.794,49.28549c-9.10243,10.70035-24.85443,10.63092-32.83708,0H259.794Z"/><path d="M227.04607,15.0356a20.66194,20.66194,0,0,1,32.56373,0Z"/><path d="M27.57088,79.59263q.28859-.94482.418-1.34863.12891-.40284.543-1.65137l1.9375-5.7666h2.02344L28.40682,82.42857H26.68807L22.60213,70.826H24.6412l1.9375,5.7666q.4138,1.248.543,1.65137.12891.4043.418,1.34863Z"/><path d="M39.38094,80.65122h5.14063v1.77735H37.46688V70.826h6.77344v1.77734H39.38094v3h4.17188v1.77832H39.38094Z"/><path d="M56.62118,77.99693H54.27743V76.21958h4.25781V82.0731a6.06636,6.06636,0,0,1-.59766.19922q-.36328.104-.8125.18652-.4497.082-.92578.13477a8.836,8.836,0,0,1-.94531.05175,6.58754,6.58754,0,0,1-2.457-.42089,4.69449,4.69449,0,0,1-1.75-1.1836,4.93782,4.93782,0,0,1-1.04688-1.8164,7.39172,7.39172,0,0,1-.34765-2.32813,7.84234,7.84234,0,0,1,.18359-1.72168,6.37867,6.37867,0,0,1,.53906-1.51758,5.79809,5.79809,0,0,1,.86328-1.26172,5.22051,5.22051,0,0,1,1.16016-.96289,5.50691,5.50691,0,0,1,1.42969-.61132,6.30551,6.30551,0,0,1,1.668-.21192,8.69059,8.69059,0,0,1,1.5.125,5.94753,5.94753,0,0,1,1.16406.30859v1.80372a7.85266,7.85266,0,0,0-1.23047-.33008,7.00249,7.00249,0,0,0-1.25391-.11231,4.45884,4.45884,0,0,0-1.59375.28125,3.55594,3.55594,0,0,0-1.28515.833,3.9099,3.9099,0,0,0-.85547,1.35742,5.13318,5.13318,0,0,0-.3125,1.86426,4.39477,4.39477,0,0,0,.96875,3.083,3.55179,3.55179,0,0,0,2.72656,1.02734,6.07821,6.07821,0,0,0,.67969-.03906,5.7455,5.7455,0,0,0,.61719-.09961Z"/><path d="M66.36092,80.65122h5.14063v1.77735H64.44686V70.826H71.2203v1.77734H66.36092v3H70.5328v1.77832H66.36092Z"/><path d="M81.37411,82.42857H79.46v-9.8252H76.085V70.826h8.65625v1.77734H81.37411Z"/><path d="M94.918,79.47154H90.98153l-1.02393,2.957H87.91854L92.067,70.826h1.75l4.14843,11.60254H95.942ZM92.93416,73.618q-.54785,1.82081-.978,3.043l-.35743,1.0332h2.70215l-.35742-1.0332q-.4248-1.23341-.978-3.043Z"/><path d="M110.75252,74.31138a3.44584,3.44584,0,0,1-.60547,2.05957,3.53681,3.53681,0,0,1-1.87109,1.25293V77.659l3.10938,4.76953h-2.29688l-2.84375-4.49219h-1.3125v4.49219h-1.91406V70.826h3.17969a10.145,10.145,0,0,1,1.46875.09961,4.97753,4.97753,0,0,1,1.16406.29883,3.07389,3.07389,0,0,1,1.42187,1.1582A3.46524,3.46524,0,0,1,110.75252,74.31138Zm-4.875,1.84766a7.97368,7.97368,0,0,0,1.11328-.06543,3.15833,3.15833,0,0,0,.76954-.19532,1.5194,1.5194,0,0,0,.80078-.66308,2.03483,2.03483,0,0,0,.22265-.9668,1.864,1.864,0,0,0-.17578-.82812,1.24745,1.24745,0,0,0-.59765-.56836,2.33333,2.33333,0,0,0-.6875-.20313,6.67613,6.67613,0,0,0-1.02344-.06543h-1.36719V76.159Z"/><path d="M116.63241,82.42857V70.826h1.91406V82.42857Z"/><path d="M130.5992,79.47154h-3.9375l-1.02343,2.957H123.5992L127.74764,70.826h1.75l4.14844,11.60254h-2.02344ZM128.61483,73.618q-.54786,1.82081-.97852,3.043l-.35644,1.0332H129.981l-.35645-1.0332q-.42627-1.23341-.97851-3.043Z"/><path d="M144.14412,76.21958q1.125,1.77833,1.82813,3.15625h.04687q-.09375-2.26318-.09375-3.29492V70.826h1.91407V82.42857h-2.00782l-3.40625-5.3418q-.89794-1.3872-1.85937-3.21777h-.04688q.09375,2.13428.09375,3.30468v5.25489h-1.91406V70.826h2.00781Z"/><path d="M165.233,72.40415a3.57667,3.57667,0,0,0-1.4414.28614,3.11594,3.11594,0,0,0-1.13282.832,3.909,3.909,0,0,0-.73828,1.34863,5.83942,5.83942,0,0,0-.26562,1.834,6.06368,6.06368,0,0,0,.24218,1.79981,3.5538,3.5538,0,0,0,.69532,1.2959,2.87451,2.87451,0,0,0,1.10547.78515,3.90362,3.90362,0,0,0,1.48046.26465,7.28081,7.28081,0,0,0,1.21094-.10449,6.32232,6.32232,0,0,0,1.15625-.30371v1.83008a7.94917,7.94917,0,0,1-1.17969.27343,8.43156,8.43156,0,0,1-1.3125.09961,6.029,6.029,0,0,1-2.33593-.42089,4.523,4.523,0,0,1-1.6836-1.1875,5.06408,5.06408,0,0,1-1.01562-1.83887,7.78,7.78,0,0,1-.33985-2.36328,8.05073,8.05073,0,0,1,.36329-2.46289,5.88533,5.88533,0,0,1,1.04687-1.96778,4.77716,4.77716,0,0,1,1.71094-1.30957,5.54209,5.54209,0,0,1,2.32422-.48535,7.6,7.6,0,0,1,1.25781.09961,5.61587,5.61587,0,0,1,1.07031.28125V72.7938a6.9235,6.9235,0,0,0-1.16406-.30273A6.54507,6.54507,0,0,0,165.233,72.40415Z"/><path d="M177.3951,82.64536a5.66637,5.66637,0,0,1-1.47656-.17773,3.88808,3.88808,0,0,1-1.15625-.51172,3.34871,3.34871,0,0,1-.85156-.81543,4.12411,4.12411,0,0,1-.5625-1.08789,5.20223,5.20223,0,0,1-.2461-1.07519,10.57352,10.57352,0,0,1-.07422-1.31836V70.826H174.942v6.64258a5.5714,5.5714,0,0,0,.26562,1.9248,2.13524,2.13524,0,0,0,.86719,1.11426,2.80531,2.80531,0,0,0,2.6875,0,2.13529,2.13529,0,0,0,.86719-1.11426,5.57164,5.57164,0,0,0,.26562-1.9248V70.826h1.91406v6.833a10.57364,10.57364,0,0,1-.07421,1.31836,5.20223,5.20223,0,0,1-.2461,1.07519,4.04834,4.04834,0,0,1-.5664,1.08789,3.33512,3.33512,0,0,1-.86719.81543,4.0419,4.0419,0,0,1-1.17578.51172A5.75479,5.75479,0,0,1,177.3951,82.64536Z"/><path d="M187.83748,82.42857V70.826h1.91407V82.42857Z"/><path d="M200.96053,79.09849a1.20774,1.20774,0,0,0-.19531-.71582,1.47274,1.47274,0,0,0-.53125-.44629,3.64255,3.64255,0,0,0-.75391-.28125q-.41748-.10841-.8789-.21289a10.51383,10.51383,0,0,1-1.16407-.35156,3.16536,3.16536,0,0,1-.97656-.56348,2.56385,2.56385,0,0,1-.67187-.915,3.37016,3.37016,0,0,1-.25-1.38672,4.08041,4.08041,0,0,1,.28906-1.60058,3.132,3.132,0,0,1,.78515-1.127,3.24018,3.24018,0,0,1,1.16407-.668,4.76924,4.76924,0,0,1,1.5039-.2207,7.95976,7.95976,0,0,1,1.67969.18164,6.76016,6.76016,0,0,1,1.45313.46875v1.82031a8.30619,8.30619,0,0,0-1.5586-.51562,6.71657,6.71657,0,0,0-1.40234-.16016,2.40558,2.40558,0,0,0-1.457.38086,1.33941,1.33941,0,0,0-.51172,1.14551,1.4212,1.4212,0,0,0,.168.72852,1.40567,1.40567,0,0,0,.457.47168,2.57109,2.57109,0,0,0,.66406.2998q.375.1128.79688.208.66357.15673,1.26953.35937a3.62965,3.62965,0,0,1,1.07422.56836,2.54829,2.54829,0,0,1,.74218.94922,3.54353,3.54353,0,0,1,.27344,1.49609,3.88579,3.88579,0,0,1-.3125,1.62208,2.96676,2.96676,0,0,1-.88672,1.13183,3.83756,3.83756,0,0,1-1.39453.66309,7.01956,7.01956,0,0,1-1.79687.21679,7.59263,7.59263,0,0,1-1.67579-.18652,4.46626,4.46626,0,0,1-1.37109-.52441V80.1395a7.27246,7.27246,0,0,0,1.50781.542,6.758,6.758,0,0,0,1.51563.16894,4.74452,4.74452,0,0,0,.89062-.083,2.48284,2.48284,0,0,0,.78516-.28125,1.55516,1.55516,0,0,0,.55859-.542A1.58622,1.58622,0,0,0,200.96053,79.09849Z"/><path d="M208.62166,82.42857V70.826h1.91407V82.42857Z"/><path d="M222.0494,76.21958q1.125,1.77833,1.82812,3.15625h.04688q-.09375-2.26318-.09375-3.29492V70.826h1.91406V82.42857H223.7369l-3.40625-5.3418q-.89794-1.3872-1.85938-3.21777h-.04687q.09375,2.13428.09375,3.30468v5.25489h-1.91406V70.826h2.00781Z"/><path d="M233.72713,80.65122h5.14063v1.77735h-7.05469V70.826h6.77344v1.77734h-4.85938v3H237.899v1.77832h-4.17188Z"/></g></g></svg>