<?xml version="1.0" encoding="utf-8"?>
<svg viewBox="42.0871 -214.2522 728.8073 683.9669" xmlns="http://www.w3.org/2000/svg">
  <path opacity="1.000000" stroke="none" d="M 158.436 380.454 C 161.754 384.41 164.843 388.094 168.032 391.898 C 164.845 396.309 162.002 394.897 158.912 392.099 C 133.82 369.377 111.851 344.061 94.151 315.103 C 69.98 275.559 53.891 233.035 46.544 187.249 C 46.129 184.662 45.748 181.887 46.244 179.375 C 47.259 174.235 44.694 169.83 44.104 165.07 C 43.104 156.997 42.416 148.845 42.259 140.714 C 41.939 124.076 41.636 107.254 45.598 91.08 C 47.197 84.551 47.879 77.946 49.436 71.475 C 51.507 62.869 54.337 54.514 54.398 45.393 C 54.447 38.125 57.096 31.105 59.777 24.246 C 62.554 17.142 64.511 9.705 67.485 2.693 C 76.363 -18.233 86.436 -38.496 99.108 -57.514 C 135.567 -112.228 183.482 -153.519 242.731 -181.793 C 245.792 -183.253 248.884 -185.61 252.88 -182.402 C 253.696 -186.565 256.747 -187.992 260.107 -189.182 C 265.285 -191.016 270.486 -192.826 275.521 -195.006 C 280.49 -197.156 284.227 -196.832 285.979 -190.79 C 287.057 -191.906 286.276 -192.564 285.99 -193.12 C 285.032 -194.987 285.014 -196.729 286.741 -198.046 C 288.853 -199.657 290.026 -197.555 291.429 -196.582 C 292.595 -195.774 293.014 -194.466 293.378 -193.18 C 295.099 -187.104 297.459 -181.354 300.96 -176.024 C 302.494 -173.689 304.439 -172.657 307.517 -171.775 C 308.866 -175.696 308.76 -179.3 306.229 -182.537 C 305.199 -183.854 303.772 -184.968 303.615 -186.661 C 303.265 -190.436 301.875 -193.498 299.326 -196.429 C 296.574 -199.593 297.612 -201.703 301.739 -202.789 C 321.737 -208.049 342.101 -210.99 362.663 -213.009 C 377.643 -214.481 392.684 -214.59 407.556 -213.63 C 467.746 -209.743 523.91 -192.711 575.029 -160.108 C 588.542 -151.489 601.26 -141.819 613.734 -131.8 C 614.629 -131.082 615.717 -130.492 615.656 -129.017 C 613.785 -127.688 612.589 -129.337 611.317 -130.151 C 574.738 -153.547 535.336 -170.016 492.7 -178.562 C 458.183 -185.48 423.453 -187.219 388.388 -183.577 C 365.945 -181.247 344.01 -176.776 322.454 -170.252 C 279.7 -157.312 237.764 -134.317 204.741 -106.994 C 176.958 -84.007 152.893 -57.66 133.554 -27.12 C 132.159 -24.917 131.018 -21.916 126.671 -24.941 C 128.617 -19.886 126.972 -16.425 124.815 -12.687 C 102.435 26.093 87.879 67.567 81.601 112.002 C 78.32 135.221 77.558 158.537 79.012 181.782 C 82.217 233.012 96.283 281.286 121.246 326.267 C 131.867 345.405 144.074 363.453 158.436 380.454 Z" style="fill: rgb(181, 167, 154);" transform="matrix(1, 0, 0, 1, 1.1368683772161603e-13, 0)"/>
  <path opacity="1.000000" stroke="none" d="M 760.724 38.387 C 764.141 47.282 762.862 56.143 762.086 64.47 C 764.254 65.588 764.012 63.178 765.578 63.879 C 768.076 69.433 769.032 75.835 767.331 81.62 C 765.319 88.459 765.972 95.05 766.034 101.899 C 767.875 101.562 766.654 98.787 769.432 98.909 C 772.078 103.164 770.566 107.727 769.06 112.068 C 768.344 114.132 767.425 115.631 769.706 117.193 C 771.349 118.318 770.808 120.219 770.813 121.823 C 771.101 209.106 741.891 285.4 685.271 351.502 C 680.384 357.207 675.187 362.597 669.862 367.874 C 668.726 369 667.851 370.623 665.898 370.589 C 664.394 369.783 664.5 368.401 664.686 367.082 C 666.395 354.9 670.351 343.324 674.32 331.758 C 677.422 322.717 679.271 313.239 683.762 304.67 C 684.159 303.911 684.129 302.535 683.696 301.798 C 680.674 296.657 683.042 291.877 684.562 287.081 C 686.824 279.947 689.059 272.639 693.935 266.866 C 699.559 260.208 702.496 252.152 706.697 244.766 C 708.732 241.188 710.092 237.217 711.666 233.387 C 716.098 222.601 723.81 213.685 728.762 203.167 C 731.481 197.39 733.041 191.229 733.815 185.178 C 734.527 179.617 738.201 175.935 739.805 171.084 C 742.459 163.056 745.895 155.25 745.375 144.998 C 743.747 149.046 743.479 152.165 740.379 155.257 C 737.551 145.042 744.917 137.571 744.847 128.774 C 742.973 128.748 743.202 131.831 740.058 130.893 C 740.184 123.285 741.912 115.823 746.23 109.154 C 744.755 107.328 743.6 109.576 741.986 108.703 C 740.463 105.607 741.571 102.259 742.241 99.002 C 750.932 96.919 749.8 87.582 755.137 82.888 C 752.697 80.759 750.596 80.728 748.572 82.201 C 746.218 83.914 749.953 84.782 749.139 86.722 C 746.295 88.617 745.306 92.288 742.681 95.47 C 741.789 16.674 718.426 -54.525 672.051 -118.24 C 694.078 -96.945 712.014 -72.711 726.975 -46.192 C 741.958 -19.635 752.811 8.567 760.724 38.387 M 759.304 104.755 C 759.164 104.501 759.732 103.857 758.897 104.008 C 758.83 104.02 758.827 104.314 758.771 104.468 C 754.743 115.465 750.713 126.46 746.684 137.457 C 746.116 139.005 745.089 140.838 747.258 141.756 C 749.351 142.641 750.388 140.993 751.579 139.42 C 752.879 137.702 752.023 135.6 753.376 133.86 C 757.306 128.805 758.852 122.608 758.328 116.536 C 757.983 112.526 758.03 108.925 759.304 104.755 Z" style="fill: rgb(122, 66, 43);" transform="matrix(1, 0, 0, 1, 1.1368683772161603e-13, 0)"/>
  <path opacity="1.000000" stroke="none" d="M 519.885 413.721 C 548.726 402.895 574.972 387.996 601.007 369.784 C 599.828 375.154 599.829 379.131 597.956 382.838 C 595.53 387.641 595.613 393.112 594.837 398.241 C 593.244 408.755 584.71 416.699 584.692 427.698 C 584.687 430.706 581.745 431.924 579.356 433.116 C 552.111 446.704 523.576 456.592 493.745 462.662 C 471.038 467.282 448.103 469.865 424.898 469.708 C 419.078 469.669 418.086 468.856 418.192 463.104 C 418.273 458.695 416.341 454.775 415.398 450.664 C 414.787 448.005 415.109 446.219 416.308 444.271 C 417.318 442.628 418.264 441.173 418.713 439.111 C 419.583 435.114 423.506 435.54 426.532 435.308 C 438.481 434.394 450.297 432.644 462.05 430.339 C 481.683 426.488 500.873 421.121 519.885 413.721 Z" style="fill: rgb(122, 66, 43);" transform="matrix(1, 0, 0, 1, 1.1368683772161603e-13, 0)"/>
  <path opacity="1.000000" stroke="none" d="M 303.093 447.906 C 280.374 439.424 259.041 429.048 238.303 415.794 C 244.725 412.17 239.322 405.987 242.422 401.823 C 248.188 402.438 249.392 403.364 249.781 407.435 C 259.991 404.705 265.53 412.562 272.717 417.631 C 275.048 415.543 277.632 415.716 280.705 416.806 C 314.349 428.734 348.961 435.412 384.712 436.662 C 391.48 436.898 398.125 435.985 404.848 436.368 C 410.698 436.701 411.238 437.047 411.457 443.064 C 411.729 450.513 410.654 457.978 412.57 465.423 C 413.661 469.665 410.175 469.728 407.161 469.52 C 391.054 468.41 375.004 466.793 359.149 463.646 C 340.185 459.881 321.554 454.908 303.093 447.906 M 393.483 450.186 C 394.379 452.716 394.79 455.342 395.01 458.046 C 394.763 455.274 396.495 452.808 396.5 450.4 C 396.504 448.385 395.847 445.335 393.085 443.96 C 391.767 446.096 393.621 447.678 393.483 450.186 Z" style="fill: rgb(122, 66, 43);" transform="matrix(1, 0, 0, 1, 1.1368683772161603e-13, 0)"/>
  <path opacity="1.000000" stroke="none" d="M 252.104 182.731 C 251.895 176.713 253.36 171.348 254.112 165.979 C 255.664 154.908 260.684 145.887 266.103 136.852 C 270.7 129.186 276.841 122.794 284.03 117.259 C 294.932 108.865 306.165 101.379 320.18 99.611 C 327.448 98.694 334.746 99.146 342.081 99.52 C 354.184 100.137 364.59 105.142 374.905 110.62 C 379.002 112.796 383.162 115.152 383.857 120.521 C 383.898 120.839 383.991 121.323 384.203 121.421 C 391.58 124.845 392.834 132.321 395.038 138.791 C 397.242 145.263 399.274 152.125 396.62 159.128 C 396.26 160.077 395.681 160.991 396.238 161.962 C 402.045 172.078 398.378 181.825 394.24 190.99 C 386.324 208.523 372.64 220.7 355.664 229.312 C 341.777 236.357 327.334 241.561 311.686 243.23 C 304.184 244.03 297.912 240.808 291.326 238.441 C 289.801 237.893 290.005 235.865 289.112 234.275 C 288.498 236.217 287.732 237.916 285.472 236.592 C 280.801 233.855 275.245 232.172 273.143 226.329 C 272.734 225.191 271.922 224.432 270.796 223.887 C 264.001 220.598 256.752 207.021 255.419 198.976 C 254.553 193.748 252.18 188.684 252.104 182.731 M 267.121 150.541 C 261.019 165.879 262.519 180.941 268.102 196.128 C 270.08 201.508 275.793 205.129 274.599 212.261 C 277.924 211.353 279.612 213.301 281.571 214.856 C 285.663 218.102 288.073 222.754 292.574 225.934 C 302.864 233.202 314.319 235.63 326.045 234.24 C 335.871 233.076 345.857 230.642 353.764 223.099 C 357.284 219.741 362.374 218.146 366.376 214.833 C 374.179 208.372 380.177 200.906 383.206 191.26 C 383.892 189.072 385.3 188.808 386.828 188.776 C 384.564 181.206 388.153 175.242 391.115 169.308 C 387.21 166.491 385.856 162.726 385.095 158.541 C 382.559 144.587 378.755 131.217 367.212 121.61 C 362.584 117.758 357.796 114.02 351.928 112.403 C 348.681 111.508 346.169 110.281 345.054 106.379 C 342.6 108.548 340.332 108.404 337.724 107.818 C 329.038 105.866 320.312 106.363 311.576 107.906 C 303.797 109.279 298.364 114.637 292.125 118.694 C 280.379 126.33 272.403 136.869 267.121 150.541 Z" style="fill: rgb(122, 66, 43);" transform="matrix(1, 0, 0, 1, 1.1368683772161603e-13, 0)"/>
  <path opacity="1.000000" stroke="none" d="M 660.336 152.799 C 663.879 160.227 664.871 168.358 670.239 174.573 C 674.165 179.118 673.518 185.623 676.917 190.567 C 682.482 198.663 685.447 208.165 690.067 216.822 C 692.872 222.077 695.472 227.777 697.914 233.389 C 699.754 237.617 698.477 240.494 693.969 241.641 C 692.52 242.01 691.018 242.202 689.603 242.666 C 686.989 243.522 685.708 242.563 684.743 240.046 C 681.842 232.477 679.592 224.759 677.684 216.87 C 676.593 212.36 671.898 209.265 671.377 204.161 C 671.193 202.367 670.518 200.6 669.902 198.881 C 669.385 197.437 668.526 196.082 666.756 196.102 C 665.219 196.12 665.102 197.428 664.897 198.611 C 664.499 200.917 662.761 201.347 661.17 200.39 C 652.398 195.111 642.771 197.131 633.385 196.704 C 625.801 196.359 618.196 196.6 610.612 196.282 C 605.491 196.067 599.867 196.822 594.496 197.427 C 591.732 197.737 590.104 199.359 588.694 201.611 C 584.993 207.52 581.491 213.527 578.483 219.823 C 577.119 222.677 575.733 225.587 573.012 227.449 C 571.493 228.489 571.753 229.805 571.689 231.357 C 571.489 236.176 567.376 238.29 564.074 240.38 C 561.278 242.15 557.962 241.085 555.038 237.604 C 560 233.849 562.916 228.475 566.298 223.442 C 570.935 216.541 575.505 209.594 580.012 202.609 C 581.205 200.759 582.612 199.15 580.22 196.577 C 577.881 194.06 581.737 187.831 585.607 187.581 C 587.032 187.488 588.012 187.516 588.899 186.125 C 597.397 172.812 605.227 159.108 613.231 145.501 C 618.404 136.707 622.872 127.411 625.069 117.989 C 627.113 109.226 634.177 108.29 638.854 103.799 C 640.526 102.193 643.034 103.298 643.446 105.694 C 644.411 111.289 645.971 116.703 647.616 122.11 C 648.211 124.064 646.612 125.539 646.468 126.701 C 654.054 134.052 655.588 144.085 660.336 152.799 M 657.139 171.394 C 656.042 169.984 654.666 168.712 653.896 167.142 C 649.603 158.39 645.513 149.539 641.242 140.776 C 638.687 135.536 635.927 130.397 632.789 124.298 C 621.003 146.102 607.797 165.568 597.105 186.286 C 598.004 187.554 598.934 188.078 599.927 188.022 C 610.065 187.443 619.727 191.118 629.987 190.83 C 639.742 190.557 649.532 191.134 659.317 190.183 C 664.953 189.635 665.561 188.879 662.297 183.963 C 659.87 180.308 657.869 176.548 657.139 171.394 Z" style="fill: rgb(122, 66, 43);" transform="matrix(1, 0, 0, 1, 1.1368683772161603e-13, 0)"/>
  <path opacity="1.000000" stroke="none" d="M 475.13 240.914 C 465.775 242.709 456.959 241.339 448.152 239.869 C 447.178 239.706 446.14 239.47 445.31 238.971 C 437.792 234.45 429.919 229.596 425.503 222.264 C 422.133 216.67 417.689 211.41 415.954 204.582 C 414.246 197.861 413.286 190.93 413.626 184.363 C 414.008 176.968 412.432 169.199 415.861 161.99 C 419.769 153.776 421.833 144.718 428.164 137.635 C 436.447 128.369 445.242 119.476 456.06 113.524 C 469.796 105.966 484.841 100.439 500.596 100.546 C 510.181 100.611 520.173 98.125 529.649 102.038 C 530.4 102.348 531.308 102.282 531.946 103.973 C 529.417 107.006 526.46 110.122 521.716 109.409 C 514.867 108.379 508.075 106.9 501.321 105.345 C 498.623 104.724 497.252 107.225 494.842 107.281 C 482.911 107.557 472.638 112.196 462.674 118.607 C 453.628 124.428 446.492 131.562 439.662 139.883 C 431.881 149.363 430.279 160.535 426.928 171.293 C 425.437 176.081 427.871 181.545 425.608 186.527 C 425.166 187.501 426.528 188.168 427.011 189.001 C 428.624 191.781 428.447 192.817 425.794 195.674 C 428.183 196.441 429.236 198.434 429.463 200.512 C 429.945 204.91 432.024 208.316 434.098 212.179 C 440.187 223.522 450.768 228.865 460.897 235.043 C 461.866 235.634 463.268 236.508 464.166 235.725 C 468.469 231.977 473.557 234.053 477.989 234.332 C 489.945 235.083 501.587 232.893 513.015 230.623 C 520.789 229.079 530.011 230.019 535.965 222.322 C 535.372 221.667 534.518 220.725 533.655 219.773 C 533.919 219.182 533.992 218.537 534.332 218.33 C 537.349 216.495 537.544 214.462 535.092 211.933 C 533.503 210.294 533.114 208.152 533.17 205.905 C 533.261 202.238 533.082 198.603 532.427 194.963 C 531.808 191.53 532.549 188.32 534.698 186.429 C 530.115 175.458 520.27 179.509 511.798 178.666 C 512.32 173.998 515.269 172.491 518.715 173.005 C 525.849 174.069 532.917 172.885 540.011 173.043 C 543.417 173.12 544.881 174.302 544.8 177.747 C 544.674 183.077 544.848 188.413 544.731 193.744 C 544.691 195.548 544.685 197.706 543.746 199.07 C 540.992 203.068 541.457 205.779 543.784 210.425 C 546.15 215.152 547.604 221.551 546.546 227.447 C 545.825 231.466 541.825 231.998 538.668 232.498 C 519.13 235.59 499.558 238.472 479.985 241.342 C 478.556 241.552 477.034 241.125 475.13 240.914 Z" style="fill: rgb(122, 66, 43);" transform="matrix(1, 0, 0, 1, 1.1368683772161603e-13, 0)"/>
  <path opacity="1.000000" stroke="none" d="M 227.452 111.41 C 229.589 105.822 236.599 101.265 241.901 101.729 C 242.825 101.81 243.477 102.129 243.759 103.052 C 244.134 104.278 243.887 105.321 242.967 106.244 C 234.028 115.205 229.237 127.125 221.221 136.832 C 218.418 140.227 215.46 144.369 214.226 149.172 C 213.444 152.212 211.532 154.857 209.386 157.25 C 205.111 162.02 200.915 166.844 197.496 172.312 C 194.653 176.859 195.309 182.011 195.005 186.855 C 194.126 200.878 194.478 214.937 195.845 228.926 C 196.388 234.49 194.596 237.9 189.053 239.175 C 188.095 239.395 187.186 239.882 186.292 240.323 C 180.601 243.126 179.303 242.638 180.37 236.513 C 181.482 230.139 179.204 222.977 184.537 217.223 C 182.868 215.144 181.557 212.812 182.141 210.023 C 183.625 202.927 180.582 195.88 181.998 188.767 C 182.369 186.902 181.28 185.233 179.999 183.832 C 179.886 183.709 179.727 183.611 179.66 183.468 C 173.261 169.814 160.274 161.338 152.461 148.739 C 146.274 138.761 139.154 129.398 131.833 120.196 C 129.436 117.182 128.897 112.911 124.768 110.944 C 122.934 110.069 123.235 107.87 125.138 106.423 C 126.591 105.318 127.922 104.052 129.299 102.847 C 134.841 97.999 135.49 98.5 139.687 104.525 C 142.745 108.916 145.453 113.783 147.269 118.365 C 150.067 125.426 156.151 129.47 159.537 135.879 C 166.576 149.205 178.897 158.394 189.003 170.877 C 205.572 153.234 216.614 132.614 227.452 111.41 Z" style="fill: rgb(122, 66, 43);" transform="matrix(1, 0, 0, 1, 1.1368683772161603e-13, 0)"/>
  <path opacity="1.000000" stroke="none" d="M 619.203 355.114 C 631.814 344.698 643.032 333.29 654.777 322.124 C 653.545 326.922 654.002 331.707 651.067 335.935 C 647.52 341.044 646.012 347.153 644.928 353.273 C 644.73 354.394 644.887 355.478 643.962 356.482 C 636.97 364.073 636.993 364.094 639.76 373.252 C 645.843 362.27 651.603 351.309 657.908 340.671 C 662.509 332.909 666.748 324.849 672.922 318.108 C 673.929 317.007 674.883 315.424 676.54 316.887 C 677.798 317.999 677.086 319.419 676.195 320.458 C 668.306 329.645 663.941 341.016 657.272 350.993 C 651.734 359.277 647.375 368.418 643.158 377.489 C 640.546 383.106 636.163 387.519 633.687 393.101 C 627.422 407.221 614.062 413.158 602.078 420.665 C 600.461 421.678 598.59 423.87 596.428 421.314 C 594.57 419.116 596.019 417.019 597.159 415.398 C 602.49 407.817 602.906 399.074 603.743 390.336 C 604.11 386.504 606.207 382.713 606.021 378.978 C 605.485 368.247 609.737 360.55 619.203 355.114 M 627.444 390.814 C 624.827 392.565 625.962 395.763 624.427 397.931 C 629.017 393.128 629.017 393.128 627.444 390.814 Z" style="fill: rgb(122, 66, 43);" transform="matrix(1, 0, 0, 1, 1.1368683772161603e-13, 0)"/>
  <path opacity="1.000000" stroke="none" d="M 389.439 38.682 C 390.963 40.792 390.744 42.816 390.745 44.813 C 390.746 54.92 390.803 65.028 390.763 75.135 C 390.75 78.431 392.387 79.568 395.494 80.324 C 403.906 82.37 412.371 81.27 420.734 80.875 C 430.6 80.408 438.231 72.035 439.543 62.025 C 439.684 60.954 440.24 59.692 441.024 58.988 C 451.134 49.901 455.63 37.478 461.032 25.591 C 461.235 25.146 461.21 24.603 461.375 24.136 C 462.51 20.931 465.5 19.285 468.185 18.956 C 471.322 18.571 470.709 22.32 471.278 24.323 C 474.011 33.928 478.613 42.752 482.59 51.823 C 486.726 61.253 491.382 70.454 495.816 79.753 C 496.877 81.976 496.477 83.726 494.008 84.476 C 491.908 85.114 489.853 85.59 488.752 82.605 C 486.474 76.429 485.116 69.902 481.643 64.135 C 475.854 64.906 470.03 63.124 464.028 63.222 C 458.914 63.305 453.77 63.812 448.637 63.614 C 446.158 63.519 444.623 64.87 443.482 66.9 C 440.968 71.372 438.484 75.863 435.866 80.274 C 434.383 82.774 432.684 84.964 429.09 83.754 C 426.411 82.852 423.498 83.965 421.009 84.377 C 411.861 85.892 402.831 84.051 393.758 84.416 C 389.901 84.572 385.876 86.053 381.839 84.149 C 381.85 80.535 385.547 78.761 385.299 74.698 C 384.341 59.002 385.24 43.234 384.099 27.522 C 384.015 26.379 383.695 25.23 383.329 24.135 C 382.733 22.352 381.924 20.515 384.227 19.405 C 385.977 18.561 387.848 16.979 389.808 18.13 C 391.782 19.289 391.039 21.573 391.247 23.532 C 391.794 28.673 387.329 33.055 389.439 38.682 M 459.19 39.559 C 455.419 45.341 451.858 51.235 448.661 58.199 C 459.109 59.749 468.735 61.487 479.165 58.66 C 474.291 48.805 469.739 39.601 464.805 29.624 C 462.662 33.456 461.127 36.202 459.19 39.559 Z" style="fill: rgb(122, 66, 43);" transform="matrix(1, 0, 0, 1, 1.1368683772161603e-13, 0)"/>
  <path opacity="1.000000" stroke="none" d="M 247.011 18.277 C 257.522 16.471 267.602 16.751 277.579 19.066 C 285.755 20.962 286.619 24.325 280.918 30.664 C 279.267 32.5 276.65 33.268 275.408 35.78 C 278.904 39.739 284.249 39.053 288.461 41.135 C 296.662 45.189 303.512 50.396 306.037 59.561 C 307.407 64.534 306.813 69.548 302.581 73.231 C 291.235 83.104 278.164 87.111 263.141 84.928 C 257.148 84.057 251.042 83.965 244.55 83.486 C 251.574 75.306 249.88 66.18 249.427 57.241 C 248.986 48.509 249.646 39.747 248.374 31.024 C 247.872 27.585 248.134 24.16 245.346 21.401 C 243.943 20.015 245.497 19.113 247.011 18.277 M 297.118 55.346 C 287.772 45.05 275.236 42.294 262.255 40.519 C 257.332 39.846 255.636 42.284 255.674 46.756 C 255.755 56.507 255.922 66.26 255.779 76.008 C 255.735 78.994 256.987 80.02 259.581 80.736 C 271.046 83.9 281.709 81.236 291.723 75.875 C 300.293 71.286 302.47 62.987 297.118 55.346 M 263.848 20.825 C 262.378 21.016 260.913 21.287 259.437 21.38 C 256.241 21.579 253.938 22.715 253.994 26.372 C 254.099 33.265 255.296 35.45 260.102 35.55 C 266.061 35.676 271.495 33.529 275.778 29.303 C 278.256 26.856 277.538 24.591 274.338 23.088 C 271.264 21.643 267.863 21.778 263.848 20.825 Z" style="fill: rgb(122, 66, 43);" transform="matrix(1, 0, 0, 1, 1.1368683772161603e-13, 0)"/>
  <path opacity="1.000000" stroke="none" d="M 205.774 30.515 C 204.357 45.529 206.988 60.132 205.048 74.661 C 204.971 75.237 205.19 75.925 205.464 76.463 C 206.774 79.036 206.66 81.731 204.162 83.046 C 201.066 84.677 198.524 82.173 197.085 79.958 C 187.936 65.878 178.523 52.018 167.616 39.203 C 165.358 36.55 163.138 33.956 160.144 31.523 C 158.603 40.867 160.631 49.959 159.7 58.947 C 159.075 64.984 160.168 70.835 160.649 76.758 C 161.015 81.257 158.555 82.905 154.862 83.447 C 153.634 82.473 153.835 81.456 153.924 80.471 C 155.182 66.496 154.108 52.563 153.599 38.597 C 153.426 33.833 153.364 29.151 152.552 24.438 C 151.976 21.102 154.923 19.917 157.135 18.642 C 159.211 17.444 160.37 19.059 161.505 20.679 C 167.123 28.697 172.702 36.748 178.537 44.608 C 184.765 52.995 192.394 60.268 198.197 69.011 C 198.645 69.686 199.281 70.283 200.654 70.035 C 201.721 67.539 201.532 64.66 201.292 61.959 C 200.172 49.362 202.062 36.678 200.098 24.116 C 199.869 22.657 199.439 21.111 201.013 20.035 C 202.102 19.29 203.156 18.228 204.6 18.726 C 206.15 19.261 206.163 20.668 206.095 22.056 C 205.966 24.714 205.881 27.375 205.774 30.515 Z" style="fill: rgb(122, 66, 43);" transform="matrix(1, 0, 0, 1, 1.1368683772161603e-13, 0)"/>
  <path opacity="1.000000" stroke="none" d="M 550.975 83.311 C 544.738 80.109 542.903 73.865 539.57 68.874 C 531.801 57.243 523.011 46.419 514.183 35.616 C 512.945 34.101 511.305 32.915 509.515 31.268 C 508.544 38.577 508.541 45.384 509.371 52.269 C 509.72 55.167 508.946 58.196 508.727 61.168 C 508.335 66.509 509.215 71.767 509.744 77.054 C 510.153 81.14 508.14 83.215 504.127 83.288 C 503.015 82.008 503.043 80.614 503.218 79.331 C 504.796 67.758 504.177 56.148 503.642 44.565 C 503.351 38.27 504.331 31.832 502.146 25.69 C 500.721 21.682 503.887 20.204 506.283 18.788 C 509.442 16.921 509.853 20.319 511.231 21.983 C 521.275 34.119 529.032 48.049 540.23 59.253 C 543.629 62.655 545.319 67.426 549.731 70.614 C 550.87 68.02 551.273 65.498 550.932 63.188 C 549.414 52.897 550.883 42.562 550.178 32.274 C 549.997 29.631 549.589 27.002 549.267 24.369 C 549.001 22.201 549.459 20.391 551.624 19.382 C 552.535 18.958 553.504 18.463 554.434 19.17 C 556.236 20.542 555.544 22.409 555.379 24.219 C 554.145 37.762 554.142 51.342 555.193 64.87 C 555.569 69.712 553.518 74.461 555.517 79.418 C 556.422 81.661 554.425 83.815 550.975 83.311 Z" style="fill: rgb(122, 66, 43);" transform="matrix(1, 0, 0, 1, 1.1368683772161603e-13, 0)"/>
  <path opacity="1.000000" stroke="none" d="M 317.154 70.098 C 318.712 67.358 320.624 65.175 320.113 61.998 C 319.98 61.174 320.526 59.919 321.182 59.338 C 331.481 50.211 336.306 37.759 341.419 25.583 C 343.117 21.539 345.748 19.708 350.385 18.155 C 351.58 27.137 355.518 34.761 359.057 42.534 C 364.425 54.326 369.916 66.062 375.376 77.812 C 376.144 79.464 377.337 81.061 376.288 82.953 C 375.367 84.613 373.611 84.833 371.94 84.903 C 369.997 84.985 369.555 83.404 369.083 81.971 C 367.069 75.852 365.143 69.7 362.958 65.69 C 354.316 62.464 346.481 63.915 338.682 63.492 C 335.22 63.304 331.726 63.628 328.25 63.784 C 325.932 63.888 324.789 65.625 323.793 67.366 C 321.322 71.685 318.978 76.077 316.51 80.398 C 314.811 83.374 312.734 85.505 308.611 82.781 C 311.478 78.54 314.225 74.476 317.154 70.098 M 353.836 59.489 C 355.567 59.189 357.471 59.856 359.425 58.357 C 354.915 49.062 350.401 39.759 345.448 29.553 C 340.119 38.698 335.264 46.898 330.555 55.18 C 329.023 57.874 330.874 58.896 333.181 58.98 C 339.777 59.219 346.337 60.97 353.836 59.489 Z" style="fill: rgb(122, 66, 43);" transform="matrix(1, 0, 0, 1, 1.1368683772161603e-13, 0)"/>
  <path opacity="1.000000" stroke="none" d="M 683.566 80.691 C 688.974 81.2 693.37 77.518 698.805 78.52 C 699.263 82.609 696.917 84.076 693.638 84.059 C 691.64 84.048 689.635 84.526 687.765 84.358 C 676.3 83.329 664.854 83.809 653.385 84.023 C 650.389 84.079 647.473 84.325 644.516 84.597 C 642.261 84.805 639.912 85.083 637.843 84.079 C 642.372 63.133 641.039 42.649 636.416 22.222 C 637.02 19.605 639.353 18.861 641.954 19.194 C 654.727 20.83 667.484 20.899 680.258 19.235 C 681.174 19.115 682.16 19.532 683.335 19.739 C 682.616 23.708 679.776 23.746 676.952 23.75 C 666.814 23.763 656.677 23.755 646.728 23.755 C 644.048 31.296 644.619 32.29 651.583 33.573 C 659.595 35.048 667.502 33.343 675.452 32.915 C 676.238 32.872 677.021 32.787 678.106 32.697 C 678.248 35.776 677.303 37.305 674.303 37.334 C 667.184 37.403 660.072 37.925 652.963 36.858 C 648.713 36.22 646.167 36.643 646.321 42.653 C 646.585 52.987 646.444 63.333 647.157 73.669 C 647.311 75.905 646.702 78.194 646.438 80.519 C 658.79 80.888 670.977 79.303 683.566 80.691 Z" style="fill: rgb(122, 66, 43);" transform="matrix(1, 0, 0, 1, 1.1368683772161603e-13, 0)"/>
  <path opacity="1.000000" stroke="none" d="M 574.165 65.647 C 580.993 79.628 591.215 82.844 606.361 80.733 C 614.11 79.653 621.462 77.231 628.356 73.182 C 630.268 76.459 628.893 78.625 626.647 79.264 C 612.395 83.32 597.785 88.314 583.208 82.445 C 568.944 76.703 562.597 64.896 565.609 49.007 C 568.936 31.459 580.211 20.829 597.561 16.906 C 605.893 15.022 613.903 17.107 621.956 19.557 C 621.16 24.684 618.288 23.722 615.678 22.392 C 610.407 19.705 604.941 18.989 599.189 20.098 C 585.31 22.774 574.789 35.183 571.568 50.353 C 570.322 56.221 573.213 60.342 574.165 65.647 Z" style="fill: rgb(122, 66, 43);" transform="matrix(1, 0, 0, 1, 1.1368683772161603e-13, 0)"/>
  <path opacity="1.000000" stroke="none" d="M 140.731 75.235 C 140.853 78.898 141.241 82.206 137.312 83.64 C 136.087 84.087 134.864 84.952 133.524 84.165 C 131.96 83.246 132.786 81.854 132.971 80.59 C 134.821 67.928 135.568 55.172 135.005 42.416 C 134.694 35.383 135.263 28.236 133.269 21.296 C 132.228 17.673 135.524 17.194 137.671 16.515 C 140.74 15.544 140.861 18.048 140.758 20.084 C 140.287 29.361 140.346 38.678 140.331 47.93 C 140.317 56.84 140.261 65.822 140.731 75.235 Z" style="fill: rgb(122, 66, 43);" transform="matrix(1, 0, 0, 1, 1.1368683772161603e-13, 0)"/>
  <path opacity="1.000000" stroke="none" d="M 203.035 381.484 C 197.361 383.85 193.36 382.192 189.223 378.33 C 176.893 366.821 165.511 354.463 154.651 341.593 C 154.017 340.842 153.185 340.186 153.372 338.972 C 154.654 337.782 155.501 338.947 156.246 339.683 C 170.521 353.779 186.237 366.093 202.668 377.549 C 203.695 378.265 207.571 379.337 203.035 381.484 Z" style="fill: rgb(122, 66, 43);" transform="matrix(1, 0, 0, 1, 1.1368683772161603e-13, 0)"/>
  <path opacity="1.000000" stroke="none" d="M 652.666 369.336 C 657.356 368.319 658.701 369.462 658.212 373.572 C 657.401 380.379 650.783 387.803 641.657 391.485 C 643.266 386.081 644.183 381.086 647.982 377.325 C 650.198 375.131 653.041 373.428 652.666 369.336 Z" style="fill: rgb(122, 66, 43);" transform="matrix(1, 0, 0, 1, 1.1368683772161603e-13, 0)"/>
  <path opacity="1.000000" stroke="none" d="M 209.636 392.772 C 210.149 390.924 210.602 389.435 211.186 387.519 C 208.435 388.497 208.519 391.025 207.08 392.279 C 204.634 392.267 203.586 390.87 203.92 388.807 C 204.34 386.215 204.938 383.327 207.22 381.839 C 208.985 380.688 210.91 382.406 211.78 383.83 C 212.923 385.7 215.209 385.716 216.426 387.353 C 215.865 389.28 215.212 391.122 214.813 393.018 C 214.495 394.532 214.312 396.166 212.467 396.331 C 210.326 396.522 209.702 394.962 209.636 392.772 Z" style="fill: rgb(122, 66, 43);" transform="matrix(1, 0, 0, 1, 1.1368683772161603e-13, 0)"/>
  <path opacity="1.000000" stroke="none" d="M 225.748 392.244 C 229.234 393.832 230.342 395.437 226.202 397.006 C 224.138 397.788 223.923 400.303 222.174 401.182 C 220.314 402.118 218.342 401.853 216.628 400.589 C 217.478 392.421 217.781 392.133 225.748 392.244 Z" style="fill: rgb(122, 66, 43);" transform="matrix(1, 0, 0, 1, 1.1368683772161603e-13, 0)"/>
  <path opacity="1.000000" stroke="none" d="M 731.583 178.005 C 731.047 173.633 732.727 170.014 734.167 166.351 C 734.958 164.337 736.357 163.57 739.339 165.194 C 734.702 168.53 737.624 175.541 731.583 178.005 Z" style="fill: rgb(122, 66, 43);" transform="matrix(1, 0, 0, 1, 1.1368683772161603e-13, 0)"/>
</svg>