<svg xmlns="http://www.w3.org/2000/svg" viewBox="0 0 430.02842 150.79743"><defs><style>.cls-1{fill:#fe0904;}.cls-2{fill:#fe0201;}.cls-3{fill:navy;}.cls-4{fill:#020280;}.cls-5{fill:#010180;}.cls-6{fill:#fe0402;}.cls-7{fill:#2f2f96;}.cls-8{fill:#4b4ba4;}.cls-9{fill:#fed500;}.cls-10{fill:#fed600;}.cls-11{fill:#fe5f00;}.cls-12{fill:#fe7100;}.cls-13{fill:#feaf00;}.cls-14{fill:#fe0e04;}.cls-15{fill:#fe0b01;}</style></defs><g id="Layer_2" data-name="Layer 2"><g id="Layer_1-2" data-name="Layer 1"><path class="cls-1" d="M429.96737,51.494c-.68-3.67-3.77-.82007-5.57-1.63013-.39-.16992-1.07.16-1.11-1.06994.76-1.21009,1.72-2.71009,2.66-4.23,2.12-3.42,1.39-5.04993-2.64-5.64-3.7-.55-6.63.24-8.92,3.75-1.73,2.66992-2.93,6.81006-6.32,7.18994-5.68.63013-11.1,2.94007-16.68,2.92005-4.95-.0199-7.85,1.92-10.7,5.49-2.85,3.56994-5.81,7.2301-10,9.43a125.79265,125.79265,0,0,1,7.74-10.3c2.05-2.48,1.03-4.32007-1.55-4.66992-3.82-.52-7.93005-1.20007-10.76,2.91992-1.22,1.77-3.11005,3.07007-4.74,4.62-5.35-11.03992-10.29-11.58-26.48-2.99-1.15-2.13-2.26-4.26-4.61-5.5-2.2-1.15-4.67-.70008-7.51-1.08,1.75-2.47,3.06-4.3501,4.4-6.2,3.94-5.45007,3.78-5.74-2.24-8.61011-2.61005-1.25-4.49005-.75-6.06,1.4-2.73,3.74-5.27,7.62-8.06006,11.30993-2.07,2.74-3.41,6.1001-7.09,8.8501,1.09-5.46,1.96-9.99,2.9-14.49.63995-3.01-.41-3.96-3.56006-4.26a13.19564,13.19564,0,0,0-11.12994,4.15991c-5.89,5.83008-11.69,11.74-17.55,17.6001-1.15,1.1499-2.07,2.61987-3.87,2.96-1.67.32007-3.05,1-2.94-2,.24-6.35-3.36-9.2-9.72-8.45a13.255,13.255,0,0,1-3.77.41992c-10.19-1.38989-7.74-3.83-13.72,5.36011q-1.44,2.50488-2.9,5.01c-1.55,2.55994-2.76,5.33984-4.96,7.49a7.44972,7.44972,0,0,1,.31-2.15015,12.36436,12.36436,0,0,1-1.13995,1.37012c-1.52,2.25-4.26,3.98-3.17005,7.35-.22,4.72,4.09,5.15,6.85,6.55993,2.86,1.46,3.63-1.96,5.04-3.55993,3.54-4.05,4.85-9.84,10.66-13.84-2.06,4.24-3.63,7.25-4.97,10.34985-.85,1.95008-.76,3.8501,1.49,5.06006,5.33,2.86011,6.96,2.4,10.23-2.85,1.22-1.95008,2.53-3.85,3.8-5.77,1.29-2.11,2.59-4.22,4.52-7.38.63995,4.68006-2.19,6.15-3.67,8.3-2.59,4.38989-.69,8.05,2.93,10.07007,2.96,1.63989,5.1-1.72009,7.16-3.62012a19.12694,19.12694,0,0,0,3.59-4.1c2.28-3.87,5.35-6.13,10.16-5.71009.42,3.12012-.8,6.51.9,9.61011.7,1.27,1.03,3.09,3.03,2.61a26.02246,26.02246,0,0,1,15.23.86c3.29,1.16,6.9-.52,9.98-2.2,3.29-1.79,6.38995-3.93005,9.75995-6.03,2.28,6.03,6.76,8.57007,13.08,8.69995,6.17.12012,10.37-3.44995,14.58-7.15991,4.11,6.79,7.92,8.57,13.96,5.71,3.04-1.43994,5.46-1.5,8.05.26,3.3,2.24,5.13,1.1499,6.87-2.17993,3.61-6.88013,7.63-13.54,11.41-20.32007.84-1.5,1.36-3.05,3.43-1.3,1.26,1.05,3.31-.28,4.69,1.38-2.75,4.1-5.57,8.16-8.24,12.32995-3.91,6.12012-3.73,5.98,1.68,10.33008,3.44,2.78,5.38,1.98,7.42-1.53,3.23-5.57995,7.02-10.85,10.09-16.5,2.62-4.82995,5.96-7.46,11.71-7C426.8774,59.13389,430.54738,54.564,429.96737,51.494Zm-164.8,11.26c-2.48,6.53992-7.14,11.87988-10.66,17.86987-1.56994,2.66-3.56994.04-5.29-.18994-1.99-.28-1.27-2.06006-.74-3.16992,1.29-2.68018,2.7-5.3,4.19-7.86011,1.72-2.95,3.59-5.81006,5.39-8.71-6.68,1.88-11.06,6.02-14.54,11.16992-1.76,2.61011-3.5,5.23-5.03,7.97-1.56,2.8-3,2.24012-5.46.89014-2.86-1.57007-1.78-2.84009-.69-4.61011,4.01-6.47,7.93-12.99,11.98-19.43994,1.78-2.83008,5.46-3.22,7.43-.45,1.04,1.47,1.53.43994,2.18.28,1.6-.39014,3.13-1.21008,4.74-1.41016C263.6274,54.484,266.90737,58.17393,265.16738,62.754Zm26.5,18.18994c-3.56-.07007-2.9-2.88-3.26-4.36011a9.061,9.061,0,0,0,0-1.15991c-.75-2.24,2.67-4.7-.08-6.65991-1.66-1.18018-9.96,2-11.55,3.91992q-3.48,4.20007-7.13,8.26c-1.33,1.47-2.78,2.13989-4.66.47-1.69-1.51-1.85-3.01-.78-4.81006.68-1.12988,1.35-2.2799,2.14-3.33984,1.62-2.14014,3.63-4.1001,2.69-7.18018,2.96-.35986,5.01-2.01989,7.02-4.17993,5.2-5.57007,10.63-10.93994,16.07-16.27a29.07445,29.07445,0,0,1,5.54-4.2,6.297,6.297,0,0,1,6.17.05c1.48.87988.14,2.98-.18,4.53-2.11,10.17993-4.43,20.32983-6.2,30.55994C296.79738,80.3939,294.73738,81.004,291.66738,80.944Zm52.86.26c-8.34,4.34-16.11.26-17.43-9.68-5.05,3.82995-9.38,7.80993-14.92,9.76-3.99,1.41-8.39,2.42-11.65-1.14-3.08-3.37-1.17-7.46.08-11.04,1.48-4.23,4.2-7.85986,6.76-11.5299,4.17-5.9701,8.42-11.9,12.4-18.01,2.02-3.1,4.03-2.01,6.21-.58,2.86,1.86987.07,3.11987-.71,4.28992-2.66,3.99011-5.56,7.81994-8.8,12.3,4.17-.89,7.41-3.36,11.26-2.37,4.53,1.16992,5,4.74,4.98,9.09,3.68-2.49,6.65-5.36,10.41-7.03992a15.6639,15.6639,0,0,1,7.19-1.68005c5.75.26989,9.29,4.56994,7.79,10.05993C356.01735,71.27391,351.71737,77.464,344.52736,81.204Zm41.43-11.82007c-1.69,3.22-3.48,6.39-5.42,9.47-.87,1.38013-.92,4.03-3.44,3.5-2.5-.5299-3.71-2.41992-3.03-5.32995-3.42,1.5-5.86,3.87-9.11,4.82995-2.97.88013-5.51.71009-7.76-1.58984-2.18-2.24011-1.98-4.7301-.93-7.3501,2.78-6.96,8.07-12.05005,13.08-17.30005,2.01-2.10986,4.76-.32995,7.95-.93994-4.6,7.45-10.84,12.67993-14.34,20.7a11.152,11.152,0,0,0,7.61-3.5c3.58-3.43994,7.06006-6.99,10.47-10.6,4.82-5.12,4.77-5.16,12.57-6.22C391.6874,60.36387,388.42739,64.67393,385.95736,69.38389Zm35.78-12.5c-4.63-.56994-7.63,1.46-9.93,5.62012-3.52,6.34985-7.64,12.36987-11.55,18.51-.81994,1.27991-1.94,3.75-3.49,1.52991-1.17-1.69007-6.56-1.12-3.3-5.65,4.32-5.99,8.24-12.26,12.41-18.51-2.02-1.04-3.83-.3999-5.57-.36987-1.78.03992-2.16-.69006-2.33-2.3-.17-1.64.17-2.55005,1.88-2.73a2.05131,2.05131,0,0,1,.49-.06006c8.27,1.47,12.85-3.33008,16.51-9.65991a4.0485,4.0485,0,0,1,4.04-2.32007c1.14.08,2.53-.36011,3.3.63.92,1.2-.41,2.08-.97,3.00988-1.34,2.2201-2.74,4.41016-4.47,7.18018h8.74C426.84737,55.42393,425.47737,57.34385,421.73738,56.88389Z"/><path class="cls-2" d="M265.16738,62.754c-2.48,6.53992-7.14,11.87988-10.66,17.86987-1.56994,2.66-3.56994.04-5.29-.18994-1.99-.28-1.27-2.06006-.74-3.16992,1.29-2.68018,2.7-5.3,4.19-7.86011,1.72-2.95,3.59-5.81006,5.39-8.71-6.68,1.88-11.06,6.02-14.54,11.16992-1.76,2.61011-3.5,5.23-5.03,7.97-1.56,2.8-3,2.24012-5.46.89014-2.86-1.57007-1.78-2.84009-.69-4.61011,4.01-6.47,7.93-12.99,11.98-19.43994,1.78-2.83008,5.46-3.22,7.43-.45,1.04,1.47,1.53.43994,2.18.28,1.6-.39014,3.13-1.21008,4.74-1.41016C263.6274,54.484,266.90737,58.17393,265.16738,62.754Z"/><path class="cls-2" d="M303.65737,46.014c-2.11,10.17993-4.43,20.32983-6.2,30.55994-.66,3.81994-2.72,4.43-5.79,4.37-3.56-.07007-2.9-2.88-3.26-4.36011a9.061,9.061,0,0,0,0-1.15991c-.75-2.24,2.67-4.7-.08-6.65991-1.66-1.18018-9.96,2-11.55,3.91992q-3.48,4.20007-7.13,8.26c-1.33,1.47-2.78,2.13989-4.66.47-1.69-1.51-1.85-3.01-.78-4.81006.68-1.12988,1.35-2.2799,2.14-3.33984,1.62-2.14014,3.63-4.1001,2.69-7.18018,2.96-.35986,5.01-2.01989,7.02-4.17993,5.2-5.57007,10.63-10.93994,16.07-16.27a29.07445,29.07445,0,0,1,5.54-4.2,6.297,6.297,0,0,1,6.17.05C305.31734,42.36387,303.97737,44.464,303.65737,46.014Z"/><path class="cls-2" d="M393.60738,55.05394c-1.92,5.30993-5.18,9.62-7.65,14.32995-1.69,3.22-3.48,6.39-5.42,9.47-.87,1.38013-.92,4.03-3.44,3.5-2.5-.5299-3.71-2.41992-3.03-5.32995-3.42,1.5-5.86,3.87-9.11,4.82995-2.97.88013-5.51.71009-7.76-1.58984-2.18-2.24011-1.98-4.7301-.93-7.3501,2.78-6.96,8.07-12.05005,13.08-17.30005,2.01-2.10986,4.76-.32995,7.95-.93994-4.6,7.45-10.84,12.67993-14.34,20.7a11.152,11.152,0,0,0,7.61-3.5c3.58-3.43994,7.06006-6.99,10.47-10.6C385.85738,56.15391,385.80739,56.11387,393.60738,55.05394Z"/><path class="cls-2" d="M427.49739,51.764c-.65,3.65991-2.02,5.57983-5.76,5.11987-4.63-.56994-7.63,1.46-9.93,5.62012-3.52,6.34985-7.64,12.36987-11.55,18.51-.81994,1.27991-1.94,3.75-3.49,1.52991-1.17-1.69007-6.56-1.12-3.3-5.65,4.32-5.99,8.24-12.26,12.41-18.51-2.02-1.04-3.83-.3999-5.57-.36987-1.78.03992-2.16-.69006-2.33-2.3-.17-1.64.17-2.55005,1.88-2.73a2.05131,2.05131,0,0,1,.49-.06006c8.27,1.47,12.85-3.33008,16.51-9.65991a4.0485,4.0485,0,0,1,4.04-2.32007c1.14.08,2.53-.36011,3.3.63.92,1.2-.41,2.08-.97,3.00988-1.34,2.2201-2.74,4.41016-4.47,7.18018Z"/><path class="cls-3" d="M97.74682,45.70124c-4.21108,1.735-8.60946,3.19931-11.70117,8.24251L91.94178,51.87a11.98945,11.98945,0,0,1-4.64191,5.98611C76.12072,66.489,69.80544,78.36977,65.00684,91.18378c-2.254,6.019-3.97694,12.23843-5.85785,18.39211-3.00468,9.83024-9.71319,14.8372-19.87991,15.98251-8.491.95653-17.1576,1.35118-24.12642,7.68749-2.97731,2.70707-4.19437,6.82656-8.68714,9.46825,3.62443-11.17927,11.55626-16.847,20.61183-21.4529a9.4243,9.4243,0,0,1,1.64133-.95807c1.10657-.50955,2.33546-.19162,3.33378-.54248-1.60321,0-3.26555.58675-4.99874.514l-11.81624,3.20519c-.99533.41111-1.149-.12589-1.06117-.93487,6.46153-5.22648,14.40292-6.51454,22.19644-7.71146,6.04042-.92768,9.01021-4.36086,10.427-9.68376,2.499-9.389,5.19129-18.72271,9.14725-27.60847,4.30109-9.661,9.74883-18.605,17.59967-25.92889,6.75836-6.30473,14.92682-7.49562,23.67317-6.81987A.68171.68171,0,0,1,97.74682,45.70124Z"/><path class="cls-2" d="M97.74682,45.70124q-.27022-.45542-.53873-.90974c-.202-.78662-.349-1.54213-1.28283-1.92063-7.8525-3.1828-15.82637-5.81268-24.64352-5.81724C71.97814,46.7308,67.666,53.927,59.446,57.76778A34.04267,34.04267,0,0,1,42.43492,60.484a2.42846,2.42846,0,0,1-2.37342-2.16413c-.19665-1.62152.79022-2.42617,2.06321-3.01065,2.81539-1.29268,5.96648-2.31909,4.80066-6.51506,6.33748-5.306,5.14364-11.973,4.08169-19.02532-.67846-4.50563,2.847-7.56935,6.75576-9.5104a18.2279,18.2279,0,0,1,9.652-1.97513C82.223,19.55377,96.55243,22.63057,109.5824,30.1671c3.47861,2.012,6.53539,4.53808,8.37339,8.24654l.0459.157c2.27721,6.72625-1.77859,11.329-5.42939,16.06712-4.48257,5.81757-4.4582,5.76887,1.93114,9.01607,6.85632,3.48454,14.12153,2.827,21.29681,1.89686a40.24206,40.24206,0,0,1,7.759-.51034c1.41595.08766,2.68949.14378,3.36892,1.50756.94464,1.89608-.68086,2.76392-2.06366,3.99963,3.629.46673,6.39861-1.29845,9.32548-2.1796,1.98687-.59817,2.25751.48639,2.73973,1.79413.43553,1.181.75763,2.02747-.91577,2.65585-18.31356,6.87706-36.72121,11.23906-55.05755.457-9.53583-5.6072-11.106-13.56956-5.41293-23.18558C96.37549,48.684,97.0171,47.16673,97.74682,45.70124Z"/><path class="cls-4" d="M285.78737,101.35386c-3.19-3.15991-6.93-3.46-11.04-2a35.48027,35.48027,0,0,0-11.73,7.5c-1.12-6.26-3.03-7.6499-8.79-6.81994-2.27.31994-4.3.78-6.82-.35a5.45,5.45,0,0,0-6.98,2.1c-7.15,11.70007-14.41,23.33-21.65,35.02,6.24,2.29992,6.44,2.42,9.79-2.93006,2.44-3.88989,4.69-7.18994,10.18-5.72,1.39.37,3.22-.57995,4.76-1.15991a36.61363,36.61363,0,0,0,12.69-8.29c2.89,8.88989,10.62,11.78,18.51,7.1,5.8-3.43006,9.55-8.56995,11.93-14.77C287.92739,107.67393,288.75734,104.30394,285.78737,101.35386Zm-31.82,7.7201c-2.86,6.05993-7.06,10.71-13.78,12.56994-1.12006.31006-3.57.42005-2.53-1.22,3.28-5.14,5.22-11.59009,11.78-14.04.78-.29,1.59-.46,2.38995-.67993C253.88735,105.994,254.9374,107.004,253.96737,109.074Zm13.38,12.99c-2.67.51-3.18-.76-2.93-3.01.51-4.66,8.09-13.37,12.56-14.36,2.05-.46,2.84.1,2.91,2.06006C280.08736,111.79393,272.38735,121.11387,267.34737,122.064Z"/><path class="cls-3" d="M253.96737,109.074c-2.86,6.05993-7.06,10.71-13.78,12.56994-1.12006.31006-3.57.42005-2.53-1.22,3.28-5.14,5.22-11.59009,11.78-14.04.78-.29,1.59-.46,2.38995-.67993C253.88735,105.994,254.9374,107.004,253.96737,109.074Z"/><path class="cls-3" d="M279.88735,106.754c.2,5.03992-7.5,14.35986-12.54,15.30994-2.67.51-3.18-.76-2.93-3.01.51-4.66,8.09-13.37,12.56-14.36C279.02736,104.234,279.81734,104.79393,279.88735,106.754Z"/><path class="cls-5" d="M361.84978,104.654a16.29464,16.29464,0,0,0-9.14427.82016c-1.02459.43765-2.39651.58535-2.55665,1.98293-.16053,1.40086,1.03978,1.96474,2.04574,2.52,2.6061,1.43848,5.34571,2.66469,7.83709,4.275,3.69385,2.38753,3.98621,4.73383.64444,7.4549-7.20434,5.8662-15.57462,6.83079-24.40212,4.86353a4.706,4.706,0,0,1-4.02636-4.45276c-.19636-2.93153,1.63308-4.56262,3.96935-5.71552,2.27822-1.12423,4.827-1.99422,7.06846-.334,2.4012,1.77861.06125,2.11743-1.15446,2.76332-1.02024.54205-2.18655,1.19721-1.84064,2.6034.4097,1.66575,1.89947.80685,2.91517.937a5.6067,5.6067,0,0,0,2.46506-.19562c2.89779-1.003,7.58241-.76379,7.99-3.84691.40715-3.08023-4.27187-3.3009-6.79771-4.50931-6.97886-3.33885-7.59006-5.19389-2.96589-11.4839-4.61586-.50469-8.20881-.03639-10.73952,4.67709-3.51085,6.539-7.77,12.68111-11.7557,18.96364-.79307,1.25013-1.90063,3.95457-3.35209,1.81382-1.21136-1.78656-6.84565-1.18275-3.54635-5.83456,4.372-6.16421,8.45037-12.53506,12.88041-19.154l-8.35449.6134c-.38611-2.99421-.51493-5.98634,3.54315-5.43415,7.51506,1.02256,11.501-3.27372,14.82459-8.93949,2.06309-3.517,4.94615-3.998,8.5668-2.05586-2.03977,3.28375-4.01936,6.47059-5.90216,9.50161,2.056,2.72867,7.95921-2.39851,8.10483,4.47494,4.49484-.833,9.52092-2.63739,14.84362-1.58562,1.81388.35841,3.63577.62147,5.09469,1.78011,2.72731,2.16593,3.39783,4.49331.07554,6.74168a14.48685,14.48685,0,0,1-3.47573,1.86412c-1.92869.6344-4.168,2.09556-5.76244-.387C357.12957,106.55373,360.48726,106.16484,361.84978,104.654Z"/><path class="cls-2" d="M237.55739,52.93394c-4.26-.15-8.84-.72-11.63,4.14-1.26,2.2-3.49,3.86-5.28,5.75988a15.133,15.133,0,0,1-7.24,6.1001q3.045-3.6449,6.09-7.27c.98-1.32007,2-2.62,2.94-3.97,2.17-3.1001,1.31994-4.7-2.42005-5.18994-4.47-.59009-8.15.35986-10.76,4.31995-.5.76989-1.49,1.23-2.85,2.28991,4.17-10.37988,1.49-15.73-8.47-17.99a43.88576,43.88576,0,0,0-25.94,1.62012c-3.53,1.35986-6.27,5.99-4.83,9.83984,1.25,3.32007,4.15-.09985,6.27.37012.31994.06995.63995.13989,1.26.28-3.78,6.84985-7.51,13.63989-11.28,20.3999-4.22,7.56006-3.94,8.01,4.66,10.26,2.64.7,3.95.15,5.03-2.25,1.09-2.3999,2.6-4.6,3.79-6.96.96-1.91,1.88-2.31006,3.7-.80005,4.07,3.39,8.37,6.51,12.45,9.9,2.13,1.76,3.93,3.17,5.33-.55994.62-1.68,1.47-1.31006,2.58-.45007,3.66,2.81994,7.4,2.01,11.22.25,1.34-.62,2.4-1.64,4.46-.61,6.64,3.29,6.73,3.08008,10.61-3.23a9.44767,9.44767,0,0,1,1.26-1.36c-1.09-3.37,1.65-5.1,3.17005-7.35a12.36436,12.36436,0,0,0,1.13995-1.37012c.69-2.37988,2.41-4.2799,3.67-6.37988,1.01-1.65,2.01-3.29,3.02-4.93C240.94735,55.33384,240.88735,53.04393,237.55739,52.93394Zm-40.96,28.78c-1.84,2.11-2.91-.39-3.97-1.17-4.15-3.03992-8.26-6.14-12.1-9.53992-2.4-2.11011-3.46-1.46008-4.65,1.0199-1.22,2.53-2.75,4.91-4.04,7.4-.84,1.62-1.76,2.58008-3.86,2.21-4.9-.84-5.51-1.87988-3.09-6.25q6.84-12.29992,13.77-24.62988c-2-1.22009-3.53,0-5.08-.07007-1.28-.05-3.2,1.3999-3.74-.88-.46-2.02-.04-3.85,2.31-4.84a42.85945,42.85945,0,0,1,13.08-2.79,38.28367,38.28367,0,0,1,14.24,1.72c3.56,1.04,6.41,2.8,6.73,6.95.32,4.07007-1.6,6.98011-4.95,9.03-4.87,2.98-10.43,3.99-16.98,5.44007,3.34,2.55993,5.82,4.46,8.3,6.35a18.47319,18.47319,0,0,1,4.52,4.56006A4.24587,4.24587,0,0,1,196.59737,81.714Zm1.99-9.98c-.71,1.27-1.33,1.12988-2.26.31995-1.98-1.7201-4.01-3.38-6.5-5.46009,5.17-1.75,10.09-2.96,14.84-5.32983C202.6274,64.754,200.55739,68.214,198.58736,71.734Zm31.99-3.06006c-1.98,3.63-3.98,7.25-6.16,10.76-.8,1.29-.89,4-3.75,2.62-2.07-.99-4.4-1.74-1.13-5.69007-4.65,2.15015-7.18,4.57007-10.55,5.55-2.84.83008-5.2.57007-7.34-1.45-2.24-2.11011-2.37-4.56006-1.26-7.27,2.89-7.08008,8-12.49,13.41-17.64,2.1-2,4.65-.18006,7.76-1-4.61,7.51-10.81,12.7799-14.32,20.62a9.01234,9.01234,0,0,0,7.06-2.85c3.73-3.52,7.42-7.12,10.84-10.93006,3.27-3.6499,5.89-8.1499,12.27-5.61C235.97737,60.204,232.95736,64.29393,230.57735,68.67393Z"/><path class="cls-5" d="M195.21717,121.53731c7.93873-.14623,14.49957-1.48108,20.56468-4.78237,1.77928-.96848,3.56166-2.60923,3.20142-4.63957-.30248-1.7049-2.67152-1.44228-4.21263-1.87416-3.65743-1.02494-7.43894-1.77333-10.9172-3.23228-5.38186-2.25743-6.1465-6.92906-1.53617-10.36345,8.16439-6.08192,17.84928-7.5385,27.73892-7.65394a5.06222,5.06222,0,0,1,5.00333,4.17126c.43926,2.37719-2.01067,3.57919-3.6891,3.99095-3.14718.77209-6.70872,4.67664-9.68594-.77534-.83187-1.52331-12.40555,2.66986-12.88282,4.49387-.38485,1.47083.71127,1.591,1.676,1.78037,3.41223.66993,6.86244,1.18078,10.23694,2.002,8.79981,2.14153,10.81413,8.1798,4.09905,14.156-8.67363,7.71919-19.38286,10.45214-30.9199,9.3354-2.36465-.22891-4.92385-1.35669-5.54771-4.26581-.64367-3.00134.99962-5.04289,3.22277-6.71614a12.09183,12.09183,0,0,1,2.93956-1.81416c1.88272-.6935,4.24938-2.83033,5.75348-.59777,1.53992,2.28571-2.20035,2.02483-2.88308,3.53792A29.08165,29.08165,0,0,1,195.21717,121.53731Z"/><path class="cls-5" d="M118.00169,38.57064l-.046-.157c5.68678-1.38762,11.73256-2.13212,15.26163-9.1052-3.48336,2.52759-6.78766,2.5296-11.40091,2.84325,2.79339-1.50783,4.56843-2.2634,6.11726-3.3415,4.00292-2.78636,4.91168-6.69977,2.689-10.82151-2.11316-3.91857-5.16782-4.74507-10.05806-2.96087-1.93433.70573-3.69968,1.55967-6.09287,1.38282-5.57568-.412-5.59173-.08222-3.032-5.363a4.77834,4.77834,0,0,0,.22422-1.35431c-1.16715-1.1166-2.94369,1.56291-3.3309-.29556-.2973-1.42693.708-3.25223,2.13412-4.26135C115.95159,1.25573,122.15276-1.27848,128.707.674c7.63156,2.27335,13.36521,7.24862,15.338,15.49729,1.88426,7.87858-1.16848,14.28485-7.13816,18.82324C131.50318,39.10252,125.03308,41.2362,118.00169,38.57064Z"/><path class="cls-6" d="M122.47734,97.44413c-7.69155,1.60558-14.31531,4.135-21.011,6.40184-5.21961,1.76711-10.478,3.10429-16.06378,2.85229A14.30134,14.30134,0,0,1,73.47709,85.05214c.67729-1.16238,1.35088-2.41715,2.9522-2.24762,1.37645.1457,1.64313,1.294,2.04587,2.4546,2.01637,5.81073,6.09649,8.29819,12.09847,6.69615,9.42634-2.51606,18.37387-6.6075,27.98918-8.59143,4.24031-.8749,8.39865-1.83,12.78694-1.15738,8.32645,1.27623,11.739,7.05527,8.75487,15.11541-1.6802,4.53818-4.73982,8.31565-7.08,12.49115-3.64127,6.49687-7.09907,13.04417-8.709,20.42859-.57345,2.63034-3.49354,3.18521-5.48353,4.30871-3.89156,2.1971-4.394,4.22451-1.36875,7.5075,2.73585,2.96893,6.19222,3.55233,10.0217,2.99374-1.10418,5.74664-2.19025,6.47859-7.37628,5.22228-7.03543-1.70433-11.59906-8.22545-11.36464-16.61054.31519-11.27312,5.26761-21.02143,10.49335-30.65012C120.1492,101.33326,121.15782,99.7055,122.47734,97.44413Z"/><path class="cls-4" d="M303.88972,98.96066c1.29479,1.87179-1.10905,2.7979-.025,4.15517,2.379-1.15815,4.84662-2.12515,7.06448-3.49379,3.36411-2.076,4.98922-.01517,5.97649,2.529,1.10786,2.8549-2.00516,2.64855-3.23411,2.97582-10.39423,2.76784-17.32329,9.17784-21.34627,19.01556-.61668,1.508-.91431,4.478-3.98977,2.60737-2.223-1.35215-4.12395-2.35833-2.43276-5.90095,2.92181-6.12045,6.26438-11.99024,9.3865-17.98878C297.31156,98.97473,301.05164,100.50854,303.88972,98.96066Z"/><path class="cls-7" d="M14.16632,122.545l1.06116.93487c-5.67667,4.21214-9.79838,9.71661-13.22867,15.79574-.2333.39875-.486.4307-.76117.04C3.041,131.80812,8.42291,127.0383,14.16632,122.545Z"/><path class="cls-8" d="M1.23764,139.31568a4.00229,4.00229,0,0,1,.76117-.04C.59649,142.50754,1.634,146.045.62408,149.33827.42562,145.97417-.98629,142.55331,1.23764,139.31568Z"/><path class="cls-9" d="M350.30739,53.574a15.6639,15.6639,0,0,0-7.19,1.68005c-3.76,1.67993-6.73,4.54993-10.41,7.03992.02-4.35-.45-7.92005-4.98-9.09-3.85-.99-7.09,1.48-11.26,2.37,3.24-4.48011,6.14-8.30994,8.8-12.3.78-1.17005,3.57-2.42005.71-4.28992-2.18-1.43005-4.19-2.52-6.21.58-3.98,6.11-8.23,12.03991-12.4,18.01-2.56,3.67-5.28,7.29992-6.76,11.5299-1.25,3.58008-3.16,7.67005-.08,11.04,3.26,3.56006,7.66,2.55,11.65,1.14,5.54-1.95008,9.87-5.93006,14.92-9.76,1.32,9.94006,9.09,14.02,17.43,9.68,7.19-3.74,11.49-9.93,13.57-17.57007C359.59737,58.1439,356.05739,53.84385,350.30739,53.574Zm-25.87,7.98c-.59,4.51-11.91,14.70007-15.92005,14.71008-2.34.1499-1.98-1.01-1.7-2.21008,1.17-5.09,10.73-13.9,15.71-14.7201C324.79738,58.964,324.61739,60.15391,324.4374,61.55394Zm26.1.70007c-.43,5-6.84,13.10986-11.61,14.42993-3.05.84-4.07.01-3.63-3.56006a22.58611,22.58611,0,0,1,11.88-13.16992C348.96737,59.074,350.79738,59.244,350.53737,62.254Z"/><path class="cls-9" d="M303.65737,46.014c-2.11,10.17993-4.43,20.32983-6.2,30.55994-.66,3.81994-2.72,4.43-5.79,4.37-3.56-.07007-2.9-2.88-3.26-4.36011a9.061,9.061,0,0,0,0-1.15991c-.75-2.24,2.67-4.7-.08-6.65991-1.66-1.18018-9.96,2-11.55,3.91992q-3.48,4.20007-7.13,8.26c-1.33,1.47-2.78,2.13989-4.66.47-1.69-1.51-1.85-3.01-.78-4.81006.68-1.12988,1.35-2.2799,2.14-3.33984,1.62-2.14014,3.63-4.1001,2.69-7.18018,2.96-.35986,5.01-2.01989,7.02-4.17993,5.2-5.57007,10.63-10.93994,16.07-16.27a29.07445,29.07445,0,0,1,5.54-4.2,6.297,6.297,0,0,1,6.17.05C305.31734,42.36387,303.97737,44.464,303.65737,46.014Z"/><path class="cls-9" d="M393.60738,55.05394c-1.92,5.30993-5.18,9.62-7.65,14.32995-1.69,3.22-3.48,6.39-5.42,9.47-.87,1.38013-.92,4.03-3.44,3.5-2.5-.5299-3.71-2.41992-3.03-5.32995-3.42,1.5-5.86,3.87-9.11,4.82995-2.97.88013-5.51.71009-7.76-1.58984-2.18-2.24011-1.98-4.7301-.93-7.3501,2.78-6.96,8.07-12.05005,13.08-17.30005,2.01-2.10986,4.76-.32995,7.95-.93994-4.6,7.45-10.84,12.67993-14.34,20.7a11.152,11.152,0,0,0,7.61-3.5c3.58-3.43994,7.06006-6.99,10.47-10.6C385.85738,56.15391,385.80739,56.11387,393.60738,55.05394Z"/><path class="cls-9" d="M265.16738,62.754c-2.48,6.53992-7.14,11.87988-10.66,17.86987-1.56994,2.66-3.56994.04-5.29-.18994-1.99-.28-1.27-2.06006-.74-3.16992,1.29-2.68018,2.7-5.3,4.19-7.86011,1.72-2.95,3.59-5.81006,5.39-8.71-6.68,1.88-11.06,6.02-14.54,11.16992-1.76,2.61011-3.5,5.23-5.03,7.97-1.56,2.8-3,2.24012-5.46.89014-2.86-1.57007-1.78-2.84009-.69-4.61011,4.01-6.47,7.93-12.99,11.98-19.43994,1.78-2.83008,5.46-3.22,7.43-.45,1.04,1.47,1.53.43994,2.18.28,1.6-.39014,3.13-1.21008,4.74-1.41016C263.6274,54.484,266.90737,58.17393,265.16738,62.754Z"/><path class="cls-9" d="M427.49739,51.764c-.65,3.65991-2.02,5.57983-5.76,5.11987-4.63-.56994-7.63,1.46-9.93,5.62012-3.52,6.34985-7.64,12.36987-11.55,18.51-.81994,1.27991-1.94,3.75-3.49,1.52991-1.17-1.69007-6.56-1.12-3.3-5.65,4.32-5.99,8.24-12.26,12.41-18.51-2.02-1.04-3.83-.3999-5.57-.36987-1.78.03992-2.16-.69006-2.33-2.3-.17-1.64.17-2.55005,1.88-2.73a2.05131,2.05131,0,0,1,.49-.06006c8.27,1.47,12.85-3.33008,16.51-9.65991a4.0485,4.0485,0,0,1,4.04-2.32007c1.14.08,2.53-.36011,3.3.63.92,1.2-.41,2.08-.97,3.00988-1.34,2.2201-2.74,4.41016-4.47,7.18018Z"/><path class="cls-10" d="M130.73209,70.668c-10.91663,1.58948-21.43743,1.34412-31.165-7.38784,1.58563,4.68066,4.826,5.95848,7.63581,7.72685,2.77794,1.74828,6.568,1.81788,9.43327,5.75829-7.88548-1.83919-14.27151-4.24171-19.0908-9.42127-3.84131-4.12847-3.59356-9.84441.00411-15.65061,5.60906-9.05232,5.5538-8.90745-4.52611-12.72259-6.87435-2.60186-14.05218-3.6594-21.1985-4.955-2.38333-.43211-3.89474-.56216-3.20966,3.1218,1.55275,8.35-3.817,15.85692-11.973,18.31285-3.921,1.18069-7.65708,2.99277-12.39619,2.21442,3.20556-2.85948,7.34723-3.86044,9.71247-7.1256a31.8359,31.8359,0,0,0,1.79828-3.2288c-2.40447-.24637-3.61789,2.31863-6.30851,2.14489a62.066,62.066,0,0,1,3.86461-5.122c2.359-2.54186,2.33521-5.192,1.16161-8.24391-3.00191-7.80634.52458-14.52147,8.84738-14.83784,17.63065-.67021,34.18484,3.62133,48.77729,13.82716,4.68588,3.27725,5.1607,8.4063,1.98438,13.16334a81.86672,81.86672,0,0,1-7.08227,9.56c-2.69,2.977-.69854,4.18551,1.47381,5.56453a34.44044,34.44044,0,0,0,20.28231,5.503C129.26143,69.637,131.332,68.69746,130.73209,70.668Z"/><path class="cls-11" d="M119.58263,76.58761c8.43756-.39655,16.79407-1.443,25.14556-2.57218C136.4848,76.439,128.21472,78.54,119.58263,76.58761Z"/><path class="cls-12" d="M130.73209,70.668q-.98735-.8994-1.97472-1.7986c3.3986.44834,6.8908-2.803,10.57517.44415C136.31905,70.10639,133.67619,71.18682,130.73209,70.668Z"/><path class="cls-9" d="M206.19735,50.84385c-.32-4.1499-3.17-5.90991-6.73-6.95a38.28367,38.28367,0,0,0-14.24-1.72,42.85945,42.85945,0,0,0-13.08,2.79c-2.35.99-2.77,2.81995-2.31,4.84.54,2.2799,2.46.83,3.74.88,1.55.07007,3.08-1.15,5.08.07007q-6.915,12.36-13.77,24.62988c-2.42,4.37012-1.81,5.41,3.09,6.25,2.1.37012,3.02-.59,3.86-2.21,1.29-2.49,2.82-4.87,4.04-7.4,1.18994-2.48,2.25-3.13,4.65-1.0199,3.84,3.3999,7.95,6.5,12.1,9.53992,1.06.78,2.12994,3.28,3.97,1.17a4.24587,4.24587,0,0,0,.49-5.49,18.47319,18.47319,0,0,0-4.52-4.56006c-2.48-1.89-4.96-3.79-8.3-6.35,6.55-1.45008,12.11005-2.46009,16.98-5.44007C204.59737,57.824,206.51735,54.91392,206.19735,50.84385Zm-9.2,3.38013c-4.23,3.47-9.57,4.01-14.92,5.47,1.06-3.45,3.02-5.9,4.67-8.48,1.58-2.47,9.66-3.42,11.66-1.31006C200.30739,51.8939,198.20736,53.224,196.99739,54.224Z"/><path class="cls-9" d="M237.40737,55.78392c-1.43,4.42-4.45,8.51-6.83,12.89-1.98,3.63-3.98,7.25-6.16,10.76-.8,1.29-.89,4-3.75,2.62-2.07-.99-4.4-1.74-1.13-5.69007-4.65,2.15015-7.18,4.57007-10.55,5.55-2.84.83008-5.2.57007-7.34-1.45-2.24-2.11011-2.37-4.56006-1.26-7.27,2.89-7.08008,8-12.49,13.41-17.64,2.1-2,4.65-.18006,7.76-1-4.61,7.51-10.81,12.7799-14.32,20.62a9.01234,9.01234,0,0,0,7.06-2.85c3.73-3.52,7.42-7.12,10.84-10.93006C228.40737,57.744,231.02736,53.244,237.40737,55.78392Z"/><path class="cls-10" d="M111.05285,136.277c-.72172-10.1816,3.383-19.06139,7.77027-27.79776,2.28455-4.54924,5.088-8.83987,7.89006-13.647-4.54637-.61507-8.27775,1.33267-12.09554,2.41852-7.16914,2.03905-14.25314,4.3777-21.35824,6.6364a22.69532,22.69532,0,0,1-8.4048.58595c-8.93249-.55151-12.96349-8.2725-9.5148-18.01391,4.64605,8.14424,10.11322,10.12812,19.75453,6.55894a218.86527,218.86527,0,0,1,24.66485-7.68073,34.623,34.623,0,0,1,11.35368-.82192c6.20438.56079,9.19263,4.69688,7.35214,10.6466a32.08463,32.08463,0,0,1-3.73329,7.51631A141.03126,141.03126,0,0,0,123.021,125.61231c-1.13568,2.813-1.63682,7.41444-7.4,6.0351-3.12328-.74752-.32128,3.83807-2.55812,4.79145A1.419,1.419,0,0,1,111.05285,136.277Z"/><path class="cls-13" d="M111.05285,136.277q1.0047.08077,2.00968.16173c.27445,5.907,3.17672,8.94466,10.81977,11.32425C117.27845,149.08561,112.55205,144.85416,111.05285,136.277Z"/><path class="cls-14" d="M322.52736,59.33384c-4.98.82007-14.54,9.63013-15.71,14.7201-.28,1.20007-.63995,2.36,1.7,2.21008,4.01-.01,15.33-10.20007,15.92005-14.71008C324.61739,60.15391,324.79738,58.964,322.52736,59.33384Zm-11.66,13.48011c1.1-4.58,4.45-7.79993,10.6-9.98011A29.10478,29.10478,0,0,1,310.86739,72.814Z"/><path class="cls-1" d="M347.17739,59.954a22.58611,22.58611,0,0,0-11.88,13.16992c-.44,3.57007.58,4.4,3.63,3.56006,4.77-1.32007,11.18-9.42993,11.61-14.42993C350.79738,59.244,348.96737,59.074,347.17739,59.954Zm-10.09,15.06006c1.94-6.3501,5.71-10.15015,11.55-13.61011C346.41738,68.074,343.48738,72.504,337.08736,75.014Z"/><path class="cls-15" d="M283.85246,62.59355c3.71053-4.29063,6.78286-7.84327,10.17973-11.77117C293.55345,60.53778,292.10011,62.333,283.85246,62.59355Z"/><path class="cls-2" d="M198.40737,49.90391c-2-2.11-10.08-1.15991-11.66,1.31006-1.65,2.58-3.61,5.03-4.67,8.48,5.35-1.46,10.69-2,14.92-5.47C198.20736,53.224,200.30739,51.8939,198.40737,49.90391Zm-11.33,6.3c.81-6.25,4.88-5.43005,9.59-4.97C193.82735,54.88389,190.38735,55.05394,187.07735,56.204Z"/></g></g></svg>