<?xml version="1.0" encoding="utf-8"?>
<!-- Generator: Adobe Illustrator 25.0.0, SVG Export Plug-In . SVG Version: 6.00 Build 0)  -->
<svg version="1.1" id="Layer_1" xmlns="http://www.w3.org/2000/svg" xmlns:xlink="http://www.w3.org/1999/xlink" x="0px" y="0px"
	 viewBox="0 0 430 150.8" style="enable-background:new 0 0 430 150.8;" xml:space="preserve">
<style type="text/css">
	.st0{fill:#FE0904;}
	.st1{fill:#FE0201;}
	.st2{fill:#000080;}
	.st3{fill:#020280;}
	.st4{fill:#010180;}
	.st5{fill:#FE0402;}
	.st6{fill:#2F2F96;}
	.st7{fill:#4B4BA4;}
	.st8{fill:#FED500;}
	.st9{fill:#FED600;}
	.st10{fill:#FE5F00;}
	.st11{fill:#FE7100;}
	.st12{fill:#FEAF00;}
	.st13{fill:#FE0E04;}
	.st14{fill:#FE0B01;}
</style>
<g id="Layer_2_1_">
	<g id="Layer_1-2">
		<path class="st0" d="M430,51.5c-0.7-3.7-3.8-0.8-5.6-1.6c-0.4-0.2-1.1,0.2-1.1-1.1c0.8-1.2,1.7-2.7,2.7-4.2c2.1-3.4,1.4-5-2.6-5.6
			c-3.7-0.5-6.6,0.2-8.9,3.8c-1.7,2.7-2.9,6.8-6.3,7.2c-5.7,0.6-11.1,2.9-16.7,2.9c-5,0-7.9,1.9-10.7,5.5c-2.9,3.6-5.8,7.2-10,9.4
			c2.4-3.6,5-7,7.7-10.3c2-2.5,1-4.3-1.5-4.7c-3.8-0.5-7.9-1.2-10.8,2.9c-1.2,1.8-3.1,3.1-4.7,4.6c-5.4-11-10.3-11.6-26.5-3
			c-1.1-2.1-2.3-4.3-4.6-5.5c-2.2-1.2-4.7-0.7-7.5-1.1c1.8-2.5,3.1-4.4,4.4-6.2c3.9-5.5,3.8-5.7-2.2-8.6c-2.6-1.2-4.5-0.8-6.1,1.4
			c-2.7,3.7-5.3,7.6-8.1,11.3c-2.1,2.7-3.4,6.1-7.1,8.9c1.1-5.5,2-10,2.9-14.5c0.6-3-0.4-4-3.6-4.3c-4.2-0.5-8.3,1.1-11.1,4.2
			c-5.9,5.8-11.7,11.7-17.5,17.6c-1.1,1.1-2.1,2.6-3.9,3c-1.7,0.3-3,1-2.9-2c0.2-6.3-3.4-9.2-9.7-8.5c-1.2,0.3-2.5,0.5-3.8,0.4
			c-10.2-1.4-7.7-3.8-13.7,5.4c-1,1.7-1.9,3.3-2.9,5c-1.6,2.6-2.8,5.3-5,7.5c0-0.7,0.1-1.5,0.3-2.2c-0.3,0.5-0.7,0.9-1.1,1.4
			c-1.5,2.2-4.3,4-3.2,7.3c-0.2,4.7,4.1,5.2,6.9,6.6c2.9,1.5,3.6-2,5-3.6c3.5-4.1,4.9-9.8,10.7-13.8c-2.1,4.2-3.6,7.2-5,10.3
			c-0.9,2-0.8,3.9,1.5,5.1c5.3,2.9,7,2.4,10.2-2.8c1.2-2,2.5-3.8,3.8-5.8c1.3-2.1,2.6-4.2,4.5-7.4c0.6,4.7-2.2,6.2-3.7,8.3
			c-2.6,4.4-0.7,8.1,2.9,10.1c3,1.6,5.1-1.7,7.2-3.6c1.4-1.2,2.6-2.6,3.6-4.1c2.3-3.9,5.4-6.1,10.2-5.7c0.4,3.1-0.8,6.5,0.9,9.6
			c0.7,1.3,1,3.1,3,2.6c5-1.2,10.4-0.9,15.2,0.9c3.3,1.2,6.9-0.5,10-2.2c3.3-1.8,6.4-3.9,9.8-6c2.3,6,6.8,8.6,13.1,8.7
			c6.2,0.1,10.4-3.4,14.6-7.2c4.1,6.8,7.9,8.6,14,5.7c3-1.4,5.5-1.5,8,0.3c3.3,2.2,5.1,1.1,6.9-2.2c3.6-6.9,7.6-13.5,11.4-20.3
			c0.8-1.5,1.4-3,3.4-1.3c1.3,1,3.3-0.3,4.7,1.4c-2.8,4.1-5.6,8.2-8.2,12.3c-3.9,6.1-3.7,6,1.7,10.3c3.4,2.8,5.4,2,7.4-1.5
			c3.2-5.6,7-10.8,10.1-16.5c2.6-4.8,6-7.5,11.7-7C426.9,59.1,430.5,54.6,430,51.5z M265.2,62.8c-2.5,6.5-7.1,11.9-10.7,17.9
			c-1.6,2.7-3.6,0-5.3-0.2c-2-0.3-1.3-2.1-0.7-3.2c1.3-2.7,2.7-5.3,4.2-7.9c1.7-2.9,3.6-5.8,5.4-8.7c-6.7,1.9-11.1,6-14.5,11.2
			c-1.8,2.6-3.5,5.2-5,8c-1.6,2.8-3,2.2-5.5,0.9c-2.9-1.6-1.8-2.8-0.7-4.6c4-6.5,7.9-13,12-19.4c1.8-2.8,5.5-3.2,7.4-0.5
			c1,1.5,1.5,0.4,2.2,0.3c1.6-0.4,3.1-1.2,4.7-1.4C263.6,54.5,266.9,58.2,265.2,62.8L265.2,62.8z M291.7,80.9
			c-3.6-0.1-2.9-2.9-3.3-4.4c0-0.4,0-0.8,0-1.2c-0.8-2.2,2.7-4.7-0.1-6.7c-1.7-1.2-10,2-11.5,3.9c-2.3,2.8-4.7,5.6-7.1,8.3
			c-1.3,1.5-2.8,2.1-4.7,0.5c-1.7-1.5-1.9-3-0.8-4.8c0.7-1.1,1.4-2.3,2.1-3.3c1.6-2.1,3.6-4.1,2.7-7.2c3-0.4,5-2,7-4.2
			c5.2-5.6,10.6-10.9,16.1-16.3c1.7-1.6,3.5-3,5.5-4.2c1.9-1.1,4.3-1,6.2,0c1.5,0.9,0.1,3-0.2,4.5c-2.1,10.2-4.4,20.3-6.2,30.6
			C296.8,80.4,294.7,81,291.7,80.9L291.7,80.9z M344.5,81.2c-8.3,4.3-16.1,0.3-17.4-9.7c-5,3.8-9.4,7.8-14.9,9.8
			c-4,1.4-8.4,2.4-11.6-1.1c-3.1-3.4-1.2-7.5,0.1-11c1.5-4.2,4.2-7.9,6.8-11.5c4.2-6,8.4-11.9,12.4-18c2-3.1,4-2,6.2-0.6
			c2.9,1.9,0.1,3.1-0.7,4.3c-2.7,4-5.6,7.8-8.8,12.3c4.2-0.9,7.4-3.4,11.3-2.4c4.5,1.2,5,4.7,5,9.1c3.7-2.5,6.6-5.4,10.4-7
			c2.2-1.1,4.7-1.7,7.2-1.7c5.8,0.3,9.3,4.6,7.8,10.1C356,71.3,351.7,77.5,344.5,81.2L344.5,81.2z M386,69.4
			c-1.7,3.2-3.5,6.4-5.4,9.5c-0.9,1.4-0.9,4-3.4,3.5c-2.5-0.5-3.7-2.4-3-5.3c-3.4,1.5-5.9,3.9-9.1,4.8c-3,0.9-5.5,0.7-7.8-1.6
			c-2.2-2.2-2-4.7-0.9-7.4c2.8-7,8.1-12.1,13.1-17.3c2-2.1,4.8-0.3,8-0.9c-4.6,7.5-10.8,12.7-14.3,20.7c2.9-0.1,5.6-1.4,7.6-3.5
			c3.6-3.4,7.1-7,10.5-10.6c4.8-5.1,4.8-5.2,12.6-6.2C391.7,60.4,388.4,64.7,386,69.4L386,69.4z M421.7,56.9
			c-4.6-0.6-7.6,1.5-9.9,5.6c-3.5,6.3-7.6,12.4-11.5,18.5c-0.8,1.3-1.9,3.8-3.5,1.5c-1.2-1.7-6.6-1.1-3.3-5.7
			c4.3-6,8.2-12.3,12.4-18.5c-2-1-3.8-0.4-5.6-0.4c-1.8,0-2.2-0.7-2.3-2.3c-0.2-1.6,0.2-2.6,1.9-2.7c0.2,0,0.3-0.1,0.5-0.1
			c8.3,1.5,12.9-3.3,16.5-9.7c0.7-1.5,2.3-2.5,4-2.3c1.1,0.1,2.5-0.4,3.3,0.6c0.9,1.2-0.4,2.1-1,3c-1.3,2.2-2.7,4.4-4.5,7.2h8.7
			C426.8,55.4,425.5,57.3,421.7,56.9L421.7,56.9z"/>
		<path class="st1" d="M265.2,62.8c-2.5,6.5-7.1,11.9-10.7,17.9c-1.6,2.7-3.6,0-5.3-0.2c-2-0.3-1.3-2.1-0.7-3.2
			c1.3-2.7,2.7-5.3,4.2-7.9c1.7-2.9,3.6-5.8,5.4-8.7c-6.7,1.9-11.1,6-14.5,11.2c-1.8,2.6-3.5,5.2-5,8c-1.6,2.8-3,2.2-5.5,0.9
			c-2.9-1.6-1.8-2.8-0.7-4.6c4-6.5,7.9-13,12-19.4c1.8-2.8,5.5-3.2,7.4-0.5c1,1.5,1.5,0.4,2.2,0.3c1.6-0.4,3.1-1.2,4.7-1.4
			C263.6,54.5,266.9,58.2,265.2,62.8z"/>
		<path class="st1" d="M303.7,46c-2.1,10.2-4.4,20.3-6.2,30.6c-0.7,3.8-2.7,4.4-5.8,4.4c-3.6-0.1-2.9-2.9-3.3-4.4c0-0.4,0-0.8,0-1.2
			c-0.8-2.2,2.7-4.7-0.1-6.7c-1.7-1.2-10,2-11.5,3.9c-2.3,2.8-4.7,5.6-7.1,8.3c-1.3,1.5-2.8,2.1-4.7,0.5c-1.7-1.5-1.9-3-0.8-4.8
			c0.7-1.1,1.4-2.3,2.1-3.3c1.6-2.1,3.6-4.1,2.7-7.2c3-0.4,5-2,7-4.2c5.2-5.6,10.6-10.9,16.1-16.3c1.7-1.6,3.5-3,5.5-4.2
			c1.9-1.1,4.3-1,6.2,0C305.3,42.4,304,44.5,303.7,46z"/>
		<path class="st1" d="M393.6,55.1c-1.9,5.3-5.2,9.6-7.6,14.3c-1.7,3.2-3.5,6.4-5.4,9.5c-0.9,1.4-0.9,4-3.4,3.5
			c-2.5-0.5-3.7-2.4-3-5.3c-3.4,1.5-5.9,3.9-9.1,4.8c-3,0.9-5.5,0.7-7.8-1.6c-2.2-2.2-2-4.7-0.9-7.4c2.8-7,8.1-12.1,13.1-17.3
			c2-2.1,4.8-0.3,8-0.9c-4.6,7.5-10.8,12.7-14.3,20.7c2.9-0.1,5.6-1.4,7.6-3.5c3.6-3.4,7.1-7,10.5-10.6
			C385.9,56.2,385.8,56.1,393.6,55.1z"/>
		<path class="st1" d="M427.5,51.8c-0.6,3.7-2,5.6-5.8,5.1c-4.6-0.6-7.6,1.5-9.9,5.6c-3.5,6.3-7.6,12.4-11.5,18.5
			c-0.8,1.3-1.9,3.8-3.5,1.5c-1.2-1.7-6.6-1.1-3.3-5.7c4.3-6,8.2-12.3,12.4-18.5c-2-1-3.8-0.4-5.6-0.4c-1.8,0-2.2-0.7-2.3-2.3
			c-0.2-1.6,0.2-2.6,1.9-2.7c0.2,0,0.3-0.1,0.5-0.1c8.3,1.5,12.9-3.3,16.5-9.7c0.7-1.5,2.3-2.5,4-2.3c1.1,0.1,2.5-0.4,3.3,0.6
			c0.9,1.2-0.4,2.1-1,3c-1.3,2.2-2.7,4.4-4.5,7.2L427.5,51.8z"/>
		<path class="st2" d="M97.7,45.7c-4.2,1.7-8.6,3.2-11.7,8.2l5.9-2.1c-0.9,2.4-2.5,4.5-4.6,6C76.1,66.5,69.8,78.4,65,91.2
			c-2.3,6-4,12.2-5.9,18.4c-3,9.8-9.7,14.8-19.9,16c-8.5,1-17.2,1.4-24.1,7.7c-3,2.7-4.2,6.8-8.7,9.5c3.6-11.2,11.6-16.8,20.6-21.5
			c0.5-0.4,1.1-0.7,1.6-1c1.1-0.5,2.3-0.2,3.3-0.5c-1.6,0-3.3,0.6-5,0.5l-11.8,3.2c-1,0.4-1.1-0.1-1.1-0.9
			c6.5-5.2,14.4-6.5,22.2-7.7c6-0.9,9-4.4,10.4-9.7c2.5-9.4,5.2-18.7,9.1-27.6c4.3-9.7,9.7-18.6,17.6-25.9
			c6.8-6.3,14.9-7.5,23.7-6.8c0.4,0.1,0.6,0.4,0.6,0.8C97.8,45.6,97.8,45.7,97.7,45.7z"/>
		<path class="st1" d="M97.7,45.7c-0.2-0.3-0.4-0.6-0.5-0.9c-0.2-0.8-0.3-1.5-1.3-1.9c-7.9-3.2-15.8-5.8-24.6-5.8
			c0.7,9.7-3.6,16.9-11.8,20.7c-5.3,2.3-11.2,3.3-17,2.7c-1.2,0-2.2-0.9-2.4-2.2c-0.2-1.6,0.8-2.4,2.1-3c2.8-1.3,6-2.3,4.8-6.5
			c6.3-5.3,5.1-12,4.1-19c-0.7-4.5,2.8-7.6,6.8-9.5c3-1.5,6.3-2.2,9.7-2c14.8,1.3,29.1,4.3,42.2,11.9c3.5,2,6.5,4.5,8.4,8.2l0,0.2
			c2.3,6.7-1.8,11.3-5.4,16.1c-4.5,5.8-4.5,5.8,1.9,9c6.9,3.5,14.1,2.8,21.3,1.9c2.6-0.4,5.2-0.6,7.8-0.5c1.4,0.1,2.7,0.1,3.4,1.5
			c0.9,1.9-0.7,2.8-2.1,4c3.6,0.5,6.4-1.3,9.3-2.2c2-0.6,2.3,0.5,2.7,1.8c0.4,1.2,0.8,2-0.9,2.7c-18.3,6.9-36.7,11.2-55.1,0.5
			c-9.5-5.6-11.1-13.6-5.4-23.2C96.4,48.7,97,47.2,97.7,45.7z"/>
		<path class="st3" d="M285.8,101.4c-3.2-3.2-6.9-3.5-11-2c-4.4,1.7-8.4,4.2-11.7,7.5c-1.1-6.3-3-7.6-8.8-6.8
			c-2.3,0.3-4.3,0.8-6.8-0.3c-2.5-1.2-5.5-0.3-7,2.1c-7.1,11.7-14.4,23.3-21.6,35c6.2,2.3,6.4,2.4,9.8-2.9c2.4-3.9,4.7-7.2,10.2-5.7
			c1.4,0.4,3.2-0.6,4.8-1.2c4.8-1.8,9.1-4.7,12.7-8.3c2.9,8.9,10.6,11.8,18.5,7.1c5.8-3.4,9.5-8.6,11.9-14.8
			C287.9,107.7,288.8,104.3,285.8,101.4z M254,109.1c-2.9,6.1-7.1,10.7-13.8,12.6c-1.1,0.3-3.6,0.4-2.5-1.2
			c3.3-5.1,5.2-11.6,11.8-14c0.8-0.3,1.6-0.5,2.4-0.7C253.9,106,254.9,107,254,109.1L254,109.1z M267.3,122.1
			c-2.7,0.5-3.2-0.8-2.9-3c0.5-4.7,8.1-13.4,12.6-14.4c2-0.5,2.8,0.1,2.9,2.1C280.1,111.8,272.4,121.1,267.3,122.1L267.3,122.1z"/>
		<path class="st4" d="M361.8,104.7c-3.1-0.6-6.2-0.3-9.1,0.8c-1,0.4-2.4,0.6-2.6,2c-0.2,1.4,1,2,2,2.5c2.6,1.4,5.3,2.7,7.8,4.3
			c3.7,2.4,4,4.7,0.6,7.5c-7.2,5.9-15.6,6.8-24.4,4.9c-2.2-0.3-3.9-2.2-4-4.5c-0.2-2.9,1.6-4.6,4-5.7c2.3-1.1,4.8-2,7.1-0.3
			c2.4,1.8,0.1,2.1-1.2,2.8c-1,0.5-2.2,1.2-1.8,2.6c0.4,1.7,1.9,0.8,2.9,0.9c0.8,0.1,1.7,0.1,2.5-0.2c2.9-1,7.6-0.8,8-3.8
			c0.4-3.1-4.3-3.3-6.8-4.5c-7-3.3-7.6-5.2-3-11.5c-4.6-0.5-8.2,0-10.7,4.7c-3.5,6.5-7.8,12.7-11.8,19c-0.8,1.3-1.9,4-3.4,1.8
			c-1.2-1.8-6.8-1.2-3.5-5.8c4.4-6.2,8.5-12.5,12.9-19.2l-8.4,0.6c-0.4-3-0.5-6,3.5-5.4c7.5,1,11.5-3.3,14.8-8.9
			c2.1-3.5,4.9-4,8.6-2.1c-2,3.3-4,6.5-5.9,9.5c2.1,2.7,8-2.4,8.1,4.5c4.5-0.8,9.5-2.6,14.8-1.6c1.8,0.4,3.6,0.6,5.1,1.8
			c2.7,2.2,3.4,4.5,0.1,6.7c-1.1,0.8-2.2,1.4-3.5,1.9c-1.9,0.6-4.2,2.1-5.8-0.4C357.1,106.6,360.5,106.2,361.8,104.7z"/>
		<path class="st1" d="M237.6,52.9c-4.3-0.2-8.8-0.7-11.6,4.1c-1.3,2.2-3.5,3.9-5.3,5.8c-1.7,2.8-4.2,4.9-7.2,6.1
			c2-2.4,4.1-4.9,6.1-7.3c1-1.3,2-2.6,2.9-4c2.2-3.1,1.3-4.7-2.4-5.2c-4.5-0.6-8.1,0.4-10.8,4.3c-0.5,0.8-1.5,1.2-2.9,2.3
			c4.2-10.4,1.5-15.7-8.5-18c-8.6-2.1-17.7-1.5-25.9,1.6c-3.5,1.4-6.3,6-4.8,9.8c1.2,3.3,4.1-0.1,6.3,0.4c0.3,0.1,0.6,0.1,1.3,0.3
			c-3.8,6.8-7.5,13.6-11.3,20.4c-4.2,7.6-3.9,8,4.7,10.3c2.6,0.7,3.9,0.2,5-2.2c1.1-2.4,2.6-4.6,3.8-7c1-1.9,1.9-2.3,3.7-0.8
			c4.1,3.4,8.4,6.5,12.4,9.9c2.1,1.8,3.9,3.2,5.3-0.6c0.6-1.7,1.5-1.3,2.6-0.5c3.7,2.8,7.4,2,11.2,0.2c1.3-0.6,2.4-1.6,4.5-0.6
			c6.6,3.3,6.7,3.1,10.6-3.2c0.4-0.5,0.8-0.9,1.3-1.4c-1.1-3.4,1.6-5.1,3.2-7.3c0.4-0.4,0.8-0.9,1.1-1.4c0.7-2.4,2.4-4.3,3.7-6.4
			c1-1.7,2-3.3,3-4.9C240.9,55.3,240.9,53,237.6,52.9z M196.6,81.7c-1.8,2.1-2.9-0.4-4-1.2c-4.1-3-8.3-6.1-12.1-9.5
			c-2.4-2.1-3.5-1.5-4.6,1c-1.2,2.5-2.8,4.9-4,7.4c-0.8,1.6-1.8,2.6-3.9,2.2c-4.9-0.8-5.5-1.9-3.1-6.2c4.6-8.2,9.2-16.4,13.8-24.6
			c-2-1.2-3.5,0-5.1-0.1c-1.3,0-3.2,1.4-3.7-0.9c-0.5-2,0-3.8,2.3-4.8c4.2-1.6,8.6-2.6,13.1-2.8c4.8-0.3,9.6,0.3,14.2,1.7
			c3.6,1,6.4,2.8,6.7,7c0.3,4.1-1.6,7-4.9,9c-4.9,3-10.4,4-17,5.4c3.3,2.6,5.8,4.5,8.3,6.3c1.8,1.2,3.3,2.8,4.5,4.6
			C198.3,77.9,198.1,80.3,196.6,81.7L196.6,81.7z M198.6,71.7c-0.7,1.3-1.3,1.1-2.3,0.3c-2-1.7-4-3.4-6.5-5.5
			c5.2-1.8,10.1-3,14.8-5.3C202.6,64.8,200.6,68.2,198.6,71.7L198.6,71.7z M230.6,68.7c-2,3.6-4,7.2-6.2,10.8
			c-0.8,1.3-0.9,4-3.8,2.6c-2.1-1-4.4-1.7-1.1-5.7c-4.6,2.2-7.2,4.6-10.6,5.6c-2.8,0.8-5.2,0.6-7.3-1.4c-2.2-2.1-2.4-4.6-1.3-7.3
			c2.9-7.1,8-12.5,13.4-17.6c2.1-2,4.6-0.2,7.8-1c-4.6,7.5-10.8,12.8-14.3,20.6c2.7,0.1,5.2-0.9,7.1-2.8c3.7-3.5,7.4-7.1,10.8-10.9
			c3.3-3.6,5.9-8.1,12.3-5.6C236,60.2,233,64.3,230.6,68.7L230.6,68.7z"/>
		<path class="st4" d="M195.2,121.5c7.9-0.1,14.5-1.5,20.6-4.8c1.8-1,3.6-2.6,3.2-4.6c-0.3-1.7-2.7-1.4-4.2-1.9
			c-3.7-1-7.4-1.8-10.9-3.2c-5.4-2.3-6.1-6.9-1.5-10.4c8.2-6.1,17.8-7.5,27.7-7.7c2.5,0,4.6,1.7,5,4.2c0.4,2.4-2,3.6-3.7,4
			c-3.1,0.8-6.7,4.7-9.7-0.8c-0.8-1.5-12.4,2.7-12.9,4.5c-0.4,1.5,0.7,1.6,1.7,1.8c3.4,0.7,6.9,1.2,10.2,2
			c8.8,2.1,10.8,8.2,4.1,14.2c-8.7,7.7-19.4,10.5-30.9,9.3c-2.4-0.2-4.9-1.4-5.5-4.3c-0.6-3,1-5,3.2-6.7c0.9-0.7,1.9-1.4,2.9-1.8
			c1.9-0.7,4.2-2.8,5.8-0.6c1.5,2.3-2.2,2-2.9,3.5C196.7,119.4,196,120.5,195.2,121.5z"/>
		<path class="st4" d="M118,38.6l0-0.2c5.7-1.4,11.7-2.1,15.3-9.1c-3.5,2.5-6.8,2.5-11.4,2.8c2.8-1.5,4.6-2.3,6.1-3.3
			c4-2.8,4.9-6.7,2.7-10.8c-2.1-3.9-5.2-4.7-10.1-3c-1.9,0.7-3.7,1.6-6.1,1.4c-5.6-0.4-5.6-0.1-3-5.4c0.1-0.4,0.2-0.9,0.2-1.4
			c-1.2-1.1-2.9,1.6-3.3-0.3C108,8,109,6.1,110.5,5.1c5.5-3.9,11.7-6.4,18.2-4.5c7.6,2.3,13.4,7.2,15.3,15.5
			c1.9,7.9-1.2,14.3-7.1,18.8C131.5,39.1,125,41.2,118,38.6z"/>
		<path class="st5" d="M122.5,97.4c-7.7,1.6-14.3,4.1-21,6.4c-5.2,1.8-10.5,3.1-16.1,2.9c-7.9-0.2-14.1-6.7-14-14.6
			c0.1-2.5,0.8-4.9,2-7c0.7-1.2,1.4-2.4,3-2.2c1.4,0.1,1.6,1.3,2,2.5c2,5.8,6.1,8.3,12.1,6.7c9.4-2.5,18.4-6.6,28-8.6
			c4.2-0.9,8.4-1.8,12.8-1.2c8.3,1.3,11.7,7.1,8.8,15.1c-1.7,4.5-4.7,8.3-7.1,12.5c-3.6,6.5-7.1,13-8.7,20.4
			c-0.6,2.6-3.5,3.2-5.5,4.3c-3.9,2.2-4.4,4.2-1.4,7.5c2.7,3,6.2,3.6,10,3c-1.1,5.7-2.2,6.5-7.4,5.2c-7-1.7-11.6-8.2-11.4-16.6
			c0.3-11.3,5.3-21,10.5-30.7C120.1,101.3,121.2,99.7,122.5,97.4z"/>
		<path class="st3" d="M303.9,99c1.3,1.9-1.1,2.8,0,4.2c2.4-1.2,4.8-2.1,7.1-3.5c3.4-2.1,5,0,6,2.5c1.1,2.9-2,2.6-3.2,3
			c-10.4,2.8-17.3,9.2-21.3,19c-0.6,1.5-0.9,4.5-4,2.6c-2.2-1.4-4.1-2.4-2.4-5.9c2.9-6.1,6.3-12,9.4-18
			C297.3,99,301.1,100.5,303.9,99z"/>
		<path class="st6" d="M14.2,122.5l1.1,0.9c-5.7,4.2-9.8,9.7-13.2,15.8c-0.2,0.4-0.5,0.4-0.8,0C3,131.8,8.4,127,14.2,122.5z"/>
		<path class="st7" d="M1.2,139.3c0.3,0,0.5-0.1,0.8,0c-1.4,3.2-0.4,6.8-1.4,10.1C0.4,146-1,142.6,1.2,139.3z"/>
		<path class="st8" d="M350.3,53.6c-2.5,0-5,0.6-7.2,1.7c-3.8,1.7-6.7,4.5-10.4,7c0-4.3-0.5-7.9-5-9.1c-3.9-1-7.1,1.5-11.3,2.4
			c3.2-4.5,6.1-8.3,8.8-12.3c0.8-1.2,3.6-2.4,0.7-4.3c-2.2-1.4-4.2-2.5-6.2,0.6c-4,6.1-8.2,12-12.4,18c-2.6,3.7-5.3,7.3-6.8,11.5
			c-1.2,3.6-3.2,7.7-0.1,11c3.3,3.6,7.7,2.6,11.6,1.1c5.5-2,9.9-5.9,14.9-9.8c1.3,9.9,9.1,14,17.4,9.7c7.2-3.7,11.5-9.9,13.6-17.6
			C359.6,58.1,356.1,53.8,350.3,53.6z M324.4,61.6c-0.6,4.5-11.9,14.7-15.9,14.7c-2.3,0.1-2-1-1.7-2.2c1.2-5.1,10.7-13.9,15.7-14.7
			C324.8,59,324.6,60.2,324.4,61.6L324.4,61.6z M350.5,62.3c-0.4,5-6.8,13.1-11.6,14.4c-3,0.8-4.1,0-3.6-3.6
			c2-5.8,6.3-10.6,11.9-13.2C349,59.1,350.8,59.2,350.5,62.3L350.5,62.3z"/>
		<path class="st8" d="M303.7,46c-2.1,10.2-4.4,20.3-6.2,30.6c-0.7,3.8-2.7,4.4-5.8,4.4c-3.6-0.1-2.9-2.9-3.3-4.4c0-0.4,0-0.8,0-1.2
			c-0.8-2.2,2.7-4.7-0.1-6.7c-1.7-1.2-10,2-11.5,3.9c-2.3,2.8-4.7,5.6-7.1,8.3c-1.3,1.5-2.8,2.1-4.7,0.5c-1.7-1.5-1.9-3-0.8-4.8
			c0.7-1.1,1.4-2.3,2.1-3.3c1.6-2.1,3.6-4.1,2.7-7.2c3-0.4,5-2,7-4.2c5.2-5.6,10.6-10.9,16.1-16.3c1.7-1.6,3.5-3,5.5-4.2
			c1.9-1.1,4.3-1,6.2,0C305.3,42.4,304,44.5,303.7,46z"/>
		<path class="st8" d="M393.6,55.1c-1.9,5.3-5.2,9.6-7.6,14.3c-1.7,3.2-3.5,6.4-5.4,9.5c-0.9,1.4-0.9,4-3.4,3.5
			c-2.5-0.5-3.7-2.4-3-5.3c-3.4,1.5-5.9,3.9-9.1,4.8c-3,0.9-5.5,0.7-7.8-1.6c-2.2-2.2-2-4.7-0.9-7.4c2.8-7,8.1-12.1,13.1-17.3
			c2-2.1,4.8-0.3,8-0.9c-4.6,7.5-10.8,12.7-14.3,20.7c2.9-0.1,5.6-1.4,7.6-3.5c3.6-3.4,7.1-7,10.5-10.6
			C385.9,56.2,385.8,56.1,393.6,55.1z"/>
		<path class="st8" d="M265.2,62.8c-2.5,6.5-7.1,11.9-10.7,17.9c-1.6,2.7-3.6,0-5.3-0.2c-2-0.3-1.3-2.1-0.7-3.2
			c1.3-2.7,2.7-5.3,4.2-7.9c1.7-2.9,3.6-5.8,5.4-8.7c-6.7,1.9-11.1,6-14.5,11.2c-1.8,2.6-3.5,5.2-5,8c-1.6,2.8-3,2.2-5.5,0.9
			c-2.9-1.6-1.8-2.8-0.7-4.6c4-6.5,7.9-13,12-19.4c1.8-2.8,5.5-3.2,7.4-0.5c1,1.5,1.5,0.4,2.2,0.3c1.6-0.4,3.1-1.2,4.7-1.4
			C263.6,54.5,266.9,58.2,265.2,62.8z"/>
		<path class="st8" d="M427.5,51.8c-0.6,3.7-2,5.6-5.8,5.1c-4.6-0.6-7.6,1.5-9.9,5.6c-3.5,6.3-7.6,12.4-11.5,18.5
			c-0.8,1.3-1.9,3.8-3.5,1.5c-1.2-1.7-6.6-1.1-3.3-5.7c4.3-6,8.2-12.3,12.4-18.5c-2-1-3.8-0.4-5.6-0.4c-1.8,0-2.2-0.7-2.3-2.3
			c-0.2-1.6,0.2-2.6,1.9-2.7c0.2,0,0.3-0.1,0.5-0.1c8.3,1.5,12.9-3.3,16.5-9.7c0.7-1.5,2.3-2.5,4-2.3c1.1,0.1,2.5-0.4,3.3,0.6
			c0.9,1.2-0.4,2.1-1,3c-1.3,2.2-2.7,4.4-4.5,7.2L427.5,51.8z"/>
		<path class="st9" d="M130.7,70.7c-10.9,1.6-21.4,1.3-31.2-7.4c1.6,4.7,4.8,6,7.6,7.7c2.8,1.7,6.6,1.8,9.4,5.8
			c-7.9-1.8-14.3-4.2-19.1-9.4c-3.8-4.1-3.6-9.8,0-15.7c5.6-9.1,5.6-8.9-4.5-12.7c-6.9-2.6-14.1-3.7-21.2-5
			c-2.4-0.4-3.9-0.6-3.2,3.1c1.6,8.4-3.8,15.9-12,18.3c-3.9,1.2-7.7,3-12.4,2.2c3.2-2.9,7.3-3.9,9.7-7.1c0.7-1,1.3-2.1,1.8-3.2
			c-2.4-0.2-3.6,2.3-6.3,2.1c1.2-1.8,2.5-3.5,3.9-5.1c2.4-2.5,2.3-5.2,1.2-8.2c-3-7.8,0.5-14.5,8.8-14.8
			c17.6-0.7,34.2,3.6,48.8,13.8c4.7,3.3,5.2,8.4,2,13.2c-2.1,3.4-4.5,6.5-7.1,9.6c-2.7,3-0.7,4.2,1.5,5.6c6,3.9,13.1,5.8,20.3,5.5
			C129.3,69.6,131.3,68.7,130.7,70.7z"/>
		<path class="st10" d="M119.6,76.6c8.4-0.4,16.8-1.4,25.1-2.6C136.5,76.4,128.2,78.5,119.6,76.6z"/>
		<path class="st11" d="M130.7,70.7c-0.7-0.6-1.3-1.2-2-1.8c3.4,0.4,6.9-2.8,10.6,0.4C136.3,70.1,133.7,71.2,130.7,70.7z"/>
		<path class="st8" d="M206.2,50.8c-0.3-4.1-3.2-5.9-6.7-7c-4.6-1.5-9.4-2-14.2-1.7c-4.5,0.2-8.9,1.2-13.1,2.8
			c-2.4,1-2.8,2.8-2.3,4.8c0.5,2.3,2.5,0.8,3.7,0.9c1.6,0.1,3.1-1.2,5.1,0.1c-4.6,8.2-9.2,16.4-13.8,24.6c-2.4,4.4-1.8,5.4,3.1,6.2
			c2.1,0.4,3-0.6,3.9-2.2c1.3-2.5,2.8-4.9,4-7.4c1.2-2.5,2.2-3.1,4.6-1c3.8,3.4,7.9,6.5,12.1,9.5c1.1,0.8,2.1,3.3,4,1.2
			c1.5-1.5,1.7-3.8,0.5-5.5c-1.2-1.8-2.8-3.3-4.5-4.6c-2.5-1.9-5-3.8-8.3-6.3c6.6-1.5,12.1-2.5,17-5.4
			C204.6,57.8,206.5,54.9,206.2,50.8z M197,54.2c-4.2,3.5-9.6,4-14.9,5.5c1.1-3.5,3-5.9,4.7-8.5c1.6-2.5,9.7-3.4,11.7-1.3
			C200.3,51.9,198.2,53.2,197,54.2L197,54.2z"/>
		<path class="st8" d="M237.4,55.8c-1.4,4.4-4.4,8.5-6.8,12.9c-2,3.6-4,7.2-6.2,10.8c-0.8,1.3-0.9,4-3.8,2.6c-2.1-1-4.4-1.7-1.1-5.7
			c-4.6,2.2-7.2,4.6-10.6,5.6c-2.8,0.8-5.2,0.6-7.3-1.4c-2.2-2.1-2.4-4.6-1.3-7.3c2.9-7.1,8-12.5,13.4-17.6c2.1-2,4.6-0.2,7.8-1
			c-4.6,7.5-10.8,12.8-14.3,20.6c2.7,0.1,5.2-0.9,7.1-2.8c3.7-3.5,7.4-7.1,10.8-10.9C228.4,57.7,231,53.2,237.4,55.8z"/>
		<path class="st9" d="M111.1,136.3c-0.7-10.2,3.4-19.1,7.8-27.8c2.3-4.5,5.1-8.8,7.9-13.6c-4.5-0.6-8.3,1.3-12.1,2.4
			c-7.2,2-14.3,4.4-21.4,6.6c-2.7,0.7-5.6,0.9-8.4,0.6c-8.9-0.6-13-8.3-9.5-18C80,94.6,85.5,96.6,95.1,93c8.1-3,16.3-5.6,24.7-7.7
			c3.7-0.9,7.5-1.2,11.4-0.8c6.2,0.6,9.2,4.7,7.4,10.6c-0.9,2.7-2.2,5.2-3.7,7.5c-4.6,7.3-8.5,14.9-11.7,22.9
			c-1.1,2.8-1.6,7.4-7.4,6c-3.1-0.7-0.3,3.8-2.6,4.8C112.5,136.9,111.6,136.9,111.1,136.3C111.1,136.3,111.1,136.3,111.1,136.3z"/>
		<path class="st12" d="M111.1,136.3c0.7,0.1,1.3,0.1,2,0.2c0.3,5.9,3.2,8.9,10.8,11.3C117.3,149.1,112.6,144.9,111.1,136.3z"/>
		<path class="st13" d="M322.5,59.3c-5,0.8-14.5,9.6-15.7,14.7c-0.3,1.2-0.6,2.4,1.7,2.2c4,0,15.3-10.2,15.9-14.7
			C324.6,60.2,324.8,59,322.5,59.3z M310.9,72.8c1.1-4.6,4.5-7.8,10.6-10C318.8,67,315.2,70.4,310.9,72.8L310.9,72.8z"/>
		<path class="st0" d="M347.2,60c-5.6,2.6-9.9,7.3-11.9,13.2c-0.4,3.6,0.6,4.4,3.6,3.6c4.8-1.3,11.2-9.4,11.6-14.4
			C350.8,59.2,349,59.1,347.2,60z M337.1,75c1.9-6.4,5.7-10.2,11.5-13.6C346.4,68.1,343.5,72.5,337.1,75L337.1,75z"/>
		<path class="st14" d="M283.9,62.6c3.7-4.3,6.8-7.8,10.2-11.8C293.6,60.5,292.1,62.3,283.9,62.6z"/>
		<path class="st1" d="M198.4,49.9c-2-2.1-10.1-1.2-11.7,1.3c-1.6,2.6-3.6,5-4.7,8.5c5.4-1.5,10.7-2,14.9-5.5
			C198.2,53.2,200.3,51.9,198.4,49.9z M187.1,56.2c0.8-6.2,4.9-5.4,9.6-5C193.8,54.9,190.4,55.1,187.1,56.2L187.1,56.2z"/>
	</g>
</g>
</svg>
